<svg width="1440" height="2007" viewBox="0 0 1440 2007" fill="none" xmlns="http://www.w3.org/2000/svg"><g opacity=".03" clip-rule="evenodd" stroke="#F8F8F8" stroke-width="5"><path d="M1259.93 303.898c25.81-12.262 37.32-66.043 44.81-90.225 14.81-47.819 26.76-95.928 39.29-143.915 12.53-47.988 24.95-96.034 40.91-143.68 10.36-30.935 21.57-66.83 43.46-94.8 46.65-59.595 80.82 43.061 93.31 67.941 31.79 63.285 62.85 138.415 120.91 184.447 34.65 27.478 72.45 27.16 114.88-2.195 13.81-9.525 27.71-25.032 45-25.561 18.46-.567 34.19 10.703 45.82 20.727 42.4 36.575 68.54 89.26 93 137.548 26.44 52.044 49.2 106.423 72.69 159.399 9.96 22.463 29.96 41.407 47.24 59.132 22.65 23.238 46.43 45.544 69.87 68.132 51.5 49.718 105.14 100.686 139.82 162.606 21.71 38.777 35.86 85.667 15.57 133.264-10.18 23.898-32.01 44.164-50.62 63.959-22.46 23.938-45.38 47.559-67.11 72.01-69.95 78.763-130.81 172.853-96.46 262.973 5.2 13.63 13.03 25.74 19.23 38.83 3.94 8.33 4.79 17.01-4.45 25.14-23.15 20.41-76.04 15.35-101.62 15.1-55.98-.55-111.14-4.91-166.75-7.15-36.77-1.49-89.52-9.2-126.04 7.64-32.54 14.99-40.24 61.95-47.64 89.03-6.92 25.36-13.3 68.42-42.84 84.73-14.33 7.91-30.1 5.56-43.3 1.56-23.09-7.03-42.28-18.62-67.05-23.06-40.65-7.27-91.39-5.46-131.93 17.19-28.1 15.7-41.05 38.41-51.52 64.48-4.41 10.96-7.19 19.48-19.41 25.7-19.4 9.88-43.03 13.25-63.59 16.54-73.58 11.78-148.49 14.59-220.53 12.41-36.002-1.08-72.439-3.41-106.246-11.4-22.184-5.22-49.488-13.48-58.134-33.28-10.038-22.91-10.733-51.82-13.069-77.58-4.353-48.12-6.321-96.75-7.804-145.41-3.411-112.55-3.35-225.66.183-339.327 2.541-80.089 4.52-161.588 19.055-242.597 2.891-15.825 7.429-31.613 13.552-47.15 6.347-16.508 5.289-32.793 2.863-48.669-15.054-98.537-74.982-186.064-124.729-268.726-12.622-20.984-25.259-41.96-37.056-63.408-10.142-18.437-25.144-39.165-25.961-61.336-1.627-43.679 65.995-36.626 93.764-33.259 97.774 11.852 189.827 43.177 281.252 69.341 43.52 12.415 87.05 25.077 131.71 35.17 23.23 5.268 63.03 18.478 85.67 7.729z"/><path d="M1271.57 318.402c20.93-27.565 29.86-62.862 39.51-93.218 13.91-43.689 25.87-87.629 38.78-131.443 12.22-41.43 24.69-83.057 41.28-123.904 10.11-24.909 21.78-55.679 44.1-75.72 48.37-43.453 80.35 52.894 91.81 75.007 28.45 54.982 57.43 118.858 109.83 157.459 32.73 24.104 69.1 23.225 108.35-3.657 13.58-9.298 24.17-19.525 41.15-20.867 19.64-1.558 36.57 8.148 49.87 18.087 41.66 31.133 68.38 78.53 92.47 122.193 24.88 45.108 49.37 92.778 66.23 139.827 6.75 18.812 22.97 36.495 36.25 52.006 20.46 23.861 42.06 46.841 63.05 70.28 42.69 47.629 85.35 97.029 112.92 154.497 19.9 41.489 31.39 89.101 16.75 138.29-14.86 49.86-55.12 87.816-91.33 128.618-62.61 70.506-136.73 160.823-118.6 247.293 2.74 13.11 9.12 23.95 13.74 36.17 2.38 6.28 4.46 13.73-1.44 20.25-15.31 16.94-59.46 11.01-77.16 10.35-48.91-1.82-96.98-7.12-145.55-10.29-38.57-2.52-82.6-8-122.33 2.69-48.21 12.97-56.99 80.46-80.36 113.73-40.53 57.69-98.2 11.62-137.32-6.06-44.92-20.31-111.82-23.05-144.54 29.48-12.51 20.09-16.69 39.54-37.44 55.64-32.46 25.19-76.4 38.35-114.97 48.44-57.99 15.14-117.98 24.15-175.887 25.29-41.467.8-107.106.65-119.527-38.93-8.385-26.63-9.734-57.08-11.759-85.9-3.04-43.15-4.036-86.7-4.367-130.33-.862-100.66 2.359-202.13 10.244-303.824 5.39-69.395 58.922-281.072 58.152-294.743-2.31-40.756-21.86-79.136-39.528-113.966-23.498-46.333-51.113-90.443-78.206-134.752-12.88-21.1-26.481-41.998-37.883-63.936-8.114-15.616-18.288-36.35-13.232-55.749 9.861-37.858 73.479-30.763 100.267-28.053 82.11 8.279 160.016 30.962 237.836 49.982 38.2 9.327 76.52 19.021 116.08 25.194 15.96 2.482 49.84 11.601 62.76-5.431z"/><path d="M1294.48 332.342c37.18-65.889 53.63-140.439 78.42-209.757 12.44-34.795 25.45-70.035 43.73-103.593 9.5-17.454 21.6-39.356 40.51-50.752 50.6-30.481 79.9 56.135 92.83 80.103 25.01 46.335 51.81 99.36 98.02 130.337 28.24 18.92 61.15 19.301 94.65-2.472 14.87-9.659 26.81-19.429 44.84-21.083 18.26-1.675 34.61 5.041 48.24 13.216 39.18 23.483 65.76 63.067 88.61 99.51a847.127 847.127 0 0 1 68.38 134.708c16.46 41.077 48.44 74.619 75.21 109.699 35.44 46.475 69.72 94.643 91.54 148.997 17.23 42.93 25.6 90.423 14.05 139.478-11.79 49.876-43.87 91.612-80.2 132.727-54.92 62.152-129.76 142.61-126.68 220.86.44 11.38 3.95 20.53 7.64 30.75 1.79 4.97 4.41 11.23-.56 16.45-12 12.57-49.42 4.56-61.82 3.24-39.58-4.21-78.45-10.66-117.82-15.53-36.76-4.55-75.44-10.14-114.14-5.5-61.64 7.4-68.04 79.41-120 101.91-32.27 13.97-66.22-.7-90.82-13.38-30.27-15.64-58.65-45.29-99.51-41.02-30.44 3.17-39.45 24.88-54.59 45.46-25.65 34.86-71.08 57.78-111.22 74.28-54.23 22.31-112.63 37.27-169.15 42.57-25.62 2.4-52.912 3.43-76.405-2.91-22.016-5.94-31.741-16.78-36.354-36.39-14.106-60.01-10.387-129.05-8.448-193.87 2.44-81.44 8.569-163.517 19.923-245.682 7.746-56.03 16.615-113.77 36.904-169.293 5.29-14.473 11.313-29.577 20.85-42.825 7.154-9.99 14.03-16.034 15.43-27.859 4.15-35.048-16.8-71.23-31.363-99.842-23.274-45.756-50.897-89.194-77.783-132.902-15.715-25.493-50.078-71.28-31.168-106.431 16.333-30.346 68.154-27.365 94.869-25.957 67.565 3.567 132.105 18.673 196.885 30.388 29.69 5.369 59.82 11.285 90.82 12.672 7.91.361 18.79 1.776 27-.964 9.4-3.162 14.09-11.242 18.68-19.343z"/><path d="M1283.22 341.785c32.17-59.858 52.37-123.246 80.23-184.37 12.5-27.406 25.91-55.456 44.73-80.714 10.12-13.584 23.49-29.242 40.94-35.014 50.08-16.566 75.78 53.918 90.68 80.269 22.09 39.177 46.9 84.457 88.45 108.744 27.22 15.911 55.93 13.177 85.96-6.306 32.22-20.903 61.79-21.946 91.57-6.667 37.3 19.165 63.91 52.992 86.33 85.07a642.505 642.505 0 0 1 67.47 123.648c17.41 42.404 43.65 79.078 67.39 118.171 31.48 51.834 60.04 107.172 69.08 168.806 7.86 53.663-1.9 110.066-32 163.059-31.4 55.334-82.23 99.321-121.3 150.639-24.38 32.01-56.08 75.57-54.51 113.22.52 12.56 14.57 29.29-9.45 30.36-13.74.61-27.9-3.67-40.53-6.37-20.42-4.36-40.58-9.31-60.87-13.97-43.24-9.93-87.95-21.31-134.38-22.16-58.47-1.09-80.04 51.54-130.68 70.17-27.25 10.03-54.85 4.68-78.34-3.66-15.21-5.4-29.43-12.44-43.13-20.02-14.32-7.91-27.46-19.05-43.73-24.17-23.16-7.3-39.88 8.46-60.03 21.35a621.448 621.448 0 0 1-112.28 56.73c-47.98 18.41-99.32 32.81-149.02 35.65-19.34 1.12-40.443.93-56.924-6.34-16.48-7.27-21.368-20.51-24.3-36.34-8.733-46.94-4.41-99.91-.365-150.23 5.067-62.99 13.751-126.493 27.573-189.733 9.542-43.653 20.948-88.312 41.276-130.637 5.92-12.313 12.67-24.555 21.22-35.907 5.86-7.79 14.8-14.695 17.93-23.46 9.75-27.407-12.28-62.862-23.05-84.56-21.49-43.304-50.524-82.221-72.316-125.316-11.896-23.519-31.779-59.764-14.877-89.092 15.885-27.576 59.023-29.652 85.733-30.195 52.51-1.078 103.18 6.824 154.35 11.2 21.05 1.791 43.29 4.146 65.23 1.403 19.54-2.459 27.7-17.916 35.94-33.258z"/><path d="M1286.34 351.415c29.67-49.558 51.9-102.934 82.17-153.032 17.73-29.331 47.23-79.352 88.87-82.701 45.75-3.705 69.37 47.268 85.57 75.535 19.29 33.644 42.65 72.813 80.46 91.587 11.95 5.939 25.79 9.279 40.83 6.383 16.09-3.098 26.97-13.103 41.23-20.441 29.89-15.393 60.91-11.751 86.42.372 36.07 17.129 62.75 47.21 85.18 76.925a530.057 530.057 0 0 1 63.26 108.711c15.98 36.893 32.92 72.865 50.2 109.194 22.62 47.495 41.6 97.522 46.72 151.507 5.04 53.185-5 108.412-32.34 160.943-26.69 51.252-67 96.324-109.43 139.142-24.07 24.3-59.14 62.71-62.44 95.22-1.47 14.46 3.88 25.45-18.27 21.23-27.89-5.32-53.92-17.92-79.81-27.09-37.35-13.23-75.49-26.86-115.98-33.67-25.86-4.34-47.81-1.38-73.12 11.66-19.27 9.94-37.21 22.36-57.61 29.94-47.88 17.79-92.81 2.38-134.02-10.54-26.51-8.31-47.86-17.25-78.71-13.43-36.47 4.5-73.08 16.4-109.25 24.95-39.71 9.39-81.42 18.28-120.79 16.52-35.05-1.56-55.807-13.75-60.06-44.6-6.645-48.1 4.49-103.839 15.24-154.377 10.93-51.434 25.6-103.831 49.8-153.575 13.07-26.858 32.11-49.95 47.56-75.606 19.37-32.245-10.16-70.697-23.81-95.383-22.66-40.979-110.89-161.963-10.84-194.019 41.75-13.379 87.15-10.082 128.54-11.524 17.17-.607 38.45.196 55.64-6.196 18.71-6.96 29.85-28.728 38.79-43.635z"/><path d="M1289.5 368.896c28.72-40.716 53.37-84.868 86.58-123.835 21.51-25.257 52.19-54.556 87.86-51.793 40.25 3.12 65.43 39.903 82.52 67.594 17.6 28.533 37.12 63.296 72.5 76.745 11.26 4.274 24.63 5.878 37.74 1.183 12.58-4.499 23.19-13.486 35.95-18.163 28.66-10.507 57.48-7.26 81.83 2.954 72.04 30.211 117.53 104.202 146.89 167.716 14.69 31.794 25.84 66.385 37.6 99.804 15.27 43.365 27.03 88.459 28.55 135.95 3.24 100.968-47.18 193.376-123.54 277.269-24.04 26.4-51.79 51-66.92 81.78-7.82 15.88-17.58 17.81-33.29 12.72-24.54-7.96-46.52-21.41-68.96-32.5-31.91-15.77-64.36-31.95-99.08-42.85-23.93-7.51-45.25-10.8-72.38-2.09-19.35 6.21-37.75 15.54-56.79 22.76-36.17 13.71-74.99 20.66-111.27 17.7-28.77-2.37-56.55-8.24-83.58-15.09-35.18-8.89-69.35-14.34-107.16-15.88-50.06-2.07-138.31 3.45-140.33-55.923-2.21-65.49 30.92-143.429 69.46-204.239 12.94-20.42 30.92-40.643 37.28-62.966 9.49-33.404-1.88-57.423-14.47-85.928-18.83-42.681-70.71-130.436 5.69-167.574 30.27-14.712 63.86-17.272 95.45-25.787 35.39-9.494 52.31-31.776 71.87-59.557z"/><path d="M1293.41 387.464c40.54-45.976 101.3-134.894 173.92-123.148 38.38 6.198 65.07 36.529 84.76 63.243 15.87 21.485 30.56 49.487 61.21 56.946 22.54 5.48 44.24-11.863 67.38-16.583 28.68-5.845 56.26-1.265 80.02 9.121 66.42 29.021 110.52 92.063 139.76 150.796 30.36 61.002 46.39 136.407 45.01 207.895-1.73 89.14-41.73 174.121-106.01 250.625-11.87 14.121-24.41 27.781-36.58 41.701-8.17 9.34-15.03 20.74-24.14 29.36-15.2 14.38-32.87 14.17-49.44 8.31-23.86-8.42-44.53-22.82-65.21-35.48-28.3-17.31-56.53-35.33-87.03-49.468-20.51-9.492-42.4-19.232-68.41-13.847-17.75 3.669-35.1 10.858-51.65 18.811-35.51 17.054-65 29.054-103.71 30.544-63.57 2.39-127.11-10.02-183.42-28.219-44.2-14.28-113.23-37.302-110.75-89.554 2.18-46.863 37.52-90.295 63-132.475 12.39-20.507 22.58-41.793 28.14-63.79 7.01-27.731 5.33-49.939-2.59-75.165-13.32-42.458-38.87-103.911 13.81-143.749 19.45-14.705 42.83-22.527 63.51-35.17 27.37-16.678 47.97-37.511 68.42-60.704z"/><path d="M1301.75 411.667c48.09-41.776 108.33-95.273 174.07-79.908 31.84 7.442 56.55 27.356 77.53 48.004 15.04 14.785 29.73 42.578 56.42 43.43 19.63.611 42.27-8.675 62.71-9.382 28.09-.976 54.3 5.231 77.45 16.089 60.31 28.282 102.46 82.234 131.3 135.953 62.64 116.73 40.7 275.795-55.89 399.441-28.78 36.866-57.51 80.476-109.27 67.126-56.48-14.6-98.45-56.853-145.8-83.704-18.09-10.263-40.32-23.724-64.52-22.813-14.55.543-30.09 7.42-43.7 13.529-34.65 15.54-66.61 27.7-103.74 31.267-57.37 5.523-115.53-1.337-167.08-15.865-44.95-12.672-100.86-34.599-95.15-86.389 4.43-39.728 34.17-77.591 51.86-115.163 19.71-41.823 26.34-85.199 20.66-126.742-5.55-40.399-15.89-82.708 18.68-121.631 11.86-13.351 27.92-29.027 43.11-39.086a662.605 662.605 0 0 0 71.36-54.156z"/><path d="M1312.65 437.824c52.37-33.493 109.98-61.569 168.76-48.021 27.42 6.327 50.77 19.646 72.85 33.834 16.25 10.437 31.2 22.077 51.98 25.809 19.24 3.462 39.75 3.323 59.22 6.246 25.77 3.813 50 11.484 71.74 22.719 54.45 28.193 94.54 74.78 122.95 124.03 13.76 23.836 27.13 50.423 30.57 78.911 3.32 27.511 2.32 56.729-1.32 85.17-7.7 60.448-31.32 120.804-70.83 175.085-27.1 37.226-57.29 64.663-105.32 55.547-54.15-10.279-97.21-46.066-140.71-71.802-29.83-17.652-60.68-38.646-101.77-25.243-32.69 10.662-63.49 21.317-97.2 24.98-49.79 5.268-98.61 1.548-143.57-10.939-41-11.475-80.44-31.833-80.49-75.802-.02-34.846 18.49-70.589 27.68-105.363 10.29-38.777 9.21-75.558 4.98-112.83-3.77-33.513-1.94-67.601 19.3-100.393 4.34-6.706 9.12-13.859 14.56-20.017 6.95-7.856 15.61-11.575 24.93-16.861 24.62-13.925 47.98-29.904 71.69-45.06z"/><path d="M1329.55 464.298c53.09-24.209 107.64-37.098 161.49-27.467 23.04 4.113 44.03 12.091 66.14 18.139 17.81 4.863 34.44 9.555 50.69 17.14 38.5 18.012 82.01 26.906 118.55 48.104 48.83 28.276 86.85 69.088 114.68 114.236 13.59 22.045 25.4 45.866 32.17 71.455 5.81 21.977 3.29 46.824-.1 70.372-6.64 46.148-23.11 95.672-53.01 137.666-65.9 92.587-174.2 22.077-234.42-11.928-27.71-15.636-63.64-42.536-102.15-36.166-27.52 4.546-54.26 12.007-81.89 14.194-74.23 5.87-170.53-7.783-189.09-77.6-7.95-29.872-1.77-63.411-1.55-94.89.23-32.415-5.22-63.2-10.1-94.486-4.56-29.237-3.92-54.552 14.8-83.626 8.94-13.891 24.16-20.193 39.13-28.095 24.59-12.972 49.51-25.566 74.66-37.048z"/><path d="M1347.49 487.103c84.33-27.034 188.42-29.102 259.77 6.277 83.93 41.616 161.72 92.882 210.1 167.011 22.43 34.367 43.31 73.75 38.71 118.296-3.49 33.898-12.62 75.655-38.14 105.409-62.42 72.785-159.76 21.962-215.93-6.66-30.24-15.41-62.92-37.759-99.48-42.902-21.19-2.989-45.41 1.785-67.32 1.628-66.4-.476-129.62-22.927-161.15-73.104-14.58-23.202-21.05-50.433-28.29-76.857-7.41-27.048-16.64-53.619-22.53-81.194-4.7-22.014-8.12-48.949 14.43-68.477 28.42-24.614 75.4-38.383 109.83-49.427z"/><path d="M1371.38 506.573c81.67-19.996 168.97-22.063 237.55 11.234 36.36 17.658 67.4 43.409 97.66 67.918 34.3 27.782 65.21 59.126 89.3 94.658 29.99 44.239 72.25 118.86 17.16 175.246-54.67 55.965-140.56 19.903-190.1-2.011-31.74-14.057-62.48-30.622-95.74-42.679-18.03-6.538-36.76-9.298-56.12-12.9-53.62-9.907-104.16-36.213-139.97-70.411-34.7-33.142-64.34-80.396-77.78-126.293-5.8-19.798-3.63-36.924 16.7-53.3 28.28-22.739 67.6-33.207 101.34-41.462z"/><path d="M1402.6 522.428c72.66-15.881 147.29-11.525 207.82 17.558 67.85 32.599 122.71 89.866 162.99 147.267 21.41 30.514 71.43 94.933 27.21 136.412-44.22 41.48-116.92 15.872-157.49.533-49.18-18.641-98.37-40.541-145.23-63.488-40.73-19.929-83-41.751-118.86-67.216-20.3-14.33-38.82-30.489-55.36-48.285-12.2-13.198-28.88-29.431-32.13-47.754-8.18-46.222 76.3-67.435 111.05-75.027z"/><path d="M1436.01 544.44c139.43-25.437 247.03 51.119 312.9 142.568 15.3 21.252 62.18 78.956 29.82 110.077-31.38 30.167-93.04 10.154-122.15.901-90.2-28.674-169.85-79.058-247.37-125.834-24.2-14.6-73.26-38.389-70.19-72.06 3.37-36.572 68.09-50.371 96.99-55.652z"/><path d="M1474.9 567.284c104.63-14.3 194.24 45.078 245.53 114.297 12.56 16.955 46.9 58.871 27.53 85.295-17.92 24.449-66.21 8.916-85.07 3.48-42-12.097-80.78-31.604-118.43-51.191-34.82-18.104-70.33-36.254-102.37-57.469-16.86-11.176-51.06-30.932-43.62-56.145 7.99-27.139 53.19-35.091 76.43-38.267zM909.857-295.45c58.466-28.447 108.183-83.219 173.743-98.536 53.85-12.583 81.24 38.637 117.52 60.04 28.81 17.009 66.5 16.635 102.61 16.181 32.43-.397 65.12-2.43 97.39-1.96 20.87.315 60.94-1.137 69.53 16.784 8.22 17.156-11.08 45.506-22.19 62.941-14.48 22.731-30.96 44.593-45.93 67.094-25.26 37.933-39.61 75.94-50.94 117.06a2966.01 2966.01 0 0 0-35.08 140.717c-7.79 34.645-15.37 69.398-25.48 103.931-6.34 21.663-16 67.433-40.14 78.972-11.52 5.506-28.31 2.405-40.24.599-20.19-3.052-39.67-8.187-58.87-13.506-35.75-9.903-70.73-21.302-105.9-32.308-45.65-14.288-90.189-27.498-138.687-36.124-50.187-8.897-101.111-15.997-151.724-23.878-34.286-5.334-71.821-9.117-99.32-27.132-34.401-22.584-24.534-59.036-38.526-91.653-12.032-28.06 66.657-62.57 86.73-76.292 20.33-13.858 37.267-31.297 57.878-44.66 25.73-16.676 53.734-29.902 81.012-43.853 33.369-17.056 65.412-32.665 65.117-68.881-.179-20.606-6.769-39.89-10.154-59.713-2.189-12.845-6.82-36.836 11.651-45.823z"/><path d="M926.223-286.568c48.017-26.11 103.537-73.093 161.597-80.647 49.62-6.46 74.43 34.636 110.18 53.352 29.5 15.458 65.08 11.785 100.7 9.699 28.57-1.673 57.25-3.751 85.62-3.741 20.91.007 55.64-1.296 66.66 13.979 9.91 13.733-8.76 42.235-18.16 56.975-13.72 21.51-29.88 41.989-45.45 62.614-27.34 36.236-50.88 71.238-64.77 111.987-13.96 40.928-20.07 81.4-26.84 122.583-5.3 32.22-11.12 64.533-19.44 96.692-6.2 23.952-12.92 57.363-34.1 76.947-16.75 15.498-63.19-1.32-78.76-5.395-32.04-8.401-63.14-18.64-94.12-28.98-37.76-12.611-72.519-27.602-112.75-35.501-71.935-14.14-154.382-15.466-217.317-47.588-37.959-19.374-59.257-50.782-70.642-86.827-4.509-14.273 17.103-28.37 29.791-36.401 21.078-13.346 43.631-24.38 65.087-37.11 20.085-11.918 38.025-25.847 56.994-39.192 19.22-13.517 40.124-24.602 59.917-37.207 12.29-7.822 26.721-16.627 33.95-28.964 7.486-12.768 6.488-27.556 5.095-40.237-2.677-23.785-27.127-78.61 6.758-97.038z"/><path d="M954.407-278.53c43.099-26.208 96.443-59.611 146.943-59.135 41.28.383 63.98 31.931 97.15 46.489 27.58 12.111 60.4 6.152 92.23 3.637 26.11-2.059 52.33-4.12 78.14-3.874 19.58.187 45.89-.082 58.3 12.726 10.61 10.952-4.43 36.031-11.96 48.409-12.84 21.084-28.9 40.901-44.72 60.521-25.88 32.1-54.6 63.942-71.23 100.131-16.13 35.148-19.67 69.554-24.9 105.371-4.01 27.436-8.59 54.981-15.7 82.396-5.45 21.047-11.54 46.818-28.29 64.323-14.43 15.114-42.86 7.098-59.06 4.029-26.73-5.074-52.5-12.545-78.23-19.754-27.77-7.784-54.79-18.162-82.81-25.153-58.957-14.688-119.482-20.11-171.835-47.762-33.911-17.906-70.093-46.443-81.1-81.281-7.91-25.057 56.178-53.296 75.431-65.112 31.472-19.34 63.085-42.98 88.531-68.885 21.795-22.219 19.52-49.6 15.876-74.058-2.275-15.325-6.53-30.506-6.6-46.33-.075-18.321 5.769-25.703 23.834-36.688z"/><path d="M982.607-272.005c36.983-20.927 82.523-41.543 123.953-38.095 36.29 3.03 56.93 29.106 89.01 39.465 25.03 8.089 56.92.895 84.37-1.329 33.55-2.724 93.42-12.58 116.22 9.624 21.21 20.659-31.55 77.495-46.72 95.718-24.01 28.845-52 56.689-72.33 87.54-17.51 26.563-21.94 53.213-26.82 81.582-6.25 36.186-9.65 88.259-38.92 119.797-21.81 23.503-77.05 6.389-100.84 2.863-24.86-3.699-51.91-2.57-76.27-6.996-38.435-6.986-76.806-29.55-107.009-48.875-29.374-18.782-64.156-44.754-76.434-75.956-8.074-20.504 27.606-41.904 43.973-54.784 23.245-18.357 42.905-37.477 52.842-63.366 10.118-26.352 9.334-51.436 7.021-77.105-1.215-13.164-3.962-27.539-.8-41.313 3.366-15.158 14.541-20.723 28.754-28.77z"/><path d="M1013.27-262.297c33.13-15.383 71.15-25.664 104.83-18.984 28.06 5.563 45.82 26.565 74.06 31.241 22.36 3.708 49.13-1.638 72.55-3.131 28.7-1.849 77.42-8.293 96.43 11.724 18.53 19.546-19.46 62.408-34.15 80.151-21.55 26.001-45.84 50.265-67.26 76.35-16.81 20.448-25.01 39.643-31.37 63.055-7.46 27.488-13.23 63.651-35.35 86.856-16.02 16.769-55.11 12.796-75.13 14.094-13.44.88-26.9 2.228-40.32 5.803-10.45 2.784-19.49 6.82-30.04 5.61-26.55-3.06-41.66-30.034-56.951-45.967-20.301-21.163-42.53-43.294-56.19-69.008-8.415-15.795 6.04-32.671 14.688-48.012 10.226-18.13 14.21-38.863 19.594-57.868 7.131-25.092 7.884-49.104 8.565-73.899.31-11.186-.163-23.93 5.319-35.061 5.659-11.592 18.765-17.4 30.725-22.954z"/><path d="M1042.06-250.457c29.19-9.82 60.15-12.214 87.24-4.409 20.79 5.971 36.88 19.324 59.58 21.29 21.15 1.829 43.33-.391 64.91-.811 22.82-.435 60.27-2.748 74.08 14.498 14.89 18.589-10.12 50.06-23.98 67.493-17.52 22.028-37.96 42.113-56.78 63.295-14 15.87-25.59 33.164-34.37 51.308-9.29 19.064-16.05 42.177-33.46 57.799-15.43 13.826-41.45 13.761-60.3 20.454-20.14 7.149-38.94 20.054-60.18 17.17-43.82-5.946-61.693-64.175-76.262-95.416-14.409-30.811-4.476-65.7 4.368-100.273 5.836-22.834 9.357-45.412 14.114-68.244 4.86-23.282 15.36-35.511 41.04-44.154z"/><path d="M1066.57-238.37c44.42-9.344 78.9 10.493 118.66 17.567 32.55 5.782 89.83-5.342 109.55 20.897 22.39 29.792-37.14 81.915-58.39 105.927-23.58 26.637-37.29 60.783-64.04 84.88-14.04 12.656-31.08 15.468-48.48 20.426-19.1 5.449-38.29 11.813-57.07 8.442-36.95-6.64-53.79-45.622-66.84-73.264-13.51-28.614-5.404-63.358 3.78-95.536 9.71-34.114 17.28-79.744 62.83-89.339z"/><path d="M1084.51-227.549c33.38-2.693 66.62 9.014 96.67 17.061 25.06 6.726 69.22 5.879 82.1 28.045 15.16 26.047-16.96 61.253-36.39 83.442-19.09 21.82-37.44 48.962-60.92 67.118-24.47 18.92-68.21 19.737-94.28 13.151-29.06-7.347-49.46-32.13-59.32-56.99-10.36-26.018-2.94-57.843 6.93-85.876 10.55-29.968 26.44-62.848 65.21-65.951zM548.848 1406.46c-59.838-33.73-116.087-77.21-171.394-117.15-80.818-58.37-160.921-118.5-231.832-186.42-38.014-36.41-89.941-82.34-96.78-137.375-2.501-20.12 6.28-43.669 9.635-64.339 4.624-28.504 8.404-56.997 12.232-85.468 7.657-57.101 14.981-114.212 24.71-171.369 4.689-27.523 13.255-56.118 15.526-83.546 1.332-16.03-8.609-29.791-15.028-43.233-14.876-31.136-30.657-61.822-46.151-92.644-18.947-37.702-38.061-75.431-54.224-114.495-7.285-17.621-29.733-58.612-15.897-76.702 7.453-9.736 30.316-5.792 40.9-3.957 19.445 3.363 38.096 8.968 56.543 14.479 42.659 12.746 84.593 27.867 129.525 35.9 23.096 4.123 51.795 10.258 72.341-9.178 20.754-19.626 35.617-43.71 56.084-63.762 23.551-23.081 50.79-40.866 78.329-59.482 20.352-13.765 36.182-30.985 53.01-48.09 18.601-18.901 37.259-38.194 58.206-55.094C538.418 33.37 563.622 14 579.38 22.9c22.4 12.642 26.869 53.99 32.349 77.828 7.582 32.939 13.51 66.39 20.505 99.506 5.069 24.045 9.734 48.372 18.968 70.9 14.886 36.316 33.632 70.961 52.081 105.488 34.161 63.933 69.927 126.538 99.093 193.089 25.552 58.306 3.614 231.114 3.176 269.356-.878 76.334.459 153.647-11.309 231.023-3.192 20.94-5.984 52.16-23.375 70.56-10.712 11.35-19.285 12.48-22.259 28.76-4.056 22.2.907 45.88 3.957 66.92 4.915 33.88 11.194 67.4 16.947 101.06 11.677 68.05 21.199 136.61 31.436 205.03 3.095 20.68 11.733 43.41 10.682 65.01-.656 13.91-8.22 16.05-20.555 11.32-21.645-8.3-39.343-25.87-55.789-39.96-24.094-20.64-47.033-42.35-69.819-64.15-22.786-21.8-45.293-43.9-68.107-65.7-15.048-14.41-29.837-31.96-48.513-42.48z"/><path d="M538.263 1360.31c-61.218-36.65-117.438-82.86-171.982-127.24-69.83-56.78-138.058-116.35-195.665-183.69-33.813-39.54-72.674-86.686-77.584-141.022-1.75-19.386 5.334-37.813 10.134-57.391 5.487-22.324 9.638-44.779 13.607-67.149a3424.715 3424.715 0 0 0 21.614-138.121c3.352-24.404 9.818-52.572 4.488-75.856-4.235-18.514-17.354-35.639-26.192-52.079-15.916-29.609-31.904-59.176-47.522-88.94-18.019-34.346-35.892-68.882-51.09-104.644-8.472-19.933-27.016-52.27-17.775-73.526 8.064-18.545 76.144 3.175 88.802 6.672 39.526 10.924 78.23 23.761 119.012 32.052 24.061 4.918 53.333 10.919 79.894 5.276 22.634-4.814 41.928-25.123 58.483-39.541 20.74-18.05 42.933-35.179 62.685-54.109 17.601-16.862 31.093-36.873 45.567-55.683 15.923-20.691 32.125-41.68 51.169-60.435 11.728-11.52 31.41-30.712 49.008-27.046 20.299 4.25 25.758 44.195 29.928 59.709 8.402 31.5 14.525 63.798 21.355 95.794 11.35 53.14 22.951 103.436 46.663 151.835 30.889 63.025 65.413 124.265 97.113 186.892 11.721 23.121 24.939 45.993 33.921 70.424 5.144 14.008 4.694 26.727-3.103 39.946-10.638 18.047-8.232 46.966-9.462 68.443-1.909 33.484-2.709 66.856-3.708 100.231-2.207 73.273-2.879 147.214-14.788 221.318-3.764 23.44-7.725 50.12-21.13 72.46-7.474 12.45-18.624 15.44-28.038 25.32-12.365 13.05-10.493 35.94-10.234 50.02.49 27.2 4.513 53.85 8.858 80.13 9.836 59.48 24.335 116.91 41.489 173.98 4.033 13.37 20.631 65.67-16.119 51.38-40.609-15.79-72.603-51.12-103.266-77.77-27.595-24.02-54.217-48.53-86.132-67.64z"/><path d="M512.073 1281.98c-55.294-35.52-104.632-80.46-152.216-124.34-57.742-53.25-113.117-109.62-158.001-172.83-28.187-39.713-56.276-84.901-60.535-135.503-2.914-34.554 14.406-70.483 21.802-105.512 7.397-35.029 13.173-70.573 15.645-105.545 1.534-21.705 2.558-44.759-7.136-63.551-23.563-45.695-51.16-89.427-75.206-134.956-15.93-30.108-31.487-60.468-44.632-92-7.932-19.012-20.645-44.277-16.051-66.569 5.085-24.644 160.613 20.745 177.341 24.081 41.944 8.363 96.424 16.756 139.591-8.963 41.265-24.588 65.303-58.391 89.864-95.39 13.983-21.018 48.531-83.581 79.784-81.103 17.862 1.411 24.661 30.544 29.267 43.736 9.08 26 15.892 52.897 23.251 79.546 10.762 38.841 19.136 80.012 32.808 117.675 9.525 26.224 22.932 50.805 34.153 76.284 16.086 36.536 31.779 73.257 47.411 110.006 13.123 30.858 27.024 61.662 36.896 93.919 6.16 20.043 7.597 36.777-.238 56.913-6.814 17.519-6 38.736-7.009 57.457-1.661 30.919-2.256 61.732-3.076 92.551-1.722 64.53-2.658 129.419-11.584 194.604-4.067 29.75-6.916 77.9-38.935 99.49-11.545 7.78-16.273 11.73-18.904 25.14-3.731 19.02-.727 38.28 2.391 56.19 7.267 41.75 25.522 79.63 32.868 121.27 2.947 16.97 3.618 40.63-22.409 31.9-30.419-10.16-55.193-34.12-79.142-52.16-11.951-9.01-23.64-18.59-36.789-26.3-10.119-5.91-21.44-9.72-31.209-16.04z"/><path d="M479.788 1180.45c-47.411-34.55-89.296-76.58-128.862-118.59-43.921-46.68-85.091-96.273-117.334-150.974-22.28-37.763-42.36-79.72-44.835-125.372-1.562-28.872 10.485-54.606 17.447-83.355 10.542-43.405 14.849-87.03-6.667-123.111a2266.098 2266.098 0 0 1-68.549-123.654c-13.026-25.322-25.695-50.932-36.022-77.56-6.537-16.832-14.682-38.647-11.997-57.225 3.603-24.862 126.719 4.299 143.996 7.027 42.847 6.765 84.712 6.81 129.872-2.891 36.849-7.922 56.153-36.193 73.963-64.371 11.057-17.509 35.66-68.859 60.354-68.009 13.605.438 21.212 19.379 26.175 29.139 9.452 18.605 16.742 38.325 24.626 57.667 11.61 28.575 29.98 56.167 38.054 86.116 17.904 66.367 36.982 131.993 57.972 197.373 11.574 36.039 23.558 72.137 31.747 109.395 2.939 13.376 5.91 27.223 5.507 41.396-.254 9.115-4.472 16.001-6.637 24.611-10.286 41.03-5.176 85.877-5.384 126.74-.275 54.324-.135 108.742-4.555 163.568-2.326 28.84-2.5 67.68-20.889 95.41-5.555 8.38-12.57 9.22-18.608 15.69-6.968 7.45-4.888 19.16-4.275 27.06 1.385 17.94 21.545 86.28-22.997 71.36-21.227-7.14-38.779-20.69-57.586-31.14-6.811-3.78-13.581-7.41-21.462-9.53-13.207-3.53-22.21-8.89-33.054-16.77z"/><path d="M446.05 1072.06c-84.067-72.677-161.347-167.838-200.085-271.946-12.875-34.624-22.415-73.905-13.446-113.379 5.311-23.287 13.798-43.89 9.369-66.783-3.199-16.525-14.062-30.833-22.03-45.223-11.545-20.842-22.883-41.796-33.889-62.929-13.615-26.212-26.868-52.702-38.016-80.135-7.962-19.604-20.269-46.059-15.151-68.745 6.095-27.079 98.37-8.815 113.972-7.476 37.816 3.245 72.409 1.721 110.713-10.957 11.166-3.68 23.945-4.408 34.376-9.995 10.647-5.719 17.906-15.878 24.217-25.075 8.279-12.038 24.663-48.007 41.311-47.738 9.195.152 16.25 13.625 21.017 20.087 8.961 12.113 16.607 25.081 24.982 37.568 14.23 21.177 37.644 37.84 47.428 61.205 26.329 62.822 30.832 136.99 44.86 204.088 8.315 39.902 17.442 79.718 22.868 120.445 1.715 12.887 3.465 26.168 2.662 39.561-.559 9.346-5.319 17.418-6.583 26.426-4.873 34.552-1.464 70.05-.046 104.026 1.813 44.122 4.12 88.164 4.88 132.465.479 27.77 5.031 61.63-4.186 90.08-6.729 20.79-15.034 12.65-30.643 10.69-7.962-1.01-13.71 2.79-21.521 4.4-11.151 2.3-21.434-1.19-30.795-4.6-12.927-4.69-25.563-13.09-39.812-15.19-5.019-.75-9.795 1.64-14.098 1.15-12.532-1.41-24.447-15.18-32.354-22.02z"/><path d="M418.057 965.993C357.729 903.272 305.395 826.534 277.6 743.329c-9.667-28.951-16.091-59.631-14.64-91.513.642-14.497 3.237-26.372-2.068-39.433-12.315-30.304-28.284-59.005-42.074-88.609-9.87-21.184-19.477-42.621-26.773-64.955-4.882-14.931-11.698-35.022-6.307-51.667 7.868-24.204 73.406-17.986 90.535-18.501 28.402-.861 59.435-3.058 85.249-20.141 7.892-5.228 14.375-10.963 22.859-15.3 7.278-3.754 14.449-6.19 20.565-11.699 7.586-6.824 15.928-25.236 25.813-24.899 6.747.224 10.665 8.454 14.865 13.179 6.81 7.665 14.42 14.697 22.752 21.025 8.797 6.651 19.67 10.723 27.76 18.093 13.121 11.971 21.113 28.517 28.012 44.338 27.525 63.129 40.579 134.022 51.9 202.837 5.898 35.834 11.335 72.097 12.635 109.005.392 11.209 1.32 23.684-1.961 35.243-2.037 7.209-5.897 13.26-6.557 20.672-5.626 63.305 9.587 126.288 13.007 189.079.889 16.344 8.365 105.727-34.016 77.077-25.751-17.41-43.914-40.05-74.255-52.717-9.229-3.865-16.39-5.968-27.09-4.145-7.114 1.232-2.048 3.932-11.261 1.168-11.103-3.387-21.463-18.167-28.493-25.473z"/><path d="M399.661 879.89c-60.995-77.982-103.105-171.13-122.775-270.214-4.964-24.975-16.481-47.984-25.268-71.498-8.555-22.839-28.429-61.254-14.951-87.095 9.768-18.736 47.035-20.898 65.644-24.332 23.707-4.376 47.806-9.789 64.405-28.695 9.722-11.073 17.986-23.869 27.422-35.28 4.505-5.454 10.77-15.268 17.227-15.438 10.658-.27 22.478 16.342 30.602 23.28 25.965 22.177 42.634 50.748 55.896 81.27 24.503 56.372 40.062 117.297 51.729 178.406 5.366 28.115 10.502 56.766 11.211 85.98.405 16.53-6.057 31.899-6.742 48.187-2.221 52.453 6.685 103.501 6.576 155.846-.035 15.152 2.085 70.692-29.999 57.287-31.061-12.98-43.181-47.505-73.393-61.98-3.446-1.626-7.617-3.68-11.964-3.519-2.595.107-6.053 3.69-7.607 3.574-16.744-.937-30.275-25.879-38.013-35.779z"/><path d="M389.134 815.57c-27.365-41.858-49.546-87.355-70.243-133.267-11.314-25.096-25.39-51.895-28.535-80.174-1.921-17.377-4.207-33.958-8.079-50.981-4.165-18.318-13.7-46.481-.816-64.881 9.628-13.747 38.611-21.043 54.517-28.182 17.441-7.837 28.982-16.824 36.911-32.819 4.996-10.063 20.447-52.716 30.1-53.161 9.193-.427 19.35 19.462 25.247 27.354 18.663 24.933 33.311 52.202 45.424 80.792 18.769 44.274 32.749 90.997 42.481 138.687 4.004 19.727 8.134 40.117 7.943 60.847-.135 13.964-5.12 27.898-5.463 41.867-1.006 40.017 3.75 79.596 2.512 119.858-.407 12.926 1.271 53.631-23.006 55.091-20.265 1.228-35.77-19.698-52.37-25.76-28.291-10.288-41.59-32.265-56.623-55.271z"/><path d="M386.52 782.207c-20.726-33.663-39.033-69.472-55.148-105.939-10.4-23.534-21.685-48.215-25.461-74.331-1.9-13.117 1.141-26.72 1.648-40.217.514-13.895-.222-32.39 10.191-43.185 9.787-10.143 27.759-16.516 40.219-27.241 11.053-9.524 15.558-20.705 20.543-32.81 3.194-7.72 15.195-45.3 21.75-44.686 7.023.659 13.542 16.779 17.942 24.693a572.717 572.717 0 0 1 32.12 67.585c12.532 31.749 23.111 64.704 29.293 98.784 4.392 24.172-.67 46.341-.765 70.847-.154 31.763 2.55 63.321 1.189 95.347-.677 15.959-.448 39.001-13.961 53.36-5.175 5.511-20.097 15.511-27.638 15.626-9.063.14-17.843-11.064-22.418-16.151-11.439-12.753-20.695-27.374-29.504-41.682z"/><path d="M383.834 742.77c-25.799-42.127-53.24-90.527-60.784-141.399-3.054-20.556 3.616-45.59 20.306-62.4 8.624-8.699 20.535-15.294 28.006-25.745 5.52-7.731 9.816-16.288 13.689-24.556 2.191-4.662 12.968-32.995 18.035-30.889 5.347 2.225 8.386 12.42 11.363 18.959 7.133 15.665 13.343 31.839 18.797 48.233 6.265 18.849 12.231 38.354 14.107 58.608 1.486 16.352-2.785 33.894-2.64 50.429.263 43.524 4.761 87.405-3.44 132.236-1.741 9.535-2.824 27.283-17.727 23.812-18.561-4.309-31.749-34.268-39.712-47.288z"/><path d="M377.573 698.335c-18.291-30.023-35.861-64.609-41.186-100.879-2.7-18.366.175-37.234 14.954-52.732 10.526-11.067 24.154-19.124 33.368-31.815 3.247-4.486 11.425-19.206 16.021-16.005 9.866 6.837 12.618 31.153 15.415 45.756 4.181 21.993-1.224 44.535-.459 66.955 1.179 34.387 11.113 73.991 3.048 109.625-7.835 34.371-35.821-12.147-41.161-20.905z"/></g></svg>