<svg width="433" height="450" viewBox="0 0 433 450" fill="none" xmlns="http://www.w3.org/2000/svg"><g clip-path="url(#a)"><path opacity=".4" d="M267.318 355.905l-54.03-31.191c-3.898-2.246-3.406-6.181 1.096-8.77l35.002-20.213 68.166 39.293-35.002 20.213c-4.493 2.636-11.296 2.914-15.232.668z" fill="#D6D8E5"/><path d="M271.3 353.585l-54.03-31.191c-3.898-2.246-3.406-6.181 1.096-8.77l35.029-20.213 68.13 39.33-35.002 20.213c-4.521 2.599-11.324 2.877-15.223.631z" fill="#B1B4C4"/><path d="M321.506 332.751v-2.07l-3.147 1.819 3.147.251zm-106.862-14.079v-2.088l3.23 1.337-3.23.751z" fill="#B1B4C4"/><path d="M271.3 351.516l-54.03-31.182c-3.898-2.256-3.406-6.181 1.096-8.78l35.029-20.203 68.13 39.33-35.002 20.204c-4.521 2.598-11.324 2.886-15.223.631z" fill="#D6D8E5"/><path d="M253.553 291.443l-8.437-27.971 68.881 39.498 7.509 27.711-67.953-39.238z" fill="#9EA1AF"/><path d="M319.501 331.832l1.996-1.151-2.961-2.366.965 3.517z" fill="#9EA1AF"/><path d="M251.372 292.492l-8.428-27.971 68.881 39.507 7.676 27.804-68.129-39.34z" fill="#B1B4C4"/><path d="M426.224 378.977L159.648 225.07c-3.712-2.153-6.775-7.954-6.775-12.937V5.93c0-4.983 3.035-7.276 6.775-5.113l266.576 153.907c3.713 2.153 6.776 7.944 6.776 12.927v206.212c0 4.984-3.035 7.276-6.776 5.114z" fill="#C4C7D6"/><path d="M427.598 381.102l2.952-1.698-1.272-8.761-1.68 10.459z" fill="#C4C7D6"/><path d="M152.362 2.079l2.905-1.67 4.177 2.375s-4.446.678-4.557.66c-.112-.02-2.525-1.365-2.525-1.365z" fill="#B1B4C4"/><path d="M423.783 380.387L157.161 226.443c-3.713-2.153-6.767-7.944-6.767-12.937V7.341c0-4.984 3.036-7.276 6.767-5.114l266.622 153.907c3.713 2.153 6.767 7.944 6.767 12.937v206.203c0 4.983-3.026 7.276-6.767 5.113z" fill="#E4E7F2"/><path d="M423.31 380.656L156.697 226.749c-3.713-2.162-6.776-7.953-6.776-12.937V7.61c0-4.984 3.035-7.276 6.776-5.114L423.31 156.404c3.712 2.153 6.775 7.944 6.775 12.927v206.212c0 4.956-3.035 7.276-6.775 5.113z" fill="#D6D8E5"/><path d="M426.419 368.119l-273.11-157.657.139-202.026c0-2.07 1.457-2.905 3.249-1.856L423.31 160.468a7.197 7.197 0 0 1 3.248 5.624l-.139 202.027z" fill="#fff"/><path d="M191.857 73.362l-24.783-14.329a3.4 3.4 0 0 1-1.411-2.7V28.175c0-1.04.631-1.513 1.411-1.068l24.783 14.339a3.359 3.359 0 0 1 1.41 2.69v28.158c0 1.02-.631 1.522-1.41 1.067zm34.417 19.869l-24.857-14.347a3.399 3.399 0 0 1-1.411-2.7v-28.14c0-1.04.631-1.513 1.411-1.067l24.829 14.338a3.358 3.358 0 0 1 1.439 2.72v28.128c0 1.04-.632 1.569-1.411 1.067zm33.619 19.387L235.017 98.28a3.36 3.36 0 0 1-1.41-2.691V67.432c0-1.04.631-1.522 1.41-1.067l24.876 14.375a3.36 3.36 0 0 1 1.411 2.691v28.12c-.047 1.04-.678 1.513-1.411 1.067zm-68.036.483l-24.783-14.33a3.399 3.399 0 0 1-1.411-2.7V67.914c0-1.039.631-1.512 1.411-1.067l24.783 14.33a3.4 3.4 0 0 1 1.41 2.7v28.157c0 1.039-.631 1.522-1.41 1.067zm34.417 19.869l-24.857-14.329a3.395 3.395 0 0 1-1.411-2.7V87.784c0-1.04.631-1.513 1.411-1.067l24.829 14.329a3.395 3.395 0 0 1 1.411 2.7v28.157c.028 1.04-.604 1.522-1.383 1.067z" fill="#E9EAF2"/><path d="M229.662 131.105l-24.829-14.338a3.362 3.362 0 0 1-1.411-2.692V85.918c0-1.039.631-1.522 1.411-1.067l24.829 14.33a3.397 3.397 0 0 1 1.411 2.7v28.157c.046 1.039-.632 1.513-1.411 1.067z" fill="#6A9A9A"/><path d="M259.893 152.348l-24.876-14.329a3.362 3.362 0 0 1-1.41-2.691v-28.167c0-1.03.631-1.512 1.41-1.058l24.876 14.33a3.354 3.354 0 0 1 1.411 2.691v28.147c-.047 1.049-.678 1.532-1.411 1.077zm-68.036 1.327l-24.783-14.329a3.354 3.354 0 0 1-1.411-2.691v-28.166c0-1.031.631-1.513 1.411-1.058l24.783 14.329a3.354 3.354 0 0 1 1.41 2.691v28.166c0 1.03-.631 1.513-1.41 1.058zm68.036 61.966l-92.819-53.576a3.407 3.407 0 0 1-1.411-2.701v-6.496c0-1.04.631-1.522 1.411-1.068l92.819 53.586a3.354 3.354 0 0 1 1.411 2.691v6.496c-.047 1.04-.678 1.522-1.411 1.068zm-23.882 1.522l-68.566-39.544a3.371 3.371 0 0 1-1.411-2.692v-3.239c0-1.039.632-1.522 1.411-1.067l68.566 39.572a3.395 3.395 0 0 1 1.41 2.701v3.22c0 1.049-.631 1.531-1.41 1.049zm0 12.25l-68.566-39.581a3.362 3.362 0 0 1-1.411-2.692v-3.22c0-1.039.632-1.513 1.411-1.067l68.566 39.572a3.395 3.395 0 0 1 1.41 2.7v3.221c0 1.039-.631 1.512-1.41 1.067z" fill="#E9EAF2"/><path d="M223.072 234.165l-55.627-32.12a3.362 3.362 0 0 1-1.411-2.692v-3.22c0-1.039.632-1.513 1.411-1.067l55.627 32.11a3.407 3.407 0 0 1 1.41 2.701v3.22c0 1.04-.631 1.513-1.41 1.068z" fill="#6A9A9A"/><path d="M412.682 304.399l-134.003-77.325a3.354 3.354 0 0 1-1.411-2.691v-6.496c0-1.04.632-1.513 1.411-1.068l134.003 77.371a3.366 3.366 0 0 1 1.411 2.692v6.496c0 1.021-.631 1.504-1.411 1.021zm-13.208 7.721l-120.368-69.492a3.354 3.354 0 0 1-1.411-2.691v-3.22c0-1.04.632-1.513 1.411-1.068l120.368 69.483a3.404 3.404 0 0 1 1.411 2.701v3.22c0 1.039-.632 1.513-1.411 1.067zm0 12.213l-120.368-69.482a3.407 3.407 0 0 1-1.411-2.701v-3.22c0-1.04.632-1.513 1.411-1.068l120.368 69.53a3.354 3.354 0 0 1 1.411 2.691v3.22c0 1.003-.632 1.513-1.411 1.03z" fill="#E9EAF2"/><path d="M377.16 323.665l-98.054-56.611a3.395 3.395 0 0 1-1.411-2.7v-3.221c0-1.039.632-1.512 1.411-1.067l98.054 56.611a3.38 3.38 0 0 1 1.411 2.691v3.221c0 1.048-.64 1.522-1.411 1.076z" fill="#6A9A9A"/><path d="M226.274 173.545l-24.857-14.329a3.366 3.366 0 0 1-1.411-2.692v-28.166c0-1.03.631-1.513 1.411-1.058l24.829 14.329a3.362 3.362 0 0 1 1.411 2.691v28.167c.028 1.058-.604 1.512-1.383 1.058zm33.619 19.386l-24.876-14.338a3.354 3.354 0 0 1-1.41-2.691v-28.157c0-1.04.631-1.522 1.41-1.067l24.876 14.329a3.395 3.395 0 0 1 1.411 2.7v28.157c-.047 1.04-.678 1.513-1.411 1.067zm152.789 88.267l-134.003-77.399a3.362 3.362 0 0 1-1.411-2.691v-44.12c0-1.039.632-1.522 1.411-1.067l134.003 77.353a3.395 3.395 0 0 1 1.411 2.7v44.119c0 1.04-.631 1.513-1.411 1.105zM297.02 150.204c-11.379-6.57-20.643-22.598-20.643-35.739 0-13.141 9.282-18.477 20.643-11.916s20.634 22.607 20.634 35.739c0 13.132-9.263 18.487-20.634 11.916zm0-40.769c-8.093-4.64-14.674-.863-14.674 8.473s6.581 20.742 14.674 25.41c8.094 4.668 14.675.872 14.675-8.473s-6.599-20.695-14.675-25.41z" fill="#E9EAF2"/><path d="M297.02 150.204c-11.379-6.57-20.643-22.598-20.643-35.739 0-13.141 9.282-18.477 20.643-11.916v6.886c-8.093-4.64-14.674-.863-14.674 8.473s6.581 20.742 14.674 25.41c8.094 4.668 14.675.872 14.675-8.473l5.959 3.443c-.009 13.141-9.263 18.487-20.634 11.916z" fill="#6A9A9A"/><path d="M345.156 178.008c-11.379-6.57-20.633-22.607-20.633-35.739 0-13.131 9.281-18.486 20.633-11.916 11.352 6.571 20.634 22.598 20.634 35.739 0 13.141-9.254 18.487-20.634 11.916zm0-40.769c-8.094-4.64-14.674-.872-14.674 8.473 0 9.346 6.58 20.733 14.674 25.41 8.094 4.678 14.675.873 14.675-8.473 0-9.345-6.581-20.742-14.675-25.41z" fill="#E9EAF2"/><path d="M345.156 178.008c-11.379-6.57-20.633-22.607-20.633-35.739 0-13.131 9.281-18.486 20.633-11.916v6.886c-8.094-4.64-14.674-.872-14.674 8.473 0 9.346 6.58 20.733 14.674 25.41 3.008 1.736 5.894 2.358 8.354 1.856l3.406 7.62c-3.462.733-7.527-.149-11.76-2.59z" fill="#6A9A9A"/><path d="M393.301 205.794c-11.379-6.57-20.633-22.607-20.633-35.739 0-13.132 9.282-18.487 20.633-11.916 11.352 6.571 20.671 22.598 20.671 35.739 0 13.141-9.282 18.487-20.671 11.916zm0-40.769c-8.084-4.64-14.674-.872-14.674 8.473 0 9.346 6.59 20.733 14.674 25.41 8.085 4.677 14.675.872 14.675-8.473s-6.581-20.742-14.675-25.41z" fill="#E9EAF2"/><path d="M375.341 183.345a38.028 38.028 0 0 1-2.673-13.29c0-13.141 9.282-18.487 20.633-11.916v6.886c-8.084-4.64-14.674-.872-14.674 8.473.07 3.237.724 6.434 1.93 9.438l-5.216.409z" fill="#6A9A9A"/><path opacity=".1" d="M357.5 450c27.338 0 49.5-12.76 49.5-28.5S384.838 393 357.5 393 308 405.76 308 421.5s22.162 28.5 49.5 28.5zm-235 0c27.338 0 49.5-12.76 49.5-28.5S149.838 393 122.5 393 73 405.76 73 421.5 95.162 450 122.5 450zm-75-105c22.92 0 41.5-10.745 41.5-24s-18.58-24-41.5-24S6 307.745 6 321s18.58 24 41.5 24z" fill="#D6D8E5"/><path d="M384.319 416.788c-3.448 2.791-8.539.234-8.797.492a148.256 148.256 0 0 1-12.715 10.579c-2.134 1.688-5.489 3.963-4.879 7.2 1.079 5.817 10.369 4.035 13.888 2.346 3.518-1.689 6.357-4.691 9.688-6.779 2.346-1.477 4.692-2.228 5.067-5.23.211-1.9-1.642-8.679-2.252-8.608z" fill="#6B6B6B"/><path d="M386.524 424.106c-.469 2.861-2.768 3.659-5.114 5.113-3.378 2.087-6.334 5.113-9.852 6.872-3.519 1.759-11.308 3.284-13.583-.868 1.243 5.606 10.369 3.847 13.841 2.088 3.471-1.759 6.357-4.691 9.688-6.779 2.346-1.477 4.692-2.228 5.067-5.23.016-.399 0-.799-.047-1.196z" fill="#1B1B1B"/><path d="M354.409 405.67c-3.448 2.815-9.383-.258-9.735 0a126.87 126.87 0 0 1-11.354 10.25c-2.135 1.689-5.489 3.964-4.88 7.201 1.08 5.793 10.369 4.01 13.888 2.345 3.519-1.665 6.357-4.691 9.688-6.778 2.346-1.478 4.692-2.346 5.067-5.231.212-1.9-2.064-7.857-2.674-7.787z" fill="#6B6B6B"/><path d="M356.966 412.566c-.375 2.814-2.721 3.659-5.067 5.16-3.378 2.087-6.357 5.113-9.853 6.896-3.495 1.782-11.33 3.26-13.606-.892 1.244 5.606 10.369 3.847 13.841 2.088 3.472-1.759 6.381-4.691 9.688-6.779 2.346-1.477 4.692-2.345 5.068-5.207a4.483 4.483 0 0 0-.071-1.266z" fill="#1B1B1B"/><path d="M384.507 289.638c-.165 5.207-1.783 27.818-2.51 39.873-.728 12.056-.892 26.645-.892 26.645s2.065 8.726 3.402 18.976c1.337 10.249 0 42.617 0 42.617a8.137 8.137 0 0 1-8.821 0s-5.512-25.8-8.069-37.528c-2.557-11.727-2.98-18.412-4.317-25.636-1.595-8.749-5.067-49.584-5.067-49.584h-1.384l-3.683 46.089a50.804 50.804 0 0 1 2.346 10.461c1.009 7.529-1.056 45.292-1.056 45.292a9.108 9.108 0 0 1-9.524-.399s-9.219-50.03-9.219-57.629c0-5.043.868-71.444.868-71.444l47.926 12.267z" fill="#6A9A9A"/><path d="M372.027 188.969s-.587 11.352-.329 12.36c.258 1.009 5.208 4.34 6.663 5.512 1.454 1.173-7.859 10.368-12.387 12.455-4.527 2.088-18.767-3.401-19.095-10.437-.328-7.037 2.346-12.948 4.692-13.253 2.346-.304 20.456-6.637 20.456-6.637zm-31.106 21.062c-.681-4.996 2.627-9.757-.564-13.744-11.213 10.977-9.805 40.061-12.339 58.637-8.328 8.702-25.054 17.263-29.769 19.398-.868.375-1.595.797-1.431 1.712a20.767 20.767 0 0 0 3.894 8.514c11.073-4.691 19.049-7.506 32.842-20.64a30.46 30.46 0 0 0 3.519-4.691c3.988-11.728 4.974-40.531 3.848-49.186z" fill="#FFCEA9"/><path d="M373.293 203.276s-8.233 12.291-19.752 13.44c-3.612-3.565-3.941-16.278 1.079-20.359 0 0-4.691-3.706-7.788-3.002a16.254 16.254 0 0 0-7.037 9.077 73.94 73.94 0 0 0-4.059 26.27c.188 12.055 0 48.88 0 48.88s1.619 7.787 12.034 13.58c10.416 5.794 18.111 6.357 25.172 4.691 5.817-1.36 10.626-3.424 12.644-7.646-.516-8.444-4.293-30.491-2.886-41.093 1.408-10.602 3.66-18.553 4.223-27.138.563-8.584-1.126-8.42-5.419-11.469a66.811 66.811 0 0 0-8.211-5.231z" fill="#F4F4F4"/><path d="M346.316 172.034c1.361-8.819 7.718-15.504 16.796-14.988 2.301.126 4.554.704 6.63 1.702a17.51 17.51 0 0 1 8.952 10.004 17.502 17.502 0 0 1 .957 6.777 17.31 17.31 0 0 1-7.624 13.416 18.748 18.748 0 0 1-1.408 3.87c-3.214 3.753-12.949 6.075-15.741 5.676a8.332 8.332 0 0 1-7.248-5.934c-3.003-6.919-2.065-16.16-1.314-20.523z" fill="#FFCEA9"/><path d="M372.027 188.945l-.845-7.669s6.287-16.278-8.562-13.159c-9.806 2.064-12.269 2.956-15.248-3.612-2.98-6.567 7.53-12.501 20.033-10.86a17.269 17.269 0 0 1 15.46 17.521c-.329 4.832-1.619 14.636-10.838 17.779z" fill="#6B6B6B"/><path d="M389.433 214.933c-4.293-1.219-1.009-.211-4.293-1.219-11.213 10.977-9.829 29.811-12.363 48.434-6.193 10.227-29.159 24.089-29.159 24.089-.281 1.993.399 2.58 2.886 6.567a98.694 98.694 0 0 0 34.156-22.024c.563-.516 1.36-.657 1.595-1.36 3.917-11.869 8.304-45.832 7.178-54.487z" fill="#FFCEA9"/><path d="M287.2 237.872l16.703 57.09 36.619 14.613-13.348-55.589-39.974-16.114z" fill="#F4F4F4"/><path d="M349.366 286.659c-.54-1.947-1.947-1.478-3.543-.985a9.13 9.13 0 0 1-5.419.469 16.413 16.413 0 0 1-3.894-2.627 4.692 4.692 0 0 0-2.346-.68c0 .492.845 3.377.845 3.377h-8.844a1.334 1.334 0 0 0-1.604 1.451c.03.281.148.545.337.754a3.73 3.73 0 0 1-.539 0c-1.642-.375-2.346 2.158-.704 2.533.442.086.888.148 1.337.188-1.079.422-1.337 2.205 0 2.345h.399c.2.055.41.055.61 0h.234a1.456 1.456 0 0 0 1.22 1.689c3.918.516 9.689 2.088 13.231-1.149a22.702 22.702 0 0 0 7.038-1.923c2.228-.915 2.299-3.12 1.642-5.442zm-40.068-4.668h-.563c.19-.177.325-.405.389-.657a1.36 1.36 0 0 0-1.163-1.688c-.821 0-9.078-1.712-9.078-1.712l-1.009-3.401c0-.188-1.431.68-1.478.703a5.582 5.582 0 0 0-2.487 4.128 8.775 8.775 0 0 0 2.346 6.38 8.213 8.213 0 0 0 5.607 2.346c.985 0 1.947 0 2.815.187a1.448 1.448 0 0 0 1.422-.859c.08-.18.123-.374.126-.571h.258c.193.045.394.045.587 0h.422c1.407 0 1.525-1.736.563-2.346h1.361c1.712.094 1.548-2.533-.118-2.51z" fill="#FFCEA9"/><path d="M336.252 217.467a8.895 8.895 0 0 1-6.005-2.674c.328-4.222 5.724-20.242 16.585-21.438a20.195 20.195 0 0 0-6.779 8.209 106.105 106.105 0 0 0-3.801 15.903zm55.128 21.179s-10.814 3.73-18.438-2.533c-.822-1.43 4.41-19.819 4.41-19.819s4.551-9.382 11.729-5.676c7.179 3.706 2.299 28.028 2.299 28.028z" fill="#EDEDED"/><path d="M80.308 206.402s1.647 24.627 4.865 28.178c3.217 3.552 14.156 5.971 14.156 5.971l8.441 13.87s-7.721-44.082-9.368-45.137c-1.647-1.055-18.094-2.882-18.094-2.882z" fill="#FFCEA9"/><path d="M96.497 178.97a9.165 9.165 0 0 0-11.71 3.551c-3.115 5.147-6.332 22.749-6.615 25.734 0 0 4.35 6.021 10.861 5.147l7.464-34.432z" fill="#EDEDED"/><path d="M121.36 425.01a18.146 18.146 0 0 0 13.641-1.647c3.269 0 21.105-7.54 23.524-1.132 2.137 5.61-5.585 10.808-9.703 11.812-9.008 2.187-15.674 6.665-19.303 7.437-2.574.566-6.177.926-8.313-1.184-2.42-2.548-2.265-11.94.154-15.286z" fill="#6B6B6B"/><path d="M129.622 439.91c3.629-.746 10.295-5.147 19.303-7.437 3.449-.823 9.394-4.606 10.012-9.11.798 5.147-6.177 9.753-10.012 10.68-9.008 2.187-15.674 6.665-19.303 7.437-2.574.566-6.177.926-8.314-1.184a4.942 4.942 0 0 1-1.183-2.162 10.774 10.774 0 0 0 9.497 1.776z" fill="#1B1B1B"/><path d="M93.692 416.338a18.02 18.02 0 0 0 13.641-1.647c3.294 0 21.105-7.514 23.55-1.107 2.11 5.61-5.611 10.809-9.729 11.812-9.008 2.162-15.674 6.665-19.277 7.412-2.703.566-6.203.952-8.34-1.158-2.573-2.548-2.342-11.941.155-15.312z" fill="#6B6B6B"/><path d="M101.876 431.16c3.604-.772 10.296-5.146 19.278-7.437 3.449-.823 9.42-4.606 10.012-9.135.798 5.147-6.177 9.753-10.012 10.705-9.008 2.162-15.674 6.665-19.278 7.412-2.702.566-6.202.952-8.339-1.159a5.378 5.378 0 0 1-1.184-2.161 10.838 10.838 0 0 0 9.523 1.775z" fill="#1B1B1B"/><path d="M91.736 366.209a107.683 107.683 0 0 1 4.118-19.507S94.618 329.847 94 313.866c-.695-18.013-6.975-34.071-2.034-48.534l55.131 12.275s-2.574 72.415-3.423 81.164a161.575 161.575 0 0 1-2.574 20.304c-2.574 14.025-5.328 45.42-5.328 45.42-5.92 3.449-14.593.618-14.593.618s0-39.295.334-49.409c.464-12.352.85-11.4.85-11.4l-1.853-30.752-1.21-15.285s-1.544 11.22-2.574 21.23c-.875 8.749-2.985 16.65-5.353 32.939-2.034 14.102-4.144 42.898-4.144 42.898-5.92 3.423-13.898 1.055-13.898 1.055s-3.192-37.931-1.596-50.18z" fill="#6A9A9A"/><path d="M99.483 179.33c4.247.206 7.412 1.313 7.953 0 .459-2.2.785-4.426.978-6.665-.489-1.235-.927-2.573-.927-2.573-5.353-3.269-7.026-9.059-7.721-15.801-1.184-11.503 5.148-21.565 16.524-22.774 10.835-1.133 18.788 6.485 20.924 16.907 1.133 5.147 3.424 14.9.335 23.366-1.724 4.761-3.938 8.518-6.151 9.238a46.185 46.185 0 0 1-6.409-.566s-.566 3.191-.952 5.147c-.386 1.956-.258 3.114 3.835 5.636 4.092 2.522-6.177 7.72-12.869 7.18-6.692-.541-14.259-4.555-16.318-8.879-2.342-4.657-2.136-10.37.798-10.216z" fill="#FFCEA9"/><path d="M105.634 179.973c-1.184 2.934 1.828 6.537 9.832 9.033 8.004 2.496 8.699-.721 8.699-.721a158.556 158.556 0 0 1 15.443 8.029c4.787 3.346 6.923 13.073 7.567 29.465.746 18.966.823 47.119.18 51.983 0 0-8.957 8.955-20.59 8.003-11.634-.952-30.885-11.117-35.492-18.966 0-16.624 2.084-19.326-.618-28.925-6.177-21.951-9.42-30.88-6.409-45.497 2.574-12.018 5.92-13.51 10.681-13.407 3.585.143 7.159.478 10.707 1.003z" fill="#F4F4F4"/><path d="M137.395 292.378l-5.74-66.084 12.328-6.536 4.813 4.04-1.698 59.342v3.757s.257 4.993-9.163 10.963c0 0-.154-1.57-.283-3.037l-.232-2.573-.025.128z" fill="#FFCEA9"/><path d="M135.928 192.223c6.357 0 10.295 3.242 11.968 13.047a350.644 350.644 0 0 1 2.573 17.833 17.138 17.138 0 0 1-11.35 5.61c-7.721.849-9.935-3.062-9.935-3.062s-.823-10.165-1.235-17.087c-.412-6.923.103-16.187 7.979-16.341z" fill="#EDEDED"/><path d="M136.803 146.957s9.934-15.106-11.608-18.194c-15.443-2.213-25.532 7.72-26.69 18.606-1.107 10.293 5.276 21.076 9.883 25.348a18.765 18.765 0 0 0 13.435-1.622c.253-2.814.347-5.641.283-8.466 0 0-7.541-15.955 14.697-15.672z" fill="#6B6B6B"/><path d="M48.463 77.575c-1.833-2.958-15.836-4.896-20.441 6.96-1.75 4.5-1.48 16-2.938 23.209-1.46 7.209-4.897 11.313-6.127 17.167-1.23 5.855.771 15.689 14.9 17.418 14.127 1.729 25.005-3.229 28.297-7.73 3.292-4.5 3.396-14.063 0-19.188-3.397-5.125-6.085-9.313-6.001-16.001l-7.69-21.835z" fill="#F99422"/><path d="M65.217 127.182s3.313 23.46-2.938 40.128c-6.252 16.667-4.543-4.271-4.543-4.271l1.521-4.98s1.25-19.126.73-23.814c-.521-4.687-.396-8.729-.73-9.104-.333-.375 1.23-1.125 1.897-1.209.666-.083 4.063 3.25 4.063 3.25z" fill="#FFCEA9"/><path d="M39.211 75.513s10.544-3.021 16.92 2.667a15.667 15.667 0 0 1 4.523 15.605c-.855 3.333-2.564 7.875-5.21 8.125S39.211 75.513 39.211 75.513z" fill="#F99422"/><path d="M35.19 104.264s.688 11.73.48 12.501c-.21.771-4.627 1.709-5.856 2.729-1.23 1.021 6.397 12.939 10.273 14.71 3.875 1.771 15.857-2.751 16.67-8.709.77-5.501-3.417-9.772-5.043-11.251a23.79 23.79 0 0 0-3.313 0l-.354-5.709c-5.126-1.645-12.857-4.271-12.857-4.271z" fill="#FFCEA9"/><path d="M33.564 117.994c-3.292.521-7.064 2.271-7.584 4.167a39.084 39.084 0 0 0 .958 19.606c2.855 7.542 4.772 12.355 6.418 15.605 0 0 14.274 6.125 25.797-1 0 0 .771-8.105.834-12.501 10.627-9.271 1.542-20.689-7.46-29.564a16.973 16.973 0 0 0-3.25 0s8.042 9.479 2.458 14.876c-11.96-3.667-14.336-9.043-18.17-11.189z" fill="#F4F4F4"/><path d="M57.132 89.701c-1.188-7.542-6.647-13.23-14.42-12.792a15.046 15.046 0 0 0-14.107 15.876 14.874 14.874 0 0 0 6.585 11.479 15.811 15.811 0 0 0 1.188 3.292c2.771 3.209 10.085 5.251 12.502 5.271 2.084 0 3.897-1.916 5.856-5.167 4.063-6.75 3.042-14.23 2.396-17.959z" fill="#FFCEA9"/><path d="M40.295 77.054c-5.46 1.063-9.94 2.605-11.42 7.96-1.02 3.687-2.354 10.73-1.083 13.688l.792 2.083 6.606 3.417s3.084-2.584 2.084-10.105c.027-1.02.345-2.01.916-2.854a8.332 8.332 0 0 0 .917-2.292 8.46 8.46 0 0 1 4.293-4.625c4.918-2.771 12.127-.375 13.128.625a14.335 14.335 0 0 0-16.233-7.897z" fill="#F99422"/><path d="M30.418 314.881c2.771 2.25 7.064.687 7.272.896a117.73 117.73 0 0 0 10.065 7.792c1.73 1.354 4.417 3.167 3.938 5.771-.875 4.646-8.335 3.209-11.148 1.792-2.813-1.417-5.105-3.792-7.752-5.438-1.896-1.167-3.771-1.792-4.167-4.167-.084-1.521 1.27-6.709 1.792-6.646z" fill="#6B6B6B"/><path d="M28.772 320.485c.354 2.292 2.209 2.917 4.167 4.167 2.71 1.667 5.085 4.167 7.898 5.521 2.813 1.355 9.064 2.605 10.898-.708-1 4.479-8.335 3.084-11.107 1.667-2.771-1.417-5.105-3.792-7.751-5.438-1.897-1.167-3.772-1.792-4.168-4.167a3.15 3.15 0 0 1 .063-1.042z" fill="#1B1B1B"/><path d="M49.755 311.068c2.543 2.084 6.252.896 6.543 1.083a101.953 101.953 0 0 0 9.252 7.063c1.563 1.23 4.022 2.896 3.585 5.272-.792 4.167-7.627 2.958-10.19 1.646-2.563-1.313-4.689-3.459-7.127-4.98-1.73-1.063-3.438-1.625-3.709-3.834a14.897 14.897 0 0 1 1.646-6.25z" fill="#6B6B6B"/><path d="M48.15 316.381c.334 2.083 2.085 2.688 3.73 3.75 2.48 1.542 4.668 3.75 7.231 5.063 2.564 1.313 8.336 2.396 9.982-.646-.896 4.167-7.606 2.813-10.148 1.521-2.542-1.292-4.689-3.459-7.127-4.979-1.73-1.063-3.438-1.626-3.709-3.834a3.31 3.31 0 0 1 .042-.875z" fill="#1B1B1B"/><path d="M64.654 182.54c-1.23-9.522-4.73-23.356-4.73-23.356a28.235 28.235 0 0 1-10.565 2.605 85.903 85.903 0 0 1-15.982-1.542 100.085 100.085 0 0 1-5.626 8.709c-2.75 3.812-8.106 12.167-6.814 26.751.854 9.543 6.251 50.003 6.251 50.003a75.562 75.562 0 0 0-3.271 21.001 172.923 172.923 0 0 0 3.333 25.169l3.189 22.918s4.167 3.062 7.272.895l-.375-22.501c.354-5.5.896-13.626 1.25-18.751.584-8.438 2.084-21.855 2.522-25.189.437-3.333 1.52-9.209 2.083-15.772.563-6.563 2.98-39.898 2.98-39.898l.355 6.251s.312 10.146 1.77 22.647c1.46 12.5 1.98 18.042 1.98 18.042a27.09 27.09 0 0 0-2.98 8.043c-.25 2.687-3.354 24.063-1.5 34.939l3.793 27.648a7.262 7.262 0 0 0 6.543.854l2.23-27.856c1.5-10.605 4.667-33.085 5.146-36.002a119.994 119.994 0 0 0 1.896-17.835 385.36 385.36 0 0 0-.75-47.773z" fill="#FFCEA9"/><path d="M33.356 157.288l-8.21 16.481s-12.503 18.313.458 65.399l-2.438 14.584s24.547 15.751 40.988 0c0 0 5.689-43.502 2.668-63.566a232.08 232.08 0 0 0-7.648-34.085s-4.022 4.438-24.734 1.5" fill="#6A9A9A"/><path d="M59.663 198.095a48.212 48.212 0 0 0-5.747-2.549 20.415 20.415 0 0 1-5.738-2.23c-1.95-1.125-5.819-6.968-8.59-12.922a64.13 64.13 0 0 1-5.013-21.155c-.422-7.736-.2-15.494.662-23.194 1.005-5.241-.678-2.243-3.216-3.805-3.05-1.761-5.279-1.652-6.432 5.597a76.372 76.372 0 0 0-.466 22.561 65.654 65.654 0 0 0 5.765 21.396 81.543 81.543 0 0 0 10.32 16.592c1.162 1.489 1.647 2.899 3.514 5.998a22.663 22.663 0 0 0 7.534 7.79c2.635 1.521 3.9 1.579 4.394 1.142.493-.438.421-1.273-.725-2.079a18.32 18.32 0 0 1-4.967-4.359s2.398 1.89 3.945 2.879a18.161 18.161 0 0 0 4.428 2.123c1.523.447 3.346-1.003 2.22-1.845-1.125-.842-2.201-1.271-4.495-2.716a18.293 18.293 0 0 1-3.224-2.751 34.11 34.11 0 0 0 4.908 2.376 7.713 7.713 0 0 0 4.267.611c.773-.13 1.562-1.287.017-2.155a27.087 27.087 0 0 1-5.905-3.024c-1.739-1.365-2.795-2.577-2.361-2.663.435-.085 1.408.813 3.329 1.153 1.921.339 3.806-.425 3.914-1.445.108-1.021-.447-.643-2.338-1.326z" fill="#FFCEA9"/><path d="M22.408 137.024s6.822 4.281 13.253 2.118l.742-11.514s.806-6.11-4.561-7.481c-5.368-1.371-9.144 5.231-9.434 16.877zm30.119-22.738s6.522-2.084 13.44 12.501l-2.584 1.562s-6.814-10.375-10.856-14.063z" fill="#EDEDED"/></g><defs><clipPath id="a"><path fill="#fff" d="M0 0h433v450H0z"/></clipPath></defs></svg>