<svg width="350" height="286" viewBox="0 0 350 286" fill="none" xmlns="http://www.w3.org/2000/svg"><g opacity=".03" clip-rule="evenodd" stroke="#1B1B1B" stroke-width="5"><path d="M-125.163-88.554c-.108-28.242-43.182-60.002-61.582-76.376-36.381-32.385-74.219-62.291-111.706-92.675-37.488-30.384-75.076-60.685-110.823-94.042-23.21-21.654-50.482-46.042-66.224-76.961-33.533-65.891 72.195-56.106 99.582-57.547 69.672-3.682 149.585-2.002 214.891-36.314 38.985-20.484 54.531-54.838 46.158-104.907-2.699-16.283-10.688-35.021-3.92-50.884 7.226-16.942 23.85-26.718 37.649-33.275 50.327-23.885 108.191-26.652 161.44-29.65 57.418-3.295 115.377-2.331 172.391-2.587 24.175-.107 49.423-10.707 72.444-19.322 30.18-11.292 60.003-23.976 89.933-36.24 65.846-26.916 133.696-55.266 203.361-62.102 43.627-4.283 91.309 1.507 125.2 38.76 17.017 18.705 25.923 46.511 35.76 71.212 11.909 29.84 23.346 59.968 36.024 89.339 40.84 94.595 99.15 187.031 193.795 191.677 14.31.7 28.38-1.582 42.63-2.01 9.07-.264 17.15 2.413 20.52 14.002 8.48 29.066-18.18 74.95-29.11 98.012-23.93 50.481-50.917 98.696-76.199 148.164-16.726 32.715-45.679 77.421-45.982 117.17-.27 35.416 38.324 61.015 59.335 78.46 19.686 16.332 55.356 39.188 57.516 72.413 1.05 16.11-7.65 29.462-16.74 39.823-15.93 18.12-34.286 30.903-48.617 51.576-23.5 33.917-43.134 80.585-39.943 126.288 2.213 31.669 17.016 52.408 35.848 72.233 7.914 8.335 14.338 14.232 14.756 27.764.675 21.489-6.221 44.23-11.902 64.153-20.323 71.302-49.187 140.249-81.297 204.624-16.045 32.171-33.378 64.244-54.652 91.687-13.933 18.021-32.724 39.469-53.978 39.444-24.607 0-50.644-10.839-74.563-18.944-44.673-15.146-88.806-32.657-132.764-50.62-101.658-41.561-202.36-86.487-302.105-134.78-70.259-34.074-142.009-68.197-208.064-113.497-12.882-8.895-25.04-19.268-36.313-30.976-12.043-12.297-26.989-17.799-42.143-21.901-94.056-25.458-197.099-5.914-291.546 6.342-23.973 3.105-47.945 6.227-71.986 8.401-20.666 1.87-45.408 7.232-65.494-.824-39.579-15.854-4.98-74.291 9.648-98.103 51.501-83.837 117.948-154.769 179.536-227.183 29.283-34.485 58.788-68.88 86.479-105.318 14.418-18.944 42.851-49.747 42.757-74.506z"/><path d="M-107.416-93.315c-15.785-29.885-43.481-51.973-66.471-72.761-33.084-29.925-67.208-58.188-100.818-87.266-31.781-27.497-63.629-55.307-93.06-86.534-17.947-19.042-40.464-41.814-48.964-69.978-18.44-61.046 80.758-51.784 105.247-53.381 60.881-3.952 129.905-4.857 186.228-36.998 35.17-20.071 49.62-53.356 42.118-99.566-2.593-15.988-7.265-29.638-1.35-45.543 6.84-18.409 22.571-29.885 36.993-37.986 45.176-25.382 98.576-30.774 147.547-35.261 50.591-4.635 103.303-7.903 152.267-4.511 19.58 1.35 42.118-6.315 61.495-12.193 29.816-9.056 59.329-19.503 88.996-29.218 60.294-19.758 122.154-38.792 184.878-40.958 45.285-1.564 92.5 6.916 130.175 39.69 38.182 33.236 55.122 84.756 76.295 133.732 36.568 84.674 85.958 187.624 170.558 205.513 12.828 2.717 25.157 1.244 37.972 1.91 6.59.338 14.09 1.408 17.43 9.336 8.68 20.582-15.09 58.214-23.095 73.979-22.105 43.568-46.958 85.003-70.124 127.731-18.399 33.927-41.719 71.624-48.836 111.841-8.635 48.804 47.79 83.53 67.633 117.892 34.401 59.589-30.775 93.54-62.907 121.952-36.898 32.617-67.356 92.123-34.278 142.59 12.652 19.297 28.222 30.799 33.873 55.982 8.839 39.386 2.154 84.394-5.016 123.326-10.803 58.527-27.899 116.419-51.138 169.314-16.65 37.871-44.272 97.253-84.722 92.799-27.23-2.972-54.913-13.831-81.427-23.43-39.701-14.366-78.902-30.741-117.893-47.75-90.009-39.155-179.025-82.327-266.292-129.813-59.544-32.412-225.639-164.868-238.136-169.594-37.263-14.078-79.63-11.6-118.049-9.418-51.104 2.898-101.952 10.406-152.759 17.363-24.185 3.293-48.492 7.319-72.805 8.94-17.305 1.153-40.032 2.141-55.19-10.134-29.586-23.949 3.376-78.746 17.008-101.929 41.76-71.073 94.586-132.621 144.118-195.552 24.306-30.897 48.984-61.745 71.049-95.12 8.899-13.477 31.207-40.538 21.45-58.996z"/><path d="M-85.577-108.642c-43.11-59.802-102.612-104.28-153.965-154.225-25.775-25.075-51.712-50.835-73.942-80.703-11.564-15.531-26.004-35.172-28.232-56.822-5.954-57.916 83.453-50.085 110.214-52.284 51.738-4.265 110.186-7.502 157.125-37.057 28.677-18.068 42.8-47.722 37.44-86.698-2.376-17.294-6.076-31.985 0-48.966 6.157-17.203 18.983-29.341 31.972-38.441 37.325-26.171 83.71-34.537 125.734-40.771a833.333 833.333 0 0 1 148.606-8.482c43.475 1.391 86.741-14.264 129.19-24.582 56.234-13.662 113.488-25.594 171.032-23.791 45.447 1.433 91.251 12.69 130.102 42.608 39.479 30.47 63.214 76.075 84.615 125.288 32.349 74.395 72.665 174.088 143.637 202.342 10.322 4.118 19.942 4.57 30.588 5.287 5.171.346 11.847.453 14.413 7.033 6.17 15.844-16.641 46.56-23.007 57.266-20.32 34.175-42.348 66.811-63.174 100.533-19.443 31.482-40.62 64.291-52.697 101.183C814.854-61.167 876.3-26.81 874.579 29.18c-1.074 34.76-28.354 59.687-49.956 76.931-26.599 21.205-64.896 35.147-78.209 73.843-9.916 28.823 5.644 45.598 17.627 67.47 20.306 37.057 21.69 87.291 19.577 130.187-2.849 57.966-13.981 116.789-32.93 170.07-8.587 24.153-19.105 49.278-34.591 68.037-14.508 17.582-28.239 22.087-47.627 18.488-59.354-11.035-119.281-41.793-176.197-69.265-71.511-34.521-142.037-72.633-210.457-115.512-46.654-29.243-94.363-60.182-135.313-100.583-10.673-10.532-21.603-21.979-29.407-35.871-5.9-10.442-8.404-19.065-18.348-25.027-29.474-17.664-70.472-13.044-102.052-11.207-50.496 2.923-100.75 10.705-150.935 17.713-29.285 4.118-84.453 17.071-107.838-14-20.185-26.829 4.172-72.575 16.614-96.209 31.472-59.77 71.957-112.227 109.519-166.24 17.214-24.755 35.104-49.699 49.321-77.22 3.632-7.016 9.451-16.314 10.45-24.837 1.12-9.766-4.111-17.219-9.404-24.59z"/><path d="M-81.87-94.72c-39.836-52.876-87.828-96.317-130.594-145.798-19.176-22.185-38.54-45.459-53.151-72.524-7.859-14.554-16.204-32.874-14.037-50.964 6.219-51.921 79.753-47.231 109.461-50.272 44.143-4.467 94.856-8.967 133.889-36.963 25.569-18.337 35.156-45.418 30.383-80.345-5.125-37.465 6.333-64.661 32.409-85.561 32.692-26.183 73.959-36.856 111.918-44.438 45.733-9.091 92.045-13.121 138.372-12.04 45.055 1.054 88.705-8.159 133.463-14.151 59.342-7.936 120.588-11.851 179.261 4.417 51.085 14.167 97.227 45.386 131.816 93.663 36.129 50.388 54.015 113.871 83.352 169.616 18.297 34.77 43.812 80.765 78.003 94.281 11.404 4.508 32.186-1.574 23.078 20.603-5.205 12.684-14.948 23.809-22.645 34.177-12.437 16.755-25.286 33.048-37.932 49.572-26.954 35.223-55.818 71.197-76.019 112.906-25.454 52.514 12.383 92.93 7.771 146.177-2.478 28.655-18.804 51.525-36.075 69.491-11.174 11.637-23.402 21.716-35.886 31.12-13.037 9.823-28.465 17.307-39.835 30.006-16.205 18.074-9.169 39.468-6.131 62.833a615.481 615.481 0 0 1 3.497 124.18c-3.7 50.759-12.376 102.968-30.653 149.095-7.11 17.957-16.117 36.995-29.492 49.036-13.375 12.04-27.21 11.216-42.536 7.59-45.461-10.714-90.826-35.644-133.95-59.272-53.974-29.578-106.888-62.634-157.419-100.239-34.88-25.961-69.875-54.006-99.056-89.205-8.487-10.244-16.562-21.213-23.091-33.46-4.483-8.398-6.887-19.235-13.382-25.548-20.323-19.705-61.125-13.821-84.959-12.675-47.566 2.283-94.383 13.137-141.89 15.774-25.926 1.442-66.532 5.068-85.572-21.873-17.906-25.325-1.688-65.214 9.014-89.616 21.032-47.981 49.288-90.73 74.614-135.332 10.412-18.353 21.822-37.555 28.567-58.513 5.996-18.675-4.355-32.19-14.563-45.748z"/><path d="M-72.073-93.855c-31.708-46.53-69.933-87.834-101.87-135.121-18.694-27.692-50.888-74.247-36.431-113.288 15.861-42.9 71.148-44.069 103.106-47.525 38.036-4.115 82.704-9.736 115.255-36.523 10.295-8.468 19.065-19.677 22.782-34.441 3.98-15.8-.37-29.626-.937-45.443-1.188-33.182 15.044-59.821 36.525-78.115 30.358-25.865 68.32-38.094 104.177-46.62 40.624-9.616 81.923-14.357 123.304-14.155 39.547.165 78.676-.905 118.264-2.14 51.772-1.646 104.272 1.012 154.493 17.793 49.471 16.541 94.449 47.542 129.78 93.141 34.467 44.498 57.722 98.887 78.089 154.288 11.557 31.445 31.081 78.436 58.647 94.319 12.258 7.069 24.287 6.583 11.253 24.968-16.414 23.15-38.536 41.724-57.547 61.524-27.424 28.573-55.536 57.706-78.555 91.677-14.7 21.693-21.251 42.744-20.239 70.832.782 21.397 4.331 42.571 2.536 64.05-4.203 50.415-36.74 84.987-65.507 117.181-18.505 20.705-35.405 36.498-44.931 65.951-11.266 34.811-15.996 72.684-23.525 108.828-8.271 39.691-17.824 80.978-35.877 115.938-16.07 31.124-35.614 45.081-64.866 36.695-45.626-13.068-90.598-45.262-131.103-75.045-41.227-30.301-81.746-64.372-115.91-106.021-18.444-22.492-31.033-48.9-47.413-73.062-20.604-30.334-67.214-18.846-94.915-16.278-45.984 4.263-190.673 36.16-177.322-67.153 5.572-43.123 27.518-82.921 43.568-120.975C-60.59-4.367-50.963-23.32-49.46-41.416c1.64-19.71-13.08-38.432-22.614-52.439z"/><path d="M-55.331-89.904c-24.23-42.165-53.229-82.001-74.021-127.542-13.487-29.494-26.732-68.901-9.333-100.107 19.638-35.216 62.94-43.425 94.757-47.913 32.782-4.619 71.917-8.505 98.71-35.207 8.524-8.506 15.551-19.976 16.86-33.71 1.26-13.174-2.3-26.348-1.12-39.761 2.644-30.119 17.608-54.936 36.902-72.935 57.074-53.248 142.019-65.089 210.88-66.48 34.468-.692 69.941 2.939 104.631 5.541 45.015 3.376 90.098 10.622 133.029 28.086 91.278 37.118 152.458 119.44 195.187 221.877 13.447 32.244 23.738 67.13 44.813 93.042 10.864 13.38 8.49 22.989-2.617 35.192-17.365 19.069-38.548 33.643-57.822 49.559-27.413 22.635-55.414 45.607-79.658 72.721-16.711 18.691-28.574 36.698-32.175 64.726-2.569 19.984-1.969 40.346-3.513 60.453-2.941 38.197-13.009 76.105-30.833 107.789-14.162 25.113-31.022 47.938-48.448 69.7-22.652 28.332-41.812 57.118-59.015 90.745-22.808 44.512-54.855 126.619-108.576 104.89-59.251-23.977-114.787-84.899-152.802-143.927-12.766-19.819-23.246-44.125-40.463-58.74-25.775-21.844-51.927-21.079-82.585-20.988-45.898.123-145.775 12.285-146.854-71.635-.425-33.248 11.364-64.684 17.008-96.665 6.366-35.817-6.393-59.975-22.942-88.71z"/><path d="M-37.284-86.144C-61.25-141.1-114.996-231.403-74.119-292.513c21.592-32.295 59.784-44.431 91.821-51.664 25.782-5.85 56.875-8.047 76.356-32.846 14.318-18.234 7.962-44.769 13.447-67.594 6.809-28.296 22.436-51.45 41.64-68.852 53.663-48.636 128.278-63.562 192.832-66.738 67.043-3.291 140.916 12.103 204.005 41.716 78.664 36.936 137.597 106.875 178.811 195.442 7.604 16.349 14.514 33.126 21.815 49.672 4.905 11.1 12.179 21.838 16.046 33.513 6.437 19.468-1.148 35.381-13.307 48.069-17.489 18.266-38.974 31.266-58.913 44.974-27.267 18.76-55.141 37.183-80.505 59.193-17.044 14.81-34.885 30.765-40.985 56.461-4.163 17.526-5.027 36.089-4.878 54.24.324 38.918-1.35 70.39-16.235 106.035-24.493 58.518-62.158 111.136-101.949 154.918-31.227 34.36-80.64 87.736-126.139 64.763-40.822-20.57-64.702-69.807-91.598-109.614-13.077-19.353-27.766-37.027-45.026-50.792-21.761-17.353-42.247-24.635-68.029-27.474-43.394-4.78-108.825-6.023-122.24-69.543-4.952-23.442-2.125-47.723-4.723-71.47-3.394-31.398-13.32-58.32-25.41-86.04z"/><path d="M-12.362-84.11c-17.067-60.131-39.488-135.914 1.733-189.357 19.966-25.889 48.052-40.362 75.234-51.178 19.467-7.751 50.378-10.032 62.313-33.863 8.766-17.537 9.98-41.73 17.91-60.519 10.897-25.832 27.404-47.108 46.771-63.764 50.452-43.402 116.164-60.173 176.091-64.975 130.21-10.42 262.7 72.57 332.377 209.11 20.776 40.7 47.594 84.02 14.019 125.601-36.656 45.362-91.875 66.614-135.625 98.847-16.716 12.306-38.018 27.1-47.344 49.382-5.61 13.394-5.994 30.198-6.251 44.942-.674 37.554-3.23 71.326-15.603 106.367-19.111 54.152-49.583 104.111-84.115 145.033-30.115 35.684-73.062 77.62-116.798 51.895-33.534-19.77-54.802-61.73-80.857-92.661-28.996-34.448-64.856-57.66-104.236-69.003-38.308-11.005-80.325-18.427-100.514-65.181C15.818 40.528 8.583 19.762 5.986 2.01 1.796-27.257-4.34-56.06-12.362-84.11z"/><path d="M15.426-83.686c-7.895-60.72-8.773-124.034 27.912-171.891 17.12-22.326 38.763-38.188 60.648-52.559 16.102-10.574 32.73-19.493 44.755-36.829 11.142-16.051 19.611-34.688 30.368-51.159 14.19-21.827 31.168-40.723 50.283-55.96 47.914-38.122 106.2-55.952 161.962-62.136 26.994-3.006 56.275-4.571 83.087 3.623 25.893 7.906 51.497 20.408 75.305 34.985 50.613 30.957 94.478 76.293 126.277 133.612 21.804 39.316 33.593 77.545 5.358 117.43-31.832 44.957-81.744 69.763-122.882 98.941-28.215 20.012-59.838 39.63-65.109 82.157-4.197 33.84-7.605 65.958-18.464 97.945-16.16 47.181-39.921 89.92-69.873 125.682-27.392 32.579-62.045 60.226-101.226 42.824-31.043-13.811-55.128-44.752-82.25-66.872-30.226-24.707-63.435-38.328-98.405-49.281-31.428-9.883-61.02-25.069-81.332-57.311-4.157-6.588-8.524-13.761-11.73-21.132-4.089-9.405-3.771-18.728-4.575-29.27-2.091-27.819-6.539-55.317-10.109-82.799z"/><path d="M46.066-88.649c.674-57.675 12.04-112.183 43.17-157.13 13.308-19.228 29.2-35.065 43.844-52.685 11.791-14.204 22.934-27.402 36.492-39.107 32.161-27.716 58.299-63.581 92.478-88.262 45.625-32.995 97.887-51.232 149.745-58.524 25.322-3.564 51.48-4.809 77.098-.784 22.004 3.456 43.076 15.59 62.624 28.004 38.313 24.318 75.513 58.88 100.39 102.607 54.846 96.403-53.288 166.492-108.788 207.538-25.524 18.881-64.526 40.749-74.981 78.148-7.474 26.718-12.027 53.89-21.652 79.782-25.855 69.537-78.34 151.323-148.282 140.435-29.928-4.652-57.206-23.55-85.145-36.237-28.769-13.066-58.462-20.35-88.363-28.342-27.946-7.465-50.22-18.09-68.27-46.573C47.8 26.62 48.563 10.336 47.794-6.35c-1.255-27.41-2.03-54.978-1.727-82.298z"/><path d="M73.966-96.036c11.236-87.056 52.968-182.096 114.331-232.653 72.18-59.472 150.377-109.552 236.617-123.949 39.983-6.675 83.782-9.96 121.509 11.87 28.713 16.603 62.065 41.42 77.867 76.322 38.659 85.368-47.331 153.326-96.322 192.821-26.376 21.261-59.951 41.98-79.831 73.029-11.534 18.002-17.422 41.815-26.735 61.587C393.183 22.908 346.73 71.235 288.866 79.877c-26.755 3.993-53.705-.946-80.257-4.873-27.18-4.017-54.697-6.198-81.708-11.803-21.562-4.478-46.973-12.06-54.914-40.22-10.014-35.485-2.607-83.466 1.979-119.017z"/><path d="M101.324-110.021c16.388-81.847 51.09-161.684 109.428-210.545 30.936-25.909 66.849-43.794 101.328-61.465 39.083-20.027 79.917-35.573 121.624-43.284 51.928-9.606 136.03-18.264 163.161 53.944 26.927 71.673-41.118 135.107-81.358 171.257-25.798 23.157-53.409 44.412-78.058 69.728-13.366 13.725-23.662 29.584-34.973 45.681-31.261 44.602-75.827 79.911-121.251 98.76-44.026 18.273-98.489 26.363-144.962 20.324-20.052-2.595-34.384-11.352-40.449-36.248-8.403-34.61-1.264-74.342 5.51-108.152z"/><path d="M128.51-132.065c16.28-72.063 51.394-137.883 102.614-181.134 57.414-48.485 131.345-75.427 199.296-89.127 36.119-7.277 114.39-27.008 132.801 29.46 18.41 56.467-34.812 112.114-65.444 142.748-37.177 37.122-77.26 72.965-117.296 106.273-34.784 28.96-71.901 58.568-109.578 80.932-21.249 12.687-43.385 23.045-66.144 30.953-16.853 5.808-38.283 14.472-55.952 10.148-44.566-10.92-28.083-95.797-20.297-130.253z"/></g></svg>