<svg width="97" height="117" viewBox="0 0 97 117" fill="none" xmlns="http://www.w3.org/2000/svg"><path d="M93.635 21.156L50.694 1.508a6.042 6.042 0 0 0-5.03 0L2.725 21.156A3.022 3.022 0 0 0 .96 23.904v58.027c0 4.844 2.577 9.322 6.765 11.756l36.736 21.355a7.402 7.402 0 0 0 7.44 0l36.735-21.355A13.599 13.599 0 0 0 95.4 81.931V23.904a3.025 3.025 0 0 0-1.765-2.748z" fill="#6A9A9A"/><path d="M11.9 86.783a5.304 5.304 0 0 1-2.63-4.571v-52.69c0-1.183.69-2.257 1.764-2.749l35.888-16.42a3.021 3.021 0 0 1 2.514 0l35.889 16.42a3.022 3.022 0 0 1 1.764 2.748v52.69a5.288 5.288 0 0 1-2.63 4.572l-33.242 19.323a6.041 6.041 0 0 1-6.075 0L11.901 86.783z" fill="#F8F8F8"/><path d="M48.18 80.326c12.052 0 21.823-9.771 21.823-21.824s-9.77-21.824-21.824-21.824c-12.053 0-21.824 9.771-21.824 21.824s9.771 21.824 21.824 21.824z" fill="#6A9A9A"/><path d="M48.18 75.154c9.196 0 16.651-7.455 16.651-16.652 0-9.197-7.455-16.652-16.652-16.652-9.197 0-16.652 7.455-16.652 16.652 0 9.197 7.456 16.652 16.652 16.652z" fill="#F8F8F8"/><path d="M49.029 44.883v1.498c.989.102 1.838.305 2.545.61a5.024 5.024 0 0 1 1.853 1.388c.415.472.737.957.964 1.457.226.5.34.957.34 1.373 0 .463-.17.863-.507 1.2a1.673 1.673 0 0 1-1.228.507c-.907 0-1.494-.49-1.762-1.471-.305-1.156-1.04-1.924-2.206-2.303v5.771c1.147.315 2.06.602 2.74.86.68.26 1.288.634 1.825 1.124a5.2 5.2 0 0 1 1.324 1.825 5.74 5.74 0 0 1 .465 2.324 6.16 6.16 0 0 1-.742 2.962c-.495.92-1.223 1.671-2.185 2.255-.962.582-2.104.929-3.427 1.04v3.454c0 .546-.054.944-.16 1.194-.106.25-.34.374-.7.374-.333 0-.566-.102-.7-.305-.135-.204-.202-.518-.202-.943V67.33c-1.082-.12-2.027-.375-2.837-.763s-1.484-.872-2.025-1.45c-.541-.578-.942-1.179-1.2-1.803a4.776 4.776 0 0 1-.389-1.839c0-.444.174-.843.52-1.2a1.737 1.737 0 0 1 1.298-.534c.416 0 .767.097 1.054.292a1.5 1.5 0 0 1 .596.818c.25.759.467 1.339.652 1.741.185.402.466.77.84 1.103.375.333.872.588 1.491.763v-6.451c-1.239-.342-2.274-.724-3.107-1.145a5.223 5.223 0 0 1-2.025-1.797c-.518-.777-.777-1.775-.777-2.996 0-1.59.506-2.895 1.518-3.913 1.014-1.017 2.477-1.609 4.391-1.775v-1.47c0-.778.292-1.166.875-1.166.591-.001.888.378.888 1.137zM47.266 54.4v-5.314c-.776.231-1.382.537-1.817.916-.435.38-.652.953-.652 1.72 0 .731.203 1.284.61 1.658.407.375 1.027.715 1.86 1.02zm1.763 4.12v6.077c.934-.185 1.655-.56 2.164-1.124a2.85 2.85 0 0 0 .763-1.97c0-.805-.247-1.427-.742-1.866-.496-.439-1.224-.811-2.185-1.117z" fill="#6A9A9A"/><path d="M82.611 57.466h-1.51C80.552 39.776 66 25.553 48.18 25.553c-14.452 0-26.761 9.354-31.19 22.325-.405 1.183.488 2.412 1.739 2.412.78 0 1.475-.495 1.727-1.234 3.938-11.531 14.875-19.85 27.723-19.85 15.806 0 28.72 12.585 29.269 28.26h-1.486a.48.48 0 0 0-.377.777l3.326 4.201a.48.48 0 0 0 .751 0l3.325-4.201a.48.48 0 0 0-.376-.777zm-4.979 9.256c-.78 0-1.475.495-1.727 1.234-3.94 11.53-14.875 19.847-27.723 19.847-15.805 0-28.719-12.585-29.268-28.26h1.464a.48.48 0 0 0 .376-.776l-3.324-4.202a.48.48 0 0 0-.752 0l-3.325 4.202a.48.48 0 0 0 .376.777h1.532c.55 17.69 15.1 31.912 32.922 31.912 14.45 0 26.759-9.352 31.19-22.321.403-1.184-.49-2.413-1.74-2.413z" fill="#6A9A9A"/></svg>