<svg width="97" height="117" viewBox="0 0 97 117" fill="none" xmlns="http://www.w3.org/2000/svg"><path d="M93.635 21.156L50.694 1.508a6.042 6.042 0 0 0-5.03 0L2.725 21.156A3.022 3.022 0 0 0 .96 23.904v58.027c0 4.844 2.577 9.322 6.765 11.756l36.736 21.355a7.402 7.402 0 0 0 7.44 0l36.735-21.355A13.599 13.599 0 0 0 95.4 81.931V23.904a3.025 3.025 0 0 0-1.765-2.748z" fill="#6A9A9A"/><path d="M11.9 86.783a5.304 5.304 0 0 1-2.63-4.571v-52.69c0-1.183.69-2.257 1.764-2.749l35.888-16.42a3.021 3.021 0 0 1 2.514 0l35.889 16.42a3.022 3.022 0 0 1 1.764 2.748v52.69a5.288 5.288 0 0 1-2.63 4.572l-33.242 19.323a6.041 6.041 0 0 1-6.075 0L11.901 86.783z" fill="#F8F8F8"/><path d="M81.557 67.586c-1.38-2.37-4.437-3.183-6.827-1.814l-11.373 6.512a3.938 3.938 0 0 1-2.65.46l-14.837-2.65-2.063-.236h12.178a4.956 4.956 0 0 0 4.956-4.956c0-.86-.697-1.558-1.558-1.558H45.305c-.987 0-1.962.214-2.858.628l-9.236 4.262a10.988 10.988 0 0 1-4.604 1.01h-.312v13.029h2.725l31.05-2.727.067-.005.896-.073a5.272 5.272 0 0 0 2.083-.67l15.865-9.084a1.55 1.55 0 0 0 .576-2.128zM23.51 86.984h-9.278a.563.563 0 0 1-.562-.562v-22.5c0-.31.252-.563.562-.563h9.278c.777 0 1.41.633 1.41 1.41v20.806c0 .777-.633 1.41-1.41 1.41zm-8.715-1.124h8.715a.285.285 0 0 0 .285-.285V64.769a.285.285 0 0 0-.285-.285h-8.715V85.86z" fill="#6A9A9A"/><path d="M27.526 85.297h-3.169a.563.563 0 0 1-.562-.563V66.172c0-.31.252-.563.562-.563h3.169c.734 0 1.331.598 1.331 1.332v17.024c0 .735-.597 1.332-1.331 1.332zm-2.606-1.125h2.605a.207.207 0 0 0 .207-.207V66.941a.207.207 0 0 0-.206-.206H24.92v17.437zm38.735-41.435a3.487 3.487 0 0 0-.7-1.353 3.018 3.018 0 0 0-1.15-.828c-.438-.18-.952-.27-1.526-.27-1.213 0-2.118.383-2.69 1.14-.553.73-.832 1.813-.832 3.219 0 .884.15 1.642.45 2.253.305.627.736 1.1 1.283 1.406.537.3 1.152.452 1.83.452 1.092 0 1.968-.358 2.605-1.063.63-.696.948-1.753.948-3.141 0-.687-.074-1.297-.218-1.815zm-4.25.353c.066-.315.176-.55.325-.7.134-.134.328-.2.59-.2.373 0 .603.136.746.44.173.366.26.978.26 1.818 0 .885-.085 1.535-.254 1.932-.138.325-.37.47-.752.47-.38 0-.614-.142-.76-.463-.177-.383-.267-1.023-.267-1.898 0-.576.038-1.047.112-1.4zm-7.066-2.872c.628-.697.947-1.753.947-3.141 0-.686-.073-1.295-.218-1.81a3.66 3.66 0 0 0-.69-1.358 2.905 2.905 0 0 0-1.155-.849c-.441-.18-.957-.27-1.531-.27-.801 0-1.475.173-2.002.514-.535.346-.926.858-1.161 1.52-.224.629-.338 1.418-.338 2.346 0 .875.149 1.632.443 2.25.303.636.734 1.111 1.281 1.414a3.709 3.709 0 0 0 1.818.447c1.092 0 1.969-.358 2.606-1.063zm-1.86-5.084c.173.368.26.986.26 1.84 0 .89-.083 1.542-.25 1.938-.134.32-.368.463-.756.463-.255 0-.443-.066-.577-.203-.15-.151-.255-.391-.316-.715-.069-.366-.103-.852-.103-1.443 0-.57.034-1.043.103-1.406.06-.319.168-.557.319-.708.138-.138.325-.205.574-.205.373 0 .603.135.746.44zm10.085-1.5a.943.943 0 0 0-.287-.704 1 1 0 0 0-.712-.264c-.378 0-.6.16-.72.293-.128.144-.27.347-.43.617l-8.657 13.99c-.175.26-.259.488-.259.697a.87.87 0 0 0 .359.714c.212.162.434.244.661.244.391 0 .731-.242 1.005-.713l8.612-13.884c.377-.603.428-.84.428-.99z" fill="#6A9A9A"/><path d="M54.764 58.815c-.868 0-1.736-.29-2.44-.87l-12.17-10.018a.588.588 0 0 1-.063-.062c-1.723-1.383-3.051-3.25-3.846-5.407-2.355-6.395.472-13.713 6.304-16.313 3.93-1.752 8.398-.983 11.661 2.006.402.368 1.057.354 1.46-.031 3.338-3.197 7.939-4 12.009-2.097 5.792 2.708 8.515 10.1 6.07 16.48-.824 2.152-2.18 4.005-3.922 5.365a.513.513 0 0 1-.063.059L57.159 57.98a3.835 3.835 0 0 1-2.395.834zM40.948 47.123l12.092 9.954c.968.797 2.437.808 3.418.025l12.526-9.991a.556.556 0 0 1 .078-.074c1.617-1.238 2.875-2.945 3.638-4.937 2.237-5.84-.229-12.594-5.498-15.058-3.639-1.702-7.76-.977-10.755 1.89-.836.801-2.152.823-2.996.05-2.928-2.682-6.93-3.375-10.444-1.808-5.301 2.362-7.86 9.044-5.706 14.896.735 1.995 1.97 3.717 3.568 4.977.03.023.056.049.08.076z" fill="#6A9A9A"/></svg>