<svg width="350" height="286" viewBox="0 0 350 286" fill="none" xmlns="http://www.w3.org/2000/svg"><g opacity=".03" clip-rule="evenodd" stroke="#1B1B1B" stroke-width="5"><path d="M97.837-94.554c-.108-28.242-43.182-60.002-61.582-76.376-36.38-32.385-74.219-62.291-111.706-92.675-37.488-30.384-75.076-60.685-110.823-94.042-23.21-21.654-50.482-46.042-66.224-76.961-33.533-65.891 72.195-56.106 99.582-57.547 69.672-3.682 149.585-2.002 214.891-36.314 38.985-20.484 54.531-54.838 46.158-104.907-2.699-16.283-10.688-35.021-3.92-50.884 7.226-16.942 23.851-26.718 37.649-33.275 50.327-23.885 108.191-26.652 161.44-29.65 57.418-3.295 115.377-2.331 172.391-2.587 24.175-.107 49.423-10.707 72.444-19.322 30.18-11.292 60.003-23.976 89.933-36.24 65.846-26.916 133.696-55.266 203.361-62.102 43.627-4.283 91.309 1.507 125.2 38.76 17.017 18.705 25.923 46.511 35.759 71.212 11.91 29.84 23.35 59.968 36.02 89.339 40.85 94.595 99.15 187.031 193.8 191.677 14.31.7 28.38-1.582 42.63-2.01 9.07-.264 17.15 2.413 20.52 14.002 8.48 29.066-18.18 74.95-29.11 98.012-23.93 50.481-50.92 98.696-76.2 148.164-16.73 32.715-45.68 77.421-45.98 117.17-.27 35.416 38.32 61.015 59.33 78.46 19.69 16.332 55.36 39.188 57.52 72.413 1.05 16.11-7.65 29.462-16.74 39.823-15.93 18.12-34.29 30.903-48.62 51.576-23.5 33.917-43.13 80.585-39.94 126.288 2.21 31.669 17.02 52.408 35.85 72.233 7.91 8.335 14.34 14.232 14.75 27.764.68 21.489-6.22 44.23-11.9 64.153-20.32 71.302-49.19 140.249-81.29 204.624-16.05 32.171-33.38 64.244-54.66 91.687-13.93 18.021-32.72 39.469-53.97 39.444-24.612 0-50.649-10.839-74.568-18.944-44.673-15.146-88.806-32.657-132.764-50.62-101.658-41.561-202.36-86.487-302.105-134.78-70.259-34.074-142.009-68.197-208.064-113.497-12.882-8.895-25.041-19.268-36.313-30.976-12.044-12.297-26.989-17.799-42.143-21.901-94.056-25.458-197.099-5.914-291.546 6.342-23.973 3.105-47.945 6.227-71.986 8.401-20.666 1.87-45.408 7.232-65.494-.824-39.579-15.854-4.98-74.291 9.648-98.103C-159.434 228.616-92.987 157.684-31.399 85.27-2.116 50.785 27.389 16.39 55.08-20.048c14.418-18.944 42.85-49.747 42.757-74.506z"/><path d="M115.584-99.315c-15.785-29.885-43.481-51.973-66.471-72.761-33.084-29.925-67.208-58.188-100.818-87.266-31.78-27.497-63.629-55.307-93.06-86.534-17.947-19.042-40.464-41.814-48.964-69.978-18.44-61.046 80.758-51.784 105.247-53.381 60.88-3.952 129.905-4.857 186.228-36.998 35.17-20.071 49.619-53.356 42.118-99.566-2.593-15.988-7.265-29.638-1.35-45.543 6.839-18.409 22.571-29.885 36.993-37.986 45.176-25.382 98.576-30.774 147.547-35.261 50.591-4.635 103.303-7.903 152.267-4.511 19.58 1.35 42.118-6.315 61.495-12.193 29.816-9.056 59.329-19.503 88.996-29.218 60.294-19.758 122.154-38.792 184.878-40.958 45.285-1.564 92.5 6.916 130.175 39.69 38.182 33.236 55.122 84.756 76.295 133.732 36.57 84.674 85.96 187.624 170.56 205.513 12.83 2.717 25.16 1.244 37.97 1.91 6.59.338 14.09 1.408 17.43 9.336 8.68 20.582-15.09 58.214-23.09 73.979-22.11 43.568-46.96 85.003-70.13 127.731-18.4 33.927-41.72 71.624-48.83 111.841-8.64 48.804 47.78 83.53 67.63 117.892 34.4 59.589-30.78 93.54-62.91 121.952-36.9 32.617-67.35 92.123-34.28 142.59 12.66 19.297 28.23 30.799 33.88 55.982 8.83 39.386 2.15 84.394-5.02 123.326-10.8 58.527-27.9 116.419-51.14 169.314-16.65 37.871-44.27 97.253-84.72 92.799-27.23-2.972-54.913-13.831-81.427-23.43-39.701-14.366-78.902-30.741-117.893-47.75-90.009-39.155-179.025-82.327-266.292-129.813-59.544-32.412-225.638-164.868-238.136-169.594-37.263-14.078-79.631-11.6-118.049-9.418-51.104 2.898-101.952 10.406-152.76 17.363-24.184 3.293-48.49 7.319-72.804 8.94-17.305 1.153-40.032 2.141-55.19-10.134-29.586-23.949 3.376-78.746 17.008-101.929 41.76-71.073 94.586-132.621 144.118-195.552C47.39 23.904 72.069-6.944 94.134-40.319c8.899-13.477 31.207-40.538 21.45-58.996z"/><path d="M137.423-114.642c-43.11-59.802-102.612-104.28-153.965-154.225-25.775-25.075-51.712-50.835-73.942-80.703-11.564-15.531-26.004-35.172-28.232-56.822-5.954-57.916 83.453-50.085 110.214-52.284 51.738-4.265 110.186-7.502 157.125-37.057 28.677-18.068 42.8-47.722 37.44-86.698-2.376-17.294-6.076-31.985 0-48.966 6.157-17.203 18.983-29.341 31.972-38.441 37.325-26.171 83.71-34.537 125.734-40.771a833.333 833.333 0 0 1 148.606-8.482c43.475 1.391 86.741-14.264 129.19-24.582 56.234-13.662 113.488-25.594 171.032-23.791 45.447 1.433 91.251 12.69 130.102 42.608 39.479 30.47 63.214 76.075 84.611 125.288 32.35 74.395 72.67 174.088 143.64 202.342 10.32 4.118 19.94 4.57 30.59 5.287 5.17.346 11.85.453 14.41 7.033 6.17 15.844-16.64 46.56-23.01 57.266-20.32 34.175-42.34 66.811-63.17 100.533-19.44 31.482-40.62 64.291-52.7 101.183-19.22 58.757 42.23 93.114 40.51 149.104-1.07 34.76-28.35 59.687-49.96 76.931-26.6 21.205-64.893 35.147-78.206 73.843-9.916 28.823 5.644 45.598 17.627 67.47 20.309 37.057 21.689 87.291 19.579 130.187-2.85 57.966-13.983 116.789-32.932 170.07-8.587 24.153-19.105 49.278-34.591 68.037-14.508 17.582-28.239 22.087-47.627 18.488-59.354-11.035-119.281-41.793-176.197-69.265-71.511-34.521-142.037-72.633-210.457-115.512-46.654-29.243-94.363-60.182-135.313-100.583-10.673-10.532-21.603-21.979-29.407-35.871-5.9-10.442-8.404-19.065-18.348-25.027-29.474-17.664-70.472-13.044-102.052-11.207-50.497 2.923-100.75 10.705-150.935 17.713-29.285 4.118-84.453 17.071-107.838-14-20.185-26.829 4.172-72.575 16.614-96.209C9.009 118.475 49.494 66.018 87.055 12.005c17.215-24.755 35.105-49.699 49.322-77.22 3.632-7.016 9.451-16.314 10.45-24.837 1.121-9.766-4.111-17.219-9.404-24.59z"/><path d="M141.13-100.72c-39.836-52.876-87.828-96.317-130.594-145.798-19.176-22.185-38.54-45.459-53.15-72.524-7.86-14.554-16.205-32.874-14.038-50.964 6.219-51.921 79.753-47.231 109.46-50.272 44.144-4.467 94.857-8.967 133.89-36.963 25.569-18.337 35.156-45.418 30.383-80.345-5.125-37.465 6.333-64.661 32.409-85.561 32.692-26.183 73.959-36.856 111.918-44.438 45.733-9.091 92.045-13.121 138.372-12.04 45.055 1.054 88.705-8.159 133.463-14.151 59.342-7.936 120.588-11.851 179.261 4.417 51.085 14.167 97.227 45.386 131.816 93.663 36.129 50.388 54.015 113.871 83.35 169.616 18.3 34.77 43.81 80.765 78.01 94.281 11.4 4.508 32.18-1.574 23.07 20.603-5.2 12.684-14.95 23.809-22.64 34.177-12.44 16.755-25.29 33.048-37.93 49.572-26.96 35.223-55.82 71.197-76.023 112.906-25.454 52.514 12.383 92.93 7.771 146.177-2.478 28.655-18.804 51.525-36.075 69.491-11.174 11.637-23.402 21.716-35.886 31.12-13.037 9.823-28.465 17.307-39.835 30.006-16.205 18.074-9.169 39.468-6.131 62.833a615.481 615.481 0 0 1 3.497 124.18c-3.7 50.759-12.376 102.968-30.653 149.095-7.11 17.957-16.117 36.995-29.492 49.036-13.375 12.04-27.21 11.216-42.536 7.59-45.461-10.714-90.826-35.644-133.95-59.272-53.974-29.578-106.888-62.634-157.419-100.239-34.88-25.961-69.875-54.006-99.056-89.205-8.487-10.244-16.562-21.213-23.091-33.46-4.483-8.398-6.887-19.235-13.382-25.548-20.323-19.705-61.125-13.821-84.959-12.675-47.566 2.283-94.383 13.137-141.889 15.774-25.927 1.442-66.533 5.068-85.573-21.873-17.906-25.325-1.688-65.214 9.014-89.616C73.544 90.892 101.8 48.143 127.126 3.542c10.412-18.354 21.822-37.556 28.567-58.514 5.996-18.675-4.355-32.19-14.563-45.748z"/><path d="M150.927-99.855c-31.708-46.53-69.933-87.834-101.87-135.121-18.694-27.692-50.888-74.247-36.43-113.288 15.86-42.9 71.147-44.069 103.105-47.525 38.036-4.115 82.703-9.736 115.255-36.523 10.295-8.468 19.065-19.677 22.782-34.441 3.981-15.8-.371-29.626-.937-45.443-1.188-33.182 15.044-59.821 36.525-78.115 30.358-25.865 68.32-38.094 104.177-46.62 40.624-9.616 81.923-14.357 123.304-14.155 39.547.165 78.676-.905 118.264-2.14 51.772-1.646 104.272 1.012 154.493 17.793 49.471 16.541 94.449 47.542 129.78 93.141 34.467 44.498 57.722 98.887 78.089 154.288 11.556 31.445 31.076 78.436 58.646 94.319 12.26 7.069 24.29 6.583 11.25 24.968-16.41 23.15-38.53 41.724-57.54 61.524-27.427 28.573-55.539 57.706-78.558 91.677-14.7 21.693-21.251 42.744-20.239 70.832.782 21.397 4.331 42.571 2.536 64.05-4.203 50.415-36.74 84.987-65.507 117.181-18.505 20.705-35.405 36.498-44.931 65.951-11.266 34.811-15.996 72.684-23.525 108.828-8.271 39.691-17.824 80.978-35.877 115.938-16.07 31.124-35.614 45.081-64.866 36.695-45.626-13.068-90.598-45.262-131.103-75.045-41.227-30.301-81.746-64.372-115.91-106.021-18.444-22.492-31.033-48.9-47.413-73.062-20.604-30.334-67.215-18.846-94.915-16.278-45.984 4.263-190.673 36.16-177.322-67.153 5.572-43.123 27.518-82.921 43.568-120.974 6.652-15.793 16.279-34.746 17.783-52.842 1.64-19.71-13.081-38.432-22.614-52.439z"/><path d="M167.669-95.904c-24.231-42.165-53.229-82.001-74.02-127.542-13.488-29.494-26.733-68.901-9.334-100.107 19.638-35.216 62.94-43.425 94.758-47.913 32.781-4.619 71.916-8.505 98.709-35.207 8.524-8.506 15.551-19.976 16.86-33.71 1.261-13.174-2.3-26.348-1.12-39.761 2.644-30.119 17.608-54.936 36.902-72.935 57.074-53.248 142.019-65.089 210.88-66.48 34.468-.692 69.941 2.939 104.631 5.541 45.015 3.376 90.098 10.622 133.029 28.086 91.278 37.118 152.458 119.44 195.187 221.877 13.447 32.244 23.738 67.13 44.809 93.042 10.87 13.38 8.49 22.989-2.61 35.192-17.368 19.069-38.551 33.643-57.825 49.559-27.413 22.635-55.414 45.607-79.658 72.721-16.711 18.691-28.574 36.698-32.175 64.726-2.569 19.984-1.969 40.346-3.513 60.453-2.941 38.197-13.009 76.105-30.833 107.789-14.162 25.113-31.022 47.938-48.448 69.7-22.652 28.332-41.812 57.118-59.015 90.745-22.808 44.512-54.855 126.619-108.576 104.89-59.251-23.977-114.787-84.899-152.802-143.927-12.766-19.819-23.246-44.125-40.463-58.74-25.775-21.844-51.927-21.079-82.585-20.988-45.898.123-145.775 12.285-146.854-71.635-.425-33.248 11.364-64.684 17.008-96.665 6.366-35.817-6.393-59.975-22.942-88.71z"/><path d="M185.716-92.144c-23.967-54.956-77.712-145.259-36.835-206.369 21.592-32.295 59.784-44.431 91.821-51.664 25.783-5.85 56.875-8.047 76.355-32.846 14.319-18.234 7.963-44.769 13.448-67.594 6.809-28.296 22.436-51.45 41.64-68.852 53.663-48.636 128.278-63.562 192.832-66.738 67.043-3.291 140.916 12.103 204.005 41.716 78.664 36.936 137.597 106.875 178.811 195.442 7.604 16.349 14.514 33.126 21.815 49.672 4.905 11.1 12.179 21.838 16.046 33.513 6.437 19.468-1.148 35.381-13.307 48.069-17.489 18.266-38.974 31.266-58.913 44.974-27.267 18.76-55.141 37.183-80.505 59.193-17.044 14.81-34.885 30.765-40.985 56.461-4.163 17.526-5.027 36.089-4.878 54.24.324 38.918-1.35 70.39-16.235 106.035-24.493 58.518-62.158 111.136-101.949 154.918-31.227 34.36-80.64 87.736-126.139 64.763-40.822-20.57-64.702-69.807-91.598-109.614-13.077-19.353-27.766-37.027-45.026-50.792-21.761-17.353-42.247-24.635-68.029-27.474-43.394-4.78-108.825-6.023-122.239-69.543-4.953-23.442-2.126-47.723-4.723-71.47-3.395-31.398-13.32-58.32-25.412-86.04z"/><path d="M210.638-90.11c-17.067-60.131-39.488-135.914 1.733-189.357 19.966-25.889 48.052-40.362 75.233-51.178 19.468-7.751 50.379-10.032 62.314-33.863 8.766-17.537 9.98-41.73 17.91-60.519 10.897-25.832 27.404-47.108 46.771-63.764 50.452-43.402 116.164-60.173 176.091-64.975 130.21-10.42 262.7 72.57 332.377 209.11 20.776 40.7 47.594 84.02 14.019 125.601-36.656 45.362-91.875 66.614-135.625 98.847-16.716 12.306-38.018 27.1-47.344 49.382-5.61 13.394-5.994 30.198-6.251 44.942-.674 37.554-3.23 71.326-15.603 106.367-19.111 54.152-49.583 104.111-84.115 145.033-30.115 35.684-73.062 77.62-116.798 51.895-33.534-19.77-54.802-61.73-80.857-92.661-28.996-34.448-64.856-57.66-104.236-69.003-38.308-11.005-80.325-18.427-100.514-65.181-6.925-16.038-14.161-36.804-16.757-54.555-4.191-29.268-10.327-58.07-18.348-86.12z"/><path d="M238.426-89.686c-7.895-60.72-8.773-124.034 27.912-171.891 17.121-22.326 38.763-38.188 60.648-52.559 16.102-10.574 32.73-19.493 44.755-36.829 11.142-16.051 19.611-34.688 30.368-51.159 14.19-21.827 31.168-40.723 50.283-55.96 47.914-38.122 106.2-55.952 161.962-62.136 26.994-3.006 56.275-4.571 83.087 3.623 25.893 7.906 51.497 20.408 75.305 34.985 50.613 30.957 94.478 76.293 126.277 133.612 21.804 39.316 33.593 77.545 5.358 117.43-31.832 44.957-81.744 69.763-122.882 98.941-28.215 20.012-59.838 39.63-65.109 82.157-4.197 33.84-7.605 65.958-18.464 97.945-16.16 47.18-39.921 89.92-69.873 125.682-27.392 32.579-62.045 60.226-101.226 42.824-31.043-13.811-55.128-44.752-82.25-66.872-30.226-24.707-63.435-38.328-98.405-49.281-31.428-9.883-61.02-25.069-81.332-57.311-4.157-6.588-8.524-13.762-11.729-21.132-4.09-9.405-3.772-18.728-4.576-29.27-2.092-27.819-6.539-55.317-10.109-82.799z"/><path d="M269.066-94.649c.674-57.675 12.04-112.183 43.17-157.13 13.308-19.228 29.2-35.065 43.844-52.685 11.791-14.204 22.934-27.402 36.492-39.107 32.161-27.716 58.299-63.581 92.478-88.262 45.625-32.995 97.887-51.232 149.745-58.524 25.322-3.564 51.48-4.809 77.098-.784 22.004 3.456 43.076 15.59 62.624 28.004 38.313 24.318 75.513 58.88 100.39 102.607 54.846 96.403-53.288 166.492-108.788 207.538-25.524 18.881-64.526 40.749-74.981 78.148-7.474 26.718-12.027 53.89-21.652 79.782-25.855 69.537-78.34 151.323-148.282 140.435-29.928-4.652-57.206-23.55-85.145-36.237-28.769-13.066-58.462-20.35-88.363-28.342-27.946-7.465-50.219-18.09-68.269-46.573-8.628-13.602-7.865-29.885-8.634-46.572-1.255-27.41-2.031-54.978-1.727-82.298z"/><path d="M296.966-102.036c11.236-87.056 52.968-182.096 114.331-232.653 72.18-59.472 150.377-109.552 236.617-123.949 39.983-6.675 83.782-9.96 121.509 11.87 28.713 16.603 62.065 41.42 77.867 76.322 38.659 85.368-47.331 153.326-96.322 192.821-26.376 21.261-59.951 41.98-79.831 73.029-11.534 18.002-17.422 41.815-26.735 61.587C616.183 16.908 569.73 65.235 511.866 73.877c-26.755 3.993-53.705-.946-80.257-4.873-27.18-4.017-54.697-6.198-81.708-11.803-21.562-4.478-46.973-12.06-54.914-40.22-10.014-35.485-2.607-83.466 1.979-119.017z"/><path d="M324.324-116.021c16.388-81.847 51.09-161.684 109.428-210.545 30.936-25.909 66.849-43.794 101.328-61.465 39.083-20.027 79.917-35.573 121.624-43.284 51.928-9.606 136.03-18.264 163.161 53.944 26.927 71.673-41.118 135.107-81.358 171.257-25.798 23.157-53.409 44.412-78.058 69.728-13.366 13.725-23.662 29.584-34.973 45.681-31.261 44.602-75.827 79.911-121.251 98.76-44.026 18.273-98.489 26.363-144.962 20.324-20.052-2.595-34.384-11.352-40.449-36.248-8.403-34.61-1.264-74.342 5.51-108.152zm-901.47 98.699c-.856-64.296-28.85-131.117-15.025-196.63 11.353-53.806 68.508-58.298 102.796-82.675 27.247-19.367 42.709-53.675 57.444-86.592 13.24-29.552 25.132-59.992 39.079-89.059 9.028-18.791 24.531-55.69 44.111-56.356 18.744-.642 35.931 28.112 46.819 45.109 14.196 22.156 26.782 45.776 40.567 68.286 23.232 37.969 51.105 66.073 83.021 92.671a2812.291 2812.291 0 0 0 110.76 87.694c27.624 20.823 55.436 41.49 81.99 64.37C31.07-156.148 67.83-129.212 68-102.745c.08 12.629-9.723 26.615-16.332 36.71-11.185 17.088-23.932 32.711-36.72 47.997C-8.87 10.437-33.698 37.62-58.256 65.132c-31.876 35.705-62.323 70.827-90.345 111.363-28.972 41.958-56.65 85.299-84.894 128.048-19.128 28.96-38.236 61.482-65.826 79.252-34.557 22.214-62.922-1.209-97.87-1.48-30.064-.239-27.847-85.275-31.667-108.92-3.834-23.933-12.283-46.213-15.557-70.203-4.083-29.947-4.137-60.585-5.141-90.853-1.22-37.023-1.705-72.268-34.119-86.386-18.448-8.021-38.405-9.708-57.499-14.513-12.37-3.118-35.702-8.449-35.972-28.762z"/><path d="M-562.366-28.76c-3.152-53.895-21.769-122.877-4.164-178.511 15.041-47.543 62.08-53.707 93.754-78.681 26.148-20.599 37.788-54.307 50.858-87.423 10.487-26.564 20.656-53.384 32.559-79.1 8.772-18.951 22.166-50.946 40.406-54.868 16.397-3.527 33.982 24.719 43.186 39.089 13.428 20.978 24.912 43.761 36.775 66.065 20.844 39.18 42.187 74.413 72.694 103.194 30.642 28.904 64.165 50.517 98.046 73.011 26.505 17.6 52.876 35.711 78.059 56.03 18.759 15.128 45.73 34.491 54.313 61.468 6.795 21.34-27.666 56.754-37.828 69.254C-24.627-13.532-46.793 10.593-69 34.571c-27.072 29.217-55.008 54.769-78.916 88.098-42.761 59.589-78.504 133.795-133.526 178.084-33.185 26.712-70.116 33.543-107.027 29.547-14.615-1.582-18.124-26.771-19.966-41.462-3.064-24.406-3.449-49.232-5.803-73.737-2.207-22.939-7.106-44.733-11.053-67.227-3.995-22.791-5.115-46.142-8.057-69.09-1.822-14.246-3.624-30.824-11.593-42.277-8.246-11.857-21.849-16.825-33.739-20.6-22.329-7.02-81.46-6.632-83.686-44.666z"/></g></svg>