<svg width="350" height="286" viewBox="0 0 350 286" fill="none" xmlns="http://www.w3.org/2000/svg"><g opacity=".03" clip-rule="evenodd" stroke="#1B1B1B" stroke-width="5"><path d="M-36.3 215.275c-21.244-18.61-73.559-7.337-98.011-4.379-48.356 5.841-95.817 14.415-143.405 22.41-47.587 7.996-95.18 16.121-143.844 20.844-31.594 3.07-67.926 7.375-101.523-1.287-71.589-18.467 5.718-91.254 22.762-112.739 43.349-54.667 97.496-113.465 114.992-185.132 10.445-42.782-5.022-77.172-48.098-104.03-13.994-8.753-33.328-15.165-40.741-30.737-7.919-16.63-4.246-35.563-.029-50.246 15.4-53.537 51.62-98.747 84.613-140.651 35.53-45.226 74.609-88.038 112.15-130.949 15.919-18.194 24.681-44.137 33.459-67.097 11.508-30.099 21.735-60.85 32.35-91.405 23.398-67.176 47.048-136.803 88.028-193.554 25.662-35.54 61.559-67.455 111.916-68.208 25.284-.378 52.024 11.347 77.052 20.32 30.252 10.82 60.407 22.186 90.816 32.119 97.944 31.986 205.83 49.448 271.948-18.43 10-10.27 17.595-22.321 26.705-33.287 5.808-6.978 13.16-11.261 24.08-6.121 27.403 12.878 44.16 63.23 54.215 86.686 22.005 51.35 40.29 103.492 60.643 155.183 13.456 34.19 27.811 85.482 57.409 112.016 26.372 23.641 71.104 11.649 98.087 7.442 25.274-3.95 66.017-15.567 92.354 4.803 12.77 9.878 17.018 25.239 18.771 38.909 3.042 23.935.479 46.153 6.493 70.578 9.874 40.064 31.865 85.668 68.24 113.523 25.206 19.299 50.551 21.927 77.878 20.929 11.48-.417 20.16-1.329 30.58 7.313 16.55 13.715 29.04 33.934 40.21 51.379 40.01 62.423 72.59 129.692 99.6 196.367 13.5 33.32 26.08 67.54 32.57 101.65 4.29 22.372 7.93 50.653-6.15 66.57-16.29 18.448-41.64 30.794-63.55 43.362-40.92 23.466-83.25 44.963-125.81 66.029-98.437 48.706-198.763 94.467-300.979 137.284-72.041 30.121-145.107 61.327-222.783 80.867-15.194 3.77-31.017 6.021-47.255 6.723-17.189.89-31.204 8.453-44.308 17.099-81.332 53.663-134.874 143.847-188.192 222.763-13.538 20.026-27.063 40.064-41.343 59.526-12.275 16.73-24.63 38.827-43.962 48.554-38.08 19.179-58.99-45.433-67.16-72.158C35.71 622.02 26.509 525.264 12.982 431.168 6.508 386.393.25 341.511-8.741 296.637c-4.659-23.346-8.935-65.047-27.558-81.362z"/><path d="M-28.123 198.819c-32.85-7.944-67.74-1.799-98.538 1.679-44.33 4.997-88.101 11.874-132.144 17.827-41.646 5.628-83.572 11.099-126.46 12.497-26.152.852-58.126 2.662-84.865-9.605-57.968-26.576 14.625-94.813 29.634-114.229 37.329-48.256 82.331-100.6 95.511-164.096 8.229-39.65-7.162-72.51-46.769-97.468-13.702-8.637-27.027-14.168-35.036-29.129-9.274-17.31-7.467-36.699-3.995-52.872 10.87-50.665 42.168-94.266 71.213-133.948 30.007-40.995 62.441-82.674 97.389-117.137 13.97-13.785 23.14-35.753 31.557-54.171 12.944-28.345 24.643-57.384 36.994-86.054 25.09-58.277 51.76-117.249 91.648-165.705 28.797-34.984 66.401-64.768 115.905-71.322 50.185-6.628 100.019 14.768 150.749 31.308 87.678 28.623 197.543 59.73 266.944 8.146 10.526-7.819 17.581-18.037 26.562-27.203 4.614-4.716 10.38-9.632 18.536-6.89 21.171 7.117 33.65 49.844 40.174 66.275 18.032 45.405 32.647 91.459 49.348 137.103 13.258 36.247 26.085 78.678 51.525 110.629 30.872 38.772 94.247 19.453 133.141 27.319 67.438 13.646 49.758 84.976 49.792 127.867.033 49.249 24.486 111.463 84.21 120.065 22.841 3.286 41.767-.775 64.387 11.655 35.375 19.44 64.691 54.237 89.131 85.378 36.73 46.832 68.82 97.962 93.09 150.39 17.37 37.545 43.61 97.552 13.5 124.929-20.25 18.447-46.71 32.013-71.45 45.537-37.05 20.256-75.266 38.807-113.822 56.781-88.922 41.565-180.198 79.726-273.551 113.722-63.705 23.188-272.927 60.045-284.74 66.287-35.215 18.619-61.397 52.021-85.186 82.265-31.649 40.23-59.671 83.318-88.081 126.011-13.537 20.311-26.605 41.197-41.48 60.498-10.588 13.735-24.888 31.427-44.122 34.667-37.534 6.33-56.8-54.646-65.158-80.208-25.645-78.343-36.825-158.678-51.222-237.458-7.077-38.67-13.871-77.586-24.29-116.215-4.213-15.591-9.737-50.224-30.031-55.125z"/><path d="M-25.16 172.304c-73.364-7.259-146.086 7.913-217.514 13.357-35.857 2.728-72.333 5.124-109.437 2.023-19.296-1.609-43.577-3.782-61.281-16.44-47.36-33.866 17.682-95.71 33.743-117.227 31.043-41.61 67.298-87.569 76.206-142.317 5.434-33.456-7.451-63.669-40.218-85.446-14.537-9.663-27.999-16.612-36.708-32.405-8.822-16.001-9.434-33.65-7.659-49.409 5.082-45.302 29.507-85.613 52.645-121.243 27.183-41.763 57.929-80.875 91.99-117.019 29.815-31.672 46.713-74.468 67.07-113.12 26.974-51.199 55.919-102.017 95.354-143.963 31.151-33.122 69.904-60.01 118.044-69.336 48.97-9.432 98.868 2.956 149.924 19.482 77.182 24.983 178.6 60.736 246.751 26.23 9.918-5.014 16.624-11.926 24.207-19.433 3.681-3.647 8.18-8.582 14.811-6.15 15.961 5.86 23.892 43.289 27.705 55.146 12.172 37.851 22.06 75.963 33.558 113.894 10.735 35.41 21.315 72.999 40.98 106.469 31.329 53.294 97.75 29.967 138.585 68.312 25.349 23.809 25.982 60.757 24.613 88.364-1.706 33.974-16.599 71.911 3.6 107.501 15.045 26.509 37.918 25.945 62.246 31.437 41.22 9.302 79.794 41.509 110.554 71.482 41.571 40.498 78.302 87.773 105.701 137.24 12.43 22.422 24.3 46.935 28.12 70.96 3.58 22.511-2.13 35.787-17.66 47.94-47.556 37.193-110.275 61.763-168.537 86.25-73.207 30.765-148.452 58.414-225.879 81.328-52.798 15.623-107.566 30.914-164.955 34.876-14.959 1.03-30.774 1.649-46.353-1.695-11.733-2.487-19.855-6.316-30.905-2.807-32.749 10.406-56.418 44.198-75.941 69.089-31.227 39.79-58.651 82.614-86.61 124.875-16.294 24.679-43.093 74.61-81.862 71.578-33.472-2.624-51.647-51.158-61.132-76.127-23.979-63.15-36.512-128.216-52.146-192.122-7.165-29.288-14.026-59.207-25.249-88.079-2.856-7.366-5.975-17.882-11.703-24.272-6.58-7.303-15.63-8.313-24.658-9.223z"/><path d="M-12.27 178.739c-66.004-5.13-130.332 2.099-195.729 1.413-29.323-.307-59.586-1.193-89.545-8.151-16.112-3.74-35.369-9.608-47.497-23.205-34.808-39.023 17.373-91.046 34.754-115.33 25.866-36.05 56.054-77.046 60.898-124.836 3.175-31.304-10.782-56.414-40.125-75.95-31.478-20.953-44.284-47.541-42.695-80.921 2.007-41.837 21.317-79.837 40.754-113.312 23.451-40.301 51.08-77.687 82.549-111.702 30.608-33.079 52.589-71.9 77.718-109.42 33.323-49.739 70.921-98.244 121.948-131.464 44.428-28.921 98.369-42.852 157.453-36.833 61.685 6.262 121.113 34.867 182.319 49.766 38.176 9.294 89.543 20.606 122.304 3.918 10.926-5.566 20.12-25.171 30.718-3.665 6.064 12.296 7.957 26.963 10.635 39.595 4.33 20.412 8.041 40.827 12.059 61.243 8.569 43.518 16.435 88.964 34.334 131.712 22.523 53.836 77.862 52.218 114.729 90.914 19.842 20.822 26.182 48.197 28.221 73.035 1.329 16.078.792 31.915-.42 47.497-1.264 16.276-5.864 32.794-3.868 49.723 2.825 24.109 23.52 32.994 43.046 46.178a615.528 615.528 0 0 1 95.41 79.562c35.604 36.366 69.002 77.422 91.486 121.651 8.758 17.215 17.069 36.566 17.243 54.562.175 17.996-9.598 27.822-22.46 36.912-38.118 26.99-86.83 44.5-133.083 61.192-57.895 20.888-117.695 38.68-179.328 51.674-42.546 8.969-86.73 16.643-132.43 15.225-13.297-.417-26.864-1.623-40.366-4.833-9.263-2.197-18.978-7.567-28.009-6.876-28.223 2.195-50.814 36.677-65.729 55.303-29.768 37.17-52.615 79.451-82.077 116.81-16.078 20.392-40.232 53.232-73.03 49.677-30.836-3.337-50.006-41.894-61.218-66.066-22.051-47.522-35.398-96.995-52.075-145.5-6.869-19.951-13.713-41.214-24.96-60.14-10.032-16.854-27.015-18.039-43.934-19.358z"/><path d="M-5.138 171.966c-55.867-7.023-112.129-5.702-168.715-13.054-33.132-4.312-89.339-10.987-109.039-47.663-21.665-40.282 14.048-82.503 32.606-108.748 22.088-31.238 47.436-68.444 48.897-110.575.465-13.322-2.134-27.315-10.742-39.873-9.211-13.441-22.456-19.328-34.689-29.371-25.661-21.07-34.889-50.868-34.388-79.079.701-39.877 16.656-76.43 33.995-108.953 19.676-36.819 43.453-70.917 70.992-101.806 26.296-29.539 51.389-59.581 76.663-90.076 33.03-39.901 69.767-77.5 115.582-104.044 45.141-26.14 98.149-39.343 155.716-35.651 56.169 3.609 112.333 22.17 167.345 43.566 31.222 12.147 79.371 28.609 109.521 18.455 13.413-4.512 21.009-13.851 26.166 8.088 6.492 27.625 5.776 56.502 8.038 83.858 3.271 39.469 6.507 79.824 16.741 119.563 6.534 25.377 17.98 44.22 39.706 62.05 16.559 13.573 34.781 24.927 49.696 40.487 35.013 36.515 39.397 83.788 44.494 126.66 3.276 27.576 3.931 50.697 19.707 77.331 18.641 31.484 43.903 60.093 66.017 89.658 24.281 32.468 48.911 66.954 63.172 103.624 12.698 32.646 10.227 56.535-15.419 72.915-39.993 25.555-93.89 37.963-143.024 48.619-50.001 10.853-102.358 18.682-156.191 16.729-29.068-1.057-57.198-9.097-86.152-12.808-36.376-4.629-58.611 37.917-75.018 60.383-27.236 37.294-99.08 166.875-167.696 88.492-28.64-32.716-43.952-75.507-61.858-112.723-7.437-15.439-15.274-35.199-27.845-48.303-13.69-14.273-37.469-15.628-54.278-17.751z"/><path d="M8.904 162.03c-47.647-9.74-96.702-14.364-144.603-28.916-31.036-9.408-69.345-25.558-81.224-59.255-13.405-38.028 9.099-75.923 26.792-102.746 18.232-27.633 41.218-59.543 38.932-97.301-.735-12.019-4.683-24.878-14.114-34.948-9.041-9.664-21.274-15.713-30.549-25.475-20.83-21.915-29.531-49.557-30.255-75.934-2.148-78.026 45.193-149.543 89.722-202.088 22.293-26.297 48.49-50.487 73.4-74.772 32.322-31.512 67.59-60.514 109.094-81.141 88.235-43.864 190.439-35.248 295.511.512 33.072 11.258 66.037 26.631 99.409 27.981 17.221.71 22.854 8.849 24.651 25.251 2.803 25.639-.29 51.164-1.113 76.146-1.174 35.531-2.483 71.726 1.799 107.845 2.952 24.898 8.602 45.708 27.23 66.957 13.281 15.152 28.943 28.177 42.995 42.642 26.689 27.483 48.445 60.119 60.402 94.45 9.454 27.237 15.407 54.981 20.189 82.448 6.248 35.732 15.148 69.146 28.972 104.297 18.276 46.557 58.621 124.921 6.779 150.814-57.188 28.552-139.614 29.867-209.024 19.3-23.307-3.545-48.464-11.775-70.815-8.54-33.434 4.866-50.168 24.979-70.389 48.022-30.284 34.491-87.265 117.414-150.891 62.685-25.207-21.685-40.973-51.327-61.212-76.724-22.638-28.476-49.193-34.899-81.688-41.51z"/><path d="M23.666 150.988c-57.06-18.401-160.327-37.874-179.087-108.96-9.921-37.56 6.256-74.224 22.036-103.028 12.677-23.2 31.608-47.964 25.908-78.98-4.193-22.801-28.293-35.597-41.773-54.815-16.707-23.831-23.723-50.87-24.06-76.783-.947-72.418 37.244-138.233 77.585-188.729 41.902-52.439 102.333-97.631 166.286-125.33 79.749-34.528 171.183-32.423 264.855-4.706 17.289 5.119 34.439 11.042 51.676 16.519 11.568 3.668 24.431 5.322 35.743 10.15 18.854 8.058 25.765 24.275 27.23 41.787 2.119 25.201-2.354 49.911-5.273 73.93-3.981 32.857-8.618 65.946-8.903 99.527-.177 22.58-.024 46.513 15.203 68.092 10.384 14.719 23.728 27.652 37.434 39.553 29.391 25.514 51.877 47.597 68.748 82.345 27.659 57.09 42.179 120.15 48.668 178.954 5.093 46.151 12.406 118.519-34.928 137.424-42.438 16.991-95.153 2.308-142.795-3.874-23.163-3.004-46.134-3.688-67.877.141-27.41 4.83-46.427 15.368-65.618 32.818-32.302 29.367-76.536 77.597-133.033 45.615-20.852-11.801-37.184-29.99-56.705-43.757-25.785-18.236-52.536-28.612-81.32-37.893z"/><path d="M41.685 133.652C-14.689 106.651-86.34 73.307-99.125 7.035c-6.195-32.102 1.542-62.735 11.423-90.27 7.073-19.724 25.82-44.407 15.853-69.126-7.345-18.178-24.679-35.099-33.517-53.478-12.153-25.265-17.18-51.721-16.849-77.263.852-66.546 31.768-126.908 67.827-175.012C23.975-562.626 173.873-607.027 322.346-568.9c44.262 11.361 94.485 19.925 103.438 72.614 9.748 57.501-10.864 112.963-15.654 167.092-1.837 20.677-4.844 46.437 5.688 68.174 6.328 13.07 18.671 24.479 29.555 34.429 27.707 25.359 51.334 49.626 69.415 82.092 27.949 50.164 45.235 106.072 53.06 159.042 6.821 46.192 9.837 106.142-38.393 121.905-37.014 12.056-82.546.231-122.977-.706-45.015-1.061-86.149 10.461-120.714 32.477-33.603 21.435-66.974 48.022-115.385 32.215-16.607-5.422-36.963-13.741-51.989-23.543-24.715-16.227-50.368-30.688-76.705-43.239z"/><path d="M60.393 113.1C9.647 78.834-38.399 37.59-49.997-21.583c-5.408-27.61-2.976-54.332.734-80.25 2.73-19.069 7.047-37.437 2.01-57.926-4.66-18.975-13.026-37.658-18.255-56.623-6.973-25.083-9.902-50.316-8.675-74.73 3.13-61.149 28.338-116.645 60.605-162.542 15.611-22.226 33.817-45.213 57.704-59.89 23.063-14.179 49.38-25.1 76.064-33.302 56.704-17.456 119.722-20.336 183.737-6.241 43.904 9.674 80.366 26.136 91.58 73.699 12.637 53.617-1.799 107.45-7.15 157.601-3.67 34.397-9.892 71.086 18.502 103.183 22.591 25.542 44.414 49.353 61.208 78.662 24.675 43.34 40.99 89.437 47.978 135.559 6.296 42.096 4.088 86.371-34.888 104.228-30.898 14.132-70.033 11.711-104.565 17.405-38.526 6.309-70.716 22.19-102.071 41.157-28.207 17.02-59.176 29.154-96.79 23.045-7.69-1.244-15.957-2.718-23.604-5.193-9.758-3.159-16.537-9.566-24.971-15.94-22.24-16.843-45.798-31.708-68.763-47.219z"/><path d="M76.95 86.846C34.158 48.17.817 3.576-12.277-49.507c-5.607-22.702-6.963-45.097-10.48-67.736-2.846-18.24-5.365-35.328-5.168-53.239.507-42.453-9.082-85.784-4.965-127.74 5.46-56.04 26.374-107.29 55.227-150.992 14.087-21.342 30.465-41.776 50.437-58.318 17.153-14.208 40.195-21.975 62.439-28.414 43.586-12.629 94.115-17.644 143.36-7.354 108.568 22.683 89.549 150.134 83.59 218.905-2.737 31.631-12.155 75.341 8.964 107.93 15.083 23.285 32.44 44.68 45.481 69.032 35.019 65.403 61.597 158.876 7.147 204.104-23.295 19.358-55.515 27.301-83.516 39.85-28.834 12.92-53.945 30.36-79.727 47.487-24.091 16.009-46.796 25.676-80.095 20.357-15.906-2.534-27.609-13.882-40.628-24.349-21.379-17.2-42.56-34.862-62.84-53.17z"/><path d="M89.876 61.041C32.049-4.996-11.582-99.18-8.874-178.64-5.689-272.112 8.518-363.878 54.8-438.057c21.456-34.393 47.98-69.401 89.314-83.238 31.449-10.537 72.127-19.116 108.749-7.864 89.583 27.515 83.622 136.955 80.807 199.82-1.516 33.845-8.204 72.727 1.916 108.179 5.862 20.56 19.818 40.734 28.478 60.8 26.241 60.81 31.728 127.616-.087 176.716-14.713 22.7-36.252 39.635-56.767 56.941-21 17.718-40.846 36.904-62.925 53.444-17.626 13.2-40.126 27.233-66.493 14.55-33.23-15.977-64.298-53.284-87.915-80.25z"/><path d="M97.498 31.276C46.985-35.177 10.099-114.028 12.078-190.1c1.05-40.339 11.408-79.099 20.98-116.642 10.85-42.553 26.221-83.454 48.042-119.823 27.165-45.287 76.333-114.067 148.421-86.618 71.552 27.246 74.074 120.24 74.544 174.33.287 34.667-2.051 69.432.615 104.665 1.443 19.103 6.518 37.318 11.101 56.45 12.748 52.954 9.724 109.731-6.207 156.26-15.438 45.097-45.417 91.281-80.7 122.124-15.216 13.315-31.267 18.265-53.944 6.335-31.507-16.605-56.569-48.252-77.432-75.706z"/><path d="M98.963-3.694C55.713-63.59 29.61-133.475 31.082-200.496 32.73-275.626 61.46-348.88 96.16-408.888c18.449-31.894 55.458-103.63 109.974-80.061 54.516 23.568 61.011 100.295 63.704 143.532 3.226 52.439 3.569 106.21 2.044 158.267-1.31 45.242-3.678 92.663-11.847 135.708-4.552 24.327-11.436 47.777-20.57 70.072-6.799 16.479-14.486 38.278-29.421 48.662-37.68 26.184-90.402-42.345-111.08-70.986z"/><path d="M104.994-43.132C26.468-160.1 51.118-289.3 105.719-386.45c12.692-22.571 45.01-88.724 85.586-71.783 39.336 16.43 46.354 80.809 49.841 111.128 10.806 93.946-1.871 187.04-12.2 276.74-3.225 27.998-4.613 82.403-35.687 93.233-33.764 11.737-71.978-41.75-88.265-65.999zm-530.101 815.538c-48.767-41.909-117.389-65.145-157.352-118.867-32.824-44.12 1.634-89.94 6.05-131.778 3.514-33.243-11.972-67.54-26.898-100.372-13.392-29.483-28.343-58.543-40.904-88.235-8.112-19.205-25.514-55.247-13.056-70.366 11.924-14.477 44.855-8.333 64.803-5.246 26.005 4.02 52.042 10.217 78.04 14.78 43.839 7.711 83.355 5.415 124.417-.909a2813.166 2813.166 0 0 0 139.043-24.997c33.893-6.929 67.793-14.102 102.518-18.866 21.785-2.985 66.306-12.717 86.26 4.672 9.52 8.298 13.518 24.903 16.712 36.539 5.408 19.693 8.684 39.59 11.68 59.293 5.585 36.7 9.532 73.302 13.904 109.921 5.672 47.526 11.852 93.596 23.696 141.43 12.282 49.487 26.456 98.92 39.811 148.385 9.052 33.506 20.787 69.354 15.85 101.799-6.217 40.607-42.549 46.371-65.881 72.391-20.075 22.379-82.358-35.56-102.612-48.344-20.479-12.965-42.773-21.376-62.925-34.798-25.153-16.758-48.157-36.994-71.513-56.273-28.562-23.587-55.305-46.549-87.341-31.592-18.223 8.521-32.694 22.366-48.933 33.501-10.524 7.21-29.962 21.173-45.369 7.932z"/><path d="M-423.9 753.757c-42.49-33.306-106.525-65.002-136.582-115.019-25.687-42.74.823-82.083 3.062-122.356 1.862-33.235-15.705-64.27-31.88-95.984-12.975-25.442-26.352-50.815-37.753-76.758-8.402-19.118-23.523-50.334-14.392-66.603 8.208-14.626 41.02-9.116 57.884-6.506 24.614 3.817 49.294 10.284 73.866 16.153 43.167 10.303 83.705 17.619 125.471 13.796 41.948-3.842 80.337-14.67 119.622-25.183 30.736-8.223 61.765-16.006 93.664-21.438 23.756-4.051 56.122-11.456 82.026-.038 20.495 9.03 24.238 58.302 26.883 74.192 5.423 32.69 8.84 65.274 12.118 97.791 3.987 39.632 4.654 77.485 13.818 117.465 16.374 71.493 48.35 147.399 45.138 217.958-1.937 42.557-21.257 74.764-48.68 99.79-10.86 9.91-32.065-4.13-44.298-12.471-20.324-13.856-39.19-29.997-59.119-44.449-18.657-13.527-38.237-24.278-57.713-36.205-19.73-12.089-37.977-26.703-57.127-39.684-11.886-8.062-25.507-17.683-39.367-19.289-14.346-1.665-27.074 5.245-37.771 11.661-20.04 12.093-58.883 56.679-88.87 33.177z"/><path d="M-428.225 724.565c-40.596-28.768-91.699-63.984-111.581-110.335-16.26-37.895 2.622-71.431 2.208-107.656-.341-30.127-18.829-57.714-33.858-85.787-12.326-23.029-24.7-46.164-34.86-69.857-7.704-17.968-18.522-41.909-12.143-58.449 5.457-14.139 33.768-10.561 47.786-8.696 23.88 3.188 47.929 9.829 71.706 16.329 38.904 10.641 78.719 23.979 117.535 24.511 37.689.49 69.655-10.23 103.556-19.972 25.969-7.459 52.264-14.441 79.459-19.062 20.876-3.553 46.205-8.435 68.477-.228 19.22 7.061 23.537 36.303 27.325 52.354 6.246 26.497 9.972 53.075 13.921 79.525 4.256 28.539 5.906 57.445 10.966 85.893 10.668 59.848 30.19 117.373 26.694 176.441-2.26 38.259-13.047 82.905-39.549 107.094-19.063 17.392-69.902-29.739-88.133-42.546-29.825-20.926-63.522-40.236-96.751-52.991-28.489-10.912-51.882 2.271-72.129 15.52-12.689 8.294-24.456 18.34-38.476 24.821-16.234 7.498-25.137 5.15-42.153-6.909z"/><path d="M-433.867 695.916c-33.444-25.315-70.054-58.58-83.651-97.847-11.904-34.403 2.948-63.834-.757-97.361-2.885-26.161-22.092-52.391-35.101-76.575-15.909-29.565-48.725-80.283-38.185-110.131 9.811-27.761 81.472-2.589 103.748 3.889 35.259 10.253 71.231 24.55 106.789 30.622 30.616 5.225 56.054-1.53 83.198-8.573 34.636-8.955 82.226-26.962 121.989-12.995 29.632 10.404 36.648 67.828 43.083 91.003 6.712 24.222 18.59 48.489 24.455 72.548 9.253 37.966 4.651 82.187-.359 117.629-4.862 34.464-13.932 76.787-36.692 100.66-14.955 15.694-48.296-8.241-66.309-17.978-25.641-13.802-50.518-24.019-77.493-22.605-27.459 1.438-49.411 12.325-71.266 24.848-11.196 6.448-22.853 14.788-36.35 17.482-14.809 3.07-24.242-4.888-37.099-14.616zM1232.88 419.172c-5.86 68.124-21.79 136.923-34.97 203.433-19.26 97.19-40.36 194.439-72.03 286.465-16.99 49.336-36.82 115.19-82.77 143.66-16.79 10.4-41.14 11.92-60.773 17.22-27.068 7.31-53.79 15.38-80.509 23.4-53.583 16.1-107.041 32.51-161.502 46.75-26.227 6.85-54.956 10.61-80.129 19.62-14.715 5.27-22.906 19.88-32.226 31.16-21.585 26.13-42.41 52.9-63.469 79.47-25.762 32.49-51.483 65.15-79.566 95.65-12.67 13.76-39.939 50.77-61.485 45.48-11.599-2.86-17.27-25.27-19.886-35.65-4.815-19.07-7.329-38.32-9.843-57.35-5.815-44-9.237-88.3-20.131-132.47-5.606-22.7-11.676-51.31-37.101-62.17-25.676-10.97-52.937-14.77-78.875-25.31-29.854-12.12-56.499-29.74-84.001-47.3-20.33-12.97-41.906-20.43-63.779-28.84-24.174-9.3-48.716-18.5-72.057-30.747-15.42-8.088-42.654-23.213-41.093-41.161 2.21-25.509 37-46.289 55.892-60.912 26.102-20.216 53.319-39.134 79.813-58.886 19.241-14.334 38.893-28.413 55.123-45.927 26.163-28.233 49.302-59.306 72.456-90.061 42.873-56.947 83.928-114.82 131.118-168.275 41.344-46.834 203.008-96.689 237.015-111.744 67.881-30.048 135.739-62.509 208.905-83.061 19.8-5.554 48.543-15.629 71.788-7.228 14.328 5.172 18.762 12.523 34.353 8.653 21.272-5.281 40.23-19.369 57.622-30.649 28-18.168 55.14-37.433 82.61-56.273 55.52-38.134 112.36-74.512 168.79-111.485 17.05-11.177 33.7-28.227 53.23-36 12.57-5.025 17.5.998 18.25 14.144 1.33 23.065-7.12 46.283-13 66.955-8.61 30.285-18.63 59.951-28.78 89.511-10.16 29.561-20.69 58.988-30.83 88.576-6.73 19.528-16.33 40.088-18.16 61.352z"/><path d="M1196.25 447.149c-7.91 70.56-26.26 140.428-43.67 208.032-22.26 86.538-47.62 172.742-84.11 252.413-21.44 46.771-47.57 101.206-93.674 127.636-16.447 9.43-35.586 10.42-54.828 13.97-21.946 4.02-43.473 9.31-64.852 14.74a3239.893 3239.893 0 0 0-130.841 36.13c-22.93 6.81-50.439 12.3-68.901 26.57-14.681 11.33-24.575 30.2-35.577 44.89-19.817 26.46-39.568 52.97-59.64 79.22-23.165 30.29-46.556 60.52-72.104 88.81-14.238 15.77-35.416 45.72-57.92 45.9-19.637.15-27.695-70.62-29.672-83.56-6.171-40.41-10.319-80.85-19.321-121.33-5.288-23.9-11.706-52.99-27.337-74.89-13.326-18.67-39.02-28.03-58.406-37.28-24.275-11.6-48.319-24.88-72.976-35.22-21.967-9.22-45.074-13.42-67.512-19-24.681-6.13-49.739-12.41-73.96-22.17-14.888-6.025-39.75-16.194-43.556-33.7-4.373-20.203 28.777-41.316 40.83-51.383 24.5-20.38 50.618-39.008 76.186-58.157 42.461-31.809 82.306-62.698 115.622-103.85 43.379-53.596 83.722-109.782 126.424-163.958 15.758-20.016 30.696-41.296 48.709-59.348 10.331-10.345 21.763-15.075 36.58-13.316 20.225 2.394 44.844-11.483 64.336-19.042 30.385-11.791 60.227-24.549 90.151-37.126 65.701-27.599 131.38-56.867 201.704-75.967 22.246-6.045 47.433-13.22 72.559-10.036 14.015 1.771 21.122 10.718 33.638 15.296 16.49 5.99 35.989-4.964 48.347-10.892 23.861-11.434 45.821-25.87 67.331-40.448 48.67-32.989 93.67-69.4 137.28-108.084 10.21-9.075 49.84-45.326 51.91-6.084 2.3 43.363-16.13 86.773-27.42 125.465-10.2 34.836-21.21 68.982-25.33 105.769z"/><path d="M1137.43 502.381c-9.27 64.7-29.26 127.786-49.02 188.843-23.97 74.091-51.65 147.29-89.585 213.701-23.838 41.712-52.557 85.547-95.611 109.875-29.398 16.61-68.116 15.36-102.063 22.78-33.947 7.42-67.7 16.52-99.625 28.4-19.813 7.37-40.616 15.76-53.355 32.18-30.982 39.92-58.61 82.71-89.251 123.01-20.252 26.67-40.875 53.1-63.501 77.81-13.64 14.9-30.896 36.69-52.454 41.51-23.835 5.33-45.982-154.62-49.732-171.2-9.403-41.57-23.801-94.57-63.84-123.49-38.278-27.63-77.806-35.86-120.371-43.28-24.192-4.237-93.369-10.414-103.696-39.873-5.906-16.835 17.14-34.796 26.964-44.321 19.361-18.773 40.425-35.844 61.048-53.313 30.046-25.493 63.11-49.754 90.948-77.422 19.381-19.268 35.754-41.409 53.797-61.922 25.875-29.409 52.07-58.536 78.315-87.619 22.038-24.417 43.717-49.522 68.296-71.545 15.261-13.707 29.488-21.778 50.438-22.779 18.225-.875 36.666-10.189 53.63-16.835 28.014-10.981 55.508-22.889 83.098-34.596 57.768-24.506 115.54-49.874 176.775-68.086 27.947-8.319 71.679-25.181 103.594-4.746 11.509 7.368 16.901 10.074 29.809 7.054 18.322-4.288 34.162-14.808 48.752-24.882 34.01-23.486 60.21-55.417 94.1-78.928 13.83-9.543 34.49-19.712 37.19 7.513 3.2 31.803-8.07 64.042-14.44 93.14-3.18 14.523-6.97 29.035-8.52 44.123-1.18 11.602-.01 23.45-1.69 34.898z"/><path d="M1060.55 572.55c-11.57 57.124-31.97 112.24-53.28 165.238-23.698 58.847-51.075 116.369-86.543 167.827-24.479 35.543-53.546 70.776-92.934 91.475-24.911 13.09-52.497 12.52-80.713 17.79-42.614 7.94-82.924 21.65-106.22 55.82a2233.392 2233.392 0 0 1-81.916 112.37c-17.179 22.09-34.758 43.97-54.173 64.13-12.27 12.75-28.303 28.98-45.81 34.05-23.433 6.76-46.949-117.11-51.455-133.94-11.177-41.75-27.905-79.88-54.572-117.08-21.765-30.347-54.502-36.5-86.557-41.331-19.915-2.992-75.187-4.644-84.325-27.471-5.062-12.563 8.644-27.142 15.29-35.604 12.67-16.123 27.192-30.728 41.142-45.72 20.624-22.117 37.671-49.99 60.927-69.441 51.53-43.116 101.934-87.002 151.356-132.528 27.24-25.099 54.369-50.594 84.043-73.104 10.654-8.08 21.711-16.38 34.409-21.74 8.163-3.452 15.944-2.394 24.426-3.901 40.41-7.213 78.03-29.985 114.256-46.306 48.159-21.699 96.234-43.813 146.501-61.942 26.439-9.535 60.859-25.068 92.754-19.532 9.638 1.671 13.188 7.72 21.326 10.604 9.38 3.334 18.902-3.29 25.647-7.041 15.311-8.51 67.691-54.478 72.321-7.894 2.2 22.209-2.76 43.665-4.47 65.01-.62 7.729-1.12 15.359.17 23.391 2.16 13.451 1.02 23.815-1.6 36.87z"/></g></svg>