<svg width="97" height="117" viewBox="0 0 97 117" fill="none" xmlns="http://www.w3.org/2000/svg"><path d="M93.635 21.156L50.694 1.508a6.042 6.042 0 0 0-5.03 0L2.725 21.156A3.022 3.022 0 0 0 .96 23.904v58.027c0 4.844 2.577 9.322 6.765 11.756l36.736 21.355a7.402 7.402 0 0 0 7.44 0l36.735-21.355A13.599 13.599 0 0 0 95.4 81.931V23.904a3.025 3.025 0 0 0-1.765-2.748z" fill="#6A9A9A"/><path d="M11.9 86.783a5.304 5.304 0 0 1-2.63-4.571v-52.69c0-1.183.69-2.257 1.764-2.749l35.888-16.42a3.022 3.022 0 0 1 2.514 0l35.889 16.42a3.022 3.022 0 0 1 1.764 2.748v52.69a5.288 5.288 0 0 1-2.63 4.572l-33.242 19.323a6.041 6.041 0 0 1-6.075 0L11.901 86.783z" fill="#F8F8F8"/><path d="M81.59 65.751c-1.36-2.338-4.374-3.139-6.731-1.789l-11.215 6.422a3.883 3.883 0 0 1-2.612.453l-14.633-2.612-2.033-.233h12.008c2.7 0 4.887-2.188 4.887-4.888 0-.848-.687-1.536-1.536-1.536H45.843c-.973 0-1.935.211-2.819.62l-9.107 4.202a10.837 10.837 0 0 1-4.54.997h-.308v12.847h2.687l30.619-2.688.066-.005.883-.072a5.198 5.198 0 0 0 2.054-.66l15.646-8.96a1.53 1.53 0 0 0 .567-2.098zm-29.918-9.795c9.19 0 16.64-7.45 16.64-16.641 0-9.19-7.45-16.64-16.64-16.64-9.19 0-16.64 7.45-16.64 16.64 0 9.19 7.45 16.64 16.64 16.64z" fill="#6A9A9A"/><path d="M56.89 51.908c6.955-2.88 10.258-10.855 7.377-17.81-2.881-6.955-10.855-10.258-17.81-7.377-6.956 2.881-10.258 10.855-7.377 17.81 2.88 6.956 10.855 10.258 17.81 7.377z" fill="#F8F8F8"/><path d="M50.566 48.244c-2.434-.367-4.198-1.875-4.398-4.339a.444.444 0 0 1 .445-.475h1.926a.45.45 0 0 1 .44.379c.145.857.574 1.527 1.32 1.88a.448.448 0 0 0 .643-.4v-4.652c0-.2-.133-.374-.325-.428-2.189-.62-4.468-1.428-4.468-4.847 0-2.724 1.792-4.634 4.42-5.043a.442.442 0 0 0 .373-.438V28.63c0-.246.199-.445.444-.445h.594c.246 0 .445.2.445.445v1.225c0 .217.157.405.372.438 2.267.342 3.834 1.754 4.185 4.181a.446.446 0 0 1-.442.506h-1.908a.45.45 0 0 1-.437-.36 2.544 2.544 0 0 0-1.073-1.59.447.447 0 0 0-.697.368v4.474c0 .201.136.377.33.43 2.185.594 4.44 1.381 4.44 4.798 0 2.367-1.553 4.665-4.398 5.118a.443.443 0 0 0-.371.438v1.252c0 .246-.2.445-.445.445h-.594a.445.445 0 0 1-.445-.445v-1.225c0-.22-.16-.406-.376-.439zm.375-11.129v-3.913c0-.3-.296-.524-.58-.424-.94.33-1.565 1.13-1.565 2.431 0 1.204.608 1.866 1.5 2.304a.447.447 0 0 0 .645-.398zm1.484 4.28v3.907c0 .323.333.535.63.406.975-.424 1.516-1.351 1.516-2.456 0-1.185-.61-1.826-1.503-2.258a.447.447 0 0 0-.643.4zM24.35 84.88h-9.149a.555.555 0 0 1-.554-.554V62.138c0-.306.248-.554.554-.554h9.15c.766 0 1.39.623 1.39 1.39V83.49c0 .766-.624 1.39-1.39 1.39zm-8.594-1.109h8.595a.28.28 0 0 0 .28-.28V62.973a.28.28 0 0 0-.28-.28h-8.595V83.77zM73.15 56.378c-.285 0-.569-.108-.785-.324l-5.04-5.039a1.106 1.106 0 0 1-.24-1.209 1.105 1.105 0 0 1 1.025-.685h1.453V36.085c0-.612.498-1.11 1.11-1.11h5.269c.612 0 1.11.498 1.11 1.11v13.037h1.137a1.108 1.108 0 1 1 .785 1.893l-5.04 5.039c-.217.216-.5.324-.785.324zm-5.04-6.148l5.04 5.04 5.039-5.04h-1.138a1.11 1.11 0 0 1-1.11-1.109V36.085h-5.269v13.036a1.11 1.11 0 0 1-1.109 1.11H68.11z" fill="#6A9A9A"/><path d="M28.31 83.216h-3.124a.555.555 0 0 1-.555-.554V64.357c0-.306.249-.555.555-.555h3.124c.724 0 1.313.59 1.313 1.313v16.788c0 .724-.589 1.313-1.313 1.313zm-2.57-1.11h2.57a.204.204 0 0 0 .204-.203V65.115a.204.204 0 0 0-.204-.203h-2.57v17.195z" fill="#6A9A9A"/></svg>