<svg width="375" height="627" viewBox="0 0 375 627" fill="none" xmlns="http://www.w3.org/2000/svg"><g opacity=".3" fill="#6B6B6B"><path d="M38.503 118.247a6.943 6.943 0 0 0 9.65 1.843c3.165-2.153 3.986-6.483 1.83-9.652l-3.936-5.787a.654.654 0 0 0-.907-.173l-7.55 5.136-.813-1.195a.653.653 0 0 0-.907-.174l-2.311 1.573a.653.653 0 0 0-.172.907l.813 1.195-1.233.839-.813-1.196a.653.653 0 0 0-.907-.173l-2.31 1.572a.653.653 0 0 0-.173.907l.813 1.196-1.771 1.205a.653.653 0 0 0-.172.907l1.574 2.315a.653.653 0 0 0 .907.173l1.772-1.205 2.388 3.51a.654.654 0 0 0 .907.173l2.31-1.572a.654.654 0 0 0 .173-.908l-2.388-3.51 1.232-.838 1.994 2.932zm6.095-8.435l1.995 2.932a2.847 2.847 0 0 1-.75 3.951 2.847 2.847 0 0 1-3.95-.755l-1.994-2.931 4.7-3.197zM19.249 25.039c2.805 1.03 5.913-.434 6.953-3.266 1.038-2.827-.393-5.962-3.189-6.989l-5.105-1.874a.51.51 0 0 0-.653.307l-2.476 6.744-1.055-.387a.51.51 0 0 0-.653.307l-.758 2.065a.51.51 0 0 0 .3.656l1.054.388-.404 1.1-1.055-.387a.51.51 0 0 0-.653.307l-.758 2.065a.51.51 0 0 0 .3.657l1.054.387-.58 1.582a.51.51 0 0 0 .299.657l2.042.75a.51.51 0 0 0 .653-.307l.581-1.583 3.097 1.137a.51.51 0 0 0 .654-.307l.758-2.064a.51.51 0 0 0-.3-.657l-3.097-1.137.404-1.1 2.587.949zm.066-8.176l2.586.95c1.145.42 1.73 1.703 1.306 2.86-.425 1.158-1.702 1.758-2.847 1.337l-2.586-.95 1.541-4.197z"/><path d="M108.771 48.188c2.118-1.034 2.983-3.603 1.939-5.741-1.042-2.135-3.608-3.033-5.719-2.002l-3.855 1.882a.403.403 0 0 0-.182.54l2.486 5.092-.797.389a.403.403 0 0 0-.182.54l.761 1.558a.403.403 0 0 0 .538.188l.796-.388.406.83-.796.39a.403.403 0 0 0-.183.54l.762 1.558a.402.402 0 0 0 .537.188l.797-.388.583 1.195c.098.2.339.285.538.188l1.542-.753a.403.403 0 0 0 .182-.54l-.584-1.195 2.339-1.141a.403.403 0 0 0 .182-.54l-.761-1.559a.403.403 0 0 0-.538-.188l-2.338 1.142-.406-.832 1.953-.953zm-4.617-4.503l1.953-.954a1.756 1.756 0 0 1 2.341.82 1.756 1.756 0 0 1-.793 2.35l-1.953.954-1.548-3.17z" filter="url(#a)"/><path d="M-8.804 165.401a6.64 6.64 0 0 0 .819-9.359c-2.355-2.802-6.554-3.163-9.36-.805l-5.123 4.305a.624.624 0 0 0-.077.879l5.617 6.685-1.058.889a.625.625 0 0 0-.078.88l1.72 2.046a.624.624 0 0 0 .88.076l1.058-.89.917 1.092-1.058.889a.625.625 0 0 0-.077.88l1.72 2.046a.624.624 0 0 0 .879.076l1.059-.89 1.318 1.569a.624.624 0 0 0 .88.076l2.049-1.722a.625.625 0 0 0 .077-.88l-1.319-1.568 3.108-2.612a.624.624 0 0 0 .077-.879l-1.72-2.047a.624.624 0 0 0-.88-.076l-3.107 2.612-.917-1.091 2.596-2.181zm-8.614-4.982l2.595-2.181a2.723 2.723 0 0 1 3.832.33 2.722 2.722 0 0 1-.335 3.831l-2.596 2.181-3.496-4.161zm50.445 15.894a6.639 6.639 0 0 0-9.184 1.975c-1.984 3.076-1.092 7.194 1.988 9.181l5.623 3.628c.29.187.676.104.863-.186l4.733-7.337 1.162.749c.29.187.677.104.863-.185l1.45-2.247a.625.625 0 0 0-.188-.863l-1.162-.749.773-1.198 1.162.75c.29.187.676.104.863-.186l1.45-2.246a.625.625 0 0 0-.188-.863l-1.162-.749 1.111-1.722a.624.624 0 0 0-.187-.863l-2.25-1.451a.625.625 0 0 0-.862.185l-1.111 1.722-3.411-2.2a.624.624 0 0 0-.863.186l-1.45 2.246a.625.625 0 0 0 .188.863l3.41 2.2-.772 1.198-2.849-1.838zm-2.222 9.699l-2.849-1.837a2.723 2.723 0 0 1-.814-3.759 2.722 2.722 0 0 1 3.76-.808l2.849 1.837-2.946 4.567zm16.129 37.758l-.734-.435.866-1.459 1.904 1.13c.758.45 1.738.203 2.185-.55a1.595 1.595 0 0 0-.563-2.182l-1.904-1.13.295-.497a1.596 1.596 0 0 0-.562-2.182 1.596 1.596 0 0 0-2.185.551l-.295.497-.733-.436c-1.92-1.139-4.403-.513-5.536 1.395-1.133 1.909-.494 4.389 1.425 5.529l.734.435-.866 1.459-1.904-1.131a1.596 1.596 0 0 0-2.185.551 1.595 1.595 0 0 0 .563 2.182l1.904 1.13-.295.497a1.594 1.594 0 0 0 .563 2.181c.757.45 1.737.203 2.184-.55l.295-.497.733.436c1.92 1.139 4.403.513 5.536-1.396 1.134-1.908.494-4.388-1.425-5.528zm-4.215-2.502a.852.852 0 0 1-.3-1.165.851.851 0 0 1 1.167-.294l.733.436-.866 1.459-.734-.436zm1.727 6.693l-.734-.435.866-1.459.734.435a.85.85 0 0 1-.866 1.459zm34.742-193.82c-.754 2.981-3.625 4.84-6.556 4.384l-.306 1.21a.55.55 0 0 1-.667.402l-2.275-.575a.55.55 0 0 1-.396-.67l.3-1.187-1.213-.306-.3 1.186a.55.55 0 0 1-.667.401l-2.276-.575a.55.55 0 0 1-.395-.67l.306-1.211c-2.793-.99-4.439-3.989-3.684-6.972.795-3.146 3.977-5.063 7.093-4.275a.55.55 0 0 1 .395.67l-.58 2.297a.55.55 0 0 1-.667.401c-1.275-.322-2.578.463-2.903 1.75a2.408 2.408 0 0 0 1.207 2.723l.575-2.272a.55.55 0 0 1 .666-.402l2.276.575a.55.55 0 0 1 .396.67l-.59 2.335 1.213.307.59-2.335a.55.55 0 0 1 .667-.401l2.275.575a.55.55 0 0 1 .396.67l-.575 2.273a2.408 2.408 0 0 0 2.357-1.822 2.395 2.395 0 0 0-1.722-2.92.55.55 0 0 1-.397-.67l.581-2.296a.55.55 0 0 1 .667-.402c3.116.788 5.004 3.987 4.209 7.132z"/><path d="M93.468-1.255c-.49 1.938-2.357 3.147-4.263 2.85l-.199.788a.358.358 0 0 1-.433.26l-1.48-.373a.358.358 0 0 1-.257-.436l.195-.772-.789-.199-.195.771a.358.358 0 0 1-.433.262l-1.48-.375a.358.358 0 0 1-.257-.435l.199-.788C82.26-.346 81.19-2.295 81.68-4.235c.517-2.045 2.586-3.292 4.612-2.78a.358.358 0 0 1 .257.436l-.377 1.493a.358.358 0 0 1-.433.261 1.56 1.56 0 0 0-1.889 1.138 1.566 1.566 0 0 0 .786 1.77l.373-1.477a.358.358 0 0 1 .434-.261l1.48.374c.19.048.305.243.257.436l-.384 1.518.789.2.384-1.519a.358.358 0 0 1 .433-.26l1.48.373c.19.048.306.244.257.436l-.374 1.478a1.566 1.566 0 0 0 1.533-1.185 1.558 1.558 0 0 0-1.12-1.898.358.358 0 0 1-.258-.436l.378-1.493a.358.358 0 0 1 .433-.261c2.026.512 3.254 2.592 2.737 4.637z" filter="url(#b)"/><path d="M18.172 81.293c-1.252-2.809-.147-6.046 2.439-7.5l-.509-1.14a.55.55 0 0 1 .276-.729l2.143-.956a.55.55 0 0 1 .726.282l.498 1.118 1.143-.51-.498-1.117a.55.55 0 0 1 .275-.728l2.144-.956a.55.55 0 0 1 .726.282l.508 1.141c2.807-.95 5.955.388 7.208 3.199 1.321 2.963.007 6.438-2.929 7.746a.55.55 0 0 1-.725-.282l-.965-2.163a.55.55 0 0 1 .276-.728 2.4 2.4 0 0 0 1.199-3.17 2.408 2.408 0 0 0-2.634-1.393l.955 2.14a.55.55 0 0 1-.276.729l-2.143.955a.55.55 0 0 1-.726-.282l-.98-2.2-1.143.51.98 2.2a.55.55 0 0 1-.275.728l-2.144.955a.55.55 0 0 1-.726-.282l-.954-2.14a2.408 2.408 0 0 0-.725 2.889 2.395 2.395 0 0 0 3.16 1.228.55.55 0 0 1 .726.282l.964 2.163a.55.55 0 0 1-.275.728c-2.936 1.309-6.399-.037-7.72-3z"/><path d="M-1.466 122.934c-.924-2.071-.109-4.457 1.798-5.53l-.375-.841a.406.406 0 0 1 .203-.537l1.58-.704a.406.406 0 0 1 .536.207l.367.825.843-.376-.367-.824a.406.406 0 0 1 .203-.537l1.58-.705a.406.406 0 0 1 .535.208l.375.841c2.07-.7 4.391.286 5.315 2.359.974 2.185.005 4.747-2.16 5.712a.405.405 0 0 1-.534-.208l-.711-1.595a.406.406 0 0 1 .203-.537 1.77 1.77 0 0 0 .884-2.338 1.776 1.776 0 0 0-1.942-1.027l.704 1.579a.406.406 0 0 1-.203.537l-1.581.704a.406.406 0 0 1-.535-.207l-.723-1.622-.843.376.723 1.621a.406.406 0 0 1-.203.537l-1.58.705a.406.406 0 0 1-.536-.208l-.703-1.579a1.776 1.776 0 0 0-.535 2.131 1.766 1.766 0 0 0 2.33.905.406.406 0 0 1 .535.208l.711 1.595a.406.406 0 0 1-.203.537c-2.164.965-4.718-.027-5.691-2.212z" filter="url(#c)"/><path d="M5.531 274.747c-.79 3.126-3.8 5.076-6.874 4.597l-.32 1.269a.578.578 0 0 1-.7.422l-2.386-.604a.577.577 0 0 1-.415-.703l.315-1.243-1.272-.322-.315 1.244a.577.577 0 0 1-.699.421l-2.386-.603a.578.578 0 0 1-.415-.703l.321-1.27c-2.928-1.038-4.654-4.182-3.863-7.311.834-3.298 4.17-5.308 7.438-4.482a.578.578 0 0 1 .414.703l-.608 2.408a.577.577 0 0 1-.7.421c-1.337-.338-2.703.485-3.044 1.835a2.525 2.525 0 0 0 1.266 2.855l.603-2.383a.577.577 0 0 1 .699-.421l2.386.603a.578.578 0 0 1 .415.703l-.62 2.448 1.273.322.619-2.448a.576.576 0 0 1 .699-.421l2.386.603a.577.577 0 0 1 .415.703l-.603 2.382a2.524 2.524 0 0 0 2.471-1.91 2.512 2.512 0 0 0-1.806-3.061.577.577 0 0 1-.415-.703l.609-2.408a.577.577 0 0 1 .699-.421c3.267.826 5.247 4.181 4.413 7.478zM51.538 76.406a2.674 2.674 0 0 0-3.545 1.305 2.653 2.653 0 0 0-.08 2.043c.247.67.739 1.203 1.386 1.502a2.653 2.653 0 0 0 2.042.08 2.654 2.654 0 0 0 1.502-1.386 2.674 2.674 0 0 0-1.306-3.544zm-.79 2.577a.364.364 0 1 1-.66-.306.364.364 0 0 1 .66.306zm10.678-3.663a2.653 2.653 0 0 0-2.043-.08 2.654 2.654 0 0 0-1.502 1.386 2.675 2.675 0 0 0 1.306 3.545 2.676 2.676 0 0 0 3.544-1.306 2.654 2.654 0 0 0 .08-2.043 2.653 2.653 0 0 0-1.385-1.502zm-.79 2.578a.364.364 0 1 1-.66-.306.364.364 0 0 1 .66.306zm-7.876-6.676a1.151 1.151 0 0 0-.684 1.482l4.407 11.966a1.155 1.155 0 0 0 2.13.084c.13-.28.142-.593.035-.882l-4.407-11.966a1.155 1.155 0 0 0-1.481-.684zm-33.612 75.414a3.855 3.855 0 0 0-3.288-4.34 3.829 3.829 0 0 0-2.85.746 3.826 3.826 0 0 0-1.49 2.542 3.822 3.822 0 0 0 .746 2.85 3.821 3.821 0 0 0 2.542 1.49 3.855 3.855 0 0 0 4.34-3.288zm-3.885-.007a.524.524 0 1 1 .142-1.038.524.524 0 0 1-.142 1.038zm9.532 13.188a3.823 3.823 0 0 0-.746-2.85 3.822 3.822 0 0 0-2.542-1.49 3.855 3.855 0 0 0-4.34 3.288 3.857 3.857 0 0 0 3.288 4.34 3.825 3.825 0 0 0 2.85-.747 3.822 3.822 0 0 0 1.49-2.541zm-3.886-.007a.525.525 0 1 1 .145-1.04.525.525 0 0 1-.145 1.04zm5.901-13.664a1.654 1.654 0 0 0-1.1-.643 1.653 1.653 0 0 0-1.231.322l-14.652 11.1a1.665 1.665 0 0 0 .777 2.973c.44.06.878-.054 1.232-.322l14.652-11.1c.73-.554.875-1.599.321-2.33zM8.44 220.603a2.42 2.42 0 0 0-3.357-.649c-.535.361-.897.91-1.02 1.545a2.401 2.401 0 0 0 .371 1.813 2.4 2.4 0 0 0 1.545 1.019 2.405 2.405 0 0 0 1.813-.37 2.422 2.422 0 0 0 .649-3.358zm-1.818 1.627a.33.33 0 1 1-.37-.547.33.33 0 0 1 .37.547zm9.988 2.163a2.405 2.405 0 0 0-1.544-1.019 2.402 2.402 0 0 0-1.813.371 2.422 2.422 0 0 0-.65 3.358 2.422 2.422 0 0 0 3.359.648c.534-.361.896-.91 1.019-1.545a2.403 2.403 0 0 0-.37-1.813zm-1.818 1.628a.33.33 0 0 1-.457-.088.33.33 0 1 1 .457.088zm-2.977-8.862a1.041 1.041 0 0 0-1.224.828l-2.19 11.336a1.046 1.046 0 0 0 2.052.396l2.19-11.336a1.046 1.046 0 0 0-.828-1.224zm41.878 58.648a3.235 3.235 0 0 0 1.167-4.418 3.21 3.21 0 0 0-1.967-1.497 3.21 3.21 0 0 0-2.45.33 3.209 3.209 0 0 0-1.497 1.968 3.21 3.21 0 0 0 .33 2.45 3.235 3.235 0 0 0 4.417 1.167zm-2.005-2.571a.441.441 0 0 1 .76-.443.441.441 0 0 1-.76.443zm-3.783 13.119a3.21 3.21 0 0 0 1.497-1.967 3.211 3.211 0 0 0-.33-2.451 3.235 3.235 0 0 0-4.418-1.166 3.236 3.236 0 0 0-1.166 4.417 3.206 3.206 0 0 0 1.967 1.497 3.21 3.21 0 0 0 2.45-.33zm-2.005-2.571a.44.44 0 1 1 .76-.442.44.44 0 0 1-.76.442zm12.08-3.169a1.387 1.387 0 0 0-.144-1.059 1.386 1.386 0 0 0-.85-.647l-14.912-3.939a1.397 1.397 0 0 0-1.562 2.051c.187.322.489.552.85.647l14.912 3.94a1.398 1.398 0 0 0 1.705-.993zM52.986 1.64a4.215 4.215 0 0 0-1.758-2.73 4.215 4.215 0 0 0-3.173-.69 4.249 4.249 0 0 0-3.42 4.93 4.25 4.25 0 0 0 4.93 3.42 4.214 4.214 0 0 0 2.73-1.757 4.215 4.215 0 0 0 .69-3.173zm-4.073 1.323a.579.579 0 1 1-.205-1.139.579.579 0 0 1 .205 1.14zm1.501-16.333a1.82 1.82 0 0 0-1.37-.298 1.819 1.819 0 0 0-1.18.76L36.315 3.735a1.835 1.835 0 0 0 1.832 2.848 1.821 1.821 0 0 0 1.18-.759L50.875-10.82a1.835 1.835 0 0 0-.46-2.55z"/></g><g opacity=".3" fill="#6B6B6B"><path d="M351.38 455.247a6.943 6.943 0 0 1-9.649 1.843c-3.165-2.153-3.986-6.483-1.83-9.652l3.936-5.787a.654.654 0 0 1 .907-.173l7.55 5.136.813-1.195a.653.653 0 0 1 .907-.174l2.311 1.573a.652.652 0 0 1 .172.907l-.813 1.195 1.232.839.813-1.196a.653.653 0 0 1 .907-.173l2.311 1.572a.653.653 0 0 1 .172.907l-.813 1.196 1.772 1.205a.653.653 0 0 1 .172.907l-1.575 2.315a.653.653 0 0 1-.907.173l-1.771-1.205-2.388 3.51a.654.654 0 0 1-.907.173l-2.311-1.572a.654.654 0 0 1-.172-.908l2.388-3.51-1.233-.838-1.994 2.932zm-6.095-8.435l-1.994 2.932a2.846 2.846 0 0 0 .749 3.951 2.846 2.846 0 0 0 3.95-.755l1.994-2.931-4.699-3.197zm25.35-84.773c-2.805 1.03-5.914-.434-6.953-3.266-1.038-2.827.392-5.962 3.188-6.988l5.105-1.875a.512.512 0 0 1 .654.307l2.475 6.744 1.055-.387a.511.511 0 0 1 .654.307l.758 2.065a.51.51 0 0 1-.3.656l-1.055.388.404 1.101 1.055-.388a.512.512 0 0 1 .654.307l.758 2.065a.512.512 0 0 1-.3.657l-1.055.387.581 1.582a.51.51 0 0 1-.3.657l-2.041.75a.51.51 0 0 1-.654-.307l-.581-1.583-3.097 1.137a.51.51 0 0 1-.653-.307l-.758-2.064a.51.51 0 0 1 .3-.657l3.096-1.137-.404-1.101-2.586.95zm-.067-8.176l-2.586.95c-1.144.42-1.73 1.703-1.305 2.861.425 1.157 1.702 1.757 2.846 1.336l2.586-.949-1.541-4.198z"/><path d="M281.113 385.188c-2.119-1.034-2.983-3.603-1.939-5.741 1.042-2.135 3.607-3.033 5.719-2.002l3.855 1.882c.198.097.28.338.182.539l-2.486 5.093.796.389c.199.097.28.338.182.539l-.761 1.559a.402.402 0 0 1-.537.188l-.797-.388-.406.831.797.389c.199.097.28.338.182.539l-.761 1.559a.403.403 0 0 1-.538.188l-.796-.388-.584 1.195a.402.402 0 0 1-.537.188l-1.542-.753a.402.402 0 0 1-.182-.539l.583-1.196-2.338-1.141a.403.403 0 0 1-.182-.54l.761-1.559a.402.402 0 0 1 .537-.188l2.339 1.142.406-.832-1.953-.953zm4.616-4.503l-1.953-.954a1.757 1.757 0 0 0-2.341.82 1.757 1.757 0 0 0 .794 2.35l1.953.954 1.547-3.17z" filter="url(#d)"/><path d="M356.856 513.313a6.639 6.639 0 0 1 9.184 1.975c1.984 3.076 1.093 7.194-1.987 9.181l-5.624 3.628a.624.624 0 0 1-.863-.186l-4.733-7.337-1.162.749a.624.624 0 0 1-.863-.185l-1.449-2.247a.625.625 0 0 1 .187-.863l1.162-.749-.772-1.198-1.162.75a.625.625 0 0 1-.864-.186l-1.449-2.246a.625.625 0 0 1 .187-.863l1.162-.749-1.11-1.722a.624.624 0 0 1 .186-.863l2.25-1.451a.624.624 0 0 1 .863.185l1.111 1.722 3.411-2.2a.624.624 0 0 1 .863.186l1.449 2.246a.624.624 0 0 1-.187.863l-3.411 2.2.772 1.198 2.849-1.838zm2.222 9.699l2.849-1.837a2.723 2.723 0 0 0 .814-3.759 2.721 2.721 0 0 0-3.759-.808l-2.849 1.837 2.945 4.567zM342.95 560.77l.733-.435-.866-1.459-1.904 1.13a1.595 1.595 0 0 1-2.185-.55 1.596 1.596 0 0 1 .563-2.182l1.904-1.13-.295-.497a1.595 1.595 0 0 1 .563-2.182 1.597 1.597 0 0 1 2.185.551l.294.497.734-.436c1.919-1.139 4.403-.513 5.536 1.395 1.133 1.909.493 4.389-1.426 5.529l-.733.435.866 1.459 1.904-1.131a1.597 1.597 0 0 1 2.185.551 1.596 1.596 0 0 1-.563 2.182l-1.904 1.13.295.497a1.595 1.595 0 0 1-.563 2.181 1.595 1.595 0 0 1-2.185-.55l-.294-.497-.734.436c-1.919 1.139-4.403.513-5.536-1.396-1.133-1.908-.493-4.388 1.426-5.528zm4.214-2.502a.852.852 0 0 0 .3-1.165.85.85 0 0 0-1.166-.294l-.734.436.867 1.459.733-.436zm-1.726 6.693l.734-.435-.867-1.459-.733.435a.849.849 0 0 0 .866 1.459zm-34.742-193.82c.753 2.981 3.624 4.84 6.555 4.384l.307 1.211a.55.55 0 0 0 .666.401l2.276-.575a.55.55 0 0 0 .395-.67l-.299-1.187 1.213-.307.3 1.187a.549.549 0 0 0 .666.401l2.276-.575a.551.551 0 0 0 .396-.67l-.307-1.211c2.793-.99 4.439-3.989 3.685-6.972-.795-3.146-3.977-5.063-7.093-4.275a.55.55 0 0 0-.396.67l.581 2.297a.548.548 0 0 0 .666.401c1.276-.322 2.578.463 2.904 1.75a2.408 2.408 0 0 1-1.208 2.723l-.574-2.272a.551.551 0 0 0-.667-.402l-2.276.575a.55.55 0 0 0-.395.671l.59 2.334-1.213.307-.591-2.335a.55.55 0 0 0-.666-.401l-2.276.575a.55.55 0 0 0-.395.67l.574 2.273a2.408 2.408 0 0 1-2.357-1.822 2.396 2.396 0 0 1 1.723-2.919.551.551 0 0 0 .396-.671l-.581-2.296a.55.55 0 0 0-.666-.402c-3.116.788-5.005 3.987-4.209 7.132z"/><path d="M296.415 335.745c.491 1.938 2.357 3.147 4.263 2.85l.199.788a.359.359 0 0 0 .434.261l1.479-.374a.36.36 0 0 0 .258-.436l-.195-.772.789-.199.195.771c.048.193.242.31.433.262l1.48-.375a.357.357 0 0 0 .257-.435l-.199-.788c1.816-.644 2.886-2.593 2.396-4.533-.518-2.045-2.587-3.292-4.613-2.78a.359.359 0 0 0-.257.436l.378 1.493c.048.193.242.31.433.261a1.561 1.561 0 0 1 1.888 1.138 1.567 1.567 0 0 1-.785 1.771l-.374-1.478a.357.357 0 0 0-.433-.261l-1.48.374a.357.357 0 0 0-.257.436l.384 1.518-.789.199-.384-1.518a.358.358 0 0 0-.433-.261l-1.48.374a.358.358 0 0 0-.257.436l.373 1.478a1.566 1.566 0 0 1-1.532-1.185 1.556 1.556 0 0 1 1.12-1.898.358.358 0 0 0 .257-.436l-.377-1.493a.357.357 0 0 0-.434-.261c-2.026.512-3.253 2.592-2.737 4.637z" filter="url(#e)"/><path d="M371.712 418.293c1.252-2.809.146-6.046-2.439-7.5l.508-1.141a.55.55 0 0 0-.275-.728l-2.144-.956a.55.55 0 0 0-.725.282l-.499 1.118-1.143-.51.498-1.117a.549.549 0 0 0-.275-.728l-2.144-.956a.55.55 0 0 0-.725.282l-.509 1.141c-2.807-.95-5.955.388-7.208 3.199-1.321 2.963-.007 6.438 2.929 7.746a.551.551 0 0 0 .726-.282l.964-2.163a.55.55 0 0 0-.275-.728c-1.202-.536-1.74-1.958-1.199-3.171a2.407 2.407 0 0 1 2.633-1.392l-.954 2.141a.55.55 0 0 0 .275.728l2.144.955a.55.55 0 0 0 .725-.282l.981-2.199 1.143.509-.981 2.2a.55.55 0 0 0 .276.728l2.144.955a.55.55 0 0 0 .725-.281l.954-2.141c.86.657 1.188 1.85.725 2.889a2.395 2.395 0 0 1-3.159 1.228.551.551 0 0 0-.726.282l-.965 2.163a.55.55 0 0 0 .276.728c2.936 1.309 6.398-.037 7.719-2.999z"/><path d="M391.35 459.934c.923-2.071.108-4.457-1.798-5.53l.374-.841a.406.406 0 0 0-.203-.537l-1.58-.704a.406.406 0 0 0-.535.207l-.368.825-.842-.376.367-.824a.406.406 0 0 0-.203-.537l-1.581-.705a.406.406 0 0 0-.535.208l-.375.841c-2.07-.7-4.391.286-5.315 2.359-.974 2.185-.005 4.747 2.16 5.712a.406.406 0 0 0 .535-.208l.711-1.595a.406.406 0 0 0-.203-.537 1.77 1.77 0 0 1-.884-2.338 1.776 1.776 0 0 1 1.942-1.027l-.704 1.579a.406.406 0 0 0 .203.537l1.581.704a.406.406 0 0 0 .535-.207l.722-1.622.843.376-.723 1.621a.407.407 0 0 0 .203.537l1.581.705a.406.406 0 0 0 .535-.208l.704-1.579c.634.485.876 1.365.534 2.131a1.765 1.765 0 0 1-2.329.905.407.407 0 0 0-.536.208l-.711 1.595a.407.407 0 0 0 .203.537c2.165.965 4.718-.027 5.692-2.212z" filter="url(#f)"/><path d="M338.346 413.406a2.674 2.674 0 0 1 3.545 1.305c.298.647.327 1.373.08 2.043a2.654 2.654 0 0 1-1.386 1.502 2.65 2.65 0 0 1-2.042.08 2.65 2.65 0 0 1-1.503-1.386 2.674 2.674 0 0 1 1.306-3.544zm.789 2.577a.365.365 0 0 0 .661-.305.366.366 0 0 0-.483-.178.365.365 0 0 0-.178.483zm-10.677-3.663a2.654 2.654 0 0 1 2.042-.08c.67.247 1.204.739 1.502 1.386a2.674 2.674 0 0 1-1.305 3.545 2.677 2.677 0 0 1-3.545-1.306 2.657 2.657 0 0 1-.08-2.043 2.654 2.654 0 0 1 1.386-1.502zm.789 2.578a.365.365 0 0 0 .661-.305.365.365 0 0 0-.661.305zm7.877-6.676c.289.107.52.32.649.6.129.279.141.593.035.882L333.4 421.67a1.155 1.155 0 0 1-2.13.084 1.148 1.148 0 0 1-.035-.882l4.408-11.966c.22-.597.884-.903 1.481-.684zm33.611 75.414a3.855 3.855 0 0 1 3.288-4.34 3.83 3.83 0 0 1 2.851.746 3.831 3.831 0 0 1 1.49 2.542 3.823 3.823 0 0 1-.747 2.85 3.822 3.822 0 0 1-2.542 1.49 3.856 3.856 0 0 1-4.34-3.288zm3.886-.007a.525.525 0 1 0-.144-1.04.525.525 0 0 0 .144 1.04zm-9.532 13.188a3.818 3.818 0 0 1 .746-2.85 3.821 3.821 0 0 1 2.542-1.49 3.855 3.855 0 0 1 4.34 3.288 3.857 3.857 0 0 1-3.288 4.34 3.826 3.826 0 0 1-2.851-.747 3.822 3.822 0 0 1-1.489-2.541zm3.885-.007a.525.525 0 1 0-.144-1.04.525.525 0 0 0 .144 1.04zm-5.899-13.664a1.652 1.652 0 0 1 1.098-.643c.44-.061.877.054 1.232.322l14.652 11.1a1.666 1.666 0 0 1-.778 2.973c-.44.06-.877-.054-1.231-.322l-14.652-11.1a1.665 1.665 0 0 1-.321-2.33zm10.198 78.247c.361-.534.91-.896 1.545-1.018a2.397 2.397 0 0 1 1.813.37 2.423 2.423 0 0 1 .649 3.358 2.422 2.422 0 0 1-3.358.648 2.397 2.397 0 0 1-1.019-1.544 2.404 2.404 0 0 1 .37-1.814zm1.819 1.628a.33.33 0 1 0 .369-.546.33.33 0 0 0-.369.546zm2.976-8.862c.274-.053.552.004.783.161.232.156.388.393.441.667l2.19 11.336a1.045 1.045 0 0 1-2.052.396l-2.189-11.336a1.046 1.046 0 0 1 .827-1.224zm-41.878 58.648a3.236 3.236 0 0 1-1.167-4.418 3.212 3.212 0 0 1 1.968-1.497 3.21 3.21 0 0 1 2.45.33 3.21 3.21 0 0 1 1.497 1.968 3.207 3.207 0 0 1-.33 2.45 3.236 3.236 0 0 1-4.418 1.167zm2.006-2.571a.44.44 0 1 0-.762-.443.44.44 0 0 0 .762.443zm3.783 13.119a3.21 3.21 0 0 1-1.498-1.967 3.21 3.21 0 0 1 .331-2.45 3.234 3.234 0 0 1 4.417-1.167 3.236 3.236 0 0 1 1.167 4.417 3.207 3.207 0 0 1-1.967 1.497 3.204 3.204 0 0 1-2.45-.33zm2.005-2.571a.44.44 0 1 0-.76-.442.44.44 0 0 0 .76.442zm-12.08-3.169a1.389 1.389 0 0 1 .143-1.058c.188-.323.49-.553.85-.648l14.913-3.939a1.396 1.396 0 0 1 .712 2.698l-14.912 3.94a1.398 1.398 0 0 1-1.706-.993zm15.422-290.849a4.248 4.248 0 0 1 4.931-3.42 4.212 4.212 0 0 1 2.73 1.758c.647.932.892 2.059.691 3.172a4.22 4.22 0 0 1-1.758 2.731 4.226 4.226 0 0 1-3.173.69 4.25 4.25 0 0 1-3.421-4.931zm4.073 1.324a.58.58 0 0 0 .672-.466.577.577 0 1 0-.672.466zm-14.501 10.55a4.212 4.212 0 0 1 1.758-2.73 4.216 4.216 0 0 1 3.173-.691 4.25 4.25 0 0 1 3.42 4.931 4.25 4.25 0 0 1-4.93 3.421 4.22 4.22 0 0 1-2.731-1.758 4.22 4.22 0 0 1-.69-3.173zm4.073 1.323a.578.578 0 1 0 .205-1.138.578.578 0 0 0-.205 1.138zm-1.502-16.333a1.823 1.823 0 0 1 1.371-.298c.482.087.901.357 1.18.759l11.548 16.645a1.835 1.835 0 0 1-1.833 2.848 1.821 1.821 0 0 1-1.18-.759l-11.547-16.645a1.835 1.835 0 0 1 .461-2.55z"/></g><g opacity=".3" fill="#6B6B6B"><path d="M358.38 128.247a6.943 6.943 0 0 1-9.649 1.843c-3.165-2.153-3.986-6.483-1.83-9.652l3.936-5.787a.654.654 0 0 1 .907-.173l7.55 5.136.813-1.195a.653.653 0 0 1 .907-.174l2.311 1.573a.652.652 0 0 1 .172.907l-.813 1.195 1.232.839.813-1.196a.653.653 0 0 1 .907-.173l2.311 1.572a.653.653 0 0 1 .172.907l-.813 1.196 1.772 1.205a.653.653 0 0 1 .172.907l-1.575 2.315a.653.653 0 0 1-.907.173l-1.771-1.205-2.388 3.51a.654.654 0 0 1-.907.173l-2.311-1.572a.654.654 0 0 1-.172-.908l2.388-3.51-1.233-.838-1.994 2.932zm-6.095-8.435l-1.994 2.932a2.846 2.846 0 0 0 .749 3.951 2.846 2.846 0 0 0 3.95-.755l1.994-2.931-4.699-3.197zm25.35-84.773c-2.805 1.03-5.914-.434-6.953-3.266-1.038-2.827.392-5.962 3.188-6.988l5.105-1.875a.511.511 0 0 1 .654.307l2.475 6.744 1.055-.387a.511.511 0 0 1 .654.307l.758 2.065a.511.511 0 0 1-.3.656l-1.055.388.404 1.1 1.055-.387a.511.511 0 0 1 .654.307l.758 2.065a.512.512 0 0 1-.3.657l-1.055.387.581 1.583a.51.51 0 0 1-.3.656l-2.041.75a.51.51 0 0 1-.654-.307l-.581-1.583-3.097 1.137a.51.51 0 0 1-.653-.307l-.758-2.064a.51.51 0 0 1 .3-.657l3.096-1.137-.404-1.1-2.586.949zm-.067-8.176l-2.586.95c-1.144.42-1.73 1.703-1.305 2.86.425 1.158 1.702 1.758 2.846 1.337l2.586-.95-1.541-4.197z"/><path d="M288.113 58.188c-2.119-1.034-2.983-3.603-1.939-5.741 1.042-2.135 3.607-3.033 5.719-2.002l3.855 1.882c.198.097.28.338.182.54l-2.486 5.092.796.389c.199.097.28.338.182.54l-.761 1.558a.402.402 0 0 1-.537.188l-.797-.388-.406.83.797.39c.199.097.28.338.182.54l-.761 1.558a.403.403 0 0 1-.538.188l-.796-.388-.584 1.195a.402.402 0 0 1-.537.188l-1.542-.753a.403.403 0 0 1-.182-.54l.583-1.195-2.338-1.141a.402.402 0 0 1-.182-.54l.761-1.559a.402.402 0 0 1 .537-.188l2.339 1.142.406-.832-1.953-.953zm4.616-4.503l-1.953-.954a1.756 1.756 0 0 0-2.341.82 1.757 1.757 0 0 0 .794 2.35l1.953.954 1.547-3.17z" filter="url(#g)"/><path d="M363.856 186.313a6.639 6.639 0 0 1 9.184 1.975c1.984 3.076 1.093 7.194-1.987 9.181l-5.624 3.628a.624.624 0 0 1-.863-.186l-4.733-7.337-1.162.749a.624.624 0 0 1-.863-.185l-1.449-2.247a.625.625 0 0 1 .187-.863l1.162-.749-.772-1.198-1.162.75a.625.625 0 0 1-.864-.186l-1.449-2.246a.625.625 0 0 1 .187-.863l1.162-.749-1.11-1.722a.624.624 0 0 1 .186-.863l2.25-1.451a.624.624 0 0 1 .863.185l1.111 1.722 3.411-2.2a.624.624 0 0 1 .863.186l1.449 2.246a.624.624 0 0 1-.187.863l-3.411 2.2.772 1.198 2.849-1.838zm2.222 9.699l2.849-1.837a2.723 2.723 0 0 0 .814-3.759 2.721 2.721 0 0 0-3.759-.808l-2.849 1.837 2.945 4.567zM349.95 233.77l.733-.435-.866-1.459-1.904 1.13a1.595 1.595 0 0 1-2.185-.55 1.596 1.596 0 0 1 .563-2.182l1.904-1.13-.295-.497a1.595 1.595 0 0 1 .563-2.182 1.597 1.597 0 0 1 2.185.551l.294.497.734-.436c1.919-1.139 4.403-.513 5.536 1.395 1.133 1.909.493 4.389-1.426 5.529l-.733.435.866 1.459 1.904-1.131a1.597 1.597 0 0 1 2.185.551 1.596 1.596 0 0 1-.563 2.182l-1.904 1.13.295.497a1.595 1.595 0 0 1-.563 2.181 1.595 1.595 0 0 1-2.185-.55l-.294-.497-.734.436c-1.919 1.139-4.403.513-5.536-1.396-1.133-1.908-.493-4.388 1.426-5.528zm4.214-2.502a.852.852 0 0 0 .3-1.165.85.85 0 0 0-1.166-.294l-.734.436.867 1.459.733-.436zm-1.726 6.693l.734-.435-.867-1.459-.733.435a.849.849 0 0 0 .866 1.459zm-34.742-193.82c.753 2.981 3.624 4.84 6.555 4.384l.307 1.21a.55.55 0 0 0 .666.402l2.276-.575a.55.55 0 0 0 .395-.67l-.299-1.187 1.213-.306.3 1.186a.55.55 0 0 0 .666.401l2.276-.575a.552.552 0 0 0 .396-.67l-.307-1.211c2.793-.99 4.439-3.989 3.685-6.972-.795-3.146-3.977-5.063-7.093-4.275a.55.55 0 0 0-.396.67l.581 2.297a.55.55 0 0 0 .666.401c1.276-.322 2.578.463 2.904 1.75a2.408 2.408 0 0 1-1.208 2.723l-.574-2.272a.551.551 0 0 0-.667-.402l-2.276.575a.55.55 0 0 0-.395.67l.59 2.335-1.213.307-.591-2.335a.55.55 0 0 0-.666-.401l-2.276.575a.55.55 0 0 0-.395.67l.574 2.273a2.408 2.408 0 0 1-2.357-1.822 2.396 2.396 0 0 1 1.723-2.92.55.55 0 0 0 .396-.67l-.581-2.296a.55.55 0 0 0-.666-.402c-3.116.788-5.005 3.987-4.209 7.132z"/><path d="M303.415 8.745c.491 1.938 2.357 3.147 4.263 2.85l.199.788a.357.357 0 0 0 .434.26l1.479-.373a.359.359 0 0 0 .258-.436l-.195-.772.789-.199.195.771c.048.193.242.31.433.261l1.48-.374a.358.358 0 0 0 .257-.435l-.199-.788c1.816-.644 2.886-2.593 2.396-4.533-.518-2.045-2.587-3.292-4.613-2.78a.358.358 0 0 0-.257.436l.378 1.493c.048.193.242.31.433.261a1.56 1.56 0 0 1 1.888 1.138 1.567 1.567 0 0 1-.785 1.77l-.374-1.477a.357.357 0 0 0-.433-.261l-1.48.374a.357.357 0 0 0-.257.436l.384 1.518-.789.2-.384-1.519a.358.358 0 0 0-.433-.26l-1.48.373a.357.357 0 0 0-.257.436l.373 1.478a1.565 1.565 0 0 1-1.532-1.185 1.557 1.557 0 0 1 1.12-1.898.357.357 0 0 0 .257-.436l-.377-1.493a.358.358 0 0 0-.434-.261c-2.026.512-3.253 2.592-2.737 4.637z" filter="url(#h)"/><path d="M378.712 91.293c1.252-2.809.146-6.046-2.439-7.5l.508-1.14a.55.55 0 0 0-.275-.729l-2.144-.956a.55.55 0 0 0-.725.282l-.499 1.118-1.143-.51.498-1.117a.55.55 0 0 0-.275-.728l-2.144-.956a.55.55 0 0 0-.725.282l-.509 1.141c-2.807-.95-5.955.388-7.208 3.199-1.321 2.963-.007 6.438 2.929 7.746a.55.55 0 0 0 .726-.282l.964-2.163a.55.55 0 0 0-.275-.728 2.399 2.399 0 0 1-1.199-3.17 2.408 2.408 0 0 1 2.633-1.393l-.954 2.14a.55.55 0 0 0 .275.729l2.144.955a.55.55 0 0 0 .725-.282l.981-2.2 1.143.51-.981 2.2a.55.55 0 0 0 .276.728l2.144.955a.55.55 0 0 0 .725-.282l.954-2.14c.86.657 1.188 1.85.725 2.889a2.395 2.395 0 0 1-3.159 1.228.55.55 0 0 0-.726.282l-.965 2.163a.55.55 0 0 0 .276.728c2.936 1.309 6.398-.037 7.719-3zm-33.366-4.887a2.675 2.675 0 0 1 3.545 1.305c.298.647.327 1.373.08 2.043a2.653 2.653 0 0 1-1.386 1.502 2.652 2.652 0 0 1-2.042.08 2.65 2.65 0 0 1-1.503-1.386 2.675 2.675 0 0 1 1.306-3.544zm.789 2.577a.364.364 0 0 0 .661-.305.364.364 0 0 0-.661.305zm-10.677-3.663a2.652 2.652 0 0 1 2.042-.08c.67.247 1.204.739 1.502 1.386a2.674 2.674 0 0 1-1.305 3.545 2.677 2.677 0 0 1-3.545-1.306 2.655 2.655 0 0 1-.08-2.043 2.653 2.653 0 0 1 1.386-1.502zm.789 2.578a.365.365 0 0 0 .661-.305.364.364 0 0 0-.661.305zm7.877-6.676c.289.107.52.32.649.6.129.28.141.593.035.882L340.4 94.67a1.155 1.155 0 0 1-2.165-.798l4.408-11.966c.22-.597.884-.903 1.481-.684zm27.965 88.595a3.818 3.818 0 0 1 .746-2.85 3.821 3.821 0 0 1 2.542-1.49 3.855 3.855 0 0 1 4.34 3.288 3.857 3.857 0 0 1-3.288 4.34 3.826 3.826 0 0 1-2.851-.747 3.822 3.822 0 0 1-1.489-2.541zm3.885-.007a.525.525 0 1 0-.144-1.04.525.525 0 0 0 .144 1.04zm-5.899-13.664a1.652 1.652 0 0 1 1.098-.643c.44-.061.877.054 1.232.322l14.652 11.1a1.666 1.666 0 0 1-.778 2.973c-.44.06-.877-.054-1.231-.322l-14.652-11.1a1.665 1.665 0 0 1-.321-2.33zM343.19 285.807a3.236 3.236 0 0 1-1.167-4.418 3.212 3.212 0 0 1 1.968-1.497 3.21 3.21 0 0 1 2.45.33 3.21 3.21 0 0 1 1.497 1.968 3.207 3.207 0 0 1-.33 2.45 3.236 3.236 0 0 1-4.418 1.167zm2.006-2.571a.44.44 0 1 0-.762-.443.44.44 0 0 0 .762.443zm3.783 13.119a3.212 3.212 0 0 1-1.498-1.967 3.212 3.212 0 0 1 .331-2.451 3.234 3.234 0 0 1 4.417-1.166 3.236 3.236 0 0 1 1.167 4.417 3.207 3.207 0 0 1-1.967 1.497 3.208 3.208 0 0 1-2.45-.33zm2.005-2.571a.44.44 0 1 0-.76-.442.44.44 0 0 0 .76.442zm-12.08-3.169a1.391 1.391 0 0 1 .993-1.706l14.913-3.939a1.396 1.396 0 0 1 .712 2.698l-14.912 3.94a1.399 1.399 0 0 1-1.706-.993zM354.326-.234a4.249 4.249 0 0 1 4.931-3.42 4.213 4.213 0 0 1 2.73 1.758c.647.932.892 2.059.691 3.172a4.218 4.218 0 0 1-1.758 2.73 4.216 4.216 0 0 1-3.173.691 4.25 4.25 0 0 1-3.421-4.93zm4.073 1.324a.58.58 0 0 0 .672-.466.578.578 0 1 0-.672.466zm-14.501 10.55a4.214 4.214 0 0 1 1.758-2.73 4.215 4.215 0 0 1 3.173-.69 4.248 4.248 0 0 1 3.42 4.93 4.25 4.25 0 0 1-4.93 3.42 4.217 4.217 0 0 1-2.731-1.757 4.219 4.219 0 0 1-.69-3.173zm4.073 1.323a.578.578 0 1 0 .204-1.138.578.578 0 0 0-.204 1.138zM346.469-3.37a1.823 1.823 0 0 1 1.371-.298 1.82 1.82 0 0 1 1.18.76l11.548 16.644a1.836 1.836 0 0 1-1.833 2.848 1.822 1.822 0 0 1-1.18-.759L346.008-.82a1.835 1.835 0 0 1 .461-2.55z"/></g><defs><filter id="a" x="95.62" y="34.575" width="23.264" height="24.912" filterUnits="userSpaceOnUse" color-interpolation-filters="sRGB"><feFlood flood-opacity="0" result="BackgroundImageFix"/><feBlend in="SourceGraphic" in2="BackgroundImageFix" result="shape"/><feGaussianBlur stdDeviation="2" result="effect1_foregroundBlur"/></filter><filter id="b" x="76.459" y="-11.944" width="21.946" height="19.517" filterUnits="userSpaceOnUse" color-interpolation-filters="sRGB"><feFlood flood-opacity="0" result="BackgroundImageFix"/><feBlend in="SourceGraphic" in2="BackgroundImageFix" result="shape"/><feGaussianBlur stdDeviation="2" result="effect1_foregroundBlur"/></filter><filter id="c" x="-7.766" y="108.162" width="24.659" height="22.734" filterUnits="userSpaceOnUse" color-interpolation-filters="sRGB"><feFlood flood-opacity="0" result="BackgroundImageFix"/><feBlend in="SourceGraphic" in2="BackgroundImageFix" result="shape"/><feGaussianBlur stdDeviation="2" result="effect1_foregroundBlur"/></filter><filter id="d" x="271" y="371.575" width="23.264" height="24.912" filterUnits="userSpaceOnUse" color-interpolation-filters="sRGB"><feFlood flood-opacity="0" result="BackgroundImageFix"/><feBlend in="SourceGraphic" in2="BackgroundImageFix" result="shape"/><feGaussianBlur stdDeviation="2" result="effect1_foregroundBlur"/></filter><filter id="e" x="291.478" y="325.056" width="21.946" height="19.517" filterUnits="userSpaceOnUse" color-interpolation-filters="sRGB"><feFlood flood-opacity="0" result="BackgroundImageFix"/><feBlend in="SourceGraphic" in2="BackgroundImageFix" result="shape"/><feGaussianBlur stdDeviation="2" result="effect1_foregroundBlur"/></filter><filter id="f" x="372.99" y="445.162" width="24.659" height="22.734" filterUnits="userSpaceOnUse" color-interpolation-filters="sRGB"><feFlood flood-opacity="0" result="BackgroundImageFix"/><feBlend in="SourceGraphic" in2="BackgroundImageFix" result="shape"/><feGaussianBlur stdDeviation="2" result="effect1_foregroundBlur"/></filter><filter id="g" x="278" y="44.575" width="23.264" height="24.912" filterUnits="userSpaceOnUse" color-interpolation-filters="sRGB"><feFlood flood-opacity="0" result="BackgroundImageFix"/><feBlend in="SourceGraphic" in2="BackgroundImageFix" result="shape"/><feGaussianBlur stdDeviation="2" result="effect1_foregroundBlur"/></filter><filter id="h" x="298.478" y="-1.944" width="21.946" height="19.517" filterUnits="userSpaceOnUse" color-interpolation-filters="sRGB"><feFlood flood-opacity="0" result="BackgroundImageFix"/><feBlend in="SourceGraphic" in2="BackgroundImageFix" result="shape"/><feGaussianBlur stdDeviation="2" result="effect1_foregroundBlur"/></filter></defs></svg>