<svg width="255" height="494" viewBox="0 0 255 494" fill="none" xmlns="http://www.w3.org/2000/svg"><g opacity=".3" fill="#6B6B6B"><path d="M133.136 203.789c3.333 4.9 9.985 6.163 14.87 2.84 4.877-3.317 6.141-9.99 2.819-14.873l-6.065-8.916a1.006 1.006 0 0 0-1.398-.267l-11.634 7.914-1.253-1.843a1.007 1.007 0 0 0-1.398-.266l-3.561 2.422a1.006 1.006 0 0 0-.265 1.398l1.253 1.843-1.899 1.291-1.253-1.842a1.007 1.007 0 0 0-1.398-.267l-3.561 2.423a1.006 1.006 0 0 0-.265 1.398l1.253 1.842-2.73 1.858a1.005 1.005 0 0 0-.265 1.397l2.426 3.567c.313.46.938.579 1.398.267l2.73-1.857 3.679 5.408c.313.46.939.58 1.398.267l3.561-2.423c.459-.312.578-.938.265-1.397l-3.679-5.409 1.899-1.292 3.073 4.517zm9.392-12.997l3.073 4.517c1.36 2 .842 4.731-1.154 6.089a4.386 4.386 0 0 1-6.087-1.163l-3.073-4.517 7.241-4.926zM103.465 60.158c4.322 1.587 9.112-.669 10.714-5.032 1.6-4.357-.604-9.188-4.913-10.77l-7.867-2.888a.787.787 0 0 0-1.007.473l-3.815 10.393-1.625-.597a.787.787 0 0 0-1.007.473l-1.168 3.181a.787.787 0 0 0 .461 1.013l1.626.596-.623 1.697-1.625-.597a.787.787 0 0 0-1.007.473l-1.168 3.181a.787.787 0 0 0 .461 1.013l1.626.596-.896 2.44c-.15.41.057.862.462 1.011l3.147 1.156a.787.787 0 0 0 1.007-.474l.895-2.438 4.772 1.752a.786.786 0 0 0 1.007-.473l1.168-3.182a.786.786 0 0 0-.462-1.012l-4.772-1.752.623-1.696 3.986 1.463zm.102-12.598l3.986 1.463c1.763.647 2.666 2.625 2.011 4.408-.655 1.784-2.622 2.708-4.386 2.06l-3.986-1.463 2.375-6.468z"/><path d="M241.417 95.83c3.264-1.593 4.596-5.552 2.988-8.847-1.606-3.29-5.56-4.673-8.814-3.085l-5.94 2.9a.621.621 0 0 0-.281.832l3.832 7.847-1.228.6a.621.621 0 0 0-.281.83l1.173 2.403a.62.62 0 0 0 .829.29l1.227-.599.625 1.281-1.227.599a.622.622 0 0 0-.281.832l1.173 2.402a.62.62 0 0 0 .828.29l1.228-.599.899 1.841a.62.62 0 0 0 .828.29l2.376-1.16a.62.62 0 0 0 .281-.831l-.899-1.842 3.603-1.759a.62.62 0 0 0 .281-.831l-1.173-2.403a.62.62 0 0 0-.828-.29l-3.603 1.76-.626-1.282 3.01-1.469zm-7.115-6.939l3.01-1.469c1.332-.65 2.95-.084 3.607 1.263.658 1.347.109 2.971-1.223 3.621l-3.009 1.47-2.385-4.885z" filter="url(#a)"/><path d="M35.24 27.566c2.9-1.097 4.347-4.357 3.24-7.286-1.106-2.925-4.359-4.414-7.251-3.32l-5.28 1.996a.53.53 0 0 0-.305.685l2.638 6.976-1.091.412a.53.53 0 0 0-.305.685l.808 2.136a.53.53 0 0 0 .681.311l1.091-.412.43 1.139-1.09.412a.53.53 0 0 0-.305.685l.807 2.136a.53.53 0 0 0 .682.311l1.091-.412.619 1.637a.53.53 0 0 0 .681.312l2.112-.799a.53.53 0 0 0 .305-.684l-.619-1.637 3.203-1.211a.53.53 0 0 0 .305-.685l-.808-2.136a.53.53 0 0 0-.681-.312l-3.203 1.211-.43-1.138 2.674-1.012zm-5.502-6.462l2.675-1.012c1.184-.448 2.516.162 2.968 1.36.453 1.196-.142 2.534-1.326 2.982l-2.675 1.011-1.642-4.341z" filter="url(#b)"/><path d="M60.236 276.453c4.338-3.646 4.896-10.096 1.261-14.421-3.628-4.318-10.098-4.875-14.422-1.242l-7.895 6.634a.962.962 0 0 0-.118 1.355l8.655 10.301-1.631 1.371a.962.962 0 0 0-.119 1.355l2.65 3.154a.963.963 0 0 0 1.356.117l1.631-1.371 1.413 1.681-1.631 1.371a.962.962 0 0 0-.119 1.355l2.65 3.154a.963.963 0 0 0 1.355.117l1.632-1.371 2.031 2.417a.962.962 0 0 0 1.355.117l3.158-2.654a.962.962 0 0 0 .119-1.355l-2.031-2.417 4.789-4.025a.962.962 0 0 0 .118-1.355l-2.65-3.153a.962.962 0 0 0-1.355-.117l-4.79 4.024-1.412-1.681 4-3.361zm-13.274-7.676l4-3.361a4.194 4.194 0 0 1 5.903.508 4.195 4.195 0 0 1-.516 5.903l-4 3.361-5.387-6.411zm77.735 24.492c-4.762-3.072-11.09-1.704-14.152 3.043-3.058 4.74-1.684 11.087 3.063 14.148l8.665 5.59a.962.962 0 0 0 1.33-.286l7.294-11.307 1.79 1.155a.962.962 0 0 0 1.33-.286l2.233-3.461a.962.962 0 0 0-.288-1.33l-1.79-1.155 1.19-1.846 1.791 1.155a.96.96 0 0 0 1.33-.286l2.232-3.461a.963.963 0 0 0-.287-1.33l-1.791-1.155 1.712-2.653a.963.963 0 0 0-.288-1.33l-3.466-2.236a.963.963 0 0 0-1.331.286l-1.711 2.654-5.257-3.391a.962.962 0 0 0-1.33.286l-2.233 3.461a.963.963 0 0 0 .288 1.33l5.257 3.391-1.191 1.846-4.39-2.832zm-3.424 14.946l-4.39-2.832a4.194 4.194 0 0 1-1.254-5.791 4.193 4.193 0 0 1 5.793-1.246l4.39 2.832-4.539 7.037zM28.392 190.137c5.41 1.684 11.142-1.328 12.821-6.721 1.677-5.386-1.346-11.133-6.739-12.812l-9.845-3.066a.962.962 0 0 0-1.205.632l-4 12.846-2.035-.633a.962.962 0 0 0-1.205.632l-1.224 3.932a.962.962 0 0 0 .633 1.204l2.034.634-.653 2.097-2.034-.634a.962.962 0 0 0-1.205.632l-1.225 3.933a.962.962 0 0 0 .634 1.204l2.034.633-.939 3.015a.962.962 0 0 0 .634 1.204l3.938 1.227a.962.962 0 0 0 1.205-.632l.939-3.015 5.972 1.86a.962.962 0 0 0 1.205-.632l1.225-3.933a.962.962 0 0 0-.633-1.204l-5.973-1.86.653-2.096 4.988 1.553zm-.702-15.318l4.988 1.553a4.195 4.195 0 0 1 2.759 5.245 4.195 4.195 0 0 1-5.249 2.751l-4.988-1.553 2.49-7.996z"/><path d="M28.76 351.45l-.718.765-1.529-1.435 1.865-1.987a1.967 1.967 0 0 0-.086-2.777 1.967 1.967 0 0 0-2.777.09l-1.865 1.987-.52-.488a1.967 1.967 0 0 0-2.691 2.867l.52.489-.718.765a4.984 4.984 0 0 0 .218 7.037 4.984 4.984 0 0 0 7.037-.228l.719-.766 1.528 1.435-1.864 1.987a1.967 1.967 0 0 0 .086 2.777c.79.741 2.035.701 2.777-.09l1.865-1.987.52.488a1.966 1.966 0 0 0 2.691-2.867l-.52-.488.718-.766a4.984 4.984 0 0 0-.219-7.037 4.984 4.984 0 0 0-7.037.229zm-4.127 4.398a1.049 1.049 0 0 1-1.529-1.435l.718-.765 1.53 1.434-.72.766zm8.52-.277l-.719.766-1.529-1.435.719-.766a1.049 1.049 0 0 1 1.529 1.435z" filter="url(#c)"/><path d="M18.613 99.356l-.692-1.363 2.714-1.38 1.797 3.539a2.862 2.862 0 0 0 3.84 1.263 2.861 2.861 0 0 0 1.245-3.845l-1.798-3.539.924-.47a2.86 2.86 0 0 0 1.245-3.843 2.86 2.86 0 0 0-3.838-1.262l-.924.47-.693-1.364c-1.812-3.567-6.175-5.001-9.727-3.197-3.552 1.804-4.967 6.173-3.155 9.74l.692 1.364-2.714 1.379-1.798-3.54a2.86 2.86 0 0 0-3.839-1.261A2.86 2.86 0 0 0 .647 95.89l1.798 3.539-.924.47a2.86 2.86 0 0 0-1.246 3.843 2.86 2.86 0 0 0 3.839 1.262l.924-.469.692 1.363c1.812 3.567 6.176 5.002 9.728 3.198 3.551-1.804 4.967-6.174 3.155-9.741zm-3.978-7.833a1.528 1.528 0 0 1 .665-2.052 1.525 1.525 0 0 1 2.05.673l.692 1.364-2.715 1.379-.692-1.364zm-3.82 11.794l-.693-1.363 2.715-1.379.692 1.363a1.528 1.528 0 0 1-.665 2.053 1.526 1.526 0 0 1-2.05-.674zm135.312 263.082l-1.13-.671 1.334-2.248 2.934 1.742a2.459 2.459 0 0 0 3.367-.848 2.458 2.458 0 0 0-.867-3.362l-2.934-1.742.454-.766c.689-1.16.3-2.669-.867-3.361a2.457 2.457 0 0 0-3.366.848l-.455.765-1.13-.671c-2.958-1.756-6.784-.791-8.531 2.15-1.746 2.942-.76 6.763 2.197 8.519l1.131.671-1.335 2.248-2.934-1.742a2.458 2.458 0 0 0-3.367.849 2.457 2.457 0 0 0 .867 3.361l2.934 1.742-.454.766a2.458 2.458 0 0 0 .867 3.362 2.457 2.457 0 0 0 3.366-.849l.455-.765 1.13.671c2.958 1.756 6.785.791 8.531-2.15 1.746-2.941.76-6.763-2.197-8.519zm-6.494-3.855a1.312 1.312 0 0 1-.463-1.795 1.31 1.31 0 0 1 1.798-.453l1.13.671-1.335 2.248-1.13-.671zm2.66 10.314l-1.131-.671 1.335-2.249 1.13.671c.623.37.831 1.176.463 1.796a1.31 1.31 0 0 1-1.797.453zM195.83 74.184c-1.162 4.594-5.585 7.46-10.102 6.755l-.472 1.866a.85.85 0 0 1-1.028.62l-3.506-.887a.849.849 0 0 1-.61-1.033l.462-1.828-1.869-.473-.463 1.828a.848.848 0 0 1-1.027.62l-3.507-.888a.847.847 0 0 1-.609-1.032l.472-1.867c-4.304-1.526-6.841-6.146-5.678-10.744 1.225-4.846 6.129-7.8 10.931-6.587a.847.847 0 0 1 .609 1.033l-.895 3.539a.848.848 0 0 1-1.027.619c-1.966-.497-3.973.712-4.474 2.696a3.71 3.71 0 0 0 1.861 4.196l.885-3.502a.848.848 0 0 1 1.027-.619l3.507.887a.849.849 0 0 1 .61 1.033l-.91 3.597 1.87.473.909-3.597a.85.85 0 0 1 1.028-.62l3.506.887a.849.849 0 0 1 .61 1.033l-.885 3.502a3.71 3.71 0 0 0 3.631-2.807c.504-1.99-.686-4.001-2.654-4.499a.848.848 0 0 1-.61-1.033l.894-3.539a.85.85 0 0 1 1.028-.619c4.801 1.215 7.711 6.144 6.486 10.99z"/><path d="M217.835 19.64c-.755 2.987-3.631 4.85-6.568 4.392l-.307 1.213a.551.551 0 0 1-.668.403l-2.28-.577a.552.552 0 0 1-.397-.672l.301-1.188-1.216-.308-.3 1.19a.551.551 0 0 1-.668.402l-2.28-.577a.552.552 0 0 1-.397-.671l.307-1.214c-2.798-.992-4.448-3.996-3.692-6.986.797-3.151 3.985-5.072 7.108-4.283a.551.551 0 0 1 .396.672l-.582 2.3a.551.551 0 0 1-.668.403c-1.278-.323-2.583.463-2.909 1.753a2.413 2.413 0 0 0 1.21 2.729l.576-2.277a.551.551 0 0 1 .668-.403l2.28.577a.551.551 0 0 1 .396.671l-.591 2.34 1.215.307.592-2.34a.551.551 0 0 1 .668-.402l2.28.577a.551.551 0 0 1 .396.671l-.575 2.277a2.412 2.412 0 0 0 2.361-1.825 2.4 2.4 0 0 0-1.726-2.925.552.552 0 0 1-.397-.672l.582-2.3a.551.551 0 0 1 .668-.403c3.122.79 5.014 3.995 4.217 7.146z" filter="url(#d)"/><path d="M101.805 146.844c-1.93-4.328-.226-9.316 3.759-11.557l-.784-1.758a.849.849 0 0 1 .424-1.122l3.304-1.472a.848.848 0 0 1 1.118.434l.768 1.722 1.761-.785-.768-1.722a.849.849 0 0 1 .425-1.122l3.303-1.473a.849.849 0 0 1 1.118.435l.784 1.758c4.325-1.463 9.176.598 11.107 4.929 2.036 4.566.011 9.921-4.513 11.937a.848.848 0 0 1-1.118-.434l-1.486-3.334a.848.848 0 0 1 .424-1.122c1.852-.825 2.681-3.017 1.848-4.886a3.712 3.712 0 0 0-4.058-2.146l1.47 3.299a.848.848 0 0 1-.424 1.122l-3.303 1.473a.848.848 0 0 1-1.118-.435l-1.511-3.389-1.762.785 1.511 3.39a.847.847 0 0 1-.424 1.121l-3.304 1.473a.849.849 0 0 1-1.118-.434l-1.47-3.299a3.709 3.709 0 0 0-1.117 4.452c.836 1.875 3.014 2.719 4.868 1.892a.85.85 0 0 1 1.119.435l1.486 3.333a.848.848 0 0 1-.424 1.122c-4.524 2.017-9.86-.057-11.895-4.622z"/><path d="M71.543 211.013c-1.423-3.191-.167-6.869 2.771-8.522l-.577-1.296a.625.625 0 0 1 .313-.827l2.436-1.086a.625.625 0 0 1 .824.32l.566 1.27 1.299-.579-.566-1.27a.625.625 0 0 1 .313-.827l2.435-1.086a.626.626 0 0 1 .825.321l.578 1.296c3.189-1.079 6.766.441 8.19 3.635 1.5 3.366.007 7.315-3.328 8.802a.625.625 0 0 1-.825-.321l-1.095-2.458a.625.625 0 0 1 .313-.827c1.365-.609 1.976-2.225 1.362-3.603a2.735 2.735 0 0 0-2.992-1.582l1.084 2.432a.626.626 0 0 1-.313.828l-2.436 1.085a.625.625 0 0 1-.824-.32l-1.114-2.499-1.299.579 1.114 2.499a.625.625 0 0 1-.313.827l-2.436 1.086a.625.625 0 0 1-.824-.32l-1.084-2.433a2.736 2.736 0 0 0-.824 3.283c.616 1.383 2.223 2.005 3.59 1.396a.626.626 0 0 1 .825.32l1.096 2.458a.625.625 0 0 1-.313.827c-3.336 1.487-7.27-.042-8.771-3.408z" filter="url(#e)"/><path d="M82.326 444.954c-1.217 4.817-5.856 7.821-10.592 7.083l-.495 1.956a.889.889 0 0 1-1.077.649l-3.677-.929a.89.89 0 0 1-.64-1.083l.485-1.917-1.96-.496-.485 1.917a.89.89 0 0 1-1.077.649l-3.677-.93a.889.889 0 0 1-.64-1.083l.496-1.957c-4.513-1.6-7.173-6.444-5.954-11.265 1.285-5.082 6.427-8.18 11.462-6.907a.89.89 0 0 1 .639 1.083l-.938 3.711a.89.89 0 0 1-1.078.649c-2.06-.521-4.165.747-4.691 2.827a3.891 3.891 0 0 0 1.951 4.4l.928-3.672a.889.889 0 0 1 1.078-.649l3.677.929a.89.89 0 0 1 .639 1.083l-.954 3.773 1.96.495.954-3.772a.89.89 0 0 1 1.078-.649l3.676.93a.89.89 0 0 1 .64 1.083l-.929 3.672a3.891 3.891 0 0 0 3.808-2.944c.528-2.087-.72-4.195-2.783-4.717a.89.89 0 0 1-.64-1.083l.938-3.711a.89.89 0 0 1 1.077-.649c5.035 1.273 8.086 6.443 6.801 11.524zM62.014 94.445a4.451 4.451 0 0 0-3.797-5.012 4.417 4.417 0 0 0-3.292.861 4.417 4.417 0 0 0-1.72 2.936 4.417 4.417 0 0 0 .861 3.291 4.42 4.42 0 0 0 2.936 1.721 4.453 4.453 0 0 0 5.012-3.797zm-4.487-.008a.606.606 0 0 1 .165-1.2.606.606 0 0 1-.165 1.2zm11.008 15.23a4.416 4.416 0 0 0-.862-3.292 4.415 4.415 0 0 0-2.935-1.721 4.453 4.453 0 0 0-5.013 3.798 4.454 4.454 0 0 0 3.798 5.012 4.417 4.417 0 0 0 3.291-.862 4.418 4.418 0 0 0 1.721-2.935zm-4.487-.008a.607.607 0 0 1-.518-.683.607.607 0 1 1 .517.683zm6.813-15.779a1.908 1.908 0 0 0-1.269-.744 1.908 1.908 0 0 0-1.422.372l-16.92 12.819a1.923 1.923 0 0 0 .898 3.433 1.911 1.911 0 0 0 1.422-.371l16.921-12.82a1.923 1.923 0 0 0 .371-2.69zm82.36 45.433a4.12 4.12 0 0 0-5.462 2.012 4.093 4.093 0 0 0-.124 3.148 4.09 4.09 0 0 0 2.136 2.314 4.081 4.081 0 0 0 3.147.124 4.085 4.085 0 0 0 2.315-2.136 4.12 4.12 0 0 0-2.012-5.462zm-1.216 3.972a.56.56 0 1 1-1.018-.47.56.56 0 0 1 1.018.47zm16.454-5.644a4.093 4.093 0 0 0-3.148-.124 4.092 4.092 0 0 0-2.315 2.136 4.122 4.122 0 0 0 2.012 5.462 4.124 4.124 0 0 0 5.463-2.012c.46-.997.504-2.115.123-3.147a4.087 4.087 0 0 0-2.135-2.315zm-1.217 3.972a.561.561 0 1 1-1.018-.472.561.561 0 0 1 1.018.472zm-12.137-10.287a1.765 1.765 0 0 0-1 .923 1.763 1.763 0 0 0-.054 1.36l6.792 18.44a1.78 1.78 0 0 0 3.282.13c.199-.432.218-.914.054-1.36l-6.792-18.439a1.78 1.78 0 0 0-2.282-1.054zM103.31 247.537a5.94 5.94 0 0 0-5.067-6.688 5.894 5.894 0 0 0-4.392 1.15 5.893 5.893 0 0 0-2.296 3.917 5.892 5.892 0 0 0 1.15 4.392 5.896 5.896 0 0 0 3.917 2.296 5.94 5.94 0 0 0 6.688-5.067zm-5.988-.01a.81.81 0 0 1-.69-.911.81.81 0 0 1 .91-.69.809.809 0 0 1-.22 1.601zm14.689 20.321a5.889 5.889 0 0 0-1.15-4.392 5.894 5.894 0 0 0-3.917-2.296 5.94 5.94 0 0 0-6.688 5.067 5.943 5.943 0 0 0 5.067 6.688 5.893 5.893 0 0 0 4.392-1.15 5.89 5.89 0 0 0 2.296-3.917zm-5.987-.01a.81.81 0 0 1-.691-.911.809.809 0 1 1 .691.911zm9.091-21.056a2.544 2.544 0 0 0-1.693-.991 2.539 2.539 0 0 0-1.897.496l-22.579 17.105a2.566 2.566 0 0 0 .698 4.461c.16.056.328.097.5.12a2.545 2.545 0 0 0 1.898-.496l22.578-17.105a2.566 2.566 0 0 0 .495-3.59zM86.81 361.518a3.73 3.73 0 0 0-5.175-.999 3.699 3.699 0 0 0-1.57 2.38 3.7 3.7 0 0 0 .57 2.794 3.7 3.7 0 0 0 2.381 1.57 3.703 3.703 0 0 0 2.794-.57 3.732 3.732 0 0 0 1-5.175zm-2.803 2.508a.508.508 0 1 1-.568-.841.508.508 0 0 1 .568.841zm15.393 3.333a3.704 3.704 0 0 0-2.381-1.57 3.701 3.701 0 0 0-2.794.571 3.73 3.73 0 0 0-1 5.174 3.732 3.732 0 0 0 5.175 1 3.7 3.7 0 0 0 1.57-2.381 3.703 3.703 0 0 0-.57-2.794zm-2.803 2.508a.507.507 0 1 1-.569-.84.507.507 0 0 1 .569.84zm-4.587-13.655a1.597 1.597 0 0 0-1.207.247 1.6 1.6 0 0 0-.679 1.028l-3.374 17.469a1.611 1.611 0 0 0 2.482 1.638 1.6 1.6 0 0 0 .679-1.028l3.374-17.469a1.611 1.611 0 0 0-1.275-1.885z"/><path d="M12.243 476.872a2.9 2.9 0 0 0-4.024-.777A2.877 2.877 0 0 0 7 477.946a2.88 2.88 0 0 0 .443 2.173 2.879 2.879 0 0 0 1.851 1.22 2.874 2.874 0 0 0 2.173-.443 2.902 2.902 0 0 0 .777-4.024zm-2.18 1.95a.394.394 0 1 1-.441-.653.394.394 0 0 1 .442.653zm11.969 2.592a2.88 2.88 0 0 0-1.85-1.221 2.878 2.878 0 0 0-2.173.444 2.902 2.902 0 0 0-.777 4.024 2.904 2.904 0 0 0 4.023.777 2.88 2.88 0 0 0 1.221-1.852 2.878 2.878 0 0 0-.444-2.172zm-2.179 1.95a.395.395 0 1 1-.442-.656.395.395 0 0 1 .442.656zm-3.566-10.618a1.246 1.246 0 0 0-.939.192 1.242 1.242 0 0 0-.528.8l-2.623 13.583a1.254 1.254 0 0 0 1.93 1.274c.277-.188.464-.472.527-.8l2.624-13.583a1.253 1.253 0 0 0-.991-1.466z" filter="url(#f)"/><path d="M156.543 446.586a4.984 4.984 0 0 0 1.798-6.807 4.944 4.944 0 0 0-3.032-2.307 4.944 4.944 0 0 0-3.775.509 4.942 4.942 0 0 0-2.307 3.031 4.945 4.945 0 0 0 .509 3.776 4.984 4.984 0 0 0 6.807 1.798zm-3.09-3.961a.678.678 0 1 1 1.173-.683.678.678 0 0 1-1.173.683zm-5.829 20.216a4.948 4.948 0 0 0 2.307-3.032 4.943 4.943 0 0 0-.509-3.775 4.987 4.987 0 0 0-6.808-1.799 4.988 4.988 0 0 0-1.798 6.808 4.944 4.944 0 0 0 3.032 2.307 4.946 4.946 0 0 0 3.776-.509zm-3.091-3.962a.679.679 0 0 1 1.172-.682.679.679 0 0 1-1.172.682zm18.615-4.883a2.139 2.139 0 0 0-.221-1.631 2.137 2.137 0 0 0-1.309-.998l-22.98-6.071a2.153 2.153 0 0 0-2.408 3.161c.29.497.755.851 1.31.998l22.98 6.07a2.153 2.153 0 0 0 2.628-1.529zM139.383 5.804a6.546 6.546 0 0 0-7.598-5.271 6.492 6.492 0 0 0-4.207 2.709 6.49 6.49 0 0 0-1.064 4.889 6.494 6.494 0 0 0 2.708 4.207 6.5 6.5 0 0 0 4.89 1.064 6.548 6.548 0 0 0 5.271-7.598zm-6.276 2.04a.892.892 0 0 1-1.035-.718.891.891 0 1 1 1.035.718zm22.346 16.257a6.5 6.5 0 0 0-2.709-4.207 6.497 6.497 0 0 0-4.89-1.064c-3.547.641-5.911 4.05-5.271 7.598.563 3.112 3.255 5.314 6.302 5.375.427.008.861-.025 1.296-.104a6.497 6.497 0 0 0 4.208-2.709 6.499 6.499 0 0 0 1.064-4.889zm-6.276 2.04a.892.892 0 0 1-.318-1.753.891.891 0 0 1 .318 1.752zM151.49.971a2.804 2.804 0 0 0-2.112-.459 2.808 2.808 0 0 0-1.819 1.17L129.765 27.33a2.828 2.828 0 0 0 2.259 4.434 2.809 2.809 0 0 0 2.383-1.215L152.201 4.9a2.828 2.828 0 0 0-.711-3.929z"/></g><defs><filter id="a" x="223.315" y="77.017" width="31.521" height="34.061" filterUnits="userSpaceOnUse" color-interpolation-filters="sRGB"><feFlood flood-opacity="0" result="BackgroundImageFix"/><feBlend in="SourceGraphic" in2="BackgroundImageFix" result="shape"/><feGaussianBlur stdDeviation="2" result="effect1_foregroundBlur"/></filter><filter id="b" x="21.872" y="12.976" width="23.035" height="25.778" filterUnits="userSpaceOnUse" color-interpolation-filters="sRGB"><feFlood flood-opacity="0" result="BackgroundImageFix"/><feBlend in="SourceGraphic" in2="BackgroundImageFix" result="shape"/><feGaussianBlur stdDeviation="1" result="effect1_foregroundBlur"/></filter><filter id="c" x="10.879" y="337.863" width="34.498" height="34.258" filterUnits="userSpaceOnUse" color-interpolation-filters="sRGB"><feFlood flood-opacity="0" result="BackgroundImageFix"/><feBlend in="SourceGraphic" in2="BackgroundImageFix" result="shape"/><feGaussianBlur stdDeviation="2" result="effect1_foregroundBlur"/></filter><filter id="d" x="193.789" y="5.332" width="29.491" height="25.747" filterUnits="userSpaceOnUse" color-interpolation-filters="sRGB"><feFlood flood-opacity="0" result="BackgroundImageFix"/><feBlend in="SourceGraphic" in2="BackgroundImageFix" result="shape"/><feGaussianBlur stdDeviation="2" result="effect1_foregroundBlur"/></filter><filter id="e" x="64" y="190.414" width="33.671" height="30.704" filterUnits="userSpaceOnUse" color-interpolation-filters="sRGB"><feFlood flood-opacity="0" result="BackgroundImageFix"/><feBlend in="SourceGraphic" in2="BackgroundImageFix" result="shape"/><feGaussianBlur stdDeviation="2" result="effect1_foregroundBlur"/></filter><filter id="f" x="2.051" y="468.337" width="25.373" height="24.858" filterUnits="userSpaceOnUse" color-interpolation-filters="sRGB"><feFlood flood-opacity="0" result="BackgroundImageFix"/><feBlend in="SourceGraphic" in2="BackgroundImageFix" result="shape"/><feGaussianBlur stdDeviation="2" result="effect1_foregroundBlur"/></filter></defs></svg>