<svg width="1440" height="1631" viewBox="0 0 1440 1631" fill="none" xmlns="http://www.w3.org/2000/svg"><g opacity=".03" clip-rule="evenodd" stroke="#F8F8F8" stroke-width="5"><path d="M951.041 232.598c-22.078-17.613-73.82-3.946-98.11.133-48.036 8.059-95.052 18.807-142.222 28.982-47.169 10.176-94.338 20.482-142.733 27.437-31.419 4.52-67.515 10.492-101.474 3.385-72.363-15.156 1.514-91.421 17.552-113.667 40.789-56.604 92.174-117.83 106.356-190.225 8.466-43.217-8.566-76.86-52.832-101.708-14.381-8.1-33.99-13.616-42.112-28.83-8.675-16.248-5.877-35.331-2.34-50.192 12.922-54.188 47.024-101.017 78.055-144.394 33.412-46.811 70.482-91.376 106.009-135.968 15.065-18.907 22.625-45.226 30.337-68.565 10.111-30.596 18.914-61.786 28.112-92.796 20.284-68.181 40.707-138.823 79.033-197.398 24-36.683 58.392-70.215 108.661-73.283 25.239-1.54 52.49 8.943 77.907 16.754 30.71 9.418 61.36 19.385 92.19 27.909 99.32 27.447 207.89 39.929 270.82-30.918 9.51-10.719 16.55-23.107 25.14-34.48 5.48-7.238 12.63-11.855 23.78-7.222 27.96 11.604 47.02 61.132 58.14 84.101 24.34 50.283 45.01 101.529 67.72 152.229 15.01 33.535 31.71 84.113 62.5 109.257 27.43 22.403 71.56 8.367 98.32 2.924 25.07-5.109 65.23-18.587 92.48.55 13.21 9.28 18.16 24.429 20.54 38.005 4.14 23.769 2.6 46.081 9.73 70.204 11.71 39.568 35.77 84.112 73.39 110.264 26.07 18.119 51.51 19.579 78.76 17.326 11.45-.945 20.07-2.256 30.88 5.898 17.17 12.939 30.57 32.563 42.54 49.475 42.83 60.518 78.48 126.216 108.52 191.579 15.02 32.663 29.15 66.269 37.21 100.045 5.31 22.15 10.25 50.234-3.08 66.782-15.42 19.177-40.19 32.676-61.49 46.238-39.8 25.324-81.1 48.745-122.64 71.746-96.09 53.181-194.21 103.508-294.35 150.981-70.58 33.402-142.13 67.936-218.82 91.028-15.01 4.465-30.71 7.441-46.9 8.889-17.13 1.68-30.78 9.88-43.47 19.119-78.78 57.347-128.12 149.898-177.75 231.182-12.6 20.629-25.19 41.267-38.56 61.365-11.5 17.277-22.82 39.919-41.69 50.525-37.15 20.91-61.01-42.672-70.4-68.993-33.07-92.671-46.71-188.901-64.55-282.275-8.53-44.43-16.843-88.977-27.888-133.389-5.728-23.108-11.917-64.568-31.271-80.009z"/><path d="M958.452 215.783c-33.182-6.424-67.751 1.319-98.357 6.209-44.053 7.031-87.462 15.914-131.184 23.887-41.344 7.537-82.974 14.93-125.751 18.299-26.086 2.054-57.942 5.333-85.218-5.691-59.128-23.883 10.249-95.386 24.35-115.471 35.07-49.922 77.616-104.282 87.862-168.316 6.396-39.986-10.489-72.103-51.202-95.214-14.084-7.998-27.65-12.91-36.339-27.486-10.06-16.865-9.146-36.317-6.422-52.632 8.528-51.112 37.787-96.107 64.977-137.082 28.09-42.332 58.573-85.459 91.898-121.492 13.322-14.413 21.471-36.78 29.033-55.565 11.626-28.911 21.977-58.457 32.997-87.665 22.383-59.369 46.312-119.505 83.93-169.744 27.157-36.272 63.352-67.754 112.502-76.578 49.822-8.929 100.592 10.153 152.032 24.342 88.9 24.56 200.08 50.581 267.03-4.14 10.16-8.295 16.74-18.827 25.29-28.396 4.39-4.924 9.92-10.099 18.2-7.736 21.47 6.136 35.9 48.244 43.17 64.358 20.11 44.528 36.82 89.861 55.61 134.689 14.91 35.598 29.67 77.394 56.55 108.141 32.63 37.311 95.05 15.098 134.26 21.167 68 10.53 53.61 82.597 55.62 125.442 2.3 49.195 29.59 110.219 89.65 116.065 22.96 2.231 41.68-2.696 64.85 8.681 36.23 17.792 67.12 51.204 92.97 81.189 38.84 45.093 73.24 94.692 99.9 145.949 19.08 36.706 48.05 95.443 19.23 124.175-19.38 19.36-45.18 34.128-69.28 48.776-36.07 21.938-73.4 42.227-111.09 61.956-86.91 45.61-176.34 87.929-268.03 126.182-62.57 26.094-269.87 72.535-281.39 79.313-34.32 20.219-58.94 54.789-81.31 86.096-29.77 41.643-55.78 85.975-82.19 129.929-12.59 20.911-24.68 42.377-38.66 62.341-9.94 14.208-23.41 32.538-42.48 36.659-37.2 8.051-59.25-51.975-68.78-77.125-29.22-77.081-44.08-156.817-62.09-234.852-8.84-38.303-17.42-76.865-29.603-114.975-4.927-15.38-12.037-49.722-32.535-53.685z"/><path d="M960.192 189.16c-73.62-3.877-145.567 14.623-216.67 23.347-35.693 4.374-72.02 8.446-109.227 7.054-19.35-.72-43.705-1.774-61.973-13.604-48.867-31.652 13.261-96.422 28.316-118.655 29.096-42.993 63.2-90.571 69.579-145.672 3.89-33.67-10.371-63.259-44.105-83.505-14.966-8.984-28.733-15.307-38.159-30.683-9.549-15.578-10.971-33.18-9.924-49.004 2.994-45.488 25.539-86.879 47.014-123.536a833.376 833.376 0 0 1 86.51-121.127c28.327-33.009 43.238-76.536 61.797-116.084 24.591-52.385 51.168-104.481 88.632-148.197 29.594-34.519 67.07-63.161 114.73-74.691 48.488-11.674 98.898-1.594 150.658 12.566 78.25 21.407 181.21 52.458 247.7 14.853 9.68-5.464 16.06-12.677 23.29-20.525 3.51-3.813 7.77-8.949 14.51-6.825 16.21 5.119 25.86 42.144 30.21 53.814 13.9 37.251 25.53 74.868 38.76 112.229 12.35 34.88 24.65 71.942 45.84 104.472 33.74 51.797 99.02 25.439 141.58 61.866 26.41 22.618 28.74 59.498 28.65 87.139-.14 34.016-13.28 72.598 8.54 107.221 16.24 25.789 39.07 24.174 63.62 28.541 41.61 7.396 81.62 37.795 113.73 66.322 43.39 38.543 82.25 84.078 111.9 132.233 13.44 21.827 26.43 45.768 31.35 69.592 4.61 22.323-.48 35.847-15.44 48.701-45.79 39.341-107.31 66.77-164.39 93.911-71.71 34.098-145.6 65.179-221.89 91.63-52.03 18.035-106.04 35.828-163.18 42.425-14.9 1.718-30.67 3.063-46.38.44-11.84-1.946-20.13-5.397-31-1.383-32.24 11.901-54.33 46.746-72.69 72.508-29.36 41.185-54.79 85.225-80.77 128.727-15.14 25.402-39.62 76.513-78.49 75.267-33.55-1.081-53.94-48.728-64.56-73.234-26.86-61.981-42.37-126.402-60.93-189.521-8.51-28.927-16.74-58.499-29.275-86.825-3.192-7.227-6.791-17.588-12.807-23.707-6.909-6.994-15.996-7.586-25.056-8.08z"/><path d="M973.364 194.995c-66.17-2.089-130.097 8.092-195.457 10.414-29.305 1.042-59.577 1.549-89.824-4.024-16.268-2.995-35.775-7.972-48.514-20.996-36.566-37.381 13.167-91.75 29.412-116.807 24.181-37.2 52.452-79.542 55.093-127.504 1.732-31.417-13.365-55.858-43.576-74.024-32.409-19.483-46.424-45.455-46.372-78.872.081-41.885 17.623-80.733 35.5-115.066 21.572-41.338 47.452-79.955 77.324-115.381 29.054-34.452 49.226-74.243 72.604-112.878 31-51.22 66.327-101.403 115.772-136.934 43.051-30.934 96.294-47.331 155.594-44.035 61.91 3.418 122.59 29.259 184.41 41.327 38.57 7.529 90.4 16.466 122.36-1.711 10.66-6.062 18.94-26.069 30.52-5.074 6.62 12.004 9.18 26.569 12.44 39.064 5.26 20.191 9.91 40.414 14.86 60.624 10.56 43.077 20.51 88.113 40.36 129.993 24.97 52.744 80.18 48.582 118.79 85.542 20.78 19.887 28.37 46.941 31.55 71.659 2.06 16 2.26 31.845 1.76 47.467-.51 16.316-4.35 33.028-1.58 49.847 3.94 23.954 25.02 31.877 45.13 44.15a615.654 615.654 0 0 1 98.97 75.089c37.24 34.69 72.49 74.167 96.98 117.315 9.54 16.794 18.73 35.743 19.74 53.711 1 17.969-8.31 28.234-20.74 37.906-36.84 28.715-84.69 48.447-130.13 67.249-56.87 23.528-115.79 44.052-176.76 59.867-42.09 10.915-85.88 20.613-131.59 21.299-13.3.195-26.91-.386-40.55-2.972-9.35-1.768-19.3-6.686-28.29-5.58-28.09 3.491-49.08 38.975-63.12 58.267-28.03 38.5-48.9 81.787-76.62 120.462-15.12 21.109-37.74 55.026-70.66 52.983-30.96-1.915-51.88-39.549-64.2-63.181-24.21-46.456-39.82-95.264-58.71-142.95-7.78-19.615-15.59-40.54-27.7-58.929-10.79-16.375-27.814-16.778-44.776-17.317z"/><path d="M980.178 187.901c-56.131-4.446-112.273-.538-169.137-5.28-33.296-2.784-89.75-6.867-111.116-42.598-23.495-39.243 10.238-83.061 27.57-110.132 20.628-32.221 44.237-70.554 43.759-112.707-.148-13.33-3.388-27.188-12.564-39.337-9.82-13.003-23.321-18.275-36.003-27.745-26.603-19.867-37.192-49.209-37.989-77.413-1.134-39.867 13.124-77.115 28.948-110.402 17.962-37.684 40.146-72.84 66.234-104.963 24.91-30.717 48.595-61.881 72.44-93.506 31.159-41.378 66.128-80.627 110.675-109.25 43.895-28.189 96.235-43.816 153.915-42.776 56.27 1.022 113.23 16.981 169.17 35.824 31.75 10.698 80.6 24.928 110.25 13.398 13.19-5.123 20.35-14.802 26.51 6.876 7.76 27.298 8.37 56.177 11.89 83.4 5.08 39.277 10.17 79.44 22.22 118.667 7.69 25.05 19.99 43.346 42.52 60.157 17.16 12.798 35.89 23.301 51.5 38.159 36.66 34.867 43.21 81.888 50.28 124.48 4.54 27.396 6.25 50.462 23.24 76.342 20.07 30.594 46.62 58.011 70.07 86.528 25.75 31.317 51.94 64.633 67.87 100.609 14.19 32.027 12.82 56.004-12.05 73.546-38.77 27.368-92.04 42.242-140.64 55.146-49.44 13.142-101.39 23.369-155.25 23.895-29.09.281-57.56-6.457-86.65-8.832-36.55-2.951-56.81 40.573-72.16 63.769-25.5 38.507-91.3 171.255-163.45 96.111-30.12-31.364-47.38-73.406-66.98-109.759-8.14-15.08-16.88-34.458-30.04-46.971-14.33-13.628-38.143-13.888-55.032-15.236z"/><path d="M993.747 177.33c-48.044-7.538-97.259-9.901-145.779-22.235-31.437-7.97-70.447-22.342-83.864-55.456-15.139-37.371 5.598-76.262 22.038-103.87 16.942-28.442 38.436-61.375 34.416-98.988-1.287-11.973-5.823-24.637-15.706-34.262-9.477-9.238-21.975-14.719-31.688-24.043-21.816-20.934-31.779-48.147-33.716-74.462-5.734-77.845 38.267-151.464 80.333-206.001 21.059-27.295 46.117-52.664 69.883-78.068 30.838-32.966 64.735-63.56 105.247-86.074 86.119-47.875 188.619-43.969 295.219-13.079 33.56 9.725 67.19 23.566 100.59 23.379 17.24-.083 23.24 7.788 25.79 24.091 3.98 25.482 2.06 51.123 2.39 76.117.46 35.547.82 71.764 6.76 107.648 4.09 24.735 10.69 45.264 30.28 65.633 13.96 14.525 30.21 26.817 44.91 40.62 27.92 26.226 51.16 57.827 64.68 91.572 10.7 26.773 17.92 54.214 23.96 81.431 7.89 35.408 18.31 68.377 33.74 102.855 20.4 45.667 64.3 122.093 13.71 150.343-55.82 31.151-138.1 36.256-207.92 28.893-23.44-2.47-48.95-9.534-71.13-5.274-33.18 6.399-48.97 27.26-68.11 51.209-28.66 35.847-81.77 121.303-147.85 69.558-26.17-20.503-43.29-49.389-64.67-73.827-23.93-27.406-50.75-32.6-83.513-37.71z"/><path d="M1007.99 165.621c-57.85-15.758-161.903-30.46-183.913-100.609-11.638-37.064 2.836-74.432 17.275-103.932 11.596-23.758 29.368-49.366 22.248-80.087-5.238-22.585-29.9-34.259-44.25-52.837-17.786-23.037-26.038-49.724-27.567-75.595-4.276-72.297 30.848-139.799 68.823-192.097 39.447-54.311 97.735-102.235 160.344-132.846 78.08-38.159 169.51-40.261 264.36-16.882 17.51 4.318 34.91 9.446 52.38 14.125 11.73 3.133 24.65 4.192 36.17 8.496 19.21 7.182 26.86 23.064 29.13 40.49 3.27 25.076-.06 49.966-1.87 74.095-2.47 33.005-5.58 66.272-4.32 99.831.86 22.563 2.12 46.464 18.32 67.32 11.05 14.226 24.98 26.531 39.22 37.789 30.53 24.136 54.01 45.161 72.46 79.097 30.25 55.757 47.66 118.082 56.85 176.526 7.2 45.868 17.84 117.822-28.58 138.885-41.61 18.924-94.94 6.681-142.82 2.698-23.27-1.936-46.25-1.563-67.8 3.262-27.16 6.085-45.67 17.487-64.04 35.801-30.91 30.822-72.88 81.035-130.79 51.686-21.37-10.83-38.52-28.248-58.66-41.104-26.59-17.03-53.79-26.165-82.97-34.112z"/><path d="M1025.19 147.475c-57.558-24.38-130.666-54.394-146.486-120.007-7.664-31.783-1.344-62.74 7.26-90.7 6.158-20.029 23.749-45.548 12.657-69.782-8.174-17.821-26.268-33.927-35.941-51.88-13.303-24.68-19.541-50.877-20.386-76.406-2.209-66.515 25.898-128.235 59.707-177.947C975.474-547.252 1123.17-598.5 1273.24-567.242c44.74 9.313 95.3 15.558 106.67 67.78 12.38 56.991-5.66 113.342-7.95 167.635-.89 20.739-2.71 46.61 8.81 67.84 6.93 12.765 19.78 23.595 31.11 33.034 28.85 24.057 53.56 47.211 73.12 78.812 30.22 48.826 50.06 103.879 60.32 156.433 8.94 45.83 14.7 105.578-32.75 123.542-36.42 13.746-82.45 4.027-122.88 4.951-45.01 1.011-85.58 14.412-119.09 37.994-32.58 22.958-64.69 51.052-113.78 37.488-16.84-4.653-37.56-12.026-53.02-21.127-25.43-15.073-51.73-28.339-78.61-39.665z"/><path d="M1042.93 126.084C990.663 94.188 940.771 55.198 926.463-3.379c-6.671-27.333-5.471-54.139-2.956-80.2 1.849-19.174 5.317-37.721-.657-57.956-5.527-18.741-14.744-37.02-20.84-55.724-8.119-24.736-12.206-49.808-12.103-74.252.315-61.229 22.943-117.825 53.065-165.157 14.573-22.92 31.702-46.721 54.889-62.481 22.389-15.225 48.169-27.345 74.449-36.765 55.84-20.045 118.66-25.821 183.26-14.685 44.3 7.644 81.48 22.412 94.87 69.409 15.09 52.979 3.15 107.419.11 157.763-2.09 34.529-6.62 71.466 23.23 102.223 23.74 24.476 46.63 47.258 64.76 75.763 26.64 42.159 45.06 87.458 54.16 133.21 8.22 41.762 8.05 86.091-30.06 105.722-30.21 15.538-69.42 14.92-103.65 22.195-38.2 8.075-69.62 25.419-100.07 45.809-27.4 18.299-57.78 31.845-95.63 27.471-7.74-.888-16.07-1.981-23.82-4.101-9.89-2.706-16.96-8.795-25.68-14.775-22.99-15.802-47.2-29.567-70.86-44.006z"/><path d="M1058.26 99.096c-44.52-36.666-79.878-79.68-95.4-132.105-6.646-22.42-9.03-44.73-13.585-67.182-3.681-18.09-6.984-35.044-7.61-52.945-1.446-42.431-13.018-85.275-10.835-127.377 2.876-56.232 21.412-108.389 48.224-153.372 13.09-21.967 28.516-43.133 47.706-60.576 16.48-14.982 39.14-23.8 61.06-31.255 42.96-14.621 93.21-21.954 142.87-13.941 109.5 17.666 96.36 145.857 93.57 214.83-1.28 31.723-8.68 75.82 13.92 107.404 16.14 22.566 34.46 43.14 48.61 66.867 37.99 63.723 68.84 155.875 16.52 203.559-22.38 20.409-54.2 29.825-81.59 43.649-28.21 14.232-52.49 32.808-77.46 51.103-23.33 17.101-45.57 27.801-79.07 24.02-16.01-1.8-28.22-12.598-41.71-22.455-22.15-16.198-44.12-32.868-65.22-50.224z"/><path d="M1069.99 72.724c-60.8-63.308-108.721-155.385-109.67-234.887-1.118-93.518 8.854-185.84 51.67-262.07 19.86-35.343 44.74-71.534 85.4-87.257 30.93-11.973 71.17-22.413 108.27-12.858 90.75 23.366 89.83 132.964 89.91 195.892.04 33.879-4.85 73.027 6.89 107.976 6.8 20.269 21.67 39.781 31.24 59.427 29.01 59.538 37.57 126.022 8.04 176.533-13.65 23.351-34.39 41.26-54.08 59.492-20.17 18.665-39.11 38.743-60.4 56.28-17.01 13.998-38.84 29.05-65.76 17.594-33.93-14.432-66.68-50.271-91.51-76.122z"/><path d="M1076.23 42.64c-53.51-64.06-93.985-141.131-95.508-217.212-.806-40.345 7.759-79.54 15.593-117.483 8.885-43.008 22.355-84.572 42.485-121.907 25.05-46.488 71-117.456 144.28-93.352 72.73 23.927 79.52 116.706 82.48 170.717 1.88 34.617 1.14 69.453 5.43 104.526 2.32 19.017 8.23 36.978 13.68 55.88 15.17 52.311 14.76 109.168.99 156.38-13.35 45.76-41.17 93.273-75 125.706-14.59 14.001-30.39 19.683-53.59 8.809-32.24-15.138-58.73-45.6-80.84-72.064z"/><path d="M1076.09 7.64c-45.96-57.844-75.25-126.454-76.862-193.472-1.808-75.127 23.522-149.624 55.422-211.165 16.97-32.709 50.64-106.071 106.18-85.034 55.54 21.036 65.56 97.383 70.24 140.45 5.63 52.236 8.45 105.933 9.32 158.005.77 45.256.59 92.735-5.6 136.11-3.42 24.51-9.22 48.252-17.32 70.944-6.03 16.774-12.71 38.903-27.15 49.964-36.44 27.888-92.26-38.143-114.23-65.802z"/><path d="M1080.3-32.034c-83.823-113.234-65.14-243.43-15.07-342.989 11.64-23.131 40.89-90.701 82.2-75.644 40.05 14.604 50.02 78.592 54.9 108.718 15.11 93.351 6.73 186.928.54 277.009-1.94 28.117-.82 82.528-31.36 94.775-33.19 13.278-73.83-38.394-91.21-61.869zM588.268 807.022c-50.643-39.623-120.26-59.678-162.653-111.504-34.818-42.564-2.504-89.921-.016-131.918 1.981-33.369-15.066-66.918-31.486-99.028-14.734-28.836-31.006-57.178-44.919-86.261-8.986-18.811-28.028-54.015-16.278-69.691 11.245-15.01 44.424-10.386 64.493-8.221 26.162 2.82 52.457 7.813 78.637 11.175 44.147 5.688 83.515 1.576 124.243-6.63a2811.915 2811.915 0 0 0 137.747-31.366c33.538-8.48 67.072-17.204 101.541-23.56 21.625-3.984 65.652-15.754 86.384.7 9.892 7.85 14.649 24.254 18.374 35.731 6.309 19.424 10.497 39.148 14.396 58.693 7.266 36.404 12.892 72.787 18.944 109.165 7.852 47.216 16.145 92.952 30.175 140.191 14.55 48.87 30.98 97.599 46.59 146.397 10.59 33.054 23.96 68.324 20.52 100.962-4.34 40.85-40.37 48.279-62.48 75.344-19.027 23.28-83.908-31.734-104.729-43.573-21.054-12.009-43.711-19.386-64.459-31.867-25.897-15.583-49.808-34.74-74.025-52.924-29.617-22.249-57.388-43.957-88.702-27.542-17.811 9.35-31.631 23.846-47.341 35.716-10.181 7.687-28.956 22.529-44.956 10.011z"/><path d="M588.616 788.337c-43.976-31.317-109.402-60.034-141.727-108.616-27.626-41.513-2.953-82.034-2.569-122.368.332-33.285-18.644-63.479-36.261-94.416-14.131-24.818-28.661-49.549-41.243-74.939-9.272-18.712-25.813-49.199-17.44-65.871 7.526-14.989 40.558-10.993 57.524-9.162 24.763 2.681 49.715 8.007 74.531 12.739 43.594 8.306 84.426 13.751 125.972 8.011 41.727-5.767 79.577-18.35 118.338-30.658 30.325-9.628 60.963-18.83 92.578-25.723 23.545-5.14 55.536-14.026 81.937-3.811 20.89 8.077 26.894 57.125 30.268 72.877 6.92 32.406 11.832 64.799 16.602 97.13 5.806 39.407 8.213 77.189 19.207 116.705 19.644 70.665 55.077 145.02 55.117 215.651.02 42.602-17.8 75.663-44.043 101.924-10.391 10.399-32.22-2.65-44.823-10.421-20.94-12.906-40.529-28.162-61.101-41.682-19.26-12.655-39.314-22.494-59.318-33.513C791.9 781.026 773 767.266 753.273 755.18c-12.244-7.508-26.292-16.492-40.212-17.458-14.407-1.004-26.803 6.485-37.195 13.386-19.462 13.002-56.214 59.326-87.25 37.229z"/><path d="M582.953 759.375c-41.875-26.871-94.545-59.7-116.537-105.087-17.986-37.107-.667-71.476-2.746-107.644-1.726-30.079-21.463-56.786-37.768-84.138-13.372-22.438-26.797-44.98-38.035-68.18-8.523-17.595-20.431-41.013-14.819-57.829 4.801-14.375 33.247-12.103 47.335-10.885 24.002 2.086 48.331 7.614 72.382 13.015 39.352 8.84 79.739 20.332 118.538 19.078 37.671-1.243 69.11-13.422 102.527-24.713 25.599-8.645 51.545-16.83 78.499-22.696 20.69-4.51 45.768-10.551 68.394-3.378 19.525 6.17 25.181 35.183 29.704 51.042 7.458 26.182 12.403 52.56 17.564 78.8 5.564 28.314 8.541 57.113 14.905 85.299 13.408 59.293 35.556 115.859 34.78 175.026-.499 38.323-9.22 83.418-34.581 108.8-18.244 18.25-71.196-26.492-89.997-38.448-30.756-19.531-65.306-37.272-99.086-48.485-28.96-9.59-51.722 4.655-71.338 18.821-12.295 8.869-23.587 19.446-37.294 26.565-15.872 8.236-24.874 6.3-42.427-4.963z"/><path d="M576 731.016c-34.574-23.75-72.674-55.296-88.063-93.897-13.473-33.819.009-63.902-5.234-97.223-4.085-26.001-24.478-51.32-38.585-74.879-17.253-28.803-52.367-77.958-43.21-108.259 8.523-28.183 81.266-6.333 103.816-.886 35.694 8.62 72.285 21.247 108.085 25.678 30.824 3.811 55.924-4.107 82.716-12.39 34.187-10.54 80.898-30.716 121.262-18.592 30.08 9.03 39.728 66.07 47.223 88.925 7.818 23.887 20.801 47.582 27.765 71.346 10.99 37.501 8.426 81.886 5.052 117.521-3.272 34.651-10.386 77.346-32.023 102.242-14.218 16.365-48.625-6.012-67.066-14.91-26.249-12.609-51.569-21.67-78.451-19.017-27.364 2.699-48.792 14.584-70.048 28.099-10.888 6.956-22.148 15.823-35.507 19.136-14.652 3.748-24.441-3.768-37.732-12.894z"/><path d="M570.759 699.061c-28.051-22.78-53.839-52.2-62.985-85.307-7.618-27.576 2.73-52.83-5.739-80.173-6.701-21.653-23.215-43.21-34.903-63.497-14.335-24.844-41.543-65.552-32.603-91.48 8.744-25.291 62.802-10.414 84.72-5.183 32.127 7.684 63.961 18.589 96.104 26.121 25.208 5.923 45.507 4.701 68.646-.053 27.17-5.575 61.118-16.538 91.068-7.104 21.664 6.858 35.555 43.591 45.563 60.92 6.728 11.632 13.867 23.067 22.925 33.479 7.054 8.109 14.564 14.39 18.195 24.37 9.124 25.113-7.587 50.652-14.632 71.433-9.362 27.593-18.709 57.343-34.968 81.024-9.976 14.569-31.037 9.164-48.188 8.267-20.273-1.064-40.036 4.616-58.919 8.272-24.942 4.808-46.118 14.84-67.941 25.285-9.846 4.709-20.698 10.814-32.791 10.873-12.572.106-23.427-9.028-33.552-17.247z"/><path d="M568.269 667.923c-21.471-21.728-37.283-48.352-42.528-76.066-4.041-21.26.414-41.599-7.95-62.779-7.799-19.741-19.562-38.585-29.501-57.702-10.501-20.218-29.121-52.681-20.282-72.729 9.53-21.604 47.938-13.265 69.22-8.637 26.892 5.852 53.39 15.177 80.128 22.575 19.984 5.445 40.133 8.096 59.777 7.864 20.666-.192 43.73-4.443 65.013 4.166 18.844 7.634 30.33 30.937 44.502 44.815 15.14 14.829 34.678 25.885 41.601 46.175 14.279 41.846-28.334 83.789-48.986 110.749-20.351 26.623-55.039 33.293-88.97 40.795-22.407 4.96-43.566 11.876-65.493 17.802-22.362 6.034-37.635 2.093-56.531-17.028z"/><path d="M567.952 640.598c-27.817-35.568-25.894-75.251-37.394-113.972-9.421-31.691-44.49-77.971-30.463-107.307 15.928-33.305 87.574-3.301 117.847 5.009 33.578 9.21 69.297 6.249 102.081 19.434 17.211 6.915 27.212 20.903 39.235 34.257 13.205 14.66 27.241 28.984 32.644 47.283 10.631 36.014-15.732 68.459-33.936 92.454-18.842 24.841-52.595 33.079-84.6 39.209-33.917 6.522-76.88 20.097-105.414-16.367z"/><path d="M569.458 619.699c-17.148-28.663-21.73-63.604-28.078-94.073-5.281-25.416-25.602-64.529-12.08-85.935 15.882-25.166 60.685-12.134 88.561-4.647 27.404 7.343 59.102 11.66 85.277 24.572 27.271 13.444 47.387 52.21 53.232 78.454 6.515 29.268-5.941 58.567-23.143 78.47-17.989 20.856-48.898 28.412-77.606 32.079-30.689 3.923-66.272 4.372-86.163-28.92z"/><path d="M574.881 603.543c-13.366-24.955-18.514-53.724-22.745-79.835-3.27-20.154-10.754-52.031 1.101-67.783 13.039-17.33 41.432-18.073 64.136-10.875 22.391 7.102 49.397 17.332 68.918 31.396 42.505 30.633 52.95 111.173 22.779 141.086-28.607 28.36-107.569 35.745-134.189-13.989z"/><path d="M581.907 590.22c-16.882-33.176-31.346-92.417-10.716-119.909 23.684-31.551 71.856-5.519 99.05 22.941 27.77 29.029 44.215 100.584 15.429 123.952-28.093 22.807-83.733 12.352-103.763-26.984z"/><path d="M587.413 574.614c-14.046-27.889-24.418-71.644-7.218-94.75 20.501-27.526 55.529 1.469 72.71 25.263 17.83 24.715 34.619 83.92 9.625 102.359-24.328 17.912-61.655-6.143-75.117-32.872z"/><path d="M593.384 561.967c-10.455-19.361-17.043-52.074-4.954-68.417 14.789-19.966 39.869 6.393 49.414 22.299 11.363 18.92 23.395 61.388 5.41 74.447-17.706 12.859-41.261-12.369-49.87-28.329zM2228.26 377.906c-2.73 68.322-15.48 137.781-25.58 204.826-14.77 97.974-31.38 196.09-58.78 289.476-14.7 50.064-31.48 116.759-76.07 147.312-16.3 11.17-40.56 13.81-59.92 20-26.71 8.55-53.03 17.84-79.35 27.08-52.79 18.55-105.43 37.4-159.18 54.13-25.89 8.05-54.41 13.12-79.14 23.28-14.46 5.94-21.97 20.91-30.76 32.61-20.36 27.09-39.93 54.8-59.75 82.3-24.24 33.65-48.43 67.45-75.08 99.21-12.02 14.33-37.56 52.55-59.33 48.26-11.72-2.32-18.41-24.45-21.5-34.7-5.69-18.83-9.09-37.94-12.47-56.83-7.84-43.69-13.29-87.79-26.21-131.4-6.64-22.42-14.02-50.73-39.92-60.41-26.15-9.77-53.56-12.32-79.95-21.65-30.38-10.74-57.81-27.11-86.09-43.38-20.91-12.03-42.8-18.49-65.04-25.88-24.57-8.18-49.51-16.24-73.39-27.4-15.78-7.373-43.68-21.23-42.95-39.23 1.04-25.584 34.84-47.942 53.04-63.419 25.14-21.395 51.46-41.544 77.02-62.494 18.56-15.204 37.54-30.172 52.95-48.414 24.84-29.405 46.52-61.51 68.24-93.297 40.2-58.859 78.55-118.559 123.24-174.128 39.14-48.685 198.34-105.923 231.62-122.527 66.43-33.138 132.72-68.686 204.86-92.581 19.53-6.458 47.78-17.845 71.38-10.521 14.55 4.507 19.32 11.646 34.72 7.063 21-6.253 39.29-21.199 56.15-33.267 27.14-19.437 53.36-39.929 79.93-60.012 53.71-40.647 108.82-79.601 163.48-119.13 16.53-11.95 32.37-29.748 51.52-38.41 12.33-5.598 17.53.191 18.89 13.29 2.39 22.979-4.99 46.561-9.91 67.481-7.21 30.649-15.85 60.744-24.63 90.741-8.79 29.996-17.96 59.877-26.73 89.899-5.82 19.817-14.46 40.797-15.31 62.122z"/><path d="M2192.95 407.539c-4.65 70.849-19.77 141.486-34.05 209.82-18.26 87.471-39.63 174.749-72.42 256.014-19.26 47.708-42.87 103.291-87.7 131.817-16 10.17-35.07 12.04-54.13 16.46-21.74 5.03-43 11.31-64.1 17.72a3229.903 3229.903 0 0 0-129.05 42.11c-22.59 7.85-49.82 14.61-67.6 29.7-14.15 12-23.16 31.31-33.48 46.49-18.58 27.34-37.09 54.73-55.93 81.87-21.75 31.32-43.72 62.6-67.94 92.04-13.5 16.41-33.28 47.3-55.75 48.51-19.61 1.05-30.91-69.27-33.49-82.11-8.02-40.08-14.02-80.28-24.88-120.31-6.38-23.63-14.13-52.39-30.75-73.55-14.17-18.04-40.27-26.21-60.06-34.56-24.78-10.46-49.41-22.63-74.52-31.82-22.36-8.2-45.64-11.33-68.31-15.87-24.94-5-50.26-10.11-74.9-18.75-15.15-5.336-40.45-14.35-45.06-31.663-5.3-19.98 26.85-42.596 38.42-53.206 23.54-21.486 48.77-41.294 73.43-61.599 40.96-33.729 79.34-66.418 110.73-109.058 40.86-55.535 78.58-113.517 118.75-169.599 14.82-20.72 28.76-42.665 45.92-61.526 9.85-10.809 21.05-16.06 35.93-14.984 20.32 1.461 44.27-13.533 63.39-21.981 29.82-13.176 59.04-27.293 88.35-41.233 64.37-30.592 128.63-62.849 198-85.163 21.94-7.063 46.77-15.387 72.02-13.363 14.08 1.124 21.59 9.735 34.31 13.733 16.74 5.226 35.72-6.614 47.79-13.104 23.31-12.52 44.59-27.95 65.4-43.502 47.11-35.192 90.38-73.635 132.17-114.283 9.78-9.535 47.69-47.571 51.57-8.465 4.29 43.211-12.13 87.422-21.62 126.593-8.59 35.267-18.02 69.885-20.44 106.822z"/><path d="M2136.73 465.418c-6.28 65.057-23.35 128.996-40.28 190.897-20.53 75.115-44.82 149.51-79.66 217.595-21.9 42.764-48.57 87.874-90.46 114.153-28.6 17.947-67.34 18.477-100.9 27.457-33.57 8.97-66.87 19.61-98.22 32.95-19.45 8.28-39.85 17.61-51.82 34.6-29.11 41.3-54.74 85.32-83.5 126.98-19 27.57-38.39 54.93-59.85 80.65-12.94 15.52-29.18 38.07-50.49 43.88-23.57 6.42-53.05-152.35-57.55-168.74-11.31-41.09-28.13-93.37-69.46-120.41-39.5-25.85-79.37-32.25-122.23-37.7-24.36-3.12-93.75-6.11-105.42-35.064-6.67-16.546 15.52-35.548 24.9-45.515 18.47-19.643 38.73-37.666 58.53-56.064 28.84-26.848 60.75-52.605 87.29-81.523 18.47-20.14 33.81-43.009 50.89-64.331 24.5-30.568 49.32-60.869 74.2-91.128 20.9-25.405 41.4-51.48 64.94-74.61 14.61-14.395 28.45-23.111 49.33-25.075 18.17-1.712 36.16-11.865 52.8-19.284 27.48-12.258 54.4-25.418 81.42-38.381 56.58-27.137 113.13-55.135 173.46-76.144 27.53-9.596 70.44-28.451 103.26-9.505 11.84 6.83 17.35 9.285 30.11 5.675 18.1-5.126 33.44-16.364 47.55-27.098 32.9-25.025 57.6-58.128 90.37-83.173 13.38-10.168 33.55-21.277 37.5 5.795 4.66 31.623-5.12 64.346-10.14 93.706-2.51 14.654-5.63 29.324-6.49 44.468-.64 11.644 1.07 23.426-.08 34.939z"/><path d="M2063.16 539.048c-8.93 57.596-26.77 113.592-45.63 167.514-20.96 59.875-45.66 118.595-78.73 171.629-22.81 36.631-50.23 73.164-88.62 95.653-24.29 14.22-51.87 14.918-79.81 21.488-42.21 9.888-81.84 25.438-103.54 60.638-24.34 39.46-49.9 78.13-76.66 116.02-16.15 22.86-32.7 45.52-51.17 66.56-11.67 13.3-26.94 30.25-44.2 36.11-23.09 7.84-52.28-114.82-57.56-131.43-13.08-41.19-31.55-78.51-59.9-114.44-23.13-29.316-56.12-33.956-88.36-37.308-20.03-2.072-75.32-1.18-85.5-23.563-5.64-12.317 7.39-27.511 13.63-36.27 11.92-16.688 25.75-31.946 39-47.564 19.59-23.041 35.33-51.669 57.67-72.169 49.49-45.441 97.82-91.598 145.1-139.349 26.06-26.326 51.98-53.042 80.59-76.892 10.27-8.562 20.94-17.362 33.37-23.299 8-3.824 15.82-3.125 24.22-5.021 40.04-9.063 76.57-33.542 112.01-51.512 47.11-23.891 94.12-48.193 143.5-68.615 25.97-10.74 59.64-27.84 91.76-23.777 9.7 1.227 13.52 7.106 21.79 9.613 9.52 2.898 18.73-4.156 25.29-8.214 14.91-9.205 65.11-57.533 71.89-11.212 3.21 22.085-.76 43.746-1.48 65.147-.27 7.75-.41 15.394 1.24 23.358 2.78 13.338 2.12 23.743.1 36.905z"/><path d="M1984.23 617.075c-25.71 107.197-73.86 218.334-146.79 299.105-24.26 26.855-54.02 52.807-92.12 62.353-22.49 5.613-44.06 7.205-61.91 21.322-12.88 10.195-20.45 26.225-29.38 39.725-12.92 19.54-26.04 38.96-39.45 58.15-16.66 23.78-33.71 47.36-52.51 69.48-13.44 15.8-30.88 38.52-52.77 44.04-26.11 6.6-51.09-83.74-56.83-98.23-13.91-35.14-30.51-65.29-58.41-93.78-8.12-8.32-14.39-19.381-23.83-26.193-9.66-6.946-21.65-8.9-32.4-10.438-14.07-2.028-52.42-.646-59.54-15.601-3.94-8.259 4.6-20.532 8.08-27.651 6.52-13.365 14.36-25.939 21.46-38.95 12.03-22.088 16.09-50.353 31.98-69.452 42.7-51.372 104.86-88.335 156.69-130.645 30.84-25.136 61.25-50.958 94.08-73.888 10.39-7.253 21.1-14.713 33.04-19.948 8.33-3.654 17.41-2.999 25.76-5.875 32.04-11.009 61.24-29.817 90-46.176 37.36-21.218 74.44-42.84 112.42-63.202 23.81-12.763 51.08-31.862 79.77-36.291 20.95-3.237 17.58 7.779 22.78 22.558 2.65 7.541 8.47 10.975 13.32 17.22 6.91 8.916 8.44 19.629 9.63 29.482 1.66 13.601-.02 28.593 4.45 42.224 1.58 4.803 5.76 7.997 7.24 12.048 4.31 11.794-2.34 28.531-4.76 38.613z"/><path d="M1904.76 689.122c-27.59 81.599-70.83 162.304-130.5 224.023-20.77 21.471-44.46 40.822-72.68 53.691-12.82 5.868-24.23 8.831-33.18 19.359-20.77 24.435-38.53 51.405-58.04 76.835-13.96 18.21-28.25 36.29-44.35 52.71-10.75 10.98-25.11 25.97-41.89 28.56-24.41 3.75-47.98-57.39-56-72.42-13.29-24.92-28.9-51.59-55.08-66.99-8.01-4.71-15.83-7.939-23.33-13.57-6.46-4.816-11.74-10.121-19.2-13.122-9.26-3.726-28.86-2.979-32.94-11.934-2.79-6.11 2.6-13.255 4.83-19.095 3.62-9.471 6.34-19.374 8.13-29.606 1.86-10.791.58-22.285 3.38-32.766 4.56-17.005 15.33-31.473 25.97-44.647 42.43-52.56 97.97-95.68 152.48-136.332 28.38-21.171 57.34-42.123 88.68-59.675 9.52-5.328 19.9-11.697 31.35-13.909 7.13-1.387 14.07-.637 20.77-3.341 57.23-23.109 104.98-64.638 157.77-95.576 13.74-8.053 87.73-54.415 81.68-3.935-3.68 30.669-15.23 56.906-12.78 89.559.73 9.938 2.08 17.251 8.38 25.972 4.21 5.79 4.31.078 5.99 9.513 1.97 11.394-6.23 27.188-9.44 36.696z"/><path d="M1838.4 743.678c-40.48 88.951-102.42 167.82-179.4 229.342-19.4 15.513-34.21 35.99-50.66 54.26-15.97 17.76-40.41 52.52-68.7 51.99-20.52-.38-38.85-32.6-50.04-47.65-14.25-19.17-29.57-38.223-53.25-44.608-13.87-3.739-28.58-5.416-42.62-8.75-6.7-1.59-17.96-2.81-20.96-8.485-4.94-9.371 4.21-27.274 6.62-37.591 7.7-32.971 25.04-60.504 45.58-85.87 37.91-46.857 83.72-87.77 131.4-125.3 21.94-17.266 44.45-34.563 69.39-48.17 14.12-7.702 30.26-8.773 44.64-15.397 46.34-21.319 86.54-51.921 131.85-75.072 13.12-6.698 60.2-33.253 62.78 1.272 2.5 33.425-22 59.551-21.17 92.884.12 3.791.18 8.418 2.24 12.217 1.24 2.264 5.86 3.752 6.45 5.187 6.59 15.327-9 38.454-14.15 49.741z"/><path d="M1787.5 781.471c-24.1 42.954-53.64 82.908-84.19 121.725-16.7 21.219-33.66 45.652-56.72 61.012-14.17 9.426-27.5 18.825-40.5 29.832-14 11.84-34.14 32.84-55.74 29.54-16.13-2.47-35.24-25.033-48.44-36.025-14.47-12.049-27.34-18.334-44.67-18.29-10.91.021-54.61 5.205-59.25-3.191-4.43-7.996 8.28-25.872 12.5-34.628 13.31-27.689 30.42-52.841 49.78-76.322 29.99-36.374 64.21-69.57 101.15-99.414 15.28-12.325 31.09-25.058 49.09-34.093 12.14-6.081 26.38-7.831 38.61-13.729 35.04-16.875 67.16-38.686 102.52-55.465 11.35-5.378 45.8-24.948 57.79-3.981 10.01 17.499-1.24 40.596.85 58.068 3.6 29.758-9.53 51.36-22.78 74.961z"/><path d="M1759.92 798.562c-19.95 33.405-42.82 65.61-67.24 96.155-15.75 19.712-32.11 40.722-53.02 55.683-10.5 7.517-23.6 10.85-35.5 16.393-12.24 5.713-27.9 14.583-41.84 10.104-13.09-4.21-26.54-17.382-41.31-23.715-13.12-5.611-24.77-4.657-37.44-3.721-8.09.585-45.88 6.589-48.24.479-2.53-6.546 8.52-19.51 13.42-26.943A561.056 561.056 0 0 1 1493 864.38c21.92-25.258 45.74-49.314 72.47-69.954 18.96-14.647 40.36-19.984 61.59-30.783 27.53-13.969 53.62-30.391 81.92-43.403 14.09-6.484 33.91-16.922 52.3-11.266 7.05 2.16 22.28 11.006 25.71 17.67 4.13 8.008-1.68 20.802-4.06 27.135-5.98 15.85-14.53 30.585-23.01 44.783z"/></g></svg>