<svg width="536" height="142" viewBox="0 0 536 142" fill="none" xmlns="http://www.w3.org/2000/svg"><g opacity=".03" clip-rule="evenodd" stroke="#1B1B1B" stroke-width="5"><path d="M265.756-94.937c3.396-12.871-12.34-32.585-18.719-42.284-12.613-19.182-26.191-37.413-39.552-55.819-13.36-18.406-26.777-36.787-38.982-56.335-7.926-12.689-17.367-27.119-20.761-43.116-7.229-34.089 39.712-16.737 52.357-14.052 32.168 6.823 68.346 17.337 102.264 9.682 20.247-4.57 31.516-18.314 33.811-42.13.758-7.743-.593-17.248 4.423-23.645 5.357-6.832 14.118-9.254 21.2-10.556 25.826-4.735 52.508 1.064 77.116 6.195 26.543 5.504 52.812 13.013 78.8 19.852 11.02 2.901 23.808 1.155 35.34.041 15.117-1.459 30.242-3.596 45.365-5.528 33.261-4.222 67.609-8.852 100.16-3.466 20.385 3.372 41.387 11.825 52.272 32.92 5.465 10.592 6.128 24.337 7.593 36.783 1.782 15.038 3.313 30.15 5.502 45.068 7.054 48.049 22.325 97.246 64.846 110.906 6.433 2.065 13.113 2.742 19.653 4.285 4.164.987 7.514 3.191 7.636 8.879.316 14.267-17.418 31.905-25.208 41.071-17.054 20.063-35.223 38.722-52.767 58.16-11.606 12.853-30.241 29.675-35.228 47.734-4.444 16.092 10.004 32.454 17.442 42.959 6.971 9.838 20.423 24.595 17.353 39.985-1.489 7.462-7.08 12.479-12.482 16.087-9.463 6.306-19.378 9.887-28.424 17.551-14.837 12.575-29.469 31.426-33.591 52.623-2.856 14.688 1.354 25.935 7.509 37.258 2.586 4.761 4.791 8.229 3.331 14.441-2.314 9.865-8.228 19.377-13.245 27.755-17.95 29.983-39.502 57.851-61.974 83.242-11.229 12.69-23.033 25.177-36.067 35.076-8.541 6.505-19.713 13.977-29.386 11.373-11.203-3.002-21.735-11.113-31.636-17.721-18.49-12.345-36.447-25.701-54.268-39.242A2482.82 2482.82 0 0 1 366.34 252.88c-27.83-24.084-56.333-48.372-80.88-77.054-4.779-5.621-9.05-11.827-12.753-18.532-3.983-7.068-10.116-11.396-16.515-15.112-39.716-23.064-89.013-26.736-133.507-32.678-11.293-1.511-22.588-3.014-33.798-4.957-9.637-1.67-21.555-2.247-29.717-8.365-16.085-12.046 6.796-34.43 16.36-43.486 33.674-31.887 72.579-56.074 109.452-81.53 17.538-12.127 35.167-24.187 52.219-37.398 8.875-6.866 25.578-17.421 28.555-28.705z"/><path d="M274.417-94.939c-3.541-15.531-13.456-28.966-21.387-41.235-11.411-17.66-23.499-34.69-35.254-52.029-11.114-16.395-22.221-32.942-31.811-50.749-5.848-10.858-13.321-23.973-13.756-37.832-.948-30.042 43.084-13.724 54.428-11.464 28.2 5.628 59.735 13.636 89.298 5.874 18.461-4.847 29.1-18.238 31.322-40.191.77-7.596.308-14.38 4.941-20.9 5.359-7.546 13.921-10.852 21.475-12.781 23.664-6.044 48.634-1.985 71.476 1.946 23.598 4.062 47.995 9.004 69.873 16.521 8.75 3.003 19.946 2.263 29.485 1.951 14.679-.486 29.39-1.642 44.082-2.445 29.86-1.641 60.345-2.76 89.166 3.906 20.807 4.812 41.269 14.432 54.423 33.95 13.329 19.789 14.756 45.311 18.421 70.191 6.32 43.011 16.246 95.906 52.58 114.371 5.509 2.802 11.302 3.635 17.055 5.502 2.959.958 6.243 2.36 6.798 6.377 1.439 10.429-13.975 24.661-19.541 30.863-15.379 17.138-31.748 32.97-47.507 49.598-12.515 13.201-27.731 27.519-35.877 44.96-9.885 21.166 11.567 43.859 16.409 61.924 8.393 31.326-25.422 38.832-43.516 47.847-20.778 10.349-41.904 33.725-33.001 60.736 3.406 10.329 9.092 17.465 8.593 29.619-.781 19.01-9.315 38.685-17.329 55.535-12.058 25.328-26.903 49.599-43.936 70.846-12.2 15.21-32.02 38.876-49.892 31.914-12.035-4.675-23.313-12.996-34.214-20.601-16.322-11.383-32.171-23.62-47.848-36.121-36.202-28.806-71.462-59.32-105.399-91.585-23.155-22.02-82.615-102.586-87.729-106.262-15.247-10.955-34.838-14.995-52.595-18.688-23.62-4.915-47.686-7.7-71.665-10.73-11.413-1.452-22.97-2.584-34.237-4.812-8.019-1.586-18.486-3.908-23.89-11.346-10.548-14.513 11.143-35.439 20.178-44.33 27.682-27.264 59.24-48.84 89.468-71.45 14.835-11.1 29.833-22.135 43.95-34.638 5.696-5.05 19.153-14.648 16.963-24.242z"/><path d="M286.229-99.253c-12.332-32.485-33.996-59.993-51.283-88.997-8.675-14.56-17.341-29.451-23.818-45.762-3.37-8.481-7.549-19.185-5.922-29.313 4.355-27.094 44.104-12.622 56.556-10.358 24.075 4.369 51.08 10.026 76.055 2.296 15.26-4.727 25.308-16.505 27.622-34.904 1.028-8.163 1.136-15.303 5.973-22.293 4.902-7.081 12.222-11.042 19.246-13.6 20.185-7.362 42.324-5.513 62.216-3.224a392.778 392.778 0 0 1 68.691 14.266c19.624 5.938 41.231 4.088 61.816 4.569 27.268.64 54.79 2.192 80.768 10.033 20.516 6.196 39.996 16.909 54.034 35.269 14.257 18.688 19.5 42.347 23.239 67.362 5.653 37.817 11.846 88.122 40.711 109.644 4.197 3.133 8.521 4.513 13.28 6.138 2.313.788 5.339 1.651 5.704 4.96.877 7.966-13.256 19.168-17.46 23.265-13.42 13.08-27.43 25.251-41.025 38.063C729.94-19.877 716.296-7.524 706.297 7.8c-15.918 24.406 7.865 47.543.252 72.824-4.73 15.694-20.19 23.715-32.129 28.93-14.696 6.41-33.833 8.085-44.614 24.079-8.031 11.912-2.993 21.447-.206 32.867 4.724 19.348-.774 42.387-6.968 61.659-8.369 26.043-20.613 51.465-35.74 73.411-6.855 9.948-14.709 20.104-24.048 26.756-8.75 6.234-15.55 6.61-23.938 2.606-25.676-12.264-49.207-33.578-71.768-53.028-28.346-24.44-55.805-50.395-81.724-78.263-17.673-19.005-35.619-38.911-49.334-62.3-3.575-6.097-7.154-12.641-9.012-19.918-1.413-5.474-1.501-9.705-5.301-13.632-11.264-11.638-30.493-14.536-45.094-17.552-23.347-4.83-47.175-7.417-70.878-10.349-13.835-1.697-40.531-2.53-47.388-19.528-5.916-14.677 10.753-32.533 19.301-41.775 21.62-23.372 46.45-42.316 70.14-62.325 10.857-9.17 22.045-18.343 31.875-29.139 2.509-2.751 6.293-6.274 7.788-10.032 1.701-4.31.228-8.341-1.282-12.343z"/><path d="M286.218-92.462c-11.686-28.933-28.236-54.565-41.67-82.309-6.023-12.44-12-25.398-15.351-39.502-1.802-7.585-3.367-16.944-.173-24.915 9.165-22.88 42.071-11.774 55.967-9.535 20.642 3.352 44.279 7.49 65.465-.495 13.878-5.229 21.546-16.388 23.634-32.872 2.237-17.682 10.771-28.666 25.192-35 18.078-7.933 38.168-7.757 56.375-6.579a298.451 298.451 0 0 1 64.465 11.399c20.384 5.976 41.381 7.106 62.489 9.839 27.985 3.625 56.346 9.315 81.073 23.879 21.53 12.681 38.728 32.523 48.587 58.722 10.301 27.348 10.7 58.432 17.256 87.389 4.089 18.062 10.094 42.115 24.012 52.44 4.642 3.443 14.845 3.21 7.993 12.195-3.917 5.14-9.71 9.016-14.479 12.797-7.706 6.111-15.544 11.961-23.317 17.942-16.568 12.748-34.097 25.605-48.383 42.13-17.994 20.802-5.698 43.818-14.294 67.498-4.623 12.743-14.846 21.164-24.901 27.236-6.507 3.935-13.303 7.032-20.134 9.79-7.134 2.882-15.071 4.407-21.797 8.802-9.582 6.251-8.989 16.85-10.456 27.858a290.099 290.099 0 0 1-13.556 56.963c-7.877 22.657-18.196 45.368-32.144 64.139-5.427 7.308-11.85 14.877-19.409 18.727-7.558 3.85-13.756 1.787-20.291-1.734-19.39-10.423-37.002-27.307-53.753-43.325-20.965-20.05-41.023-41.555-59.44-64.84-12.713-16.074-25.224-33.111-34.216-52.696-2.614-5.699-4.952-11.678-6.431-18.05-1.017-4.37-.789-9.598-2.976-13.264-6.848-11.45-26.142-13.749-37.133-16.135-21.934-4.763-44.573-5.533-66.522-10.127-11.98-2.507-30.909-5.81-36.291-20.397-5.063-13.715 7.187-29.896 15.036-39.7 15.428-19.28 33.508-35.295 50.479-52.511 6.979-7.086 14.516-14.436 20.144-23.155 5.007-7.77 1.944-15.187-1.05-22.604z"/><path d="M290.573-90.873c-8.759-25.052-21.123-48.52-29.895-73.944-5.133-14.888-14.111-40.011-2.766-56.021 12.454-17.597 37.768-11.384 52.739-9.06 17.818 2.767 38.84 5.657 56.928-2.567 5.72-2.6 11.08-6.633 14.573-12.901 3.74-6.708 3.445-13.533 5.117-20.804 3.507-15.251 14.147-25.399 26.158-31.107 16.977-8.073 35.752-9.009 53.116-8.517 19.669.578 39.049 3.458 57.864 8.598 17.985 4.899 35.93 9.185 54.103 13.453 23.772 5.566 47.349 13.181 68.166 26.947 20.505 13.565 37.201 33.166 47.723 58.236 10.264 24.463 14.216 52.062 16.731 79.769 1.425 15.726 4.581 39.501 15.194 50.095 4.718 4.714 10.254 5.96 2.077 12.74-10.297 8.538-22.634 14.295-33.705 20.99-15.971 9.664-32.323 19.498-46.947 32.156-9.339 8.083-14.89 16.868-17.855 29.778-2.254 9.837-3.222 19.91-6.659 29.47-8.064 22.44-27.095 34.21-44.119 45.358-10.95 7.169-20.571 12.298-28.501 24.545-9.376 14.474-16.149 31.139-23.986 46.676-8.607 17.062-17.993 34.693-30.477 48.407-11.113 12.209-21.714 16.18-34.008 8.793-19.178-11.515-35.725-31.658-50.533-50.159-15.073-18.825-29.364-39.279-39.837-62.408-5.654-12.49-8.163-26.049-12.673-39.047-5.68-16.324-28.302-16.78-41.227-18.99-21.455-3.669-91.219-6.797-72.538-52.204 7.798-18.953 22.644-34.395 34.593-49.762 4.955-6.378 11.65-13.832 14.543-21.888 3.151-8.773-1.267-19.093-3.899-26.632z"/><path d="M297.713-87.032c-5.888-22.153-14.23-43.826-18.14-67.096-2.543-15.073-3.766-34.63 7.962-46.715 13.237-13.637 33.953-12.092 48.986-10.254 15.488 1.896 33.779 4.901 49.235-3.987 4.918-2.833 9.516-7.197 11.787-13.291 2.182-5.843 2.168-12.276 4.341-18.238 4.878-13.39 14.718-22.863 25.698-28.704 32.48-17.28 72.597-12.308 104.118-4.541 15.777 3.89 31.483 9.87 46.959 15.286 20.083 7.029 39.724 15.827 57.139 29.015 37.028 28.034 54.839 72.976 61.796 124.826 2.189 16.32 2.618 33.458 9.052 47.826 3.314 7.417 1.061 11.502-5.484 15.702-10.233 6.564-21.654 10.615-32.371 15.51-15.242 6.96-30.792 14.004-45.137 23.39-9.888 6.471-17.486 13.222-22.544 25.543-3.608 8.785-5.819 18.128-8.975 27.094-5.998 17.031-15.206 33.062-27.186 45.312-9.511 9.706-19.971 18.041-30.56 25.822-13.769 10.136-26.003 20.904-37.938 34.115-15.813 17.483-40.42 50.955-62.227 34.509-24.051-18.145-41.902-52.656-52.009-84.167-3.394-10.58-5.2-22.925-11.256-31.679-9.07-13.09-21.07-15.93-35.038-19.63-20.912-5.542-67.866-12.19-58.12-50.527 3.863-15.19 13.064-28.063 19.535-41.935 7.268-15.53 4.406-28.085.377-43.186z"/><path d="M305.471-83.119c-4.207-27.943-17.66-75.612 8.405-98.447 13.77-12.069 32.638-12.936 48.106-12.32 12.452.481 26.876 3.274 38.77-5.64 8.743-6.554 9.086-19.411 14.368-29.133 6.551-12.052 16.491-20.687 27.356-26.267 30.365-15.596 66.156-13.289 95.933-6.86 30.924 6.68 62.679 22.7 87.789 43.879 31.307 26.412 49.606 65.442 57.566 110.792 1.467 8.37 2.566 16.852 3.872 25.276.879 5.651 2.881 11.427 3.217 17.215.556 9.648-4.839 15.968-11.922 20.26-10.191 6.183-21.558 9.481-32.308 13.29-14.702 5.214-29.64 10.201-43.873 17.128-9.566 4.663-19.635 9.75-25.547 20.705-4.033 7.471-6.691 15.817-8.837 24.099-4.601 17.758-9.202 31.882-20.327 46.294-18.29 23.654-41.856 43.015-65.313 58.093-18.408 11.834-47.416 30.107-65.328 14.098-16.076-14.346-20.941-39.675-28.33-61.079-3.593-10.406-8.124-20.244-14.303-28.617-7.791-10.555-16.229-16.37-27.621-20.807-19.172-7.47-48.81-16.017-47.168-46.573.605-11.276 4.854-21.986 6.568-33.114 2.285-14.709 1.051-28.177-1.073-42.272z"/><path d="M316.569-79.152c-.435-29.459-1.398-66.695 23.889-85.998 12.248-9.351 26.8-12.514 40.495-14.122 9.808-1.154 24.159 1.578 32.5-7.816 6.131-6.914 9.635-17.781 15.537-25.367 8.112-10.432 18.223-18.105 29.072-23.325 28.264-13.605 60.227-13.224 88.096-8.1 60.552 11.14 110.747 65.086 125.813 135.749 4.493 21.064 11.418 44.058-8.94 58.893-22.222 16.18-49.955 19.12-73.805 28.457-9.111 3.563-20.614 7.7-27.578 16.707-4.188 5.413-6.413 13.017-8.328 19.698-4.889 17.015-10.172 32.079-20.08 46.523-15.306 22.322-35.274 41.35-55.988 55.768-18.063 12.572-42.732 26.425-59.505 9.378-12.856-13.091-17.42-34.789-25.509-52.05-8.998-19.22-22.493-34.162-39.038-44.13-16.098-9.684-34.322-18.188-37.81-41.937-1.196-8.147-1.957-18.484-.973-26.882a304.948 304.948 0 0 0 2.152-41.446z"/><path d="M329.169-75.57c3.812-28.607 11.137-57.539 33.676-74.852 10.518-8.076 22.306-12.657 34.023-16.53 8.621-2.85 17.279-4.882 24.869-11.308 7.03-5.948 13.16-13.4 20.066-19.586 9.123-8.207 19.158-14.738 29.719-19.343 26.465-11.511 55.176-12.518 81.317-8.532 12.656 1.925 26.178 4.784 37.385 11.786 10.824 6.758 20.956 15.573 30.017 25.114 19.266 20.268 33.706 46.259 41.191 76.234 5.131 20.56 5.834 39.403-11.886 54.116-19.977 16.585-45.726 21.79-68.015 30.055-15.286 5.67-32.077 10.743-39.664 29.462-6.039 14.894-11.509 29.1-20.354 42.339-13.113 19.508-29.145 36.068-47.144 48.695-16.445 11.491-35.594 19.851-51.309 7.148-12.449-10.074-19.639-27.099-29.289-40.478-10.747-14.936-24.204-25.188-38.789-34.441-13.103-8.333-24.723-18.857-30.037-36.014-1.089-3.506-2.202-7.305-2.762-11.051-.715-4.781.567-8.987 1.487-13.884 2.442-12.92 3.772-25.982 5.499-38.93z"/><path d="M343.723-74.089c7.342-26.175 19.166-49.605 38.822-66.27 8.404-7.131 17.572-12.403 26.388-18.638 7.101-5.028 13.784-9.678 21.384-13.353 18.024-8.694 34.299-21.834 52.87-28.901 24.797-9.456 50.816-11.384 75.314-8.378 11.963 1.467 24.025 4.091 35.197 9.049 9.596 4.258 17.709 12.352 25.094 20.389 14.477 15.745 27.197 36.018 33.188 58.96 13.21 50.58-44.571 69.3-74.846 81.216-13.923 5.482-34.347 10.68-43.669 26.432-6.662 11.252-12.05 23.067-19.591 33.68-20.253 28.505-54.126 59.337-84.64 45.848-13.058-5.769-23.172-17.7-34.344-26.884-11.504-9.459-24.133-16.397-36.772-23.684-11.812-6.807-20.656-14.361-25.399-29.53-2.269-7.246.065-14.566 1.75-22.257 2.773-12.632 5.783-25.278 9.254-37.679z"/><path d="M357.326-74.048c15.735-38.264 46.329-76.442 80.433-91.974 40.116-18.27 81.827-31.531 122.845-27.565 19.018 1.838 39.359 5.686 53.872 20.227 11.047 11.061 23.204 26.429 26.14 44.246 7.187 43.582-40.252 64.032-67.374 76.036-14.603 6.462-32.416 11.799-45.254 23.51-7.447 6.788-13.033 16.911-19.685 24.777-20.157 23.836-47.2 40.17-74.599 37.047-12.668-1.446-24.335-6.983-35.944-12.01-11.884-5.144-24.146-9.493-35.76-15.34-9.27-4.67-19.914-11.221-20.094-25.01-.231-17.377 8.995-38.318 15.42-53.944z"/><path d="M371.487-77.078c17.446-35.263 42.984-67.377 75.504-82.506 17.245-8.022 35.777-11.783 53.63-15.622 20.237-4.35 40.724-6.446 60.652-4.869 24.814 1.961 64.159 8.279 67.702 44.463 3.516 35.915-35.201 56.494-57.931 68.043-14.57 7.396-29.733 13.705-44.044 22.224-7.759 4.618-14.382 10.582-21.495 16.53-19.673 16.493-44.27 27.132-67.25 30.172-22.273 2.948-48.055-.013-68.476-8.431-8.813-3.628-14.27-9.363-13.994-21.437.397-16.782 8.494-34 15.702-48.567z"/><path d="M386.553-83.797c16.203-30.823 40.219-56.505 68.814-69.948 32.054-15.07 68.999-18.317 101.607-16.265 17.332 1.093 55.374 1.659 56.867 29.613 1.493 27.954-29.526 46.796-47.209 57.005-21.454 12.366-44.075 23.795-66.366 34.075-19.369 8.941-39.879 17.893-59.76 23.479-11.222 3.183-22.563 5.199-33.89 6.023-8.381.588-19.195 1.918-26.711-2.206-18.958-10.407-1.1-47.04 6.648-61.776z"/><path d="M404.463-89.528c32.888-57.687 92.588-74.396 145.047-71.739 12.19.62 46.891.377 48.256 21.057 1.32 20.049-24.378 36.521-36.442 44.355-37.381 24.275-79.331 38.46-119.355 52.924-12.493 4.515-35.746 15.346-46.837 4.504-12.039-11.787 2.515-39.139 9.331-51.101zm-455.43-52.588c7.454-29.376 2.86-63.213 17.147-91.353 11.732-23.111 38.301-18.184 56.885-25.1 14.768-5.493 25.992-19.226 36.717-32.415 9.632-11.839 18.76-24.247 28.655-35.779 6.403-7.453 17.962-22.361 26.958-20.276 8.611 1.994 12.929 17.182 15.812 26.249 3.761 11.818 6.609 24.107 10.139 36.037 5.945 20.12 15.207 36.315 26.492 52.318a1325.292 1325.292 0 0 0 39.728 53.436c10.037 12.85 20.178 25.652 29.476 39.308 5.831 8.568 19.281 25.316 16.129 37.386-1.504 5.76-7.673 10.93-11.914 14.72-7.176 6.416-14.886 11.973-22.572 17.373-14.317 10.058-28.937 19.405-43.474 28.934-18.868 12.368-37.014 24.643-54.717 39.68-18.308 15.568-36.196 31.924-54.27 47.94C53.983 57.194 41.316 69.67 26.587 74.394 8.144 80.29-1.913 66.167-17.79 61.78c-13.658-3.776-2.275-42.22-1.13-53.45 1.174-11.365.046-22.538 1.481-33.86 1.795-14.132 5.508-28.087 8.743-41.99 3.961-17.004 8.04-33.11-4.995-43.491-7.42-5.903-16.3-9.105-24.407-13.622-5.252-2.928-15.224-8.202-12.869-17.483z"/><path d="M-42.843-145.52c5.14-24.922 5.08-58.599 19.881-81.78 12.648-19.81 34.815-16.877 52.282-24.384 14.417-6.188 23.829-20.115 33.82-33.597 8.014-10.814 15.915-21.784 24.472-32.04 6.305-7.558 16.306-20.49 25.089-20.051 7.895.395 12.455 15.399 14.893 23.065 3.554 11.188 6.003 22.962 8.683 34.564 4.71 20.38 10.129 39.024 20.507 55.849 10.425 16.897 23.05 30.826 35.731 45.2 9.92 11.247 19.717 22.709 28.703 35.032 6.695 9.175 16.612 21.281 17.229 34.61.49 10.545-19.519 22.464-25.671 26.915-12.658 9.148-25.693 17.428-38.728 25.635-15.89 10-31.725 18.224-46.676 30.482C100.635-4.107 75.31 25.317 44.857 38.768c-18.367 8.113-36.014 6.718-52.33.396-6.462-2.504-4.986-14.4-4.033-21.313C-9.923 6.366-7.07-4.983-5.153-16.427c1.794-10.713 2.222-21.232 3.17-31.955.96-10.863 3.3-21.631 4.76-32.437.908-6.709 2.11-14.476-.121-20.662-2.308-6.404-7.895-10.326-12.848-13.494-9.309-5.92-36.277-12.957-32.65-30.545z"/><path d="M-31.43-153.471c3.622-23.17 7.76-52.128 23.15-70.245 12.581-14.815 30.698-13.884 45.9-21.66 12.643-6.466 20.406-20.058 29.1-32.292 7.132-10.034 14.3-20.112 22.167-29.371 5.966-7.023 13.8-16.612 22.119-17.391 7.113-.664 11.544 12.036 13.698 18.343 3.666 10.748 5.91 22.291 8.156 33.69 3.673 18.652 6.399 38.254 14.32 54.748 7.702 16.009 18.935 27.25 30.16 39.513 8.598 9.395 17.062 19.027 24.719 29.535 5.881 8.065 13.256 17.731 14.467 28.852 1.053 9.594-10.383 17.552-16.362 22.52-9.872 8.195-20.307 15.346-30.641 22.563-11.152 7.785-23.005 14.547-33.95 22.652-23.019 17.061-43.2 37.372-68.863 48.292C50.089 3.352 28.983 8.169 13.213 2.06c-11.341-4.396-2.118-35.742-.539-46.124 2.573-16.978 3.651-35.252 2.061-51.952-1.373-14.314-11.845-21.42-21.686-27.185-6.163-3.615-12.872-6.473-18.55-11.03-6.57-5.278-7.448-9.528-5.93-19.24zm477.469 636.968c-29.982 11.822-62.361 19.535-93.196 27.931-45.06 12.266-90.531 23.769-136.016 29.713-24.386 3.184-56.34 8.634-77.996-4.783-7.918-4.905-13.669-14.863-20.025-22.036-8.764-9.89-17.778-19.474-26.77-29.068-18.04-19.235-36.183-38.353-53.62-58.35-8.396-9.631-16.01-20.968-25.097-29.7-5.31-5.105-13.196-5.496-19.912-7.062-15.558-3.627-31.227-6.797-46.858-10.11-19.12-4.055-38.298-8.057-57.066-13.508-8.464-2.46-29.806-6.203-32.094-16.406-1.231-5.494 7.04-12.591 10.872-15.874 7.037-6.033 14.634-11.134 22.137-16.188 17.35-11.688 35.328-22.428 51.682-36.295 8.404-7.129 19.208-15.696 18.454-28.704-.758-13.139-4.873-25.442-5.87-38.6-1.15-15.143.695-30.086 2.334-45.377 1.209-11.303-.171-21.973-1.21-32.97-1.147-12.155-2.417-24.442-2.146-36.863.177-8.206.846-22.873 8.748-25.98 11.23-4.421 27.3 5.9 37.436 10.806 14.01 6.773 27.705 14.29 41.602 21.327 10.087 5.112 20.153 10.452 30.95 13.626 17.406 5.118 35.375 8.363 53.214 11.681 33.031 6.143 66.071 11.326 98.534 20.024 28.441 7.621 83.407 65.388 96.898 76.581 26.926 22.343 54.866 44.17 78.893 70.736 6.499 7.191 16.783 17.208 18.115 28.781.824 7.132-1.348 10.546 3.557 16.314 6.693 7.87 16.617 12.914 25.027 17.886 13.544 8.007 27.37 15.418 41.085 23.057 27.745 15.43 55.026 31.784 82.471 47.84 8.297 4.854 18.985 8.3 26.364 14.911 4.759 4.251 3.251 7.594-2.139 10.672-9.455 5.402-21.028 6.706-30.985 8.564-14.589 2.722-29.211 4.719-43.818 6.636-14.607 1.918-29.237 3.648-43.853 5.575-9.652 1.261-20.344 1.524-29.702 5.213z"/><path d="M426.544 473.906c-31.438 11.472-64.776 18.388-96.961 25.228-41.194 8.765-82.898 16.15-124.181 17.467-24.237.769-52.697 1.162-73.525-12.747-7.43-4.963-11.866-12.832-17.398-20.21-6.304-8.417-13.056-16.392-19.832-24.276a1526.85 1526.85 0 0 0-42.705-47.638c-7.686-8.249-15.777-18.706-25.671-23.504-7.866-3.817-17.904-4.034-26.414-5.594-15.325-2.811-30.657-5.584-45.948-8.547-17.644-3.421-35.311-6.948-52.613-11.793-9.643-2.701-26.729-5.353-31.525-14.814-4.184-8.255 23.994-26.508 29.041-30.058 15.759-11.084 31.953-21.32 47.151-33.615 8.977-7.247 19.904-16.059 25.87-27.253 5.081-9.541 3.64-22.35 3.476-32.473-.201-12.677.361-25.613-.45-38.189-.72-11.205-3.797-21.838-6.15-32.479-2.59-11.705-5.2-23.596-6.162-35.867-.582-7.548-1.508-20.174 5.082-25.455 7.61-6.085 23.476 3.475 30.254 6.45 13.742 6.063 27.085 13.177 40.532 19.949 22.335 11.245 43.733 21.58 68.092 27.005 31.723 7.06 63.902 12.296 95.727 18.95 11.754 2.449 23.87 4.288 35.269 8.103 6.534 2.189 10.929 6.021 13.296 12.643 3.234 9.039 14.256 16.517 21.537 23.157 11.353 10.349 22.999 20.266 34.587 30.256 25.435 21.937 51.57 43.515 74.388 69.186 7.22 8.12 15.533 17.245 19.462 28.517 2.194 6.286-.091 11.164.604 17.406.932 8.217 9.647 14.148 14.742 18.119 9.832 7.67 20.535 13.911 31.201 19.931 24.136 13.617 48.945 24.966 74.424 35.256 5.972 2.405 29.586 11.519 13.46 20.63-17.818 10.07-40.007 11.4-58.706 14.754-16.841 3.008-33.564 5.525-49.954 11.505z"/><path d="M390.891 460.674c-29.251 9.665-60.072 14.465-89.986 18.941-36.299 5.432-73.001 9.109-108.99 7.035-22.607-1.307-47.134-4.229-66.434-17.295-13.182-8.921-20.778-25.524-31.033-38.294-10.255-12.77-21.18-25.105-32.893-36.086-7.27-6.815-15.173-13.835-24.776-15.766-23.35-4.698-47.21-7.377-70.644-11.854-15.506-2.95-30.99-6.107-46.167-10.471-9.152-2.629-21.967-5.34-28.527-13.426-7.25-8.941 55.61-51.855 61.82-56.916 15.571-12.693 34.917-29.89 38.718-52.856 3.632-21.955-1.19-40.364-6.993-59.884-3.288-11.1-15.197-41.591-4.932-52.132 5.866-6.025 18.282-.068 24.364 2.08 11.986 4.231 23.61 9.538 35.311 14.577 17.064 7.331 34.242 16.194 51.76 22.136 12.2 4.137 24.98 6.401 37.423 9.711 17.842 4.748 35.632 9.692 53.413 14.665 14.93 4.177 30.075 8.058 44.527 13.81 8.988 3.565 15.379 7.875 20.198 16.507 4.194 7.508 11.995 13.336 18.359 19.101 10.514 9.519 21.309 18.623 32.039 27.811 22.465 19.238 45.295 38.297 65.831 60.318 9.376 10.049 25.669 24.968 23.742 42.725-.694 6.403-.705 9.247 3.278 14.061 5.654 6.831 13.418 11.309 20.732 15.353 17.05 9.427 36.024 13.784 53.057 23.15 6.931 3.837 15.558 10.421 4.635 17.276-12.751 8.023-28.723 10.031-42.34 13.45-6.797 1.704-13.716 3.15-20.41 5.661-5.143 1.939-9.899 4.917-15.082 6.612z"/><path d="M345.143 442.951c-26.536 7.106-54.078 10.062-80.918 12.188-29.808 2.349-59.83 2.866-88.99-1.305-20.137-2.872-41.107-7.746-58.108-20.026-10.751-7.767-16.299-19.529-24.448-30.33-12.293-16.318-26.536-30.455-45.844-33.117a1051.055 1051.055 0 0 1-64.616-10.99c-12.928-2.615-25.852-5.442-38.435-9.406-7.957-2.502-18.171-5.863-23.981-12.189-7.773-8.47 39.572-44.39 45.73-49.824 15.272-13.476 27.857-28.539 37.958-47.599 8.242-15.554 3.968-30.661-.72-45.204-2.916-9.033-13.818-32.706-6.101-41.353 4.24-4.773 13.269-2.048 18.235-1.019 9.463 1.964 18.674 5.028 27.93 7.77 13.661 4.063 29.002 5.408 42.092 11.141 29.01 12.7 58.109 24.764 87.693 36.068 16.31 6.229 32.763 12.328 48.49 20.129 5.646 2.801 11.469 5.725 16.395 9.959 3.17 2.721 4.357 6.227 6.772 9.491 11.525 15.541 29.03 26.639 43.52 38.503 19.264 15.772 38.686 31.42 56.885 48.831 9.573 9.158 23.351 20.424 27.708 35.047 1.317 4.418-.491 7.186-.001 11.226.562 4.658 5.356 7.287 8.354 9.346 6.805 4.677 37.196 17.135 18.509 28.868-8.913 5.585-19.009 7.996-28.376 11.753-3.392 1.361-6.716 2.752-9.837 4.979-5.222 3.737-9.835 5.431-15.896 7.063z"/></g></svg>