<svg width="52" height="63" viewBox="0 0 52 63" fill="none" xmlns="http://www.w3.org/2000/svg"><path d="M51.028 11.056L27.384.3c-.879-.4-1.89-.4-2.769 0L.972 11.056C.38 11.326 0 11.913 0 12.56v31.766a7.436 7.436 0 0 0 3.725 6.435l20.227 11.69a4.096 4.096 0 0 0 4.096 0l20.227-11.69A7.436 7.436 0 0 0 52 44.326V12.56c0-.647-.38-1.235-.972-1.504z" fill="#6A9A9A"/><path d="M6.024 46.982a2.9 2.9 0 0 1-1.448-2.503V15.635c0-.647.38-1.235.971-1.504l19.76-8.99c.44-.2.945-.2 1.385 0l19.76 8.99c.592.27.972.857.972 1.504V44.48a2.892 2.892 0 0 1-1.448 2.503L27.672 57.56a3.345 3.345 0 0 1-3.345 0L6.024 46.982z" fill="#F8F8F8"/><path d="M26.154 50.363c10.491 0 18.996-8.456 18.996-18.886s-8.505-18.886-18.996-18.886c-10.491 0-18.996 8.455-18.996 18.886 0 10.43 8.505 18.886 18.996 18.886z" fill="#6A9A9A"/><path d="M26.154 47.626c8.97 0 16.243-7.23 16.243-16.149s-7.272-16.15-16.243-16.15c-8.97 0-16.243 7.231-16.243 16.15 0 8.919 7.272 16.149 16.243 16.149z" fill="#F8F8F8"/><path d="M37.5 36l-5 5-3.5-3.5 1.5-1.5 2 2 3.5-3.5 1.5 1.5zm-10.4 2.9c-.4.1-.7.1-1.1.1-4.4 0-8-3.6-8-8s3.6-8 8-8 8 3.6 8 8c0 .4 0 .7-.1 1.1.7.1 1.3.3 1.9.6.1-.6.2-1.1.2-1.7 0-5.5-4.5-10-10-10s-10 4.5-10 10 4.5 10 10 10c.6 0 1.2-.1 1.7-.2-.3-.5-.5-1.2-.6-1.9zm2.5-5.8l-3.1-1.8V26H25v6l3.5 2.1c.3-.4.7-.7 1.1-1z" fill="#6A9A9A"/></svg>