<svg width="536" height="142" viewBox="0 0 536 142" fill="none" xmlns="http://www.w3.org/2000/svg"><g opacity=".03" clip-rule="evenodd" stroke="#1B1B1B" stroke-width="5"><path d="M373.362-55.009c-.07-18.169-27.78-38.6-39.617-49.134-23.405-20.834-47.747-40.073-71.864-59.62-24.116-19.547-48.298-39.041-71.294-60.5-14.932-13.93-32.477-29.619-42.604-49.51-21.573-42.39 46.445-36.095 64.064-37.022 44.821-2.369 96.231-1.288 138.244-23.362 25.08-13.177 35.081-35.278 29.695-67.489-1.737-10.475-6.876-22.529-2.522-32.735 4.648-10.899 15.344-17.188 24.22-21.406 32.377-15.366 69.602-17.146 103.859-19.075 36.938-2.12 74.224-1.5 110.903-1.664 15.552-.069 31.795-6.888 46.605-12.43 19.416-7.265 38.601-15.425 57.856-23.314 42.36-17.316 86.01-35.554 130.827-39.952 28.066-2.755 58.741.969 80.544 24.935 10.947 12.033 16.677 29.922 23.006 45.812 7.661 19.197 15.018 38.58 23.174 57.475 26.272 60.854 63.782 120.321 124.672 123.309 9.21.451 18.26-1.017 27.42-1.292 5.84-.17 11.04 1.552 13.21 9.007 5.45 18.699-11.7 48.218-18.73 63.054-15.39 32.475-32.76 63.494-49.02 95.317-10.76 21.046-29.39 49.807-29.58 75.379-.18 22.784 24.65 39.252 38.17 50.475 12.67 10.507 35.61 25.21 37 46.585.68 10.364-4.92 18.953-10.77 25.62-10.25 11.656-22.05 19.88-31.27 33.18-15.12 21.819-27.75 51.841-25.7 81.243 1.42 20.373 10.95 33.715 23.06 46.469 5.09 5.362 9.22 9.156 9.49 17.862.44 13.824-4 28.454-7.65 41.271-13.08 45.87-31.65 90.225-52.3 131.639-10.33 20.697-21.48 41.33-35.162 58.985-8.964 11.593-21.052 25.391-34.725 25.375-15.83 0-32.581-6.973-47.968-12.187-28.74-9.744-57.132-21.009-85.411-32.565-65.399-26.737-130.183-55.64-194.352-86.707-45.199-21.921-91.357-43.873-133.852-73.015-8.287-5.723-16.109-12.396-23.361-19.929-7.748-7.91-17.362-11.45-27.111-14.089-60.509-16.378-126.799-3.804-187.559 4.08-15.422 1.998-30.844 4.006-46.31 5.405-13.295 1.203-29.212 4.652-42.134-.53-25.463-10.2-3.204-47.794 6.207-63.112 33.132-53.935 75.878-99.567 115.499-146.152 18.839-22.186 37.82-44.313 55.634-67.754 9.276-12.187 27.567-32.004 27.507-47.932z"/><path d="M384.779-58.072c-10.155-19.225-27.972-33.435-42.762-46.808-21.284-19.252-43.237-37.434-64.859-56.141-20.445-17.69-40.934-35.58-59.868-55.669-11.545-12.251-26.031-26.9-31.5-45.019-11.862-39.272 51.954-33.314 67.708-34.341 39.167-2.542 83.571-3.125 119.806-23.802 22.625-12.912 31.921-34.325 27.095-64.053-1.668-10.285-4.674-19.067-.869-29.299 4.4-11.843 14.521-19.226 23.799-24.437 29.063-16.329 63.416-19.798 94.921-22.684 32.546-2.982 66.457-5.085 97.956-2.903 12.597.869 27.096-4.062 39.562-7.843 19.181-5.826 38.167-12.547 57.253-18.797 38.788-12.711 78.584-24.956 118.937-26.349 29.132-1.006 59.507 4.449 83.744 25.533 24.563 21.382 35.461 54.526 49.083 86.033 23.525 54.473 55.295 120.703 109.725 132.212 8.25 1.748 16.18.8 24.43 1.229 4.24.217 9.06.905 11.21 6.006 5.58 13.24-9.71 37.45-14.86 47.592-14.22 28.028-30.21 54.684-45.11 82.172-11.84 21.826-26.84 46.078-31.42 71.95-5.55 31.397 30.75 53.737 43.51 75.843 22.13 38.335-19.8 60.177-40.47 78.454-23.734 20.984-43.328 59.266-22.049 91.732 8.139 12.415 18.159 19.814 21.789 36.015 5.69 25.338 1.39 54.292-3.22 79.339-6.95 37.651-17.95 74.895-32.903 108.923-10.711 24.363-28.481 62.565-54.504 59.7-17.517-1.912-35.326-8.898-52.383-15.073-25.541-9.242-50.76-19.776-75.844-30.719-57.905-25.189-115.171-52.963-171.312-83.512-38.306-20.851-145.159-106.063-153.199-109.103-23.972-9.057-51.228-7.463-75.943-6.059-32.877 1.864-65.588 6.694-98.274 11.17-15.559 2.118-31.196 4.708-46.837 5.751-11.133.742-25.753 1.377-35.505-6.519-19.033-15.407 2.172-50.659 10.942-65.574 26.865-45.723 60.849-85.318 92.714-125.803 15.637-19.877 31.513-39.722 45.708-61.193 5.725-8.67 20.076-26.08 13.799-37.954z"/><path d="M398.829-67.931c-27.734-38.473-66.013-67.086-99.05-99.217-16.581-16.132-33.267-32.704-47.569-51.919-7.439-9.991-16.729-22.626-18.162-36.554-3.83-37.26 53.688-32.221 70.903-33.636 33.285-2.744 70.886-4.826 101.083-23.84 18.449-11.623 27.534-30.701 24.086-55.775-1.529-11.125-3.909-20.576 0-31.501 3.961-11.067 12.212-18.876 20.568-24.73 24.012-16.836 53.853-22.218 80.888-26.229a536.154 536.154 0 0 1 95.602-5.457c27.968.896 55.802-9.175 83.111-15.814 36.177-8.789 73.009-16.465 110.029-15.305 29.237.922 58.704 8.164 83.697 27.411 25.398 19.602 40.668 48.941 54.435 80.6 20.812 47.861 46.75 111.995 92.41 130.172 6.64 2.649 12.82 2.94 19.67 3.401 3.33.223 7.63.292 9.28 4.525 3.97 10.193-10.71 29.953-14.81 36.84-13.07 21.986-27.24 42.981-40.64 64.676-12.5 20.253-26.128 41.36-33.898 65.093-12.364 37.8 27.168 59.902 26.058 95.922-.69 22.362-18.241 38.398-32.138 49.492-17.111 13.642-41.749 22.61-50.313 47.505-6.38 18.542 3.63 29.334 11.339 43.405 13.064 23.84 13.954 56.156 12.595 83.753-1.833 37.291-8.994 75.133-21.185 109.409-5.524 15.539-12.291 31.702-22.254 43.771-9.333 11.31-18.166 14.208-30.639 11.893-38.183-7.099-76.736-26.886-113.351-44.56-46.005-22.208-91.376-46.726-135.392-74.312-30.015-18.812-60.706-38.716-87.051-64.707-6.866-6.775-13.897-14.139-18.918-23.077-3.795-6.717-5.407-12.264-11.804-16.1-18.961-11.363-45.336-8.391-65.652-7.21-32.486 1.881-64.815 6.887-97.1 11.396-18.84 2.648-54.331 10.982-69.375-9.007-12.985-17.26 2.684-46.689 10.688-61.894 20.247-38.45 46.292-72.198 70.456-106.946 11.075-15.925 22.583-31.972 31.73-49.677 2.336-4.514 6.08-10.495 6.723-15.978.721-6.283-2.645-11.078-6.05-15.82z"/><path d="M401.213-58.975c-25.627-34.017-56.502-61.963-84.014-93.796-12.336-14.272-24.793-29.245-34.193-46.656-5.056-9.363-10.425-21.149-9.03-32.787 4-33.401 51.306-30.385 70.418-32.341 28.399-2.874 61.024-5.768 86.134-23.779 16.449-11.796 22.617-29.218 19.547-51.688-3.297-24.102 4.074-41.598 20.849-55.043 21.032-16.845 47.58-23.71 72-28.588 29.421-5.849 59.214-8.441 89.018-7.746 28.985.678 57.066-5.249 85.86-9.103 38.176-5.106 77.577-7.625 115.323 2.841 32.863 9.114 62.548 29.198 84.8 60.256 23.243 32.416 34.749 73.256 53.622 109.118 11.771 22.368 28.186 51.958 50.183 60.653 7.34 2.9 20.7-1.013 14.85 13.254-3.35 8.16-9.62 15.318-14.57 21.987-8 10.779-16.27 21.261-24.406 31.891-17.339 22.66-35.908 45.803-48.904 72.635-16.376 33.784 7.966 59.784 4.999 94.04-1.594 18.434-12.097 33.147-23.208 44.705-7.189 7.486-15.055 13.97-23.086 20.02-8.388 6.32-18.313 11.134-25.627 19.304-10.425 11.627-5.899 25.39-3.944 40.421a396.004 396.004 0 0 1 2.25 79.889c-2.381 32.654-7.962 66.241-19.72 95.915-4.574 11.553-10.369 23.801-18.973 31.547-8.605 7.746-17.505 7.215-27.365 4.883-29.246-6.893-58.43-22.931-86.173-38.131-34.723-19.029-68.764-40.295-101.271-64.487-22.44-16.701-44.952-34.743-63.726-57.387-5.459-6.59-10.654-13.647-14.855-21.526-2.884-5.402-4.43-12.374-8.609-16.436-13.074-12.676-39.323-8.891-54.655-8.154-30.601 1.469-60.72 8.451-91.281 10.148-16.68.928-42.802 3.261-55.051-14.071-11.52-16.293-1.086-41.954 5.798-57.653 13.531-30.867 31.709-58.368 48.002-87.061 6.697-11.808 14.038-24.161 18.377-37.644 3.857-12.014-2.801-20.709-9.369-29.43z"/><path d="M407.516-58.419c-20.398-29.934-44.989-56.506-65.535-86.926-12.027-17.816-32.738-47.765-23.437-72.881 10.204-27.599 45.771-28.351 66.33-30.575 24.47-2.647 53.205-6.263 74.147-23.495 6.623-5.448 12.265-12.659 14.656-22.157 2.561-10.165-.239-19.059-.603-29.235-.764-21.346 9.678-38.484 23.497-50.253 19.531-16.64 43.953-24.507 67.02-29.992 26.135-6.186 52.703-9.236 79.324-9.106 25.442.106 50.615-.582 76.083-1.377 33.306-1.058 67.08.652 99.388 11.447 31.826 10.641 60.762 30.585 83.491 59.92 22.174 28.626 37.134 63.616 50.237 99.257 7.434 20.229 19.995 50.459 37.728 60.677 7.886 4.548 15.628 4.236 7.24 16.063-10.56 14.893-24.791 26.842-37.021 39.58-17.643 18.382-35.728 37.123-50.537 58.978-9.457 13.956-13.671 27.498-13.02 45.568.503 13.765 2.786 27.387 1.632 41.205-2.704 32.433-23.636 54.674-42.143 75.385-11.905 13.32-22.777 23.48-28.905 42.428-7.248 22.395-10.29 46.759-15.134 70.012-5.321 25.534-11.466 52.095-23.081 74.585-10.338 20.023-22.911 29.002-41.73 23.607-29.352-8.407-58.283-29.118-84.341-48.278-26.523-19.494-52.589-41.412-74.568-68.206-11.865-14.469-19.964-31.459-30.502-47.003-13.255-19.514-43.24-12.123-61.061-10.472-29.582 2.743-122.665 23.263-114.076-43.2 3.585-27.743 17.704-53.346 28.029-77.826 4.279-10.16 10.473-22.353 11.44-33.995 1.055-12.68-8.415-24.724-14.548-33.735z"/><path d="M418.286-55.877c-15.588-27.126-34.243-52.753-47.619-82.051-8.677-18.974-17.197-44.325-6.004-64.401 12.634-22.656 40.491-27.937 60.96-30.824 21.089-2.971 46.265-5.471 63.502-22.65 5.484-5.471 10.005-12.85 10.846-21.686.812-8.475-1.479-16.95-.72-25.579 1.701-19.376 11.328-35.342 23.74-46.921 36.717-34.256 91.364-41.873 135.664-42.768 22.174-.445 44.994 1.891 67.312 3.565 28.959 2.172 57.962 6.833 85.58 18.068 58.722 23.879 98.08 76.839 125.569 142.739 8.651 20.743 15.271 43.186 28.829 59.856 6.989 8.608 5.462 14.789-1.683 22.64-11.172 12.268-24.799 21.643-37.199 31.882-17.635 14.562-35.649 29.34-51.246 46.784-10.75 12.024-18.382 23.608-20.698 41.64-1.653 12.855-1.267 25.955-2.261 38.89-1.891 24.573-8.369 48.96-19.835 69.344-9.111 16.156-19.957 30.839-31.168 44.839-14.573 18.227-26.898 36.745-37.966 58.378-14.673 28.636-35.289 81.458-69.849 67.479-38.118-15.425-73.845-54.618-98.301-92.592-8.213-12.75-14.955-28.387-26.031-37.789-16.582-14.053-33.406-13.56-53.129-13.502-29.528.08-93.781 7.903-94.475-46.084-.273-21.39 7.311-41.613 10.942-62.187 4.095-23.042-4.113-38.584-14.76-57.07z"/><path d="M429.897-53.459c-15.419-35.353-49.994-93.448-23.697-132.761 13.891-20.776 38.46-28.584 59.071-33.237 16.586-3.763 36.589-5.177 49.121-21.131 9.211-11.73 5.122-28.801 8.651-43.484 4.38-18.204 14.434-33.099 26.788-44.295 34.523-31.289 82.524-40.891 124.053-42.934 43.131-2.117 90.655 7.787 131.242 26.837 50.606 23.762 88.519 68.755 115.033 125.732 4.892 10.518 9.337 21.311 14.034 31.956 3.156 7.141 7.835 14.049 10.323 21.56 4.141 12.524-.738 22.761-8.56 30.923-11.252 11.751-25.073 20.115-37.901 28.934-17.541 12.068-35.473 23.92-51.791 38.08-10.965 9.528-22.442 19.791-26.366 36.322-2.678 11.275-3.234 23.217-3.138 34.894.208 25.037-.869 45.284-10.445 68.215-15.757 37.646-39.988 71.497-65.586 99.662-20.089 22.105-51.878 56.443-81.148 41.664-26.262-13.233-41.625-44.908-58.927-70.517-8.413-12.45-17.863-23.82-28.967-32.676-13.999-11.164-27.178-15.848-43.765-17.674-27.916-3.076-70.009-3.875-78.639-44.74-3.186-15.08-1.367-30.7-3.038-45.977-2.184-20.2-8.569-37.52-16.348-55.352z"/><path d="M445.93-52.15c-10.98-38.684-25.404-87.436 1.114-121.817 12.845-16.656 30.913-25.967 48.4-32.924 12.524-4.987 32.41-6.455 40.088-21.785 5.639-11.282 6.42-26.846 11.522-38.934 7.01-16.618 17.63-30.306 30.088-41.021 32.458-27.921 74.732-38.71 113.284-41.8 83.768-6.703 169.001 46.686 213.826 134.526 13.366 26.183 30.618 54.051 9.019 80.802-23.581 29.183-59.106 42.855-87.251 63.59-10.754 7.917-24.458 17.435-30.457 31.769-3.609 8.616-3.857 19.427-4.022 28.913-.433 24.159-2.077 45.885-10.038 68.428-12.294 34.837-31.897 66.977-54.113 93.303-19.373 22.956-47.002 49.935-75.139 33.385-21.573-12.718-35.255-39.712-52.017-59.611-18.654-22.161-41.724-37.094-67.058-44.391-24.644-7.08-51.674-11.854-64.663-41.933-4.455-10.317-9.109-23.677-10.78-35.096-2.696-18.829-6.643-37.358-11.803-55.403z"/><path d="M463.806-51.877c-5.079-39.063-5.643-79.794 17.957-110.581 11.014-14.364 24.937-24.568 39.016-33.813 10.359-6.803 21.056-12.54 28.792-23.693 7.168-10.326 12.616-22.315 19.537-32.912 9.128-14.042 20.051-26.198 32.348-36 30.824-24.525 68.321-35.995 104.194-39.974 17.365-1.934 36.203-2.941 53.451 2.331 16.658 5.086 33.13 13.129 48.446 22.506 32.561 19.916 60.78 49.082 81.237 85.956 14.027 25.294 21.612 49.887 3.447 75.546-20.478 28.922-52.588 44.88-79.053 63.651-18.151 12.874-38.495 25.494-41.886 52.854-2.7 21.77-4.893 42.432-11.878 63.01-10.396 30.352-25.682 57.848-44.951 80.854-17.622 20.959-39.915 38.745-65.122 27.55-19.97-8.885-35.465-28.79-52.913-43.02-19.445-15.895-40.809-24.658-63.306-31.704-20.218-6.358-39.256-16.128-52.323-36.87-2.675-4.238-5.483-8.853-7.546-13.595-2.631-6.05-2.426-12.047-2.943-18.829-1.346-17.897-4.207-35.587-6.504-53.267z"/><path d="M483.518-55.07c.434-37.104 7.745-72.17 27.772-101.085 8.561-12.37 18.785-22.559 28.206-33.894 7.585-9.138 14.754-17.628 23.476-25.158 20.69-17.831 37.505-40.904 59.493-56.781 29.352-21.227 62.974-32.959 96.335-37.65 16.29-2.293 33.118-3.094 49.599-.505 14.155 2.224 27.712 10.03 40.287 18.016 24.648 15.644 48.58 37.879 64.584 66.009 35.283 62.019-34.282 107.109-69.986 133.515-16.421 12.147-41.511 26.214-48.237 50.275-4.808 17.188-7.737 34.668-13.93 51.325-16.632 44.735-50.397 97.35-95.393 90.345-19.254-2.993-36.802-15.15-54.776-23.312-18.507-8.405-37.609-13.091-56.846-18.233-17.978-4.803-32.307-11.638-43.919-29.961-5.55-8.751-5.06-19.226-5.554-29.962-.808-17.633-1.307-35.368-1.111-52.944z"/><path d="M501.466-59.822c7.229-56.005 34.076-117.147 73.552-149.671 46.436-38.26 96.742-70.478 152.222-79.74 25.722-4.294 53.898-6.407 78.17 7.637 18.471 10.681 39.927 26.646 50.093 49.099 24.87 54.919-30.449 98.639-61.966 124.047-16.969 13.678-38.568 27.006-51.358 46.98-7.42 11.582-11.208 26.902-17.198 39.622-18.155 38.545-48.039 69.635-85.264 75.195-17.212 2.569-34.55-.609-51.631-3.135-17.486-2.584-35.189-3.987-52.566-7.593-13.871-2.881-30.218-7.758-35.327-25.874-6.442-22.829-1.677-53.696 1.273-76.567z"/><path d="M519.067-68.819c10.542-52.654 32.867-104.015 70.397-135.448 19.902-16.668 43.006-28.174 65.187-39.543 25.143-12.883 51.413-22.884 78.243-27.845 33.407-6.18 87.512-11.75 104.966 34.704 17.323 46.108-26.452 86.917-52.339 110.173-16.597 14.898-34.36 28.571-50.217 44.858-8.599 8.83-15.223 19.032-22.499 29.388-20.111 28.693-48.781 51.408-78.004 63.534-28.323 11.755-63.36 16.96-93.257 13.075-12.9-1.67-22.121-7.303-26.022-23.32-5.406-22.264-.813-47.825 3.545-69.576z"/><path d="M536.556-83c10.473-46.36 33.063-88.704 66.014-116.528 36.936-31.192 84.497-48.524 128.212-57.338 23.236-4.681 73.59-17.374 85.434 18.952 11.843 36.327-22.395 72.126-42.101 91.834-23.918 23.882-49.704 46.94-75.46 68.368-22.378 18.63-46.256 37.678-70.494 52.065-13.67 8.162-27.911 14.826-42.552 19.913-10.842 3.737-24.629 9.31-35.995 6.529C520.943-6.23 531.547-60.834 536.556-83zM-60.87-5.323c-.551-41.363-18.561-84.351-9.667-126.497 7.304-34.615 44.073-37.505 66.131-53.187 17.529-12.459 27.476-34.53 36.956-55.707 8.517-19.011 16.167-38.594 25.14-57.294 5.808-12.088 15.782-35.826 28.377-36.255 12.059-.413 23.116 18.085 30.121 29.02 9.132 14.254 17.229 29.449 26.097 43.93 14.946 24.426 32.877 42.506 53.41 59.618a1809.311 1809.311 0 0 0 71.254 56.415c17.771 13.396 35.664 26.692 52.746 41.411 10.715 9.236 34.363 26.564 34.472 43.59.052 8.125-6.255 17.123-10.507 23.617-7.195 10.993-15.396 21.044-23.623 30.878-15.322 18.318-31.295 35.806-47.094 53.505-20.506 22.97-40.093 45.565-58.12 71.642-18.639 26.993-36.445 54.876-54.615 82.377-12.305 18.63-24.598 39.553-42.347 50.985-22.232 14.29-40.48-.778-62.963-.953-19.34-.153-17.914-54.859-20.372-70.071-2.466-15.396-7.901-29.729-10.008-45.163-2.627-19.265-2.661-38.976-3.307-58.448C20.426 54.273 20.114 31.6-.74 22.516c-11.868-5.16-24.706-6.245-36.99-9.336-7.958-2.006-22.968-5.436-23.142-18.503z"/><path d="M-51.363-12.681c-2.027-34.673-14.004-79.05-2.678-114.842 9.676-30.585 39.937-34.55 60.314-50.617 16.822-13.251 24.31-34.937 32.719-56.241 6.745-17.089 13.287-34.343 20.945-50.887 5.643-12.192 14.26-32.775 25.994-35.298 10.549-2.269 21.861 15.902 27.783 25.147 8.638 13.496 16.027 28.152 23.658 42.501 13.41 25.206 27.14 47.872 46.766 66.387 19.713 18.595 41.279 32.499 63.075 46.97 17.052 11.323 34.017 22.974 50.217 36.046 12.068 9.732 29.419 22.189 34.941 39.543 4.372 13.73-17.798 36.512-24.336 44.553-13.457 16.533-27.717 32.054-42.003 47.48-17.417 18.796-35.388 35.233-50.769 56.675-27.509 38.335-50.503 86.074-85.9 114.565-21.349 17.186-45.108 21.58-68.853 19.009-9.403-1.018-11.66-17.222-12.845-26.673-1.97-15.701-2.218-31.673-3.733-47.437-1.42-14.757-4.572-28.778-7.111-43.249-2.57-14.662-3.29-29.684-5.183-44.447-1.172-9.165-2.331-19.83-7.458-27.198-5.305-7.628-14.056-10.824-21.705-13.252-14.365-4.516-52.405-4.267-53.838-28.735z"/><path d="M-39.125-27.196c-3.41-31.826-8.183-71.467 5.707-100.789 11.353-23.976 35.566-29.148 52.86-44.77 14.385-12.991 19.819-33.653 26.959-52.854 5.859-15.749 11.748-31.567 18.85-46.554 5.385-11.366 12.325-26.776 23.018-30.741 9.143-3.389 19.471 11.789 24.539 19.343 8.63 12.875 15.666 27.301 22.654 41.536 11.432 23.293 21.951 48.174 38.22 67.12 15.81 18.386 34.59 29.238 53.721 41.441 14.654 9.348 29.217 19.057 43.024 30.206 10.602 8.555 23.74 18.693 29.265 32.928 4.777 12.276-7.488 26.808-13.616 35.469-10.12 14.293-21.351 27.406-32.427 40.572-11.952 14.203-25.19 27.305-36.756 41.858-24.322 30.625-43.753 64.532-73.73 87.994-19.414 15.199-45.539 29.005-68.488 26.522-16.504-1.789-15.418-46.374-17.004-60.619-2.605-23.293-7.64-47.767-15.635-69.223C35.169 13.858 18.852 8.188 3.842 4.064-5.561 1.476-15.416.078-24.51-3.924c-10.528-4.638-13.186-9.931-14.615-23.272z"/><path d="M-27.71-42.114c-2.03-26.908-1.574-58.727 11.575-82.003 11.524-20.388 32.041-25.756 46.633-41.816 11.39-12.53 15.862-32.961 21.987-49.531 7.485-20.261 17.974-57.681 36.857-65.305 17.566-7.088 35.936 38.19 42.295 51.692 10.068 21.37 18.488 44.805 30.698 64.54 10.515 16.99 24.603 26.382 39.557 36.475 19.065 12.891 48.011 28.177 58.204 53.3 7.599 18.721-17.109 46.553-25.546 59.524-8.824 13.55-15.471 29.61-24.578 42.682-14.37 20.627-37.657 37.234-56.883 49.908-18.691 12.328-42.964 25.973-64.168 25.161-13.937-.531-16.588-26.802-19.561-39.635-4.26-18.243-9.924-34.59-22.091-46.998C34.885 3.249 20.288-2.703 4.943-7.911-2.933-10.566-11.918-12.637-18.965-18c-7.785-5.835-7.963-13.772-8.745-24.115z"/><path d="M-13.803-57.624c.113-23.246 4.468-48.035 17.38-65.966 10.753-14.936 27.586-19.929 37.88-35.197 8.155-12.088 12.306-29.058 17.765-43.096 6.677-17.202 16.118-47.253 32.721-53.223 16.205-5.812 30.538 27.288 36.751 40.385 9.099 19.204 16.465 39.561 25.646 58.713 7.192 15.025 15.988 24.709 27.699 34.394 13.748 11.374 32.93 23.975 40.274 42.794 5.294 13.625-7.522 35.398-12.175 47.401-3.12 8.063-5.975 16.252-7.544 24.99-1.222 6.805-1.343 13.103-4.883 18.946-8.912 14.698-28.453 16.616-41.712 21.46-17.608 6.43-36.291 13.737-54.718 15.132-11.326.871-17.106-11.866-23.57-20.827-7.64-10.593-18.454-18.211-27.9-26.205-12.465-10.566-26.03-17.139-40.065-23.87-6.33-3.037-13.765-6.017-18.67-12.056-5.121-6.26-4.918-15.385-4.879-23.775z"/><path d="M.805-71.424c2.238-19.524 9.212-38.184 20.992-51.986 9.03-10.596 21.022-16.562 28.27-29.293 6.753-11.868 11.459-25.363 17.036-38.052 5.904-13.415 14.673-35.837 28.288-39.487 14.673-3.931 25.975 18.687 32.234 31.222 7.907 15.842 13.914 32.886 20.983 49.273 5.326 12.214 12.12 23.385 20.155 33.14 8.427 10.284 19.856 20.133 24.119 34.274 3.77 12.525-3.283 27.678-4.528 40.377-1.331 13.57 1.002 27.821-6.38 39.472-15.223 24.027-53.43 19.571-75.272 20.085-21.551.53-38.879-14.172-56.318-28.16-11.52-9.234-23.517-17.054-35.327-25.659C3.017-44.997-1.164-54.242.805-71.424z"/><path d="M14.377-82.599c6.618-28.284 27.289-43.317 42.066-64.692 12.09-17.499 21.157-53.737 41.519-58.53 23.118-5.441 36.958 42.575 44.995 61.102 8.919 20.548 24.802 37.262 31.408 59.013 3.472 11.417.49 22.07-1.359 33.481-2.026 12.53-3.55 25.341-10.545 35.427C148.69 3.05 121.796 2.912 102.428 3.458c-20.05.568-37.787-13.034-53.762-26.609-16.943-14.375-41.068-30.442-34.29-59.448z"/></g></svg>