<svg width="52" height="63" viewBox="0 0 52 63" fill="none" xmlns="http://www.w3.org/2000/svg"><path d="M51.028 11.056L27.384.3c-.879-.4-1.89-.4-2.769 0L.972 11.056C.38 11.326 0 11.913 0 12.56v31.766a7.436 7.436 0 0 0 3.725 6.435l20.227 11.69a4.096 4.096 0 0 0 4.096 0l20.227-11.69A7.436 7.436 0 0 0 52 44.326V12.56c0-.647-.38-1.235-.972-1.504z" fill="#6A9A9A"/><path d="M6.024 46.982a2.9 2.9 0 0 1-1.449-2.503V15.635c0-.647.38-1.235.972-1.504l19.76-8.99c.44-.2.945-.2 1.385 0l19.76 8.99c.592.27.972.857.972 1.504V44.48a2.892 2.892 0 0 1-1.449 2.503L27.672 57.56a3.344 3.344 0 0 1-3.345 0L6.024 46.982z" fill="#F8F8F8"/><path d="M26.154 50.363c10.491 0 18.996-8.456 18.996-18.886S36.645 12.59 26.154 12.59c-10.492 0-18.996 8.455-18.996 18.886 0 10.43 8.505 18.886 18.996 18.886z" fill="#6A9A9A"/><path d="M26.154 47.626c8.97 0 16.243-7.23 16.243-16.15 0-8.918-7.272-16.148-16.243-16.148-8.97 0-16.243 7.23-16.243 16.149s7.272 16.149 16.243 16.149z" fill="#F8F8F8"/><path d="M35.271 26.62l-8.325-4.056a1.184 1.184 0 0 0-1.035 0l-8.325 4.056c-.32.154-.588.394-.777.691-.189.297-.29.64-.29.992v8.683c0 1.039.864 1.881 1.93 1.881H34.41c1.066 0 1.93-.842 1.93-1.881v-8.683a1.864 1.864 0 0 0-.29-.992 1.897 1.897 0 0 0-.779-.691z" stroke="#6A9A9A" stroke-width="2" stroke-linecap="round" stroke-linejoin="round"/><path d="M33.037 35.583l-5.931-4.691a1.09 1.09 0 0 0-1.352 0l-5.932 4.69m9.085-3.284l6.608-4.927m-18.17 0l6.607 4.927" stroke="#6A9A9A" stroke-width="2" stroke-linecap="round" stroke-linejoin="round"/></svg>