<svg width="537" height="220" viewBox="0 0 537 220" fill="none" xmlns="http://www.w3.org/2000/svg"><g opacity=".03" clip-rule="evenodd" stroke="#1B1B1B" stroke-width="5"><path d="M162.122-128.728c-.045-18.423-18.18-39.139-25.927-49.82-15.317-21.124-31.248-40.632-47.031-60.451-15.783-19.819-31.609-39.585-46.66-61.343-9.771-14.125-21.253-30.032-27.88-50.201-14.12-42.98 30.395-36.597 41.925-37.538 29.334-2.401 62.979-1.305 90.475-23.687 16.414-13.361 22.959-35.77 19.433-68.43-1.136-10.621-4.499-22.843-1.65-33.191 3.042-11.051 10.042-17.428 15.851-21.705 21.189-15.58 45.551-17.385 67.97-19.341 24.175-2.149 48.577-1.52 72.581-1.687 10.178-.07 20.809-6.984 30.501-12.604 12.707-7.365 25.263-15.639 37.864-23.639 27.723-17.557 56.289-36.049 85.62-40.508 18.368-2.794 38.444.983 52.713 25.283 7.164 12.201 10.914 30.338 15.055 46.45 5.014 19.465 9.829 39.118 15.167 58.276 17.195 61.703 41.745 121.999 81.592 125.029 6.028.456 11.948-1.032 17.947-1.311 3.821-.172 7.222 1.574 8.642 9.133 3.571 18.96-7.653 48.89-12.255 63.933-10.076 32.928-21.439 64.379-32.083 96.646-7.042 21.339-19.232 50.501-19.36 76.429-.113 23.102 16.136 39.8 24.982 51.178 8.289 10.654 23.308 25.563 24.217 47.236.44 10.508-3.224 19.217-7.051 25.976-6.707 11.82-14.434 20.157-20.467 33.642-9.895 22.124-18.161 52.565-16.817 82.377.931 20.657 7.164 34.185 15.092 47.117 3.333 5.437 6.037 9.283 6.213 18.11.284 14.017-2.619 28.851-5.011 41.847-8.556 46.509-20.709 91.483-34.228 133.474-6.755 20.985-14.053 41.906-23.01 59.807-5.866 11.755-13.778 25.745-22.726 25.729-10.36 0-21.322-7.07-31.393-12.357-18.808-9.88-37.39-21.302-55.897-33.019-42.8-27.11-85.198-56.415-127.194-87.916-29.58-22.226-59.789-44.484-87.599-74.033-5.424-5.803-10.543-12.569-15.289-20.206-5.071-8.021-11.363-11.61-17.743-14.286-39.6-16.606-82.984-3.857-122.749 4.137-10.093 2.026-20.186 4.062-30.307 5.48-8.701 1.22-19.118 4.717-27.575-.537-16.664-10.342-2.097-48.46 4.062-63.992 21.683-54.687 49.659-100.954 75.589-148.19 12.329-22.494 24.751-44.93 36.41-68.698 6.07-12.356 18.041-32.45 18.001-48.599z"/><path d="M169.595-131.834c-6.646-19.493-18.307-33.902-27.986-47.461-13.929-19.521-28.296-37.956-42.447-56.923-13.38-17.937-26.79-36.077-39.18-56.446-7.557-12.421-17.037-27.275-20.616-45.646-7.763-39.819 34.001-33.778 44.312-34.82 25.632-2.578 54.693-3.168 78.406-24.133 14.808-13.093 20.891-34.804 17.733-64.947-1.091-10.428-3.059-19.332-.568-29.707 2.879-12.008 9.503-19.494 15.575-24.778 19.02-16.556 41.503-20.073 62.121-23 21.3-3.023 43.493-5.155 64.108-2.943 8.244.881 17.732-4.119 25.891-7.953 12.553-5.907 24.979-12.722 37.469-19.059 25.385-12.888 51.43-25.304 77.839-26.716 19.065-1.02 38.944 4.511 54.806 25.889 16.076 21.68 23.208 55.286 32.123 87.233 15.396 55.231 36.19 122.385 71.809 134.054 5.401 1.772 10.591.811 15.987 1.246 2.774.22 5.933.918 7.34 6.09 3.653 13.425-6.357 37.972-9.725 48.256-9.307 28.418-19.771 55.446-29.524 83.317-7.747 22.131-17.565 46.72-20.561 72.953-3.636 31.835 20.12 54.486 28.475 76.9 14.483 38.87-12.957 61.016-26.485 79.548-15.536 21.277-28.359 60.092-14.433 93.011 5.327 12.588 11.883 20.09 14.262 36.517 3.721 25.691.907 55.049-2.112 80.444-4.548 38.177-11.746 75.939-21.531 110.442-7.01 24.703-18.639 63.438-35.67 60.532-11.464-1.938-23.119-9.021-34.282-15.283-16.715-9.371-33.22-20.052-49.636-31.147a1308.232 1308.232 0 0 1-112.116-84.676c-25.069-21.142-94.999-107.542-100.261-110.624-15.689-9.183-33.526-7.567-49.701-6.144-21.517 1.89-42.925 6.788-64.316 11.326-10.182 2.148-20.416 4.774-30.652 5.832-7.286.752-16.855 1.396-23.237-6.611-12.456-15.622 1.422-51.365 7.161-66.488 17.582-46.36 39.823-86.507 60.677-127.556 10.234-20.154 20.624-40.276 29.914-62.047 3.746-8.79 13.139-26.442 9.031-38.482z"/><path d="M178.79-141.831c-18.151-39.009-43.203-68.021-64.824-100.6-10.852-16.357-21.772-33.159-31.131-52.642-4.869-10.131-10.948-22.943-11.886-37.065-2.507-37.778 35.136-32.67 46.402-34.104 21.783-2.783 46.392-4.894 66.154-24.172 12.074-11.786 18.02-31.129 15.763-56.553-1-11.28-2.558-20.863 0-31.94 2.592-11.221 7.993-19.139 13.461-25.074 15.715-17.071 35.244-22.529 52.937-26.595 20.756-4.737 41.668-6.586 62.567-5.533 18.304.908 36.52-9.304 54.392-16.035 23.676-8.911 47.782-16.695 72.009-15.518 19.134.935 38.419 8.277 54.776 27.793 16.622 19.875 26.615 49.623 35.625 81.724 13.62 48.527 30.594 113.556 60.475 131.986 4.346 2.686 8.396 2.981 12.878 3.449 2.177.225 4.988.295 6.068 4.587 2.598 10.335-7.006 30.371-9.686 37.354-8.555 22.293-17.83 43.58-26.598 65.577-8.186 20.536-17.102 41.937-22.187 66.001-8.092 38.327 17.779 60.737 17.054 97.26-.452 22.673-11.938 38.933-21.033 50.181-11.198 13.832-27.323 22.926-32.927 48.167-4.176 18.801 2.376 29.743 7.421 44.01 8.549 24.173 9.132 56.94 8.242 84.92-1.199 37.811-5.886 76.181-13.864 110.935-3.616 15.755-8.044 32.144-14.564 44.381-6.108 11.468-11.889 14.406-20.052 12.059-24.989-7.198-50.22-27.261-74.183-45.181-30.108-22.518-59.801-47.378-88.608-75.348-19.643-19.074-39.729-39.256-56.97-65.609-4.494-6.87-9.095-14.337-12.381-23.399-2.484-6.811-3.539-12.435-7.725-16.324-12.41-11.522-29.671-8.509-42.967-7.311-21.26 1.907-42.418 6.983-63.547 11.555-12.33 2.685-35.557 11.135-45.402-9.132-8.499-17.5 1.756-47.34 6.994-62.757 13.251-38.987 30.296-73.204 46.111-108.437 7.247-16.147 14.779-32.418 20.765-50.37 1.529-4.576 3.979-10.641 4.4-16.201.472-6.37-1.731-11.232-3.959-16.039z"/><path d="M180.35-132.75c-16.772-34.491-36.978-62.827-54.983-95.103-8.074-14.472-16.226-29.653-22.378-47.307-3.309-9.493-6.823-21.444-5.91-33.244 2.618-33.867 33.578-30.808 46.086-32.792 18.585-2.913 39.937-5.849 56.37-24.11 10.765-11.961 14.802-29.626 12.792-52.408-2.157-24.439 2.667-42.179 13.645-55.812 13.764-17.078 31.139-24.04 47.121-28.986 19.254-5.93 38.753-8.559 58.258-7.854 18.969.688 37.347-5.322 56.191-9.23 24.984-5.177 50.77-7.73 75.473 2.881 21.508 9.241 40.935 29.605 55.498 61.096 15.211 32.867 22.742 74.277 35.093 110.639 7.704 22.68 18.446 52.682 32.842 61.498 4.801 2.941 13.551-1.026 9.716 13.44-2.192 8.273-6.294 15.531-9.534 22.293-5.237 10.929-10.646 21.557-15.971 32.335-11.348 22.977-23.5 46.442-32.006 73.648-10.716 34.255 5.214 60.618 3.272 95.35-1.043 18.692-7.916 33.61-15.188 45.329-4.705 7.59-9.853 14.165-15.109 20.299-5.489 6.408-11.985 11.289-16.772 19.573-6.822 11.79-3.86 25.745-2.581 40.985a620.692 620.692 0 0 1 1.473 81.002c-1.558 33.109-5.211 67.165-12.906 97.253-2.994 11.714-6.786 24.132-12.417 31.986-5.631 7.854-11.456 7.316-17.909 4.951-19.14-6.989-38.24-23.25-56.396-38.663-22.725-19.293-45.003-40.855-66.277-65.385-14.686-16.934-29.419-35.227-41.705-58.187-3.574-6.682-6.974-13.838-9.722-21.826-1.888-5.478-2.9-12.547-5.635-16.665-8.556-12.853-25.734-9.015-35.769-8.268-20.027 1.49-39.738 8.57-59.739 10.29-10.916.94-28.012 3.306-36.028-14.268-7.539-16.52-.711-42.538 3.795-58.456 8.855-31.298 20.751-59.182 31.414-88.275 4.384-11.972 9.188-24.498 12.028-38.168 2.524-12.182-1.834-20.998-6.132-29.841z"/><path d="M184.475-132.186c-13.35-30.351-29.443-57.294-42.89-88.139-7.871-18.063-21.425-48.43-15.338-73.896 6.678-27.984 29.955-28.746 43.41-31.001 16.014-2.684 34.82-6.35 48.525-23.823 4.335-5.524 8.027-12.835 9.592-22.466 1.676-10.306-.156-19.325-.395-29.642-.5-21.644 6.334-39.021 15.378-50.954 12.782-16.872 28.765-24.849 43.862-30.41 17.103-6.273 34.491-9.365 51.914-9.233 16.65.107 33.124-.591 49.792-1.396 21.797-1.073 43.901.661 65.045 11.606 20.828 10.79 39.765 31.011 54.641 60.756 14.511 29.025 24.302 64.502 32.877 100.64 4.866 20.512 13.086 51.163 24.692 61.524 5.161 4.611 10.225 4.294 4.737 16.286-6.91 15.101-16.224 27.216-24.228 40.132-11.546 18.638-23.382 37.641-33.074 59.8-6.189 14.15-8.947 27.882-8.521 46.203.33 13.957 1.824 27.77 1.068 41.78-1.769 32.884-15.469 55.436-27.58 76.436-7.791 13.506-14.907 23.807-18.917 43.02-4.744 22.706-6.735 47.41-9.905 70.987-3.482 25.89-7.504 52.821-15.105 75.625-6.766 20.302-14.994 29.406-27.31 23.936-19.21-8.525-38.144-29.524-55.198-48.951-17.357-19.766-34.417-41.989-48.801-69.157-7.765-14.671-13.065-31.897-19.962-47.658-8.674-19.787-28.299-12.293-39.961-10.618-19.361 2.78-80.279 23.587-74.657-43.803 2.346-28.129 11.586-54.089 18.343-78.91 2.801-10.302 6.854-22.665 7.487-34.47.69-12.856-5.507-25.068-9.521-34.204z"/><path d="M191.524-129.609c-10.202-27.504-22.411-53.488-31.165-83.195-5.678-19.238-11.255-44.943-3.929-65.299 8.268-22.971 26.499-28.326 39.895-31.253 13.802-3.013 30.278-5.548 41.559-22.966 3.589-5.548 6.548-13.029 7.098-21.988.531-8.593-.968-17.187-.471-25.936 1.113-19.646 7.413-35.834 15.537-47.575 24.029-34.733 59.793-42.456 88.785-43.364 14.512-.451 29.447 1.917 44.053 3.614 18.952 2.203 37.933 6.929 56.008 18.32 38.43 24.212 64.189 77.91 82.179 144.729 5.661 21.032 9.994 43.789 18.867 60.691 4.574 8.727 3.575 14.995-1.102 22.955-7.311 12.439-16.229 21.945-24.344 32.327-11.542 14.765-23.331 29.749-33.538 47.436-7.036 12.191-12.03 23.937-13.547 42.22-1.081 13.035-.829 26.317-1.479 39.433-1.238 24.915-5.477 49.643-12.981 70.31-5.963 16.38-13.061 31.269-20.398 45.464-9.537 18.481-17.604 37.258-24.847 59.192-9.603 29.035-23.095 82.593-45.713 68.42-24.946-15.64-48.328-55.379-64.333-93.883-5.375-12.928-9.788-28.783-17.036-38.316-10.852-14.249-21.863-13.75-34.771-13.69-19.324.08-61.375 8.013-61.829-46.727-.179-21.687 4.784-42.193 7.161-63.053 2.68-23.364-2.692-39.122-9.659-57.866z"/><path d="M199.122-127.157c-10.091-35.847-32.719-94.751-15.508-134.612 9.09-21.066 25.17-28.982 38.658-33.7 10.856-3.816 23.946-5.249 32.148-21.426 6.028-11.893 3.352-29.202 5.662-44.09 2.866-18.458 9.446-33.561 17.531-44.912 22.594-31.725 54.008-41.461 81.187-43.533 28.227-2.147 59.329 7.895 85.892 27.211 33.119 24.093 57.931 69.714 75.283 127.485 3.202 10.665 6.111 21.608 9.185 32.401 2.065 7.241 5.128 14.245 6.756 21.861 2.71 12.698-.483 23.078-5.603 31.354-7.363 11.915-16.409 20.395-24.804 29.337-11.48 12.237-23.215 24.254-33.894 38.611-7.176 9.661-14.688 20.067-17.256 36.829-1.753 11.432-2.116 23.54-2.054 35.38.137 25.386-.568 45.915-6.835 69.166-10.312 38.17-26.17 72.493-42.923 101.052-13.148 22.413-33.952 57.229-53.108 42.244-17.187-13.418-27.241-45.535-38.565-71.5-5.505-12.624-11.69-24.153-18.957-33.132-9.162-11.319-17.787-16.069-28.642-17.92-18.27-3.119-45.818-3.93-51.466-45.363-2.085-15.291-.894-31.13-1.988-46.619-1.429-20.48-5.608-38.042-10.699-56.124z"/><path d="M209.615-125.829c-7.186-39.224-16.626-88.656.729-123.517 8.407-16.887 20.231-26.328 31.675-33.383 8.197-5.056 21.211-6.544 26.236-22.088 3.691-11.439 4.202-27.22 7.541-39.476 4.587-16.85 11.537-30.729 19.691-41.593 21.242-28.311 48.908-39.25 74.139-42.383 54.822-6.797 110.603 47.337 139.939 136.401 8.747 26.548 20.038 54.805 5.902 81.929-15.433 29.589-38.682 43.452-57.101 64.476-7.038 8.028-16.007 17.678-19.933 32.212-2.362 8.737-2.524 19.698-2.632 29.316-.284 24.495-1.36 46.525-6.569 69.382-8.046 35.323-20.876 67.91-35.415 94.604-12.679 23.276-30.761 50.63-49.175 33.85-14.118-12.895-23.073-40.266-34.043-60.442-12.208-22.47-27.306-37.611-43.886-45.01-16.128-7.178-33.818-12.02-42.318-42.517-2.916-10.461-5.962-24.007-7.055-35.586-1.765-19.091-4.348-37.878-7.725-56.175z"/><path d="M221.314-125.553c-3.324-39.607-3.693-80.907 11.752-112.123 7.208-14.564 16.32-24.91 25.534-34.284 6.779-6.897 13.78-12.715 18.843-24.023 4.691-10.47 8.257-22.627 12.786-33.371 5.974-14.238 13.122-26.563 21.17-36.502 20.173-24.867 44.713-36.497 68.19-40.531 11.365-1.961 23.693-2.982 34.982 2.363 10.902 5.157 21.681 13.312 31.705 22.82 21.31 20.193 39.778 49.766 53.166 87.155 9.18 25.645 14.143 50.582 2.256 76.598-13.403 29.326-34.416 45.506-51.737 64.539-11.879 13.053-25.193 25.849-27.412 53.59-1.767 22.073-3.202 43.024-7.774 63.889-6.804 30.775-16.808 58.654-29.418 81.98-11.533 21.252-26.123 39.286-42.619 27.935-13.07-9.009-23.21-29.191-34.629-43.62-12.726-16.116-26.708-25.001-41.431-32.146-13.232-6.446-25.691-16.352-34.243-37.383-1.75-4.298-3.589-8.977-4.938-13.785-1.722-6.134-1.588-12.216-1.927-19.092-.88-18.146-2.753-36.083-4.256-54.009z"/><path d="M234.214-128.79c.284-37.621 5.07-73.176 18.176-102.495 5.603-12.542 12.294-22.873 18.459-34.366 4.965-9.265 9.656-17.874 15.364-25.509 13.541-18.079 24.546-41.474 38.936-57.573 19.209-21.522 41.213-33.418 63.046-38.175 10.661-2.324 21.675-3.137 32.461-.511 9.264 2.255 18.136 10.169 26.366 18.267 16.131 15.862 31.793 38.407 42.266 66.929 23.092 62.883-22.435 108.602-45.802 135.376-10.746 12.316-27.167 26.58-31.569 50.976-3.146 17.427-5.063 35.15-9.116 52.04-10.885 45.359-32.983 98.707-62.43 91.605-12.601-3.035-24.085-15.362-35.848-23.637-12.113-8.523-24.614-13.274-37.204-18.488-11.765-4.869-21.143-11.8-28.743-30.378-3.632-8.873-3.311-19.494-3.635-30.38-.528-17.879-.854-35.861-.727-53.681zm-356.276 50.44c-.36-41.94-12.147-85.527-6.326-128.261 4.78-35.097 28.844-38.027 43.28-53.928 11.471-12.633 17.982-35.012 24.185-56.483 5.574-19.277 10.581-39.133 16.453-58.093 3.801-12.257 10.329-36.326 18.572-36.761 7.892-.418 15.128 18.338 19.712 29.425 5.977 14.452 11.276 29.859 17.08 44.542 9.78 24.767 21.516 43.099 34.954 60.449a1459.829 1459.829 0 0 0 46.632 57.202c11.631 13.583 23.341 27.063 34.52 41.988 7.012 9.364 22.489 26.934 22.56 44.198.034 8.238-4.093 17.361-6.876 23.946-4.709 11.146-10.076 21.337-15.46 31.308-10.028 18.574-20.481 36.305-30.82 54.25-13.421 23.291-26.24 46.201-38.038 72.642-12.198 27.37-23.85 55.64-35.742 83.525-8.054 18.89-16.099 40.104-27.715 51.696-14.55 14.49-26.492-.789-41.206-.966-12.657-.156-11.724-55.624-13.332-71.048-1.614-15.611-5.171-30.144-6.55-45.792-1.72-19.535-1.742-39.52-2.165-59.263-.513-24.15-.717-47.14-14.365-56.349-7.766-5.232-16.169-6.332-24.208-9.466-5.208-2.034-15.032-5.512-15.145-18.762z"/><path d="M-115.839-85.811c-1.327-35.156-9.165-80.153-1.753-116.442 6.332-31.012 26.137-35.032 39.473-51.323 11.008-13.437 15.91-35.424 21.412-57.025 4.415-17.328 8.697-34.822 13.708-51.597 3.693-12.362 9.333-33.231 17.012-35.79 6.903-2.3 14.307 16.124 18.182 25.498 5.654 13.684 10.49 28.545 15.484 43.094 8.775 25.556 17.762 48.538 30.606 67.312 12.9 18.854 27.015 32.952 41.28 47.625 11.159 11.48 22.261 23.294 32.864 36.547 7.898 9.868 19.254 22.499 22.867 40.095 2.861 13.921-11.648 37.021-15.926 45.175-8.807 16.763-18.14 32.5-27.49 48.14C80.482-25.443 68.72-8.776 58.655 12.964 40.65 51.834 25.602 100.238 2.437 129.127c-13.972 17.424-29.52 21.88-45.061 19.273-6.154-1.032-7.63-17.462-8.407-27.045-1.29-15.92-1.451-32.114-2.443-48.098-.929-14.963-2.991-29.179-4.653-43.852C-59.81 14.54-60.281-.693-61.52-15.66c-.767-9.293-1.526-20.107-4.881-27.578-3.472-7.734-9.2-10.975-14.205-13.436-9.401-4.58-34.297-4.327-35.234-29.136z"/><path d="M-107.831-100.528c-2.231-32.27-5.355-72.463 3.735-102.194 7.43-24.31 23.277-29.555 34.595-45.395 9.415-13.172 12.97-34.122 17.643-53.59 3.835-15.969 7.689-32.007 12.336-47.203 3.525-11.524 8.067-27.15 15.065-31.17 5.983-3.435 12.743 11.954 16.06 19.613 5.648 13.055 10.252 27.681 14.826 42.115 7.481 23.618 14.365 48.845 25.013 68.056C41.788-231.654 54.08-220.65 66.6-208.278c9.59 9.479 19.12 19.324 28.157 30.628 6.938 8.674 15.536 18.953 19.152 33.387 3.127 12.447-4.9 27.181-8.911 35.963-6.623 14.492-13.973 27.788-21.221 41.137C75.954-52.76 67.29-39.476 59.72-24.72 43.804 6.331 31.087 40.711 11.468 64.5-1.237 79.91-18.334 93.91-33.354 91.392c-10.8-1.814-10.09-47.02-11.128-61.465-1.705-23.617-5-48.432-10.232-70.187-4.494-18.642-15.173-24.39-24.996-28.572-6.154-2.625-12.604-4.042-18.556-8.1-6.89-4.702-8.629-10.07-9.565-23.596z"/><path d="M-100.36-115.654c-1.329-27.283-1.03-59.545 7.576-83.146 7.541-20.672 20.969-26.115 30.519-42.399 7.453-12.705 10.38-33.42 14.39-50.222 4.898-20.543 11.762-58.485 24.12-66.215 11.496-7.187 23.519 38.722 27.68 52.412 6.59 21.668 12.1 45.43 20.09 65.44 6.882 17.227 16.102 26.75 25.889 36.984 12.477 13.071 31.42 28.57 38.092 54.044 4.973 18.981-11.197 47.201-16.72 60.353-5.774 13.738-10.124 30.023-16.084 43.276C45.787-24.212 30.547-7.373 17.965 5.477c-12.233 12.5-28.119 26.335-41.996 25.512-9.12-.539-10.855-27.176-12.801-40.187-2.788-18.497-6.495-35.073-14.458-47.654-8.105-12.807-17.658-18.841-27.7-24.123-5.155-2.691-11.035-4.79-15.646-10.228-5.095-5.916-5.212-13.964-5.724-24.451zm551.766 695.586c-23.136 26.541-49.29 48.45-73.954 70.718-36.043 32.538-72.617 64.201-110.489 88.439-20.305 12.992-46.616 31.722-68.403 21.543-7.966-3.72-15.23-14.972-22.372-22.284-9.849-10.082-19.842-19.664-29.818-29.268-20.013-19.251-40.087-38.309-59.756-58.795-9.47-9.867-18.66-22.295-28.52-30.713-5.763-4.923-12.657-2.62-18.814-2.308-14.262.725-28.515 2.099-42.768 3.269-17.434 1.428-34.907 2.947-52.36 2.384-7.873-.258-27.152 2.383-31.486-10.436-2.331-6.904 3.164-19.353 5.711-25.114 4.677-10.586 10.053-20.126 15.358-29.569 12.268-21.839 25.297-42.636 36.202-67.03 5.603-12.54 12.944-27.862 9.286-44.982-3.692-17.291-10.087-32.264-13.989-49.496-4.492-19.831-6.355-40.467-8.477-61.495-1.57-15.542-5.228-29.312-8.667-43.64-3.8-15.837-7.736-31.808-10.374-48.509-1.743-11.032-4.558-30.879 1.542-37.863 8.667-9.932 24.92-1.89 34.8 1.036 13.653 4.037 27.208 9.18 40.825 13.609 9.885 3.221 19.805 6.753 29.855 7.129 16.201.607 32.456-1.492 48.615-3.447 29.92-3.618 59.626-8.525 89.647-8.525 26.302 0 87.084 57.534 101.311 67.664 28.398 20.223 57.552 39.393 84.425 66.3 7.27 7.284 18.459 16.99 22.284 31.984 2.36 9.239 1.275 14.581 6.842 20.535 7.593 8.122 17.322 11.311 25.728 14.945 13.538 5.852 27.18 10.807 40.78 16.105 27.507 10.689 54.826 22.779 82.219 34.412 8.281 3.516 18.3 4.295 26.194 10.49 5.089 3.978 4.561 8.986.622 15.031-6.909 10.608-16.593 16.497-24.754 22.548-11.959 8.863-24.113 16.77-36.274 24.565-12.16 7.795-24.382 15.349-36.548 23.16-8.037 5.143-17.201 9.325-24.423 17.608z"/><path d="M432.368 574.094c-24.474 26.595-51.64 47.782-77.828 68.453-33.518 26.472-67.793 51.283-103.108 67.83-20.735 9.709-45.2 20.429-66.387 9.295-7.558-3.972-13.205-12.902-19.684-20.783-7.385-8.995-15.054-17.236-22.724-25.349a1485.945 1485.945 0 0 0-47.86-48.384c-8.54-8.274-17.938-19.354-27.584-22.225-7.67-2.285-16.381 1.021-24.084 1.984-13.873 1.731-27.743 3.516-41.621 5.032-16.015 1.747-32.075 3.36-48.123 3.08-8.945-.156-24.3 2.419-30.625-8.51-5.52-9.537 14.574-44.03 18.107-50.584 11.035-20.461 22.641-39.944 32.912-61.824 6.07-12.903 13.461-28.596 16.02-45.697 2.179-14.575-2.025-31.181-4.507-44.654-3.105-16.875-5.61-34.369-9.218-50.89-3.212-14.719-8.325-27.832-12.816-41.213-4.94-14.719-9.941-29.681-13.608-45.739-2.247-9.882-5.965-26.429-1.5-35.848 5.158-10.86 21.06-3.763 27.595-2.215 13.26 3.183 26.416 7.914 39.584 12.15 21.872 7.032 42.723 13.182 64.995 11.709 29.004-1.925 57.979-6.451 86.977-8.957 10.708-.935 21.587-2.817 32.304-1.801 6.144.586 10.822 4.135 14.396 12.14 4.88 10.924 16.119 16.972 23.936 23.24 12.188 9.769 24.53 18.854 36.838 28.058 27.018 20.214 54.556 39.697 80.179 65.841 8.107 8.268 17.39 17.488 23.386 31.149 3.346 7.618 2.502 14.956 4.544 23.053 2.704 10.65 11.595 15.456 16.91 18.939 10.256 6.731 20.934 11.242 31.528 15.467 23.974 9.559 48.004 15.844 72.366 20.473 5.709 1.075 28.191 4.8 16.384 22.756-13.046 19.844-31.884 29.569-47.242 40.751-13.836 10.053-27.683 19.408-40.442 33.273z"/></g></svg>