<svg width="537" height="142" viewBox="0 0 537 142" fill="none" xmlns="http://www.w3.org/2000/svg"><g opacity=".03" clip-rule="evenodd" stroke="#1B1B1B" stroke-width="5"><path d="M162.122-83.088c-.045-11.891-18.18-25.263-25.927-32.156-15.317-13.635-31.248-26.227-47.031-39.019-15.783-12.792-31.609-25.55-46.66-39.594-9.771-9.117-21.253-19.385-27.88-32.403-14.12-27.741 30.395-23.622 41.925-24.228 29.334-1.55 62.979-.843 90.475-15.29 16.414-8.624 22.959-23.088 19.433-44.168-1.136-6.855-4.499-14.744-1.65-21.423 3.042-7.133 10.042-11.249 15.851-14.01 21.189-10.056 45.551-11.221 67.97-12.483 24.175-1.388 48.577-.982 72.581-1.089 10.178-.045 20.809-4.508 30.501-8.136 12.707-4.754 25.263-10.094 37.864-15.257 27.723-11.333 56.289-23.269 85.62-26.147 18.368-1.803 38.444.635 52.713 16.319 7.164 7.875 10.914 19.582 15.055 29.982 5.014 12.563 9.829 25.248 15.167 37.614 17.195 39.827 41.745 78.745 81.592 80.7 6.028.295 11.948-.665 17.947-.846 3.821-.111 7.222 1.016 8.642 5.895 3.571 12.238-7.653 31.557-12.255 41.266-10.076 21.254-21.439 41.554-32.083 62.381-7.042 13.773-19.232 32.596-19.36 49.331-.113 14.912 16.136 25.69 24.982 33.034 8.289 6.876 23.308 16.499 24.217 30.488.44 6.783-3.224 12.404-7.051 16.766-6.707 7.63-14.434 13.01-20.467 21.715-9.895 14.28-18.161 33.928-16.817 53.17.931 13.334 7.164 22.065 15.092 30.412 3.333 3.509 6.037 5.992 6.213 11.69.284 9.047-2.619 18.621-5.011 27.01-8.556 30.02-20.709 59.048-34.228 86.151-6.755 13.545-14.053 27.048-23.01 38.603-5.866 7.587-13.778 16.617-22.726 16.607-10.36 0-21.322-4.564-31.393-7.976-18.808-6.377-37.39-13.75-55.897-21.313a2218.228 2218.228 0 0 1-127.194-56.745c-29.58-14.346-59.789-28.713-87.599-47.785-5.424-3.746-10.543-8.113-15.289-13.042-5.071-5.177-11.363-7.494-17.743-9.221-39.6-10.718-82.984-2.49-122.749 2.67-10.093 1.308-20.186 2.622-30.307 3.537-8.701.788-19.118 3.045-27.575-.346-16.664-6.676-2.097-31.28 4.062-41.304 21.683-35.298 49.659-65.162 75.589-95.65 12.329-14.52 24.751-29 36.41-44.341 6.07-7.976 18.041-20.946 18.001-31.37z"/><path d="M169.595-85.093c-6.646-12.582-18.307-21.882-27.986-30.634-13.929-12.599-28.296-24.499-42.447-36.741-13.38-11.577-26.79-23.286-39.18-36.433-7.557-8.018-17.037-17.605-20.616-29.463-7.763-25.701 34.001-21.802 44.312-22.474 25.632-1.664 54.693-2.045 78.406-15.577 14.808-8.451 20.891-22.465 17.733-41.92-1.091-6.732-3.059-12.479-.568-19.175 2.879-7.751 9.503-12.582 15.575-15.993 19.02-10.686 41.503-12.957 62.121-14.846 21.3-1.951 43.493-3.327 64.108-1.899 8.244.568 17.732-2.659 25.891-5.134 12.553-3.812 24.979-8.211 37.469-12.301 25.385-8.319 51.43-16.333 77.839-17.244 19.065-.659 38.944 2.911 54.806 16.71 16.076 13.993 23.208 35.684 32.123 56.305 15.396 35.649 36.19 78.994 71.809 86.526 5.401 1.144 10.591.523 15.987.804 2.774.142 5.933.593 7.34 3.931 3.653 8.665-6.357 24.509-9.725 31.147-9.307 18.343-19.771 35.788-29.524 53.777-7.747 14.284-17.565 30.156-20.561 47.088-3.636 20.548 20.12 35.168 28.475 49.636C627.465-13.915 600.025.38 586.497 12.34c-15.536 13.733-28.359 38.787-14.433 60.034 5.327 8.125 11.883 12.967 14.262 23.57 3.721 16.583.907 35.532-2.112 51.924-4.548 24.641-11.746 49.015-21.531 71.285-7.01 15.944-18.639 40.946-35.67 39.071-11.464-1.252-23.119-5.823-34.282-9.865-16.715-6.049-33.22-12.943-49.636-20.104-37.896-16.485-75.374-34.662-112.116-54.654-25.069-13.647-94.999-69.414-100.261-71.404-15.689-5.927-33.526-4.883-49.701-3.965-21.517 1.22-42.925 4.381-64.316 7.31-10.182 1.387-20.416 3.082-30.652 3.764-7.286.486-16.855.902-23.237-4.266-12.456-10.084 1.422-33.154 7.161-42.915 17.582-29.923 39.823-55.837 60.677-82.332 10.234-13.009 20.624-25.996 29.914-40.048 3.746-5.674 13.139-17.068 9.031-24.839z"/><path d="M178.79-91.546c-18.151-25.178-43.203-43.904-64.824-64.932-10.852-10.558-21.772-21.403-31.131-33.978-4.869-6.54-10.948-14.809-11.886-23.924-2.507-24.384 35.136-21.087 46.402-22.013 21.783-1.796 46.392-3.158 66.154-15.602 12.074-7.607 18.02-20.092 15.763-36.502-1-7.281-2.558-13.466 0-20.616 2.592-7.242 7.993-12.353 13.461-16.184 15.715-11.019 35.244-14.541 52.937-17.166a350.821 350.821 0 0 1 62.567-3.571c18.304.586 36.52-6.005 54.392-10.35 23.676-5.752 47.782-10.775 72.009-10.016 19.134.603 38.419 5.343 54.776 17.939 16.622 12.828 26.615 32.029 35.625 52.749 13.62 31.322 30.594 73.295 60.475 85.191 4.346 1.734 8.396 1.924 12.878 2.226 2.177.146 4.988.191 6.068 2.961 2.598 6.671-7.006 19.603-9.686 24.111-8.555 14.388-17.83 28.128-26.598 42.326-8.186 13.255-17.102 27.068-22.187 42.601-8.092 24.738 17.779 39.203 17.054 62.776-.452 14.635-11.938 25.13-21.033 32.39-11.198 8.928-27.323 14.798-32.927 31.09-4.176 12.135 2.376 19.198 7.421 28.407 8.549 15.602 9.132 36.751 8.242 54.812-1.199 24.405-5.886 49.171-13.864 71.603-3.616 10.169-8.044 20.748-14.564 28.646-6.108 7.402-11.889 9.299-20.052 7.783-24.989-4.646-50.22-17.595-74.183-29.162-30.108-14.534-59.801-30.58-88.608-48.633-19.643-12.312-39.729-25.338-56.97-42.348-4.494-4.434-9.095-9.254-12.381-15.103-2.484-4.396-3.539-8.026-7.725-10.537-12.41-7.437-29.671-5.492-42.967-4.718-21.26 1.23-42.418 4.507-63.547 7.458-12.33 1.733-35.557 7.187-45.402-5.895-8.499-11.296 1.756-30.556 6.994-40.506 13.251-25.165 30.296-47.25 46.111-69.992 7.247-10.422 14.779-20.924 20.765-32.511 1.529-2.954 3.979-6.868 4.4-10.457.472-4.112-1.731-7.25-3.959-10.353z"/><path d="M180.35-85.684c-16.772-22.263-36.978-40.552-54.983-61.385-8.074-9.341-16.226-19.139-22.378-30.534-3.309-6.128-6.823-13.841-5.91-21.458 2.618-21.859 33.578-19.885 46.086-21.165 18.585-1.881 39.937-3.776 56.37-15.563 10.765-7.72 14.802-19.122 12.792-33.827-2.157-15.774 2.667-27.224 13.645-36.023 13.764-11.024 31.139-15.517 47.121-18.71a266.66 266.66 0 0 1 58.258-5.069c18.969.444 37.347-3.435 56.191-5.958 24.984-3.341 50.77-4.989 75.473 1.86 21.508 5.965 40.935 19.108 55.498 39.435 15.211 21.214 22.742 47.942 35.093 71.412 7.704 14.639 18.446 34.004 32.842 39.694 4.801 1.898 13.551-.662 9.716 8.675-2.192 5.34-6.294 10.024-9.534 14.389-5.237 7.054-10.646 13.914-15.971 20.871-11.348 14.83-23.5 29.976-32.006 47.537-10.716 22.11 5.214 39.125 3.272 61.544-1.043 12.064-7.916 21.693-15.188 29.257-4.705 4.9-9.853 9.143-15.109 13.102-5.489 4.136-11.985 7.287-16.772 12.634-6.822 7.61-3.86 16.617-2.581 26.454a259.154 259.154 0 0 1 1.473 52.283c-1.558 21.371-5.211 43.352-12.906 62.772-2.994 7.561-6.786 15.576-12.417 20.646-5.631 5.069-11.456 4.722-17.909 3.195-19.14-4.51-38.24-15.006-56.396-24.954-22.725-12.454-45.003-26.371-66.277-42.204-14.686-10.93-29.419-22.737-41.705-37.557-3.574-4.313-6.974-8.931-9.722-14.087-1.888-3.536-2.9-8.1-5.635-10.757-8.556-8.296-25.734-5.819-35.769-5.337-20.027.962-39.738 5.531-59.739 6.642-10.916.607-28.012 2.134-36.028-9.21-7.539-10.662-.711-27.456 3.795-37.73 8.855-20.201 20.751-38.2 31.414-56.978 4.384-7.727 9.188-15.812 12.028-24.635 2.524-7.863-1.834-13.553-6.132-19.261z"/><path d="M184.475-85.32c-13.35-19.591-29.443-36.981-42.89-56.89-7.871-11.659-21.425-31.259-15.338-47.697 6.678-18.062 29.955-18.554 43.41-20.009 16.014-1.732 34.82-4.099 48.525-15.377 4.335-3.565 8.027-8.284 9.592-14.5 1.676-6.653-.156-12.474-.395-19.133-.5-13.97 6.334-25.186 15.378-32.889 12.782-10.89 28.765-16.038 43.862-19.628 17.103-4.049 34.491-6.045 51.914-5.959 16.65.069 33.124-.381 49.792-.901 21.797-.693 43.901.426 65.045 7.491 20.828 6.964 39.765 20.016 54.641 39.215 14.511 18.734 24.302 41.633 32.877 64.959 4.866 13.239 13.086 33.023 24.692 39.71 5.161 2.976 10.225 2.772 4.737 10.513-6.91 9.746-16.224 17.566-24.228 25.903-11.546 12.03-23.382 24.295-33.074 38.598-6.189 9.133-8.947 17.996-8.521 29.822.33 9.008 1.824 17.923 1.068 26.967C503.793-13.9 490.093.656 477.982 14.21c-7.791 8.717-14.907 15.366-18.917 27.767-4.744 14.656-6.735 30.601-9.905 45.819-3.482 16.711-7.504 34.094-15.105 48.813-6.766 13.104-14.994 18.98-27.31 15.449-19.21-5.502-38.144-19.056-55.198-31.596-17.357-12.757-34.417-27.102-48.801-44.637-7.765-9.47-13.065-20.588-19.962-30.761-8.674-12.771-28.299-7.934-39.961-6.853-19.361 1.794-80.279 15.224-74.657-28.274 2.346-18.155 11.586-34.911 18.343-50.933 2.801-6.649 6.854-14.628 7.487-22.247.69-8.299-5.507-16.181-9.521-22.078z"/><path d="M191.524-83.657c-10.202-17.752-22.411-34.524-31.165-53.698-5.678-12.418-11.255-29.009-3.929-42.148 8.268-14.826 26.499-18.283 39.895-20.172 13.802-1.945 30.278-3.581 41.559-14.823 3.589-3.582 6.548-8.411 7.098-14.193.531-5.547-.968-11.093-.471-16.74 1.113-12.681 7.413-23.13 15.537-30.708 24.029-22.419 59.793-27.404 88.785-27.99 14.512-.291 29.447 1.238 44.053 2.333 18.952 1.422 37.933 4.472 56.008 11.825 38.43 15.628 64.189 50.287 82.179 93.416 5.661 13.575 9.994 28.263 18.867 39.173 4.574 5.633 3.575 9.679-1.102 14.816-7.311 8.029-16.229 14.165-24.344 20.866-11.542 9.53-23.331 19.202-33.538 30.618-7.036 7.869-12.03 15.45-13.547 27.251-1.081 8.414-.829 16.987-1.479 25.452-1.238 16.082-5.477 32.042-12.981 45.382-5.963 10.573-13.061 20.183-20.398 29.345-9.537 11.929-17.604 24.048-24.847 38.206-9.603 18.74-23.095 53.31-45.713 44.162-24.946-10.095-48.328-35.745-64.333-60.597-5.375-8.345-9.788-18.578-17.036-24.731-10.852-9.197-21.863-8.875-34.771-8.837-19.324.052-61.375 5.172-61.829-30.16-.179-13.998 4.784-27.234 7.161-40.698 2.68-15.08-2.692-25.251-9.659-37.35z"/><path d="M199.122-82.074c-10.091-23.137-32.719-61.157-15.508-86.886 9.09-13.597 25.17-18.707 38.658-21.752 10.856-2.463 23.946-3.388 32.148-13.829 6.028-7.677 3.352-18.849 5.662-28.459 2.866-11.913 9.446-21.661 17.531-28.988 22.594-20.477 54.008-26.761 81.187-28.099 28.227-1.385 59.329 5.096 85.892 17.564 33.119 15.551 57.931 44.997 75.283 82.286 3.202 6.883 6.111 13.947 9.185 20.913 2.065 4.673 5.128 9.194 6.756 14.11 2.71 8.196-.483 14.896-5.603 20.238-7.363 7.69-16.409 13.164-24.804 18.935-11.48 7.899-23.215 15.655-33.894 24.922-7.176 6.236-14.688 12.953-17.256 23.772-1.753 7.378-2.116 15.193-2.054 22.836.137 16.385-.568 29.636-6.835 44.643-10.312 24.638-26.17 46.791-42.923 65.224-13.148 14.467-33.952 36.939-53.108 27.267-17.187-8.66-27.241-29.39-38.565-46.15-5.505-8.148-11.69-15.589-18.957-21.385-9.162-7.306-17.787-10.372-28.642-11.567-18.27-2.012-45.818-2.536-51.466-29.28-2.085-9.869-.894-20.092-1.988-30.09-1.429-13.219-5.608-24.554-10.699-36.225z"/><path d="M209.615-81.217c-7.186-25.317-16.626-57.223.729-79.724 8.407-10.9 20.231-16.994 31.675-21.547 8.197-3.264 21.211-4.225 26.236-14.258 3.691-7.383 4.202-17.569 7.541-25.48 4.587-10.876 11.537-19.834 19.691-26.846 21.242-18.273 48.908-25.334 74.139-27.356 54.822-4.387 110.603 30.554 139.939 88.04 8.747 17.136 20.038 35.375 5.902 52.882-15.433 19.098-38.682 28.046-57.101 41.616-7.038 5.182-16.007 11.41-19.933 20.792-2.362 5.639-2.524 12.713-2.632 18.921-.284 15.811-1.36 30.03-6.569 44.784-8.046 22.799-20.876 43.833-35.415 61.062-12.679 15.024-30.761 32.68-49.175 21.849-14.118-8.323-23.073-25.99-34.043-39.013-12.208-14.503-27.306-24.276-43.886-29.052-16.128-4.633-33.818-7.758-42.318-27.442-2.916-6.753-5.962-15.496-7.055-22.97a272.45 272.45 0 0 0-7.725-36.258z"/><path d="M221.314-81.039c-3.324-25.565-3.693-52.222 11.752-72.37 7.208-9.4 16.32-16.078 25.534-22.129 6.779-4.452 13.78-8.207 18.843-15.506 4.691-6.758 8.257-14.604 12.786-21.539 5.974-9.19 13.122-17.145 21.17-23.561 20.173-16.05 44.713-23.557 68.19-26.161 11.365-1.265 23.693-1.924 34.982 1.526 10.902 3.329 21.681 8.592 31.705 14.729 21.31 13.034 39.778 32.122 53.166 56.254 9.18 16.554 14.143 32.649 2.256 49.441-13.403 18.929-34.416 29.372-51.737 41.657-11.879 8.426-25.193 16.685-27.412 34.59-1.767 14.248-3.202 27.77-7.774 41.237-6.804 19.865-16.808 37.859-29.418 52.915-11.533 13.717-26.123 25.357-42.619 18.03-13.07-5.814-23.21-18.84-34.629-28.154C295.383 9.518 281.401 3.783 266.678-.83c-13.232-4.16-25.691-10.554-34.243-24.129-1.75-2.774-3.589-5.794-4.938-8.897-1.722-3.96-1.588-7.885-1.927-12.323-.88-11.713-2.753-23.29-4.256-34.86z"/><path d="M234.214-83.128c.284-24.283 5.07-47.232 18.176-66.156 5.603-8.095 12.294-14.764 18.459-22.182 4.965-5.98 9.656-11.537 15.364-16.465 13.541-11.669 24.546-26.769 38.936-37.16 19.209-13.892 41.213-21.57 63.046-24.641 10.661-1.5 21.675-2.024 32.461-.329 9.264 1.455 18.136 6.563 26.366 11.79 16.131 10.238 31.793 24.79 42.266 43.2 23.092 40.588-22.435 70.097-45.802 87.379-10.746 7.95-27.167 17.156-31.569 32.902-3.146 11.249-5.063 22.689-9.116 33.59-10.885 29.277-32.983 63.711-62.43 59.127-12.601-1.959-24.085-9.915-35.848-15.257-12.113-5.5-24.614-8.567-37.204-11.933-11.765-3.143-21.143-7.616-28.743-19.608-3.632-5.727-3.311-12.582-3.635-19.608-.528-11.54-.854-23.147-.727-34.65zm-356.276 32.556c-.36-27.07-12.147-55.203-6.326-82.786 4.78-22.654 28.844-24.545 43.28-34.808 11.471-8.154 17.982-22.599 24.185-36.458 5.574-12.442 10.581-25.258 16.453-37.496 3.801-7.911 10.329-23.447 18.572-23.727 7.892-.27 15.128 11.836 19.712 18.992 5.977 9.328 11.276 19.273 17.08 28.75 9.78 15.986 21.516 27.818 34.954 39.017a1183.75 1183.75 0 0 0 46.632 36.921c11.631 8.767 23.341 17.469 34.52 27.102 7.012 6.044 22.489 17.385 22.56 28.528.034 5.317-4.093 11.205-6.876 15.456-4.709 7.194-10.076 13.772-15.46 20.208-10.028 11.988-20.481 23.433-30.82 35.016C82.982-.824 70.163 13.963 58.365 31.03 46.168 48.695 34.516 66.943 22.624 84.94 14.57 97.134 6.525 110.827-5.091 118.308c-14.55 9.353-26.492-.509-41.206-.623-12.657-.101-11.724-35.903-13.332-45.858C-61.243 61.75-64.8 52.37-66.18 42.27c-1.72-12.609-1.742-25.508-2.165-38.252-.513-15.587-.717-30.426-14.365-36.37-7.766-3.377-16.169-4.087-24.208-6.11-5.208-1.313-15.032-3.558-15.145-12.11z"/><path d="M-115.839-55.387c-1.327-22.692-9.165-51.735-1.753-75.158 6.332-20.017 26.137-22.612 39.473-33.127 11.008-8.673 15.91-22.865 21.412-36.807 4.415-11.184 8.697-22.476 13.708-33.303 3.693-7.979 9.333-21.45 17.012-23.101 6.903-1.485 14.307 10.407 18.182 16.457 5.654 8.833 10.49 18.425 15.484 27.816 8.775 16.495 17.762 31.329 30.606 43.447 12.9 12.169 27.015 21.269 41.28 30.739 11.159 7.41 22.261 15.035 32.864 23.59 7.898 6.369 19.254 14.522 22.867 25.88 2.861 8.985-11.648 23.895-15.926 29.157-8.807 10.82-18.14 20.978-27.49 31.073C80.482-16.422 68.72-5.664 58.655 8.368 40.65 33.456 25.602 64.698 2.437 83.345c-13.972 11.247-29.52 14.123-45.061 12.44-6.154-.665-7.63-11.27-8.407-17.456-1.29-10.275-1.451-20.728-2.443-31.045-.929-9.658-2.991-18.834-4.653-28.304-1.683-9.596-2.154-19.427-3.393-29.09-.767-5.998-1.526-12.978-4.881-17.8-3.472-4.992-9.2-7.084-14.205-8.672-9.401-2.956-34.297-2.793-35.234-18.806z"/><path d="M-107.831-64.886c-2.231-20.83-5.355-46.772 3.735-65.962 7.43-15.691 23.277-19.076 34.595-29.3 9.415-8.502 12.97-22.024 17.643-34.59 3.835-10.307 7.689-20.659 12.336-30.468 3.525-7.438 8.067-17.523 15.065-20.118 5.983-2.218 12.743 7.715 16.06 12.659 5.648 8.426 10.252 17.867 14.826 27.183 7.481 15.244 14.365 31.528 25.013 43.927C41.788-149.522 54.08-142.42 66.6-134.434c9.59 6.118 19.12 12.472 28.157 19.769 6.938 5.599 15.536 12.233 19.152 21.55 3.127 8.034-4.9 17.544-8.911 23.212-6.623 9.354-13.973 17.936-21.221 26.552-7.823 9.296-16.486 17.87-24.056 27.395C43.804 4.086 31.087 26.277 11.468 41.632c-12.705 9.947-29.802 18.982-44.822 17.357-10.8-1.17-10.09-30.35-11.128-39.672-1.705-15.245-5-31.261-10.232-45.303C-59.208-38.02-69.887-41.73-79.71-44.428c-6.154-1.694-12.604-2.609-18.556-5.228-6.89-3.035-8.629-6.5-9.565-15.23z"/><path d="M-100.36-74.65c-1.329-17.61-1.03-38.433 7.576-53.667 7.541-13.342 20.969-16.855 30.519-27.366 7.453-8.201 10.38-21.571 14.39-32.416 4.898-13.259 11.762-37.749 24.12-42.739 11.496-4.639 23.519 24.994 27.68 33.83 6.59 13.986 12.1 29.323 20.09 42.238 6.882 11.12 16.102 17.266 25.889 23.872 12.477 8.436 31.42 18.44 38.092 34.882 4.973 12.252-11.197 30.467-16.72 38.956-5.774 8.867-10.124 19.378-16.084 27.933C45.787-15.628 30.547-4.76 17.965 3.535 5.732 11.603-10.154 20.533-24.031 20.002c-9.12-.348-10.855-17.54-12.801-25.94-2.788-11.938-6.495-22.637-14.458-30.757-8.105-8.267-17.658-12.162-27.7-15.57-5.155-1.738-11.035-3.093-15.646-6.602-5.095-3.82-5.212-9.014-5.724-15.783zm551.766 448.97c-23.136 17.131-49.29 31.272-73.954 45.645-36.043 21.002-72.617 41.439-110.489 57.083-20.305 8.386-46.616 20.475-68.403 13.906-7.966-2.402-15.23-9.664-22.372-14.384-9.849-6.507-19.842-12.692-29.818-18.891-20.013-12.426-40.087-24.727-59.756-37.95-9.47-6.369-18.66-14.39-28.52-19.823-5.763-3.178-12.657-1.691-18.814-1.49-14.262.467-28.515 1.355-42.768 2.11-17.434.922-34.907 1.902-52.36 1.538-7.873-.166-27.152 1.539-31.486-6.736-2.331-4.456 3.164-12.491 5.711-16.209 4.677-6.833 10.053-12.991 15.358-19.086 12.268-14.096 25.297-27.519 36.202-43.265 5.603-8.094 12.944-17.983 9.286-29.033-3.692-11.161-10.087-20.825-13.989-31.948-4.492-12.8-6.355-26.12-8.477-39.692-1.57-10.032-5.228-18.92-8.667-28.168-3.8-10.222-7.736-20.53-10.374-31.31-1.743-7.121-4.558-19.931 1.542-24.439 8.667-6.411 24.92-1.22 34.8.669 13.653 2.605 27.208 5.925 40.825 8.783 9.885 2.08 19.805 4.36 29.855 4.602 16.201.392 32.456-.963 48.615-2.224 29.92-2.336 59.626-5.503 89.647-5.503 26.302 0 87.084 37.135 101.311 43.674 28.398 13.053 57.552 25.426 84.425 42.793 7.27 4.702 18.459 10.967 22.284 20.645 2.36 5.963 1.275 9.411 6.842 13.254 7.593 5.242 17.322 7.301 25.728 9.647 13.538 3.776 27.18 6.975 40.78 10.395 27.507 6.899 54.826 14.702 82.219 22.211 8.281 2.269 18.3 2.772 26.194 6.77 5.089 2.568 4.561 5.801.622 9.703-6.909 6.847-16.593 10.648-24.754 14.553-11.959 5.721-24.113 10.825-36.274 15.856-12.16 5.031-24.382 9.907-36.548 14.948-8.037 3.32-17.201 6.019-24.423 11.366z"/><path d="M432.368 370.551c-24.474 17.166-51.64 30.842-77.828 44.184-33.518 17.086-67.793 33.1-103.108 43.781-20.735 6.267-45.2 13.186-66.387 6-7.558-2.565-13.205-8.328-19.684-13.415-7.385-5.806-15.054-11.125-22.724-16.361a1364.387 1364.387 0 0 0-47.86-31.231c-8.54-5.34-17.938-12.492-27.584-14.345-7.67-1.474-16.381.66-24.084 1.281-13.873 1.117-27.743 2.269-41.621 3.248-16.015 1.128-32.075 2.169-48.123 1.988-8.945-.101-24.3 1.562-30.625-5.493-5.52-6.156 14.574-28.419 18.107-32.649 11.035-13.207 22.641-25.782 32.912-39.905 6.07-8.328 13.461-18.457 16.02-29.496 2.179-9.407-2.025-20.126-4.507-28.821-3.105-10.893-5.61-22.184-9.218-32.848-3.212-9.5-8.325-17.964-12.816-26.601-4.94-9.501-9.941-19.158-13.608-29.523-2.247-6.377-5.965-17.058-1.5-23.138 5.158-7.009 21.06-2.429 27.595-1.429 13.26 2.054 26.416 5.108 39.584 7.842 21.872 4.539 42.723 8.508 64.995 7.558 29.004-1.243 57.979-4.164 86.977-5.781 10.708-.604 21.587-1.819 32.304-1.163 6.144.378 10.822 2.669 14.396 7.835 4.88 7.052 16.119 10.955 23.936 15.001 12.188 6.305 24.53 12.17 36.838 18.11 27.018 13.048 54.556 25.623 80.179 42.498 8.107 5.336 17.39 11.288 23.386 20.105 3.346 4.917 2.502 9.653 4.544 14.879 2.704 6.874 11.595 9.977 16.91 12.225 10.256 4.345 20.934 7.256 31.528 9.983 23.974 6.17 48.004 10.226 72.366 13.214 5.709.694 28.191 3.099 16.384 14.689-13.046 12.808-31.884 19.085-47.242 26.302-13.836 6.489-27.683 12.527-40.442 21.476z"/></g></svg>