<svg width="52" height="63" viewBox="0 0 52 63" fill="none" xmlns="http://www.w3.org/2000/svg"><path d="M51.028 11.056L27.384.3c-.879-.4-1.89-.4-2.769 0L.972 11.056C.38 11.326 0 11.913 0 12.56v31.766a7.436 7.436 0 0 0 3.725 6.435l20.227 11.69a4.096 4.096 0 0 0 4.096 0l20.227-11.69A7.436 7.436 0 0 0 52 44.326V12.56c0-.647-.38-1.235-.972-1.504z" fill="#6A9A9A"/><path d="M6.024 46.982a2.9 2.9 0 0 1-1.448-2.503V15.635c0-.647.38-1.235.971-1.504l19.76-8.99c.44-.2.945-.2 1.385 0l19.76 8.99c.592.27.972.857.972 1.504V44.48a2.892 2.892 0 0 1-1.448 2.503L27.672 57.56a3.345 3.345 0 0 1-3.345 0L6.024 46.982z" fill="#F8F8F8"/><path d="M26.154 50.363c10.491 0 18.996-8.456 18.996-18.886s-8.505-18.886-18.996-18.886c-10.491 0-18.996 8.455-18.996 18.886 0 10.43 8.505 18.886 18.996 18.886z" fill="#6A9A9A"/><path d="M26.154 47.626c8.97 0 16.243-7.23 16.243-16.149s-7.272-16.15-16.243-16.15c-8.97 0-16.243 7.231-16.243 16.15 0 8.919 7.272 16.149 16.243 16.149z" fill="#F8F8F8"/><path d="M26.43 19.707c-4.56 0-8.26 3.501-8.26 7.813 0 4.96 5.506 12.822 7.528 15.538a.904.904 0 0 0 1.142.272.903.903 0 0 0 .32-.272c2.022-2.715 7.528-10.573 7.528-15.538 0-4.312-3.699-7.813-8.259-7.813z" stroke="#6A9A9A" stroke-width="2" stroke-linecap="round" stroke-linejoin="round"/><path d="M26.43 30.656a2.745 2.745 0 0 0 2.752-2.737 2.745 2.745 0 0 0-2.753-2.737 2.745 2.745 0 0 0-2.753 2.737 2.745 2.745 0 0 0 2.753 2.737z" stroke="#6A9A9A" stroke-width="2" stroke-linecap="round" stroke-linejoin="round"/></svg>