<svg width="52" height="63" viewBox="0 0 52 63" fill="none" xmlns="http://www.w3.org/2000/svg"><path d="M51.028 11.056L27.384.3c-.879-.4-1.89-.4-2.769 0L.972 11.056C.38 11.326 0 11.913 0 12.56v31.766a7.436 7.436 0 0 0 3.725 6.435l20.227 11.69a4.096 4.096 0 0 0 4.096 0l20.227-11.69A7.436 7.436 0 0 0 52 44.326V12.56c0-.647-.38-1.235-.972-1.504z" fill="#6A9A9A"/><path d="M6.024 46.982a2.9 2.9 0 0 1-1.448-2.503V15.635c0-.647.38-1.235.971-1.504l19.76-8.99c.44-.2.945-.2 1.385 0l19.76 8.99c.592.27.972.857.972 1.504V44.48a2.892 2.892 0 0 1-1.448 2.503L27.672 57.56a3.345 3.345 0 0 1-3.345 0L6.024 46.982z" fill="#F8F8F8"/><path d="M26.154 50.363c10.491 0 18.996-8.456 18.996-18.886S36.645 12.59 26.154 12.59c-10.491 0-18.996 8.455-18.996 18.886 0 10.43 8.505 18.886 18.996 18.886z" fill="#6A9A9A"/><path d="M26.154 47.626c8.97 0 16.243-7.23 16.243-16.15 0-8.918-7.272-16.148-16.243-16.148-8.97 0-16.243 7.23-16.243 16.149s7.272 16.149 16.243 16.149z" fill="#F8F8F8"/><path d="M35.188 36.363c-.736-.737-2.517-1.812-3.382-2.245-1.125-.564-1.218-.61-2.103.043-.59.436-.982.826-1.673.68-.69-.147-2.192-.973-3.506-2.275-1.315-1.303-2.193-2.838-2.341-3.523-.148-.684.25-1.07.685-1.657.613-.83.566-.968.043-2.087-.408-.87-1.522-2.625-2.266-3.353-.796-.781-.796-.643-1.308-.431a7.446 7.446 0 0 0-1.197.634c-.741.49-1.153.896-1.44 1.507-.288.612-.417 2.044 1.069 4.728 1.485 2.683 2.528 4.055 4.685 6.194 2.157 2.138 3.816 3.288 6.241 4.64 3 1.671 4.151 1.345 4.768 1.06.617-.286 1.027-.691 1.52-1.428.25-.376.464-.773.64-1.188.214-.508.353-.508-.435-1.299z" stroke="#6A9A9A" stroke-width="2" stroke-miterlimit="10"/></svg>