<svg width="1077" height="1055" viewBox="0 0 1077 1055" fill="none" xmlns="http://www.w3.org/2000/svg"><g opacity=".03" clip-rule="evenodd" stroke="#F8F8F8" stroke-width="5"><path d="M-125.163-88.909c-.108-28.242-43.182-60.002-61.582-76.375-36.381-32.386-74.219-62.292-111.706-92.676-37.488-30.384-75.076-60.685-110.823-94.042-23.21-21.654-50.482-46.042-66.224-76.961-33.533-65.891 72.195-56.106 99.582-57.547 69.672-3.682 149.585-2.002 214.891-36.314 38.985-20.484 54.531-54.838 46.158-104.907-2.699-16.283-10.688-35.021-3.92-50.884 7.226-16.942 23.85-26.718 37.649-33.275 50.327-23.885 108.191-26.652 161.44-29.65 57.418-3.295 115.377-2.331 172.391-2.587 24.175-.107 49.423-10.707 72.444-19.322 30.18-11.292 60.003-23.976 89.933-36.24 65.846-26.916 133.696-55.266 203.361-62.102 43.627-4.283 91.309 1.507 125.2 38.76 17.017 18.705 25.923 46.511 35.76 71.212 11.909 29.84 23.346 59.968 36.024 89.339 40.84 94.595 99.15 187.031 193.795 191.677 14.31.7 28.38-1.582 42.63-2.01 9.07-.264 17.15 2.413 20.52 14.002 8.48 29.066-18.18 74.95-29.11 98.012-23.93 50.481-50.917 98.696-76.199 148.164-16.726 32.715-45.679 77.421-45.982 117.17-.27 35.416 38.324 61.015 59.335 78.46 19.686 16.332 55.356 39.188 57.516 72.413 1.05 16.11-7.65 29.462-16.74 39.823-15.93 18.12-34.286 30.903-48.617 51.576-23.5 33.917-43.134 80.585-39.943 126.288 2.213 31.669 17.016 52.408 35.848 72.233 7.914 8.335 14.338 14.232 14.756 27.764.675 21.489-6.221 44.23-11.902 64.153-20.323 71.302-49.187 140.249-81.297 204.624-16.045 32.171-33.378 64.244-54.652 91.687-13.933 18.021-32.724 39.469-53.978 39.444-24.607 0-50.644-10.839-74.563-18.944-44.673-15.146-88.806-32.657-132.764-50.62-101.658-41.561-202.36-86.487-302.105-134.78-70.259-34.074-142.009-68.197-208.064-113.497-12.882-8.895-25.04-19.268-36.313-30.976-12.043-12.297-26.989-17.799-42.143-21.901-94.056-25.458-197.099-5.914-291.546 6.342-23.973 3.105-47.945 6.227-71.986 8.401-20.666 1.87-45.408 7.232-65.494-.823-39.579-15.855-4.98-74.292 9.648-98.104 51.501-83.837 117.948-154.769 179.536-227.183 29.283-34.485 58.788-68.88 86.479-105.318 14.418-18.944 42.851-49.747 42.757-74.506z"/><path d="M-107.416-93.67c-15.785-29.885-43.481-51.973-66.471-72.76-33.084-29.926-67.208-58.189-100.818-87.267-31.781-27.497-63.629-55.307-93.06-86.534-17.947-19.042-40.464-41.814-48.964-69.978-18.44-61.046 80.758-51.784 105.247-53.381 60.881-3.952 129.905-4.857 186.228-36.998 35.17-20.071 49.62-53.356 42.118-99.566-2.593-15.988-7.265-29.638-1.35-45.543 6.84-18.409 22.571-29.885 36.993-37.986 45.176-25.382 98.576-30.774 147.547-35.261 50.591-4.635 103.303-7.903 152.267-4.511 19.58 1.35 42.118-6.315 61.495-12.193 29.816-9.056 59.329-19.503 88.996-29.218 60.294-19.758 122.154-38.792 184.878-40.957 45.285-1.565 92.5 6.915 130.175 39.689 38.182 33.236 55.122 84.756 76.295 133.732 36.568 84.674 85.958 187.624 170.558 205.513 12.828 2.717 25.157 1.244 37.972 1.91 6.59.338 14.09 1.408 17.43 9.336 8.68 20.582-15.09 58.214-23.095 73.979-22.105 43.568-46.958 85.003-70.124 127.731-18.399 33.927-41.719 71.624-48.836 111.841-8.635 48.804 47.79 83.53 67.633 117.892 34.401 59.589-30.775 93.54-62.907 121.952-36.898 32.618-67.356 92.123-34.278 142.59 12.652 19.297 28.222 30.799 33.873 55.982 8.839 39.386 2.154 84.394-5.016 123.326-10.803 58.527-27.899 116.419-51.138 169.314-16.65 37.871-44.272 97.253-84.722 92.799-27.23-2.972-54.913-13.831-81.427-23.43-39.701-14.366-78.902-30.741-117.893-47.75-90.009-39.155-179.025-82.327-266.292-129.813-59.544-32.412-225.639-164.868-238.136-169.594-37.263-14.078-79.63-11.6-118.049-9.418-51.104 2.898-101.952 10.406-152.759 17.363-24.185 3.293-48.492 7.319-72.805 8.94-17.305 1.153-40.032 2.141-55.19-10.134-29.586-23.949 3.376-78.746 17.008-101.929 41.76-71.073 94.586-132.621 144.118-195.552 24.306-30.897 48.984-61.745 71.049-95.12 8.899-13.477 31.207-40.538 21.45-58.996z"/><path d="M-85.577-108.997c-43.11-59.802-102.612-104.28-153.965-154.225-25.775-25.075-51.712-50.835-73.942-80.703-11.564-15.531-26.004-35.172-28.232-56.822-5.954-57.916 83.453-50.085 110.214-52.284 51.738-4.265 110.186-7.502 157.125-37.057 28.677-18.068 42.8-47.722 37.44-86.698-2.376-17.294-6.076-31.985 0-48.966 6.157-17.203 18.983-29.341 31.972-38.441 37.325-26.171 83.71-34.537 125.734-40.771a833.333 833.333 0 0 1 148.606-8.482c43.475 1.391 86.741-14.263 129.19-24.582 56.234-13.662 113.488-25.594 171.032-23.791 45.447 1.433 91.251 12.69 130.102 42.608 39.479 30.47 63.214 76.075 84.615 125.288 32.349 74.395 72.665 174.088 143.637 202.342 10.322 4.118 19.942 4.57 30.588 5.287 5.171.346 11.847.453 14.413 7.033 6.17 15.844-16.641 46.56-23.007 57.266-20.32 34.175-42.348 66.811-63.174 100.533-19.443 31.482-40.62 64.291-52.697 101.183-19.22 58.757 42.226 93.114 40.505 149.104-1.074 34.76-28.354 59.687-49.956 76.931-26.599 21.205-64.896 35.147-78.209 73.843-9.916 28.823 5.644 45.598 17.627 67.47 20.306 37.057 21.69 87.291 19.577 130.187-2.849 57.966-13.981 116.789-32.93 170.07-8.587 24.153-19.105 49.278-34.591 68.037-14.508 17.582-28.239 22.087-47.627 18.488-59.354-11.035-119.281-41.793-176.197-69.265-71.511-34.521-142.037-72.633-210.457-115.512-46.654-29.243-94.363-60.182-135.313-100.583-10.673-10.532-21.603-21.979-29.407-35.871-5.9-10.442-8.404-19.064-18.348-25.027-29.474-17.664-70.472-13.044-102.052-11.207-50.496 2.923-100.75 10.705-150.935 17.713-29.285 4.118-84.453 17.071-107.838-13.999-20.185-26.83 4.172-72.576 16.614-96.21 31.472-59.77 71.957-112.227 109.519-166.24 17.214-24.755 35.104-49.7 49.321-77.22 3.632-7.016 9.451-16.314 10.45-24.837 1.12-9.767-4.111-17.219-9.404-24.59z"/><path d="M-81.87-95.075c-39.836-52.876-87.828-96.317-130.594-145.798-19.176-22.185-38.54-45.459-53.151-72.524-7.859-14.554-16.204-32.874-14.037-50.964 6.219-51.921 79.753-47.231 109.461-50.272 44.143-4.467 94.856-8.967 133.889-36.963 25.569-18.337 35.156-45.418 30.383-80.345-5.125-37.465 6.333-64.661 32.409-85.561 32.692-26.183 73.959-36.856 111.918-44.438 45.733-9.091 92.045-13.121 138.372-12.04 45.055 1.054 88.705-8.159 133.463-14.151 59.342-7.936 120.588-11.851 179.261 4.417 51.085 14.167 97.227 45.386 131.816 93.663 36.129 50.388 54.015 113.871 83.352 169.616 18.297 34.77 43.812 80.765 78.003 94.281 11.404 4.508 32.186-1.574 23.078 20.603-5.205 12.684-14.948 23.809-22.645 34.177-12.437 16.755-25.286 33.048-37.932 49.572-26.954 35.223-55.818 71.197-76.019 112.906-25.454 52.514 12.383 92.93 7.771 146.177-2.478 28.655-18.804 51.525-36.075 69.491-11.174 11.637-23.402 21.716-35.886 31.12-13.037 9.823-28.465 17.307-39.835 30.006-16.205 18.074-9.169 39.468-6.131 62.833a615.481 615.481 0 0 1 3.497 124.18c-3.7 50.759-12.376 102.968-30.653 149.095-7.11 17.958-16.117 36.995-29.492 49.036-13.375 12.04-27.21 11.216-42.536 7.59-45.461-10.714-90.826-35.644-133.95-59.272-53.974-29.578-106.888-62.634-157.419-100.239-34.88-25.961-69.875-54.006-99.056-89.205-8.487-10.244-16.562-21.213-23.091-33.46-4.483-8.398-6.887-19.235-13.382-25.548-20.323-19.705-61.125-13.821-84.959-12.675-47.566 2.283-94.383 13.137-141.89 15.774-25.926 1.442-66.532 5.068-85.572-21.873-17.906-25.325-1.688-65.214 9.014-89.616 21.032-47.981 49.288-90.73 74.614-135.331C-85.462-9.167-74.052-28.37-67.307-49.327c5.996-18.675-4.355-32.19-14.563-45.748z"/><path d="M-72.073-94.21c-31.708-46.53-69.933-87.834-101.87-135.121-18.694-27.692-50.888-74.247-36.431-113.288 15.861-42.9 71.148-44.069 103.106-47.525 38.036-4.115 82.704-9.736 115.255-36.523 10.295-8.468 19.065-19.677 22.782-34.441 3.98-15.8-.37-29.626-.937-45.443-1.188-33.182 15.044-59.821 36.525-78.115 30.358-25.865 68.32-38.094 104.177-46.62 40.624-9.616 81.923-14.357 123.304-14.155 39.547.165 78.676-.905 118.264-2.14 51.772-1.646 104.272 1.013 154.493 17.793 49.471 16.541 94.449 47.542 129.78 93.142 34.467 44.497 57.722 98.886 78.089 154.287 11.557 31.445 31.081 78.436 58.647 94.319 12.258 7.069 24.287 6.583 11.253 24.968-16.414 23.15-38.536 41.724-57.547 61.524-27.424 28.573-55.536 57.706-78.555 91.677-14.7 21.693-21.251 42.745-20.239 70.832.782 21.397 4.331 42.571 2.536 64.05-4.203 50.415-36.74 84.987-65.507 117.181-18.505 20.705-35.405 36.498-44.931 65.951-11.266 34.811-15.996 72.684-23.525 108.828-8.271 39.691-17.824 80.978-35.877 115.938-16.07 31.124-35.614 45.081-64.866 36.695-45.626-13.068-90.598-45.262-131.103-75.045-41.227-30.301-81.746-64.372-115.91-106.021-18.444-22.492-31.033-48.9-47.413-73.062-20.604-30.334-67.214-18.846-94.915-16.278-45.984 4.263-190.673 36.16-177.322-67.153 5.572-43.123 27.518-82.921 43.568-120.974C-60.59-4.722-50.963-23.674-49.46-41.771c1.64-19.71-13.08-38.432-22.614-52.439z"/><path d="M-55.331-90.259c-24.23-42.165-53.229-82.001-74.021-127.542-13.487-29.493-26.732-68.901-9.333-100.107 19.638-35.216 62.94-43.425 94.757-47.912 32.782-4.62 71.917-8.506 98.71-35.208 8.524-8.506 15.551-19.976 16.86-33.71 1.26-13.174-2.3-26.348-1.12-39.761 2.644-30.119 17.608-54.936 36.902-72.935 57.074-53.248 142.019-65.089 210.88-66.48 34.468-.692 69.941 2.939 104.631 5.541 45.015 3.376 90.098 10.622 133.029 28.086 91.278 37.118 152.458 119.44 195.187 221.877 13.447 32.244 23.738 67.13 44.813 93.042 10.864 13.38 8.49 22.989-2.617 35.192-17.365 19.069-38.548 33.643-57.822 49.559-27.413 22.635-55.414 45.607-79.658 72.721-16.711 18.691-28.574 36.698-32.175 64.726-2.569 19.984-1.969 40.346-3.513 60.453-2.941 38.197-13.009 76.105-30.833 107.789-14.162 25.113-31.022 47.938-48.448 69.7-22.652 28.332-41.812 57.118-59.015 90.745-22.808 44.512-54.855 126.619-108.576 104.89-59.251-23.977-114.787-84.899-152.802-143.927-12.766-19.819-23.246-44.125-40.463-58.74-25.775-21.844-51.927-21.079-82.585-20.988-45.898.123-145.775 12.285-146.854-71.634-.425-33.249 11.364-64.685 17.008-96.666 6.366-35.817-6.393-59.975-22.942-88.71z"/><path d="M-37.284-86.5c-23.967-54.955-77.712-145.258-36.835-206.368 21.592-32.295 59.784-44.431 91.821-51.664 25.782-5.85 56.875-8.047 76.356-32.846 14.318-18.234 7.962-44.769 13.447-67.594 6.809-28.296 22.436-51.45 41.64-68.852 53.663-48.636 128.278-63.562 192.832-66.738 67.043-3.291 140.916 12.103 204.005 41.716 78.664 36.936 137.597 106.875 178.811 195.442 7.604 16.349 14.514 33.126 21.815 49.672 4.905 11.1 12.179 21.838 16.046 33.513 6.437 19.468-1.148 35.381-13.307 48.069-17.489 18.266-38.974 31.266-58.913 44.974-27.267 18.76-55.141 37.183-80.505 59.193-17.044 14.81-34.885 30.765-40.985 56.461-4.163 17.526-5.027 36.088-4.878 54.24.324 38.918-1.35 70.39-16.235 106.035-24.493 58.518-62.158 111.136-101.949 154.918-31.227 34.36-80.64 87.736-126.139 64.763-40.822-20.57-64.702-69.807-91.598-109.614-13.077-19.353-27.766-37.027-45.026-50.792-21.761-17.353-42.247-24.635-68.029-27.474-43.394-4.78-108.825-6.023-122.24-69.543-4.952-23.442-2.125-47.723-4.723-71.47-3.394-31.398-13.32-58.32-25.41-86.04z"/><path d="M-12.362-84.464c-17.067-60.132-39.488-135.915 1.733-189.358C9.337-299.711 37.423-314.184 64.605-325c19.467-7.751 50.378-10.032 62.313-33.863 8.766-17.537 9.98-41.73 17.91-60.519 10.897-25.832 27.404-47.108 46.771-63.764 50.452-43.402 116.164-60.173 176.091-64.975 130.21-10.42 262.7 72.57 332.377 209.11 20.776 40.7 47.594 84.02 14.019 125.601-36.656 45.362-91.875 66.615-135.625 98.847-16.716 12.306-38.018 27.1-47.344 49.382-5.61 13.394-5.994 30.198-6.251 44.942-.674 37.554-3.23 71.326-15.603 106.367-19.111 54.152-49.583 104.111-84.115 145.033-30.115 35.684-73.062 77.62-116.798 51.895-33.534-19.77-54.802-61.73-80.857-92.661-28.996-34.448-64.856-57.66-104.236-69.003-38.308-11.005-80.325-18.427-100.514-65.181C15.818 40.173 8.583 19.407 5.986 1.656c-4.19-29.268-10.327-58.07-18.348-86.12z"/><path d="M15.426-84.04c-7.895-60.721-8.773-124.035 27.912-171.892 17.12-22.326 38.763-38.188 60.648-52.559 16.102-10.574 32.73-19.493 44.755-36.829 11.142-16.051 19.611-34.688 30.368-51.159 14.19-21.827 31.168-40.723 50.283-55.96 47.914-38.122 106.2-55.952 161.962-62.136 26.994-3.006 56.275-4.571 83.087 3.623 25.893 7.906 51.497 20.408 75.305 34.985 50.613 30.957 94.478 76.293 126.277 133.612 21.804 39.316 33.593 77.545 5.358 117.43-31.832 44.957-81.744 69.763-122.882 98.941-28.215 20.012-59.838 39.63-65.109 82.157-4.197 33.84-7.605 65.958-18.464 97.945-16.16 47.181-39.921 89.92-69.873 125.682-27.392 32.579-62.045 60.226-101.226 42.824-31.043-13.811-55.128-44.752-82.25-66.872-30.226-24.707-63.435-38.328-98.405-49.281-31.428-9.883-61.02-25.069-81.332-57.311-4.157-6.588-8.524-13.761-11.73-21.132-4.089-9.405-3.771-18.728-4.575-29.27-2.091-27.819-6.539-55.317-10.109-82.799z"/><path d="M46.066-89.004c.674-57.675 12.04-112.183 43.17-157.13 13.308-19.228 29.2-35.065 43.844-52.685 11.791-14.204 22.934-27.402 36.492-39.107 32.161-27.716 58.299-63.581 92.478-88.262 45.625-32.995 97.887-51.232 149.745-58.524 25.322-3.564 51.48-4.809 77.098-.784 22.004 3.456 43.076 15.59 62.624 28.004 38.313 24.318 75.513 58.88 100.39 102.607 54.846 96.403-53.288 166.492-108.788 207.538-25.524 18.881-64.526 40.749-74.981 78.149-7.474 26.717-12.027 53.888-21.652 79.781-25.855 69.537-78.34 151.323-148.282 140.435-29.928-4.652-57.206-23.55-85.145-36.237-28.769-13.066-58.462-20.35-88.363-28.342-27.946-7.465-50.22-18.09-68.27-46.573C47.8 26.264 48.563 9.981 47.794-6.706c-1.255-27.41-2.03-54.978-1.727-82.298z"/><path d="M73.966-96.391c11.236-87.056 52.968-182.096 114.331-232.653 72.18-59.472 150.377-109.552 236.617-123.949 39.983-6.675 83.782-9.96 121.509 11.87 28.713 16.603 62.065 41.42 77.867 76.322 38.659 85.368-47.331 153.326-96.322 192.821-26.376 21.261-59.951 41.98-79.831 73.029-11.534 18.002-17.422 41.815-26.735 61.587C393.183 22.553 346.73 70.88 288.866 79.522c-26.755 3.993-53.705-.946-80.257-4.873-27.18-4.017-54.697-6.198-81.708-11.803-21.562-4.478-46.973-12.06-54.914-40.22C61.973-12.858 69.38-60.84 73.966-96.39z"/><path d="M101.324-110.376c16.388-81.847 51.09-161.684 109.428-210.545 30.936-25.909 66.849-43.794 101.328-61.465 39.083-20.027 79.917-35.573 121.624-43.284 51.928-9.606 136.03-18.264 163.161 53.944 26.927 71.673-41.118 135.107-81.358 171.257-25.798 23.157-53.409 44.412-78.058 69.728-13.366 13.725-23.662 29.584-34.973 45.681-31.261 44.602-75.827 79.911-121.251 98.76-44.026 18.273-98.489 26.363-144.962 20.324-20.052-2.595-34.384-11.352-40.449-36.248-8.403-34.61-1.264-74.342 5.51-108.152z"/><path d="M128.51-132.42c16.28-72.063 51.394-137.883 102.614-181.134 57.414-48.485 131.345-75.427 199.296-89.127 36.119-7.277 114.39-27.008 132.801 29.46 18.41 56.467-34.812 112.114-65.444 142.748-37.177 37.122-77.26 72.965-117.296 106.273-34.784 28.96-71.901 58.568-109.578 80.932-21.249 12.687-43.385 23.045-66.144 30.953-16.853 5.808-38.283 14.472-55.952 10.148-44.566-10.92-28.083-95.797-20.297-130.253zM561.931 997.507c-54.952 40.693-117.073 74.273-175.654 108.413-85.608 49.88-172.477 98.42-262.429 135.58-48.227 19.92-110.72 48.64-162.467 33.03-18.92-5.7-36.174-22.95-53.138-34.16-23.391-15.46-47.127-30.15-70.823-44.87-47.532-29.52-95.212-58.73-141.928-90.14-22.495-15.12-44.322-34.18-67.741-47.08-13.685-7.55-30.062-4.02-44.686-3.54-33.873 1.11-67.726 3.22-101.58 5.01-41.407 2.19-82.91 4.52-124.365 3.66-18.697-.4-64.489 3.65-74.782-16-5.537-10.59 7.514-29.67 13.565-38.5 11.109-16.234 23.877-30.859 36.477-45.336 29.138-33.479 60.084-65.363 85.985-102.76 13.308-19.226 30.744-42.714 22.057-68.96-8.769-26.509-23.959-49.462-33.226-75.881-10.671-30.402-15.096-62.038-20.134-94.275-3.73-23.826-12.418-44.936-20.586-66.902-9.025-24.279-18.374-48.764-24.64-74.367-4.141-16.913-10.826-47.34 3.663-58.047 20.586-15.225 59.187-2.897 82.653 1.589 32.43 6.189 64.624 14.073 96.967 20.863 23.479 4.938 47.04 10.353 70.91 10.929 38.481.93 77.089-2.288 115.469-5.283 71.065-5.548 141.622-13.07 212.927-13.07 62.47 0 206.836 88.202 240.629 103.732 67.45 31.003 136.694 60.392 200.522 101.641 17.268 11.168 43.843 26.048 52.929 49.035 5.605 14.164 3.028 22.353 16.248 31.48 18.037 12.452 41.145 17.341 61.11 22.912 32.154 8.971 64.557 16.567 96.859 24.69 65.332 16.387 130.22 34.921 195.282 52.755 19.669 5.391 43.465 6.584 62.216 16.082 12.087 6.098 10.833 13.777 1.477 23.044-16.41 16.262-39.411 25.291-58.796 34.566-28.403 13.588-57.272 25.711-86.154 37.661-28.882 11.95-57.913 23.53-86.809 35.504-19.088 7.885-40.854 14.296-58.007 26.995z"/><path d="M516.711 988.557c-58.128 40.773-122.651 73.253-184.854 104.943-79.608 40.58-161.018 78.62-244.897 103.99-49.25 14.88-107.357 31.32-157.679 14.25-17.952-6.09-31.364-19.78-46.753-31.87-17.541-13.78-35.756-26.42-53.972-38.86a3235.323 3235.323 0 0 0-113.678-74.17c-20.28-12.69-42.604-29.67-65.515-34.07-18.215-3.51-38.907 1.56-57.203 3.04-32.95 2.65-65.893 5.39-98.856 7.71-38.037 2.68-76.182 5.15-114.299 4.72-21.245-.24-57.716 3.71-72.741-13.04-13.108-14.62 34.616-67.503 43.009-77.55 26.21-31.369 53.776-61.237 78.171-94.781 14.418-19.781 31.972-43.838 38.051-70.056 5.174-22.343-4.811-47.802-10.707-68.456-7.374-25.871-13.324-52.69-21.892-78.017-7.631-22.566-19.774-42.668-30.441-63.182-11.732-22.566-23.612-45.503-32.322-70.122-5.336-15.148-14.168-40.516-3.562-54.956 12.252-16.649 50.018-5.769 65.542-3.396 31.493 4.879 62.742 12.132 94.019 18.627 51.948 10.78 101.474 20.209 154.373 17.95 68.888-2.95 137.709-9.89 206.584-13.73 25.434-1.434 51.273-4.319 76.727-2.761 14.593.898 25.705 6.338 34.192 18.61 11.59 16.747 38.286 26.019 56.852 35.629 28.95 14.975 58.263 28.904 87.495 43.014 64.173 30.989 129.58 60.858 190.44 100.938 19.254 12.676 41.302 26.81 55.544 47.753 7.947 11.679 5.943 22.929 10.794 35.341 6.423 16.327 27.539 23.695 40.162 29.036 24.361 10.318 49.721 17.233 74.886 23.711 56.94 14.654 114.015 24.289 171.88 31.385 13.56 1.649 66.959 7.36 38.914 34.888-30.987 30.421-75.73 45.33-112.208 62.473-32.862 15.412-65.751 29.753-96.056 51.009z"/><path d="M436.379 981.017c-54.638 35.873-115.165 62.633-174.01 88.233-71.407 31.06-144.604 58.75-219.497 74.26-47.046 9.74-98.915 17.22-145.644 1.04-31.911-11.04-56.596-40.9-84.624-61.44s-57.191-39.82-87.225-55.89c-18.64-9.97-38.692-20.02-59.433-18.7-50.43 3.19-100.799 10.8-151.284 14.5-33.397 2.47-66.862 4.5-100.36 3.89-20.201-.36-47.952 1.12-65.836-11.85-19.768-14.34 85.489-136.806 95.437-150.589 24.942-34.562 55.145-80.43 50.323-129.581-4.613-46.987-24.604-82.067-47.216-118.883-12.832-20.942-53.982-76.891-38.733-104.128 8.713-15.569 37.43-10.179 51.072-9.118 26.887 2.09 53.625 6.583 80.37 10.484 38.996 5.653 79.066 14.384 118.231 16.943 27.271 1.777 54.705-.601 82.024-.65 39.172-.066 78.343.296 117.515.724 32.891.362 66.058 0 98.834 3.851 20.376 2.37 35.842 7.694 50.458 22.737 12.717 13.084 31.904 20.745 48.113 29.064 26.772 13.734 53.895 26.464 80.93 39.4 56.603 27.09 113.855 53.611 168.033 87.465 24.732 15.446 66.315 37.071 72.117 74.521 2.093 13.504 3.633 19.338 14.439 27.016 15.338 10.895 33.708 15.807 50.917 20.078 40.117 9.957 81.396 8.468 121.445 18.309 16.311 4.057 37.605 12.813 18.985 32.858-21.727 23.444-53.354 36.331-79.383 50.814-12.994 7.225-26.38 13.989-38.719 22.81-9.476 6.797-17.587 15.512-27.279 21.832z"/><path d="M332.894 969.817c-50.479 29.134-105.3 50.313-159.137 69.413-59.797 21.18-121.038 38.73-183.088 46.19-42.845 5.17-88.496 6.7-130.08-9.13-26.298-10.01-44.127-31.07-66.757-48.73-34.153-26.7-71.105-47.844-112.137-42.697a2229.733 2229.733 0 0 1-138.456 12.958c-27.929 1.741-55.967 3.039-83.931 1.831-17.68-.758-40.458-2.037-55.839-11.812-20.58-13.09 56.723-112.699 66.359-127.217 23.897-36.005 41.416-73.783 51.651-118.391 8.348-36.401-8.705-65.016-26.297-92.244-10.938-16.91-46.278-59.439-35.213-81.397 6.069-12.109 26.069-11.482 36.811-12.1 20.472-1.172 41.031.049 61.503.585 30.229.825 62.407-4.842 92.38-.28 66.426 10.096 132.684 18.84 199.521 25.76 36.844 3.811 73.911 7.275 110.425 14.625 13.108 2.639 26.648 5.436 39.07 11.408 7.99 3.835 12.346 10.368 19.089 15.729 32.15 25.522 74.12 38.653 110.33 55.01 48.139 21.743 96.534 43.148 143.391 68.834 24.646 13.511 59.07 29.035 76.029 56.61 5.124 8.331 2.94 14.996 6.163 23.005 3.708 9.239 14.976 11.994 22.252 14.567 16.514 5.848 85.637 14.691 53.783 48.997-15.199 16.34-34.565 26.824-51.7 39.667-6.203 4.652-12.252 9.329-17.424 15.606-8.651 10.525-17.174 16.53-28.698 23.203z"/><path d="M222.63 957.204c-99.651 47.136-216.438 79.246-325.083 73.026-36.13-2.08-75.003-9.01-106.321-32.723-18.467-14.008-33.224-29.821-55.407-34.881-16.014-3.651-33.258.494-49.366 1.994-23.332 2.176-46.677 4.12-70.043 5.694-28.967 1.92-58.029 3.403-87.05 2.612-20.737-.568-49.373.075-67.387-13.522-21.507-16.217 33.238-92.292 40.941-105.847 18.669-32.855 31.757-64.687 36.487-104.282 1.392-11.536 6.081-23.361 5.473-34.988-.635-11.875-6.628-22.447-12.162-31.783-7.237-12.237-32.346-41.26-25.156-56.183 3.973-8.24 18.885-9.279 26.615-11.026 14.501-3.296 29.211-5.068 43.799-7.688 24.751-4.466 49.326-19.01 74.164-18.598 66.793 1.087 134.551 26.369 200.006 40.254 38.913 8.281 78.09 15.796 116.53 27.012 12.163 3.551 24.69 7.226 36.251 13.25 8.068 4.203 13.25 11.693 20.724 16.398 28.656 18.071 61.61 29.039 92.381 41.202 39.947 15.822 80.029 31.165 119.699 48.008 24.866 10.556 56.84 19.843 78.266 39.422 15.649 14.297 4.953 18.574-3.304 31.89-4.216 6.79-3.243 13.482-5.075 21.17-2.614 10.976-10.007 18.878-16.939 25.982-9.561 9.814-22.298 17.898-30.116 29.929-2.757 4.235-2.628 9.492-4.858 13.184-6.487 10.754-23.697 16.06-33.069 20.494z"/><path d="M116.68 940.411c-80.878 29.634-170.869 46.508-256.361 38.677-29.745-2.729-59.672-9.068-87.38-22.99-12.607-6.315-22.07-13.354-35.883-13.733-32.052-.874-64.205 2.184-96.25 2.918-22.933.527-45.98.717-68.859-1.534-15.298-1.5-35.984-3.297-48.516-14.747-18.212-16.675 14.663-73.364 21.354-89.025 11.089-25.975 22.09-54.85 17.692-84.905-1.349-9.191-3.737-17.31-4.047-26.683-.297-8.053.533-15.489-1.808-23.188-2.893-9.545-15.763-24.358-11.338-33.145 3.015-6.001 11.959-6.282 17.908-8.202 9.649-3.115 19.07-7.201 28.167-12.217 9.577-5.308 17.732-13.51 27.654-17.896 16.107-7.105 34.136-7.773 51.066-7.74 67.55.132 135.957 16.396 201.794 33.401 34.285 8.853 68.758 18.292 102.078 31.72 10.117 4.08 21.584 8.177 30.48 15.711 5.551 4.691 9.315 10.568 15.621 14.096 53.872 30.121 116.155 41.306 173.345 63.06 14.886 5.663 97.383 34.275 54.249 61.189-26.204 16.354-53.892 23.79-77.802 46.162-7.285 6.8-12.141 12.43-14.988 22.808-1.875 6.908 2.638 3.405-3.662 10.626-7.642 8.68-25.091 12.183-34.514 15.637z"/><path d="M32.585 922.888c-94.69 24.188-194.967 25.339-291.152 3.896-24.247-5.4-49.482-4.11-74.027-5.482-23.849-1.315-66.25 1.422-83.571-20.959-12.56-16.224 1.068-50.702 5.783-68.85 6.006-23.12 11.254-47.004 1.393-69.458-5.776-13.15-13.69-25.668-19.885-38.695-2.963-6.221-9.063-15.755-6.52-21.648 4.207-9.723 23.889-13.816 33.439-18.403 30.524-14.654 62.847-18.394 95.482-18.287 60.277.189 120.865 10.249 179.992 23.893 27.203 6.279 54.785 12.977 81.021 23.892 14.846 6.173 25.797 18.082 39.973 25.142 45.647 22.75 94.69 34.906 141.122 55.708 13.439 6.024 63.639 26.079 38.35 49.724-24.484 22.89-60.196 20.17-85.654 41.703-2.882 2.466-6.446 5.417-8.117 9.403-.987 2.383.751 6.92 0 8.276-7.818 14.737-35.61 17.079-47.629 20.145z"/><path d="M-28.763 906.902c-48.579 8.131-98.226 10.148-147.623 10.66-27 .281-56.666 2.38-83.085-5.966-16.229-5.14-31.903-9.636-48.633-12.875-18-3.488-46.982-6.024-57.944-24.923-8.189-14.123-2.576-43.153-2.279-60.325.318-18.833-2.846-32.798-13.74-46.276-6.85-8.487-38.273-39.294-34.642-48.178 3.455-8.462 25.351-9.759 34.818-11.957 29.922-6.975 60.243-9.404 90.679-9.024 47.138.579 94.452 6.446 140.854 16.527 19.183 4.19 39.01 8.528 57.335 16.9 12.34 5.644 22.633 15.651 34.892 21.485 35.109 16.734 72.232 28.096 107.463 45.136 11.306 5.479 48.146 20.064 39.314 42.541-7.364 18.767-32.41 24.477-44.717 37.055-20.936 21.452-45.996 24.757-72.692 29.22z"/><path d="M-59.367 896.117c-38.535 5.383-77.966 7.737-117.068 7.852-25.234.074-51.856.494-76.62-6.428-12.439-3.474-23.248-11.598-35.02-17.393-12.122-5.96-28.851-12.61-34.091-26.274-4.923-12.841-3.084-31.576-7.408-47.059-3.845-13.738-11.893-22.224-20.561-31.509-5.522-5.935-33.882-31.625-30.602-37.296 3.516-6.075 20.548-5.581 29.41-6.42a560.44 560.44 0 0 1 73.408-2.247c33.417 1.251 67.09 4.741 99.929 12.643 23.295 5.597 40.865 18.932 62.585 28.711 28.137 12.7 57.284 22.743 85.152 36.637 13.887 6.923 34.441 15.829 41.553 33.699 2.734 6.848 5.388 24.266 2.344 31.114-3.657 8.231-17.268 11.721-23.693 13.837-16.096 5.276-32.939 7.844-49.318 10.133z"/></g></svg>