<svg width="720" height="810" viewBox="0 0 720 810" fill="none" xmlns="http://www.w3.org/2000/svg"><g opacity=".03" clip-rule="evenodd" stroke="#F8F8F8" stroke-width="5"><path d="M-317.637-73.33c25.675-11.767 36.8-64.114 44.109-87.635 14.461-46.511 26.063-93.324 38.244-140.016 12.181-46.691 24.246-93.441 39.854-139.776 10.129-30.083 21.07-64.994 42.724-92.104 46.149-57.76 80.92 42.565 93.548 66.909 32.139 61.926 63.625 135.395 121.854 180.69 34.76 27.039 72.468 27.002 114.604-1.309 13.714-9.185 27.477-24.202 44.719-24.593 18.414-.419 34.186 10.681 45.857 20.538 42.544 35.962 68.971 87.513 93.702 134.766C388.301-104.932 411.369-51.754 435.157.06c10.086 21.972 30.17 40.585 47.527 57.99 22.753 22.819 46.625 44.736 70.159 66.926 51.716 48.842 105.566 98.918 140.574 159.534 21.925 37.96 36.352 83.775 16.43 130.03-10.003 23.224-31.646 42.822-50.075 61.986-22.254 23.174-44.966 46.036-66.475 69.716-69.27 76.275-129.357 167.565-94.485 255.672 5.278 13.328 13.165 25.19 19.442 37.99 3.99 8.155 4.889 16.616-4.27 24.476-22.966 19.732-75.765 14.414-101.282 13.988-55.859-.938-110.917-5.595-166.411-8.18-36.702-1.716-89.377-9.611-125.7 6.535-32.363 14.387-39.73 60.109-46.935 86.45-6.74 24.677-12.815 66.607-42.18 82.297-14.239 7.61-29.993 5.2-43.184 1.21-23.083-7.03-42.306-18.46-67.053-22.97-40.596-7.38-91.206-5.98-131.508 15.81-27.925 15.1-40.695 37.14-50.969 62.48-4.321 10.66-7.037 18.94-19.188 24.91-19.29 9.5-42.847 12.61-63.338 15.67-73.329 10.95-148.041 13.15-219.931 10.51-35.926-1.32-72.295-3.86-106.076-11.89-22.168-5.24-49.463-13.49-58.221-32.86-10.167-22.41-11.054-50.6-13.555-75.73-4.664-46.938-6.952-94.363-8.755-141.815-4.153-109.747-4.845-220.014-2.078-330.801 2.002-78.059 3.433-157.497 17.394-236.366 2.779-15.407 7.201-30.765 13.207-45.868 6.222-16.048 5.058-31.931 2.532-47.426-15.676-96.171-76.047-181.933-126.23-262.879-12.732-20.548-25.479-41.09-37.392-62.084-10.241-18.047-25.346-38.363-26.309-59.983-1.914-42.594 65.597-35.229 93.325-31.746 97.626 12.262 189.673 43.466 281.063 69.634 43.503 12.419 87.015 25.078 131.638 35.24 23.208 5.304 63.007 18.47 85.515 8.154z"/><path d="M-305.969-59.135c20.693-26.722 29.365-61.069 38.797-90.594 13.584-42.492 25.223-85.244 37.817-127.866 11.91-40.302 24.077-80.795 40.354-120.498 9.927-24.21 21.361-54.124 43.497-73.502 47.973-42.013 80.523 52.149 92.095 73.79C-24.657-343.995 4.686-281.513 57.225-243.5c32.81 23.736 69.09 23.142 108.072-2.781 13.489-8.967 23.989-18.861 40.917-20.047 19.59-1.377 36.54 8.208 49.876 17.995 41.779 30.653 68.752 77.055 93.071 119.797 25.123 44.156 49.877 90.808 67.018 136.799 6.86 18.389 23.152 35.746 36.511 50.964 20.565 23.41 42.272 45.97 63.376 68.973 42.904 46.744 85.796 95.213 113.683 151.439 20.134 40.593 31.919 87.093 17.638 134.944-14.491 48.501-54.409 85.214-90.262 124.731-62.001 68.284-135.347 155.796-116.686 240.229 2.826 12.805 9.262 23.423 13.949 35.369 2.416 6.14 4.54 13.414-1.299 19.733-15.158 16.404-59.25 10.303-76.913 9.53-48.808-2.13-96.81-7.644-145.291-11.086-38.497-2.738-82.462-8.4-122.026 1.735-48.011 12.299-56.322 78.03-79.417 110.298-40.052 55.948-97.898 10.622-137.046-6.901-44.949-20.126-111.723-23.277-144.014 27.695-12.346 19.496-16.387 38.424-36.986 53.974-32.215 24.32-75.964 36.83-114.381 46.39-57.761 14.34-117.544 22.69-175.315 23.38-41.366.49-106.856-.13-119.512-38.81-8.544-26.03-10.092-55.721-12.305-83.833-3.32-42.089-4.604-84.553-5.225-127.089-1.53-98.144 1.007-197.044 8.196-296.134 4.916-67.616 56.915-273.597 56.055-286.93-2.576-39.751-22.337-77.309-40.196-111.394-23.753-45.341-51.599-88.544-78.925-131.938-12.991-20.664-26.7-41.135-38.222-62.607-8.199-15.282-18.489-35.57-13.573-54.445 9.586-36.838 73.106-29.46 99.85-26.625 81.977 8.665 159.851 31.343 237.624 50.449 38.179 9.37 76.467 19.097 115.977 25.402 15.949 2.536 49.809 11.67 62.587-4.84z"/><path d="M-282.989-45.579c36.649-63.967 52.569-136.529 76.835-203.93 12.187-33.832 24.928-68.094 42.944-100.679 9.366-16.947 21.285-38.212 40.081-49.185 50.282-29.351 80.09 55.304 93.148 78.765 25.261 45.354 52.357 97.244 98.664 127.778 28.302 18.65 61.142 19.259 94.422-1.725 14.766-9.309 26.617-18.748 44.59-20.231 18.21-1.5 34.564 5.165 48.217 13.234 39.253 23.178 66.037 61.962 89.076 97.656A833.272 833.272 0 0 1 414.11 27.929c16.695 40.166 48.827 73.098 75.761 107.492 35.675 45.566 70.197 92.774 92.329 145.923 17.472 41.978 26.144 88.341 14.951 136.082-11.437 48.54-43.161 88.998-79.135 128.818-54.383 60.197-128.513 138.1-124.921 214.404.515 11.101 4.077 20.049 7.823 30.04 1.822 4.852 4.483 10.976-.449 16.031-11.88 12.165-49.277 4.082-61.656 2.708-39.517-4.385-78.338-10.961-117.652-15.994-36.703-4.698-75.329-10.429-113.916-6.184-61.448 6.773-67.348 76.924-119.047 98.489-32.098 13.384-66.07-1.16-90.698-13.708-30.3-15.461-58.819-44.577-99.559-40.713-30.345 2.878-39.192 23.979-54.159 43.927-25.357 33.803-70.531 55.818-110.468 71.617-53.964 21.354-112.131 35.52-168.481 40.276-25.543 2.16-52.769 2.962-76.251-3.39-22.004-5.948-31.78-16.591-36.513-35.734-14.473-58.61-11.222-125.891-9.72-189.072 1.892-79.385 7.46-159.356 18.241-239.379 7.354-54.569 15.818-110.797 35.691-164.781 5.182-14.071 11.09-28.754 20.517-41.6 7.072-9.687 13.889-15.531 15.21-27.049 3.908-34.139-17.237-69.566-31.957-97.566-23.525-44.777-51.375-87.325-78.491-130.132-15.849-24.967-50.438-69.854-31.805-103.987 16.093-29.466 67.815-26.186 94.478-24.62 67.433 3.966 131.93 19.161 196.637 31.05 29.655 5.45 59.762 11.436 90.698 13.012 7.89.409 18.761 1.867 26.936-.745 9.357-3.014 13.982-10.858 18.507-18.723z"/><path d="M-294.135-36.452c31.694-58.123 51.425-119.775 78.816-179.164 12.282-26.628 25.476-53.878 44.086-78.366 10.006-13.17 23.242-28.339 40.611-33.839 49.852-15.789 75.962 53.113 91.006 78.911 22.305 38.354 47.356 82.677 88.977 106.656 27.263 15.709 55.886 13.251 85.72-5.527 32.001-20.145 61.501-20.947 91.307-5.837 37.351 18.954 64.12 52.125 86.708 83.56 27.173 37.891 49.978 78.401 68.134 121.036 17.654 41.465 44.079 77.409 68.027 115.693 31.745 50.761 60.614 104.918 70.04 165.071 8.205 52.373-1.16 107.291-30.834 158.737-30.959 53.719-81.381 96.235-120.025 145.982-24.104 31.029-55.448 73.267-53.63 109.988.606 12.248 14.731 28.66-9.228 29.528-13.701.5-27.858-3.776-40.48-6.502-20.396-4.403-40.542-9.372-60.814-14.062-43.213-9.992-87.898-21.415-134.228-22.579-58.339-1.484-79.51 49.671-129.906 67.471-27.12 9.583-54.691 4.164-78.188-4.141-15.213-5.368-29.444-12.339-43.165-19.823-14.333-7.814-27.522-18.772-43.785-23.879-23.153-7.29-39.73 7.956-59.751 20.376a615.49 615.49 0 0 1-111.642 54.491c-47.752 17.602-98.881 31.272-148.438 33.685-19.291.945-40.349.608-56.84-6.598-16.491-7.205-21.457-20.144-24.487-35.6-9.025-45.825-5.066-97.438-1.366-146.471 4.636-61.373 12.877-123.217 26.246-184.77 9.23-42.489 20.312-85.945 40.309-127.062 5.823-11.961 12.475-23.846 20.931-34.852 5.795-7.552 14.671-14.219 17.736-22.742 9.548-26.649-12.668-61.374-23.558-82.605-21.731-42.374-50.958-80.524-72.987-122.696-12.026-23.015-32.104-58.494-15.437-86.964 15.665-26.77 58.69-28.481 85.334-28.818 52.384-.67 102.988 7.4 154.069 12.036 21.015 1.898 43.216 4.356 65.088 1.84 19.484-2.256 27.516-17.266 35.644-32.164z"/><path d="M-290.875-27.172c29.273-48.1 51.094-99.975 80.961-148.596 17.495-28.465 46.589-77.017 88.115-79.981 45.621-3.281 69.527 46.583 85.878 74.258 19.462 32.938 43.036 71.293 80.879 89.869 11.965 5.876 25.796 9.232 40.776 6.517 16.034-2.903 26.826-12.578 40.996-19.629 29.727-14.79 60.692-11.015 86.227.988 36.097 16.96 62.918 46.478 85.497 75.61 25.541 33.021 46.921 68.671 63.834 106.439 16.189 36.082 33.33 71.273 50.81 106.814 22.889 46.467 42.159 95.375 47.627 148.041 5.376 51.886-4.273 105.654-31.201 156.668-26.282 49.773-66.204 93.421-108.241 134.858-23.861 23.516-58.587 60.71-61.662 92.375-1.373 14.084 4.039 24.838-18.088 20.564-27.863-5.383-53.918-17.854-79.804-26.987-37.35-13.168-75.495-26.733-115.942-33.659-25.828-4.425-47.705-1.693-72.865 10.833-19.162 9.553-36.979 21.533-57.28 28.773-47.647 17.002-92.574 1.654-133.777-11.241-26.501-8.297-47.865-17.163-78.623-13.669-36.355 4.123-72.798 15.463-108.824 23.54-39.562 8.867-81.108 17.226-120.403 15.229-34.983-1.775-55.768-13.807-60.217-43.911-6.949-46.949 3.788-101.203 14.175-150.395 10.561-50.063 24.847-101.038 48.66-149.358 12.862-26.089 31.71-48.464 46.946-73.363 19.111-31.296-10.608-68.996-24.391-93.161-22.881-40.114-111.708-158.698-12.109-189.225 41.573-12.741 86.883-9.199 128.167-10.305 17.13-.467 38.367.47 55.469-5.638 18.626-6.65 29.593-27.79 38.41-42.258z"/><path d="M-287.556-10.294c28.387-39.487 52.683-82.353 85.565-120.103 21.286-24.468 51.701-52.811 87.307-49.859 40.184 3.334 65.55 39.376 82.782 66.496 17.75 27.945 37.459 61.978 72.845 75.345 11.268 4.248 24.616 5.909 37.664 1.426 12.518-4.294 23.044-12.98 35.746-17.447 28.521-10.037 57.303-6.662 81.666 3.472C268.09-20.99 313.968 51.475 343.686 113.609c14.87 31.102 26.219 64.906 38.182 97.572 15.524 42.388 27.552 86.437 29.386 132.748 3.91 98.459-45.781 188.185-121.412 269.419-23.807 25.568-51.325 49.353-66.215 79.25-7.696 15.422-17.427 17.23-33.129 12.157-24.54-7.935-46.564-21.204-69.021-32.18-31.939-15.613-64.427-31.621-99.136-42.496-23.925-7.496-45.224-10.859-72.236-2.559-19.26 5.917-37.555 14.876-56.504 21.777-35.999 13.104-74.681 19.597-110.898 16.456-28.721-2.521-56.471-8.445-83.489-15.323-35.16-8.923-69.29-14.478-107.02-16.251-49.959-2.38-137.971 2.36-140.379-55.539-2.645-63.864 29.889-139.609 67.938-198.615 12.774-19.814 30.579-39.4 36.775-61.117 9.243-32.498-2.259-55.997-15.008-83.879-19.076-41.746-71.415-127.675 4.561-163.33 30.102-14.123 63.601-16.377 95.056-24.449 35.247-9 51.976-30.601 71.307-57.544z"/><path d="M-283.523 7.694c40.143-44.531 100.174-130.784 172.712-118.807 38.331 6.32 65.162 36.085 84.985 62.273C-9.846-27.778 5.001-.371 35.633 7.123c22.52 5.506 44.059-11.246 67.111-15.68 28.581-5.491 56.123-.826 79.905 9.472 66.462 28.774 110.882 90.556 140.445 148.031 30.697 59.694 47.198 133.327 46.297 203.015-1.136 86.896-40.478 169.46-104.104 243.584-11.747 13.679-24.17 26.903-36.222 40.388-8.081 9.053-14.855 20.114-23.89 28.458-15.068 13.906-32.693 13.574-49.271 7.743-23.861-8.38-44.576-22.574-65.297-35.068-28.35-17.08-56.643-34.853-87.166-48.857-20.53-9.403-42.429-19.058-68.35-13.996-17.68 3.449-34.94 10.332-51.409 17.967-35.308 16.374-64.66 27.853-103.269 29.024-63.41 1.872-126.889-10.688-183.199-28.835-44.193-14.242-113.215-37.187-111.092-88.112 1.866-45.675 36.838-87.763 61.977-128.703 12.22-19.904 22.246-40.583 27.651-61.989 6.812-26.986 4.979-48.65-3.088-73.302-13.575-41.492-39.477-101.591 12.827-140.05 19.301-14.196 42.581-21.653 63.133-33.83 27.19-16.063 47.607-36.225 67.855-58.69z"/><path d="M-275.08 31.23c47.709-40.386 107.457-92.114 173.156-76.656 31.826 7.486 56.61 27.083 77.69 47.368 15.101 14.526 29.95 41.732 56.582 42.755 19.592.738 42.125-8.152 62.512-8.694 28.026-.749 54.222 5.493 77.391 16.248 60.369 28.013 102.792 80.925 131.924 133.514 63.286 114.273 42.45 269.214-53.104 389.078-28.481 35.735-56.85 78.055-108.588 64.66-56.455-14.639-98.622-56.146-146.05-82.67-18.114-10.138-40.387-23.424-64.531-22.711-14.515.424-29.977 7.017-43.51 12.876-34.477 14.901-66.288 26.527-103.311 29.736-57.209 4.97-115.295-2.139-166.828-16.678-44.938-12.682-100.871-34.466-95.514-84.923 4.148-38.706 33.573-75.41 50.975-111.917 19.391-40.638 25.714-82.884 19.773-123.433-5.806-39.432-16.406-80.761 17.83-118.463 11.744-12.933 27.665-28.102 42.758-37.8 24.921-15.909 48.615-33.397 70.845-52.29z"/><path d="M-263.985 56.71c52.034-32.276 109.329-59.234 168.066-45.6 27.406 6.368 50.792 19.523 72.92 33.516 16.283 10.294 31.275 21.752 52.03 25.54 19.22 3.515 39.692 3.528 59.136 6.519 25.74 3.903 49.962 11.558 71.735 22.67 54.512 27.882 94.83 73.595 123.501 121.82 13.89 23.34 27.413 49.359 31.028 77.161 3.498 26.846 2.692 55.328-.746 83.031-7.28 58.882-30.443 117.559-69.504 170.198-26.795 36.1-56.738 62.631-104.724 53.397-54.093-10.414-97.303-45.618-140.872-71.026-29.881-17.426-60.81-38.119-101.717-25.348-32.551 10.159-63.208 20.325-96.823 23.652-49.642 4.777-98.38.797-143.322-11.704-40.986-11.484-80.479-31.619-80.821-74.49-.248-33.975 17.978-68.692 26.916-102.53 10.011-37.733 8.695-73.603 4.222-109.975-3.985-32.702-2.382-65.925 18.587-97.744 4.283-6.507 9.011-13.447 14.399-19.412 6.875-7.609 15.496-11.172 24.764-16.259 24.469-13.399 47.674-28.81 71.225-43.415z"/><path d="M-246.806 82.563c52.801-23.215 107.135-35.385 160.928-25.607 23.008 4.175 43.997 12.104 66.092 18.16 17.807 4.87 34.43 9.564 50.69 17.075 38.528 17.837 81.988 26.822 118.585 47.75 48.897 27.917 87.098 67.975 115.164 112.187 13.707 21.587 25.649 44.894 32.568 69.887 5.943 21.465 3.599 45.668.37 68.598-6.315 44.937-22.42 93.094-51.962 133.814-65.131 89.775-173.635 20.26-233.944-13.323-27.74-15.443-63.767-41.925-102.145-35.994-27.419 4.232-54.044 11.312-81.6 13.244-74.006 5.185-170.17-8.821-189.152-77.012-8.128-29.177-2.189-61.826-2.179-92.511.013-31.596-5.622-61.646-10.697-92.178-4.748-28.534-4.275-53.206 14.206-81.412 8.822-13.476 23.965-19.509 38.844-27.104 24.443-12.468 49.227-24.564 74.232-35.575z"/><path d="M-228.552 104.918c83.921-25.735 187.712-26.998 259.104 7.994 83.981 41.161 161.895 91.681 210.636 164.268 22.598 33.653 43.685 72.182 39.393 115.558-3.257 33.007-12.078 73.633-37.332 102.442-61.769 70.476-159.184 20.246-215.39-8.051-30.26-15.235-63-37.25-99.488-42.526-21.16-3.066-45.278 1.41-67.131 1.099-66.223-.944-129.424-23.279-161.202-72.403-14.689-22.715-21.326-49.298-28.721-75.1-7.571-26.412-16.954-52.372-23.009-79.286-4.83-21.485-8.425-47.758 13.938-66.624 28.178-23.781 74.933-36.859 109.202-47.371z"/><path d="M-204.513 124.054c81.305-18.892 168.347-20.275 236.945 12.663 36.376 17.469 67.501 42.783 97.839 66.881 34.385 27.317 65.413 58.081 89.666 92.875 30.202 43.32 72.835 116.332 18.287 170.872-54.144 54.133-140.025 18.375-189.57-3.334-31.748-13.926-62.51-30.288-95.75-42.275-18.02-6.501-36.716-9.326-56.048-12.975-53.533-10.041-104.101-36.037-140.033-69.616-34.829-32.543-64.699-78.798-78.4-123.614-5.921-19.332-3.868-36.003 16.298-51.811 28.045-21.952 67.178-31.866 100.766-39.666z"/><path d="M-173.206 139.703c72.351-14.948 146.798-10.164 207.347 18.61 67.874 32.253 122.954 88.448 163.505 144.667 21.549 29.886 71.856 93.013 28.039 133.109-43.816 40.095-116.481 14.619-157.033-.62-49.166-18.518-98.367-40.212-145.24-62.909-40.745-19.712-83.042-41.28-118.975-66.351-20.332-14.109-38.911-29.987-55.515-47.446-12.253-12.948-28.996-28.884-32.359-46.76-8.469-45.096 75.636-65.154 110.231-72.3z"/><path d="M-139.691 161.346C-.828 137.57 106.966 212.94 173.261 302.519c15.4 20.818 62.532 77.38 30.469 107.469-31.091 29.166-92.704 9.221-121.794-.006-90.14-28.59-169.892-78.258-247.508-124.394-24.226-14.401-73.298-37.934-70.461-70.719 3.11-35.61 67.551-48.586 96.342-53.523z"/><path d="M-100.687 183.829C3.541 170.653 93.288 229.152 144.889 296.96c12.635 16.61 47.149 57.695 28.011 83.3-17.7 23.69-65.946 8.208-84.791 2.776-41.961-12.09-80.76-31.376-118.424-50.731-34.838-17.89-70.368-35.83-102.45-56.73-16.892-11.011-51.121-30.506-43.872-55.016 7.792-26.383 52.806-33.804 75.95-36.73z"/><path d="M-57.327 208.432c69.466-5.517 134.422 34.646 170.411 79.742 9.677 12.138 32.088 37.693 21.395 56.487-9.85 17.305-39.153 9.912-52.546 6.807C22.57 337.708-39.2 306.142-83.91 271.829c-11.24-8.628-32.451-23.682-25.501-40.957 7.144-17.726 36.132-21.176 52.083-22.44z"/><path d="M-14.585 236.008c35.15-1.296 71.916 20.314 90.967 43.388 13.404 16.241 19.175 40.454-13.942 36.025-32.872-4.412-69.745-23.541-91.546-44.043-16.63-15.643-15.669-34.253 14.522-35.37zm-652.258-892.109c58.198-27.343 107.483-80.445 172.856-94.921 53.689-11.892 81.394 38.301 117.76 59.454 28.893 16.811 66.524 16.718 102.588 16.537 32.382-.154 65.017-1.901 97.249-1.209 20.842.458 60.85-.669 69.546 16.886 8.329 16.804-10.755 44.336-21.736 61.274-14.311 22.082-30.621 43.302-45.424 65.156-24.979 36.843-39.056 73.837-50.092 113.891a2813.234 2813.234 0 0 0-34.098 137.096c-7.55 33.759-14.879 67.626-24.744 101.259-6.193 21.099-15.534 65.704-39.567 76.792-11.467 5.292-28.254 2.143-40.178.294-20.182-3.125-39.677-8.279-58.881-13.608-35.77-9.926-70.782-21.305-105.983-32.303-45.685-14.275-90.249-27.492-138.74-36.262-50.18-9.048-101.085-16.347-151.683-24.406-34.276-5.454-71.787-9.418-99.369-27.201-34.506-22.293-24.896-57.801-39.087-89.739-12.204-27.476 66.151-60.59 86.105-73.838 20.211-13.38 37.009-30.279 57.504-43.172 25.584-16.091 53.463-28.799 80.612-42.219 33.211-16.406 65.107-31.41 64.571-66.761-.316-20.114-7.026-38.985-10.539-58.358-2.272-12.553-7.057-36.004 11.33-44.642z"/><path d="M-650.321-647.367c47.779-25.137 102.907-70.592 160.844-77.545 49.51-5.945 74.557 34.345 110.386 52.871 29.562 15.301 65.068 11.974 100.625 10.195 28.524-1.426 57.149-3.246 85.485-3.031 20.883.158 55.553-.863 66.66 14.127 9.986 13.475-8.47 41.158-17.754 55.477-13.556 20.896-29.558 40.767-44.969 60.786-27.067 35.169-50.334 69.162-63.94 108.834-13.662 39.847-19.494 79.304-25.98 119.452-5.077 31.409-10.675 62.906-18.774 94.234-6.026 23.333-12.516 55.894-33.536 74.856-16.627 15.005-63.115-1.745-78.696-5.835-32.046-8.432-63.175-18.65-94.185-28.967-37.793-12.582-72.603-27.466-112.832-35.467-71.933-14.321-154.277-16.212-217.341-48.02-38.037-19.184-59.516-49.993-71.127-85.258-4.598-13.963 16.891-27.565 29.509-35.313 20.959-12.873 43.409-23.48 64.751-35.749 19.978-11.487 37.801-24.953 56.655-37.841 19.104-13.054 39.906-23.722 59.588-35.882 12.221-7.545 26.574-16.035 33.711-28.024 7.391-12.408 6.295-26.849 4.819-39.236-2.832-23.234-27.615-76.922 6.101-94.664z"/></g></svg>