<svg width="30" height="30" viewBox="0 0 30 30" fill="none" xmlns="http://www.w3.org/2000/svg">
<path d="M8.65375 10.1872C10.1104 8.27098 12.4132 7.03125 15.0005 7.03125C17.129 7.03125 19.1301 7.86012 20.6353 9.36521L21.2567 9.98666L26.2286 5.01486L25.6071 4.39342C22.774 1.56029 19.0072 0 15.0005 0C10.9939 0 7.22705 1.56029 4.39387 4.39336C4.1367 4.65059 3.89031 4.91566 3.6543 5.18772L8.65375 10.1872Z" fill="#F99422"/>
<path d="M24.8122 26.3463C25.0843 26.1103 25.3494 25.8639 25.6066 25.6067C28.4397 22.7735 30 19.0067 30 15.0001C30 14.0875 29.9174 13.1732 29.7544 12.2827L29.6225 11.562H14.1211V18.5933H22.1163C21.5634 19.6932 20.7724 20.6311 19.8195 21.3536L24.8122 26.3463Z" fill="#F99422"/>
<path d="M18.2584 22.2779C17.257 22.7246 16.1522 22.9688 15.0005 22.9688C12.4132 22.9688 10.1104 21.7291 8.65375 19.8129L3.6543 24.8123C3.89031 25.0844 4.1367 25.3495 4.39387 25.6067C7.22705 28.4398 10.9939 30.0001 15.0005 30.0001C18.0425 30.0001 20.9457 29.0999 23.4075 27.4269L18.2584 22.2779Z" fill="#F99422"/>
<path d="M7.72635 18.2538C7.27992 17.2597 7.03125 16.1584 7.03125 15C7.03125 13.8416 7.27992 12.7403 7.72635 11.7462L2.57314 6.59302C0.900176 9.05483 0 11.958 0 15C0 18.0419 0.900176 20.9451 2.57314 23.407L7.72635 18.2538Z" fill="#F99422"/>
</svg>
