<svg width="450" height="500" viewBox="0 0 450 500" fill="none" xmlns="http://www.w3.org/2000/svg"><g clip-path="url(#a)"><path opacity=".1" d="M409.28 242.99c21.986 0 39.81-10.293 39.81-22.99s-17.824-22.99-39.81-22.99-39.81 10.293-39.81 22.99 17.824 22.99 39.81 22.99z" fill="#D6D8E5"/><path d="M415.57 14c1.55-2.5 13.42-4.14 17.32 5.91 1.48 3.82 1.26 13.56 2.5 19.69 1.24 6.13 4.15 9.59 5.2 14.56 1.05 4.97-.66 13.32-12.59 14.84-11.93 1.52-21.18-2.73-24-6.54-2.82-3.81-2.89-11.93.05-16.29 2.94-4.36 5.17-7.9 5.1-13.57l6.42-18.6z" fill="#F99422"/><path d="M401.35 56.11s-2.81 19.84 2.5 34c5.31 14.16 3.85-3.64 3.85-3.64l-1.28-4.21S405.35 66 405.79 62c.44-4 .34-7.4.63-7.72.29-.32-1.06-.95-1.62-1-.56-.05-3.45 2.83-3.45 2.83z" fill="#FFCEA9"/><path d="M423.41 12.29s-8.94-2.57-14.36 2.26a13.264 13.264 0 0 0-3.82 13.24c.72 2.82 2.17 6.67 4.41 6.88 2.24.21 13.77-22.38 13.77-22.38z" fill="#F99422"/><path d="M426.82 36.66s-.58 10-.4 10.69c.18.69 3.91 1.44 4.95 2.31 1.04.87-5.41 11-8.7 12.47-3.29 1.47-13.46-2.33-14.16-7.39-.66-4.66 2.91-8.28 4.28-9.54a18.834 18.834 0 0 1 2.81-.07l.3-4.83c4.45-1.42 10.92-3.64 10.92-3.64z" fill="#FFCEA9"/><path d="M428.19 48.32c2.8.43 6 1.93 6.43 3.46.52 1.79 1.62 10.21-.8 16.62s-4.05 10.49-5.45 13.25c0 0-12.1 5.2-21.86-.86 0 0-.68-6.87-.72-10.55-9-7.86-1.31-17.55 6.33-25.08.915-.08 1.835-.08 2.75 0 0 0-6.81 8-2.08 12.63 10.14-3.1 12.15-7.65 15.4-9.47z" fill="#F4F4F4"/><path d="M408.22 24.32c1-6.4 5.62-11.23 12.22-10.84a12.724 12.724 0 0 1 11.313 8.523 12.603 12.603 0 0 1-4.903 14.657 13.195 13.195 0 0 1-1 2.8c-2.35 2.72-8.55 4.45-10.6 4.47-1.77 0-3.3-1.63-5-4.38-3.46-5.72-2.58-12.07-2.03-15.23z" fill="#FFCEA9"/><path d="M422.49 13.59c4.63.91 8.43 2.21 9.69 6.76.86 3.13 2 9.09.91 11.61l-.66 1.81-5.61 2.89s-2.61-2.18-1.8-8.57a4.622 4.622 0 0 0-.79-2.42 7.266 7.266 0 0 1-.77-1.93 7.262 7.262 0 0 0-3.63-3.93c-4.18-2.34-10.29-.32-11.14.53a12.18 12.18 0 0 1 13.8-6.75z" fill="#F99422"/><path d="M435 94.85c1-6.48 3-10.69 2.08-14.25a129.469 129.469 0 0 0-7.88-21c-2-4-1.43-6.84.69-8.43 2.39-1.79 4.67-1 6.82 3.46 2.7 5.62 5.75 11.39 7.23 19.76.73 4.06 1.11 8-.2 16.34-.92 5.83-2.77 9.1-5 14.57-.61 1.49-4.68-4.95-3.74-10.45z" fill="#FFCEA9"/><path d="M430.9 215.78c-2.34 1.91-6 .59-6.16.77-2.39 2.39-5.94 4.47-8.59 6.55-1.46 1.15-3.73 2.69-3.32 4.89.74 3.95 7.06 2.74 9.44 1.53 2.38-1.21 4.33-3.21 6.59-4.61 1.6-1 3.19-1.52 3.44-3.55.15-1.23-.99-5.62-1.4-5.58z" fill="#6B6B6B"/><path d="M432.27 220.54c-.31 2-1.87 2.48-3.47 3.47-2.29 1.43-4.31 3.48-6.69 4.69-2.21 1.11-7.7 2.22-9.25-.6.84 3.81 7.05 2.61 9.41 1.42 2.36-1.19 4.33-3.21 6.59-4.61 1.6-1 3.19-1.52 3.44-3.55a4.016 4.016 0 0 0-.03-.82z" fill="#1B1B1B"/><path d="M414.46 212.5c-2.14 1.75-5.38.77-5.54.93-2.18 2.19-5.42 4.07-7.84 6-1.34 1.06-3.43 2.46-3.05 4.49.68 3.61 6.46 2.5 8.65 1.39 2.19-1.11 4-2.94 6-4.22 1.47-.91 2.92-1.39 3.15-3.25.17-1.15-.99-5.38-1.37-5.34z" fill="#6B6B6B"/><path d="M415.84 217.06c-.29 1.78-1.72 2.27-3.18 3.18-2.1 1.31-4 3.19-6.13 4.29-2 1-7 2-8.47-.54.77 3.48 6.46 2.39 8.62 1.29 2.16-1.1 4-2.94 6-4.22 1.47-.91 2.92-1.39 3.15-3.25a3.3 3.3 0 0 0 .01-.75z" fill="#1B1B1B"/><path d="M401.83 103.53c1-8.07 4-19.81 4-19.81a23.94 23.94 0 0 0 9 2.23c5.21.27 13.55-1.32 13.55-1.32a79.544 79.544 0 0 0 4.76 7.37c2.33 3.23 6.85 10.32 5.76 22.69-.72 8.09-5.25 42.43-5.25 42.43a64.556 64.556 0 0 1 2.79 17.88c-.05 5-1.36 13.48-2.84 21.33l-2.7 19.49s-3.6 2.6-6.16.77l.32-19.08c-.31-4.67-.78-11.56-1.07-16-.49-7.16-1.77-18.54-2.14-21.38-.37-2.84-1.28-7.8-1.72-13.37-.44-5.57-2.53-33.83-2.53-33.83l-.29 5.3s-.27 8.59-1.51 19.2-1.67 15.31-1.67 15.31 2.15 3.94 2.42 6.85c.22 2.29 2.84 20.42 1.27 29.64l-3.21 23.45a6.17 6.17 0 0 1-5.55.73l-1.89-23.63c-1.27-9-4-28.06-4.37-30.54-.54-3.26-1-4.87-1.6-15.12-.6-10.25-.4-32.51.63-40.59z" fill="#FFCEA9"/><path d="M428.37 81.65l7 14s10.61 15.54-.38 55.47l2.01 12.29s-20.82 13.36-34.75 0c0 0-4.83-36.9-2.26-53.92a194.783 194.783 0 0 1 6.49-28.91s3.41 3.77 21 1.28" fill="#6A9A9A"/><path d="M440.85 62.46s-4.83 4.81-10.56 4.21l-2.75-9.36s-1.79-4.9 2.39-7c4.18-2.1 8.52 2.56 10.92 12.15zm-28.73-17.3s-5.53-1.68-11.4 10.56l2.19 1.33s5.78-8.74 9.21-11.89z" fill="#EDEDED"/><path opacity=".1" d="M39.81 336.49c21.986 0 39.81-10.293 39.81-22.99s-17.824-22.99-39.81-22.99C17.823 290.51 0 300.803 0 313.5s17.823 22.99 39.81 22.99z" fill="#D6D8E5"/><path d="M19.39 306.44c2.85 2.32 7.05.2 7.26.41 3.348 3.106 6.86 6.03 10.52 8.76 1.77 1.4 4.54 3.26 4 5.95-.9 4.8-8.58 3.32-11.48 1.85-2.9-1.47-5.27-3.9-8-5.6-2-1.22-3.89-1.85-4.19-4.32-.16-1.49 1.38-7.11 1.89-7.05z" fill="#6B6B6B"/><path d="M17.57 312.49c.37 2.37 2.27 3 4.22 4.23 2.78 1.73 5.24 4.23 8.14 5.7 2.68 1.35 9.36 2.7 11.24-.73-1 4.63-8.57 3.18-11.44 1.72-2.87-1.46-5.27-3.9-8-5.6-2-1.22-3.89-1.85-4.19-4.32a4.503 4.503 0 0 1 .03-1z" fill="#1B1B1B"/><path d="M44.12 297.25c2.84 2.32 7.83-.22 8 0a112.338 112.338 0 0 0 9.39 8.48c1.78 1.4 4.55 3.26 4 5.95-.9 4.8-8.58 3.32-11.48 1.85-2.9-1.47-5.27-3.9-8-5.6-2-1.22-3.88-1.85-4.18-4.32-.12-1.49 1.76-6.42 2.27-6.36z" fill="#6B6B6B"/><path d="M42 303c.38 2.37 2.28 3 4.22 4.23 2.79 1.73 5.25 4.23 8.14 5.7 2.68 1.35 9.37 2.7 11.25-.73-1 4.63-8.58 3.18-11.45 1.72-2.87-1.46-5.26-3.9-8-5.6-1.95-1.22-3.88-1.85-4.18-4.32a4.395 4.395 0 0 1 .02-1z" fill="#1B1B1B"/><path d="M19.22 201.26c.14 4.31 1.48 23 2.08 32.93.6 9.93.74 22 .74 22s-1.71 7.22-2.82 15.7c-1.11 8.48 0 35.25 0 35.25a6.757 6.757 0 0 0 7.3 0s4.56-21.42 6.67-31.07c2.11-9.65 2.48-15.22 3.58-21.2 1.32-7.24 4.18-41 4.18-41l1.14.07 3 38.13a42.8 42.8 0 0 0-1.92 8.65c-.83 6.21.87 37.46.87 37.46a7.583 7.583 0 0 0 7.89-.32s7.62-41.39 7.62-47.69c0-4.16-.71-59.09-.71-59.09l-39.62 10.18z" fill="#6A9A9A"/><path d="M29.55 118s.49 9.39.28 10.22c-.21.83-4.32 3.59-5.51 4.58-1.19.99 6.5 8.57 10.23 10.28 3.73 1.71 15.59-2.8 15.8-8.62.21-5.82-2-10.71-3.85-11-1.85-.29-16.95-5.46-16.95-5.46zm25.73 17.42c.55-4.14-2.18-8.08.47-11.38 9.27 9.09 8.09 33.15 10.2 48.54 6.88 7.2 20.72 14.29 24.62 16 .71.32 1.32.66 1.18 1.43-.56 3-1.43 4.14-3.22 7-9.16-3.95-15.76-6.22-27.2-17.09a25.144 25.144 0 0 1-2.9-3.8c-3.27-9.72-4.09-33.55-3.15-40.7z" fill="#FFCEA9"/><path d="M28.5 129.84S35.32 140 44.83 141c3-3 3.27-13.48-.88-16.84 0 0 3.82-3.08 6.43-2.48a13.468 13.468 0 0 1 5.87 7.49 61.298 61.298 0 0 1 3.35 21.75c-.16 10 0 40.42 0 40.42s-1.33 6.44-9.93 11.23-15 5.26-20.83 3.9c-4.82-1.12-8.8-2.82-10.45-6.31.43-7 3.55-25.22 2.38-34-1.17-8.78-3-15.35-3.5-22.45s.94-7 4.5-9.49a56.369 56.369 0 0 1 6.73-4.38z" fill="#F4F4F4"/><path d="M50.81 104c-1.12-7.29-6.37-12.82-13.89-12.4a14.51 14.51 0 0 0-13.68 15.29A14.357 14.357 0 0 0 29.55 118a14.45 14.45 0 0 0 1.17 3.19c2.65 3.11 10.7 5 13 4.7 3-.42 4.58-1.66 6-4.9 2.49-5.75 1.71-13.4 1.09-16.99z" fill="#FFCEA9"/><path d="M29.55 118l.69-6.36S25 98.16 37.33 100.75c8.1 1.7 10.14 2.44 12.61-3 2.47-5.44-6.24-10.33-16.57-9a14.28 14.28 0 0 0-12.78 14.49c.27 4.03 1.34 12.13 8.96 14.76z" fill="#6B6B6B"/><path d="M15.17 139.47c3.56-1 .85-.17 3.56-1 9.27 9.1 8.12 24.68 10.22 40.08 5.12 8.46 24.12 19.93 24.12 19.93.24 1.64-.34 2.12-2.39 5.43-9.15-3.95-16.82-7.36-28.26-18.22-.45-.43-1.11-.54-1.3-1.13-3.27-9.83-6.9-37.93-5.95-45.09z" fill="#FFCEA9"/><path d="M99.71 158.44L85.9 205.66l-30.3 12.11 11.05-46 33.06-13.33z" fill="#F4F4F4"/><path d="M48.29 198.8c.45-1.61 1.62-1.21 2.93-.81a7.664 7.664 0 0 0 4.48.39c1.25-.39 2.15-1.46 3.21-2.17a4.127 4.127 0 0 1 2-.58c-.06.41-.69 2.81-.69 2.81s6.64.07 7.32-.07a1.115 1.115 0 0 1 1.135.575 1.12 1.12 0 0 1-.135 1.265l.45-.07c1.36-.3 1.94 1.78.57 2.09-.36.08-.73.12-1.11.17.89.34 1.11 1.81 0 2l-.34.06a1.136 1.136 0 0 1-.49.07h-.21a1.188 1.188 0 0 1-1 1.41c-3.24.43-8 1.72-10.94-.95a18.466 18.466 0 0 1-5.88-1.59c-1.79-.85-1.84-2.67-1.3-4.6zm33.15-3.86h.45a1.125 1.125 0 0 1-.377-1.218 1.12 1.12 0 0 1 1.007-.782c.7 0 7.53-1.43 7.53-1.43l.82-2.81c0-.16 1.19.56 1.23.59a4.604 4.604 0 0 1 2.06 3.42 7.289 7.289 0 0 1-2 5.27 6.758 6.758 0 0 1-4.63 2c-.83.05-1.63.09-2.34.15a1.18 1.18 0 0 1-.845-.352 1.192 1.192 0 0 1-.345-.848h-.21a1.067 1.067 0 0 1-.49 0h-.35c-1.16 0-1.25-1.44-.46-2-.37 0-.75.07-1.12.07-1.45.09-1.37-2.07.07-2.06z" fill="#FFCEA9"/><path d="M59.15 141.58s3.5-.18 4.95-2.22c-.27-3.49-4.74-16.74-13.72-17.73a16.655 16.655 0 0 1 5.62 6.78c1.63 3.99 3.15 13.17 3.15 13.17zm-45.6 17.51s8.94 3.08 15.24-2.1c.69-1.19-3.65-16.4-3.65-16.4s-3.75-7.78-9.62-4.69c-5.87 3.09-1.97 23.19-1.97 23.19z" fill="#EDEDED"/><path opacity=".4" d="M104.7 404.21c2.85 0 5.16-1.334 5.16-2.98s-2.31-2.98-5.16-2.98-5.16 1.334-5.16 2.98 2.31 2.98 5.16 2.98zm96.64 55.11c2.85 0 5.16-1.334 5.16-2.98s-2.31-2.98-5.16-2.98-5.16 1.334-5.16 2.98 2.31 2.98 5.16 2.98zm167.51-102.16c2.85 0 5.16-1.334 5.16-2.98s-2.31-2.98-5.16-2.98-5.16 1.334-5.16 2.98 2.31 2.98 5.16 2.98z" fill="#D6D8E5"/><path d="M101.34 300.31v100.32a1.76 1.76 0 0 0 1 1.46 5.584 5.584 0 0 0 5.07 0 1.776 1.776 0 0 0 1-1.46V300.31h-7.07zm96.87 39.04v116.43a1.813 1.813 0 0 0 .91 1.47 4.356 4.356 0 0 0 4.44 0 1.822 1.822 0 0 0 .92-1.47V339.35h-6.27zm167.5-80.87v94.94a1.794 1.794 0 0 0 .92 1.46 4.336 4.336 0 0 0 4.43 0 1.794 1.794 0 0 0 .92-1.46v-94.94h-6.27z" fill="#C1C4D3"/><path d="M201.34 369.23L95.08 307.88v-7.17l106.26 61.36v7.16z" fill="#80BABA"/><path d="M380.5 258.84L201.32 362.29 95.05 300.94l179.18-103.45 106.27 61.35z" fill="#6A9A9A"/><path d="M380.52 265.78L201.34 369.23v-7.16l179.18-103.45v7.16z" fill="#80BABA"/><path d="M329.38 238.2l-28.57 23.93-26.1-10.39 28.57-23.93 26.1 10.39z" fill="#F4F4F4"/><path d="M322.75 239.31l-35.59 20.55-22.41-12.94 35.59-20.55 22.41 12.94z" fill="#F4F4F4"/><path d="M289.54 254.31l-2.18 1.26-14.78-8.53 2.18-1.26 14.78 8.53zm4.9-2.83l-2.18 1.26-14.77-8.53 2.18-1.26 14.77 8.53zm4.72-2.72l-2.18 1.25-14.77-8.52 2.18-1.26 14.77 8.53zm11.08-6.4l-2.18 1.26-8.6-4.96 2.18-1.26 8.6 4.96zm4.72-2.72l-2.18 1.25-8.6-4.96 2.18-1.26 8.6 4.97z" fill="#D6D8E5"/><path d="M291.19 258.3c.59-.25 31.56-19 31.56-19L290.4 258l.79.3z" fill="#D6D6D6"/><path opacity=".2" d="M296.25 287.25c4.286 0 7.76-2.006 7.76-4.48 0-2.474-3.474-4.48-7.76-4.48s-7.76 2.006-7.76 4.48c0 2.474 3.474 4.48 7.76 4.48z" fill="#000"/><path d="M304.77 282.13v-11.95l-15.49.39v11c-.29 1.32.44 2.71 2.21 3.73a12.128 12.128 0 0 0 11 0 3.848 3.848 0 0 0 2.28-3.17z" fill="#A6CE28"/><path d="M297.01 274.66c4.286 0 7.76-2.006 7.76-4.48 0-2.474-3.474-4.48-7.76-4.48s-7.76 2.006-7.76 4.48c0 2.474 3.474 4.48 7.76 4.48z" fill="#BCD64D"/><path d="M303.54 270.18c0 .73-.6 1.5-1.66 2.1a9.684 9.684 0 0 1-4.37 1.14H297a9.993 9.993 0 0 1-4.87-1.15c-1.05-.6-1.66-1.37-1.66-2.1s.61-1.49 1.66-2.1a9.993 9.993 0 0 1 4.87-1.15h.5a9.697 9.697 0 0 1 4.37 1.14c1.07.63 1.67 1.39 1.67 2.12z" fill="#28221C"/><path opacity=".07" d="M303.54 270.18c0 .73-.6 1.5-1.66 2.1a9.004 9.004 0 0 1-8.75 0c-1.05-.6-1.66-1.37-1.66-2.1s.61-1.49 1.66-2.1a9.004 9.004 0 0 1 8.75 0c1.06.61 1.66 1.37 1.66 2.1z" fill="#fff"/><path d="M303.64 275.71l-1.65-.95-.8.47.8.46v.3l1.54.89v.29c.371.53.705 1.085 1 1.66l.06-.05v3.85c0 1-.59.67-.85.52l-1.73-1-.8.47.8.46v.3l1.73 1c.18.105.371.189.57.25l-.11.49.9-.51a1.517 1.517 0 0 0 .52-1.34v-4a4.642 4.642 0 0 0-1.98-3.56z" fill="#8DA01F"/><path d="M302.92 284.85l-1.73-1v-1.23l1.73 1c.25.14.85.48.85-.53v-4a2.297 2.297 0 0 0-1-1.7l-1.57-.91v-1.23l1.65.95a4.651 4.651 0 0 1 2 3.51v4c-.02 1.08-.52 1.95-1.93 1.14z" fill="#99B524"/><path opacity=".2" d="M143.16 303.37c4.286 0 7.76-2.006 7.76-4.48 0-2.474-3.474-4.48-7.76-4.48s-7.76 2.006-7.76 4.48c0 2.474 3.474 4.48 7.76 4.48z" fill="#000"/><path d="M151.68 298.25V286.3l-15.49.39v11c-.29 1.33.45 2.72 2.21 3.73a12.115 12.115 0 0 0 11 0 3.834 3.834 0 0 0 2.28-3.17z" fill="#F7B03E"/><path d="M143.92 290.78c4.286 0 7.76-2.006 7.76-4.48 0-2.474-3.474-4.48-7.76-4.48s-7.76 2.006-7.76 4.48c0 2.474 3.474 4.48 7.76 4.48z" fill="#FCC068"/><path d="M150.45 286.3c0 .73-.61 1.49-1.66 2.1a9.85 9.85 0 0 1-4.37 1.14h-.5a9.993 9.993 0 0 1-4.87-1.15c-1.06-.61-1.66-1.37-1.66-2.1s.6-1.5 1.66-2.11a10 10 0 0 1 4.87-1.14h.5a9.719 9.719 0 0 1 4.37 1.13c1.05.63 1.66 1.4 1.66 2.13z" fill="#28221C"/><path opacity=".07" d="M150.45 286.3c0 .73-.61 1.49-1.66 2.1a9.004 9.004 0 0 1-8.75 0c-1-.61-1.66-1.37-1.66-2.1s.61-1.5 1.66-2.11a9.004 9.004 0 0 1 8.75 0c1.05.61 1.66 1.38 1.66 2.11z" fill="#fff"/><path d="M150.54 291.83l-1.64-.95-.81.46.81.47v.3l1.54.89-.05.29c.374.528.708 1.083 1 1.66l.05-.05v3.85c0 1-.59.67-.84.52l-1.73-1-.81.46.81.47v.3l1.73 1c.176.105.364.189.56.25l-.1.49.9-.51a1.508 1.508 0 0 0 .53-1.35v-4a4.64 4.64 0 0 0-1.95-3.55z" fill="#C9883A"/><path d="M149.83 301l-1.74-1v-1.24l1.74 1c.25.15.84.49.84-.52v-4a2.356 2.356 0 0 0-.313-.964 2.357 2.357 0 0 0-.687-.746l-1.58-.9v-1.24l1.65 1a4.635 4.635 0 0 1 2 3.51v4c0 1.01-.5 1.88-1.91 1.1z" fill="#E09C3B"/><path opacity=".2" d="M242.22 269.29l-23-13.29a1.299 1.299 0 0 0-1.32 0l-40.38 23.32L201.17 293l41.05-23.71z" fill="#000"/><path d="M243.31 266.68l-23-13.29a1.299 1.299 0 0 0-1.32 0l-40.38 23.32 23.68 13.67 41.02-23.7z" fill="#F4F4F4"/><path d="M201.2 285.49l-1.76 1c-.14.09-.12.23 0 .33l1.68 1a.62.62 0 0 0 .56 0l1.75-1c.14-.08.13-.22 0-.32l-1.67-1a.645.645 0 0 0-.56-.01zm2.48-1.43l-1.75 1c-.15.08-.13.23 0 .32l1.67 1a.644.644 0 0 0 .56 0l1.75-1c.15-.08.13-.23 0-.32l-1.67-1a.594.594 0 0 0-.56 0zm2.51-1.45l-1.75 1c-.14.08-.13.23 0 .32l1.67 1a.644.644 0 0 0 .56 0l1.76-1c.14-.08.12-.23 0-.32l-1.68-1a.594.594 0 0 0-.56 0zm2.46-1.42l-1.76 1c-.14.08-.12.23 0 .32l1.68 1a.594.594 0 0 0 .56 0l1.75-1c.15-.08.13-.23 0-.32l-1.67-1a.645.645 0 0 0-.56 0zm2.48-1.44l-1.75 1c-.14.08-.13.22 0 .32l1.67 1a.644.644 0 0 0 .56 0l1.76-1c.14-.09.12-.23 0-.33l-1.68-1a.623.623 0 0 0-.56.01zm2.49-1.43l-1.76 1c-.14.09-.12.23 0 .33l1.68 1a.594.594 0 0 0 .56 0l1.75-1c.14-.08.13-.23 0-.32l-1.67-1a.645.645 0 0 0-.56-.01zm2.48-1.43l-1.75 1c-.15.08-.13.23 0 .32l1.67 1a.644.644 0 0 0 .56 0l1.75-1c.15-.08.13-.23 0-.32l-1.67-1a.594.594 0 0 0-.56 0zm2.48-1.44l-1.75 1c-.14.09-.13.23 0 .33l1.67 1a.62.62 0 0 0 .56 0l1.76-1c.14-.08.12-.22 0-.32l-1.68-1a.645.645 0 0 0-.56-.01zm2.49-1.45l-1.76 1c-.14.08-.12.23 0 .32l1.68 1a.62.62 0 0 0 .56 0l1.75-1c.15-.08.13-.23 0-.32l-1.67-1a.582.582 0 0 0-.56 0zm2.48-1.42l-1.75 1c-.14.08-.13.22 0 .32l1.67 1a.644.644 0 0 0 .56 0l1.76-1c.14-.09.12-.23 0-.33l-1.68-1a.623.623 0 0 0-.56.01zm2.45-1.43l-1.76 1c-.14.08-.12.23 0 .32l1.68 1a.594.594 0 0 0 .56 0l1.75-1c.14-.08.13-.23 0-.32l-1.67-1a.644.644 0 0 0-.56 0zm2.52-1.44l-1.75 1c-.15.08-.13.22 0 .32l1.67 1a.644.644 0 0 0 .56 0l1.75-1c.15-.09.13-.23 0-.33l-1.67-1a.623.623 0 0 0-.56.01zm2.48-1.43l-1.75 1c-.14.09-.13.23 0 .33l1.67 1a.62.62 0 0 0 .56 0l1.76-1c.14-.08.12-.22 0-.32l-1.68-1a.645.645 0 0 0-.56-.01zm3.69-2.12l-3 1.7c-.14.08-.12.23 0 .32l1.68 1a.644.644 0 0 0 .56 0l3-1.7c.14-.08.12-.23 0-.32l-1.68-1a.572.572 0 0 0-.56 0zM202.47 282l-1.75 1c-.14.08-.13.22 0 .32l1.67 1a.644.644 0 0 0 .56 0l1.76-1c.14-.09.12-.23 0-.33L203 282a.622.622 0 0 0-.53 0zm2.53-1.46l-1.75 1c-.15.08-.13.23 0 .32l1.67 1a.644.644 0 0 0 .56 0l1.76-1c.14-.08.12-.23 0-.32l-1.68-1a.594.594 0 0 0-.56 0zm2.45-1.44l-1.75 1c-.15.09-.13.23 0 .33l1.67 1a.62.62 0 0 0 .56 0l1.75-1c.15-.08.13-.23 0-.32l-1.67-1a.645.645 0 0 0-.56-.01zm2.49-1.44l-1.76 1c-.14.08-.12.22 0 .32l1.68 1a.644.644 0 0 0 .56 0l1.75-1c.14-.09.13-.23 0-.33l-1.67-1a.623.623 0 0 0-.56.01zm2.47-1.42l-1.76 1c-.14.08-.12.23 0 .32l1.68 1a.594.594 0 0 0 .56 0l1.75-1c.14-.08.13-.23 0-.32l-1.67-1a.644.644 0 0 0-.56 0zm2.49-1.44l-1.76 1c-.14.09-.12.23 0 .33l1.68 1a.597.597 0 0 0 .55 0l1.76-1c.14-.08.12-.22 0-.32l-1.68-1a.637.637 0 0 0-.55-.01zm2.48-1.44l-1.75 1c-.14.08-.13.22 0 .32l1.67 1a.644.644 0 0 0 .56 0l1.76-1c.14-.09.12-.23 0-.33l-1.68-1a.623.623 0 0 0-.56.01zm2.49-1.43l-1.75 1c-.15.08-.13.23 0 .32l1.67 1a.594.594 0 0 0 .56 0l1.75-1c.15-.08.13-.23 0-.32l-1.67-1a.644.644 0 0 0-.56 0zm2.49-1.44l-1.75 1c-.15.09-.13.23 0 .33l1.67 1a.62.62 0 0 0 .56 0l1.75-1c.15-.08.13-.22 0-.32l-1.67-1a.645.645 0 0 0-.56-.01zm2.49-1.44l-1.76 1c-.14.08-.12.22 0 .32l1.68 1a.647.647 0 0 0 .56 0l1.75-1c.14-.09.13-.23 0-.33l-1.67-1a.62.62 0 0 0-.56.01zm2.49-1.43l-1.76 1c-.14.08-.12.23 0 .32l1.68 1a.594.594 0 0 0 .56 0l1.75-1c.14-.08.13-.23 0-.32l-1.67-1a.644.644 0 0 0-.56 0zm2.49-1.44l-1.76 1c-.14.09-.12.23 0 .33l1.67 1a.62.62 0 0 0 .56 0l1.76-1c.14-.08.12-.22 0-.32l-1.68-1a.623.623 0 0 0-.55-.01zM200 283.41l-3 1.7c-.14.09-.12.23 0 .33l1.68 1a.62.62 0 0 0 .56 0l2.95-1.71c.14-.08.12-.23 0-.32l-1.68-1a.621.621 0 0 0-.51 0zm34.57-17.35l-1.76 1a.587.587 0 0 1-.52 0l-1.77-1c-.14-.08-.14-.21 0-.3l.14-.08c.13-.07.13-.2 0-.28l-1.87-1.07c-.15-.09-.15-.22 0-.31l1.12-.64a.587.587 0 0 1 .52 0l1.75 1 .36.21.26.15.27.15 1.5.87c.14.09.14.24 0 .3zm-42.99 13.86l-1.76 1c-.14.08-.12.22 0 .32l1.68 1a.626.626 0 0 0 .55 0l1.76-1c.14-.09.12-.23 0-.33l-1.68-1a.608.608 0 0 0-.55.01zm2.47-1.43l-1.75 1c-.14.08-.13.22 0 .32l1.67 1a.644.644 0 0 0 .56 0l1.76-1c.14-.09.12-.23 0-.33l-1.68-1a.623.623 0 0 0-.56.01zm2.48-1.43l-1.75 1c-.15.08-.13.22 0 .32l1.67 1a.644.644 0 0 0 .56 0l1.75-1c.15-.09.13-.23 0-.33l-1.67-1a.623.623 0 0 0-.56.01zm21.09-12.17l-1.75 1c-.14.08-.13.23 0 .32l1.67 1a.644.644 0 0 0 .56 0l1.76-1c.14-.08.12-.23 0-.32l-1.68-1a.594.594 0 0 0-.56 0zm2.48-1.43l-1.75 1c-.15.08-.13.23 0 .32l1.67 1a.644.644 0 0 0 .56 0l1.75-1c.15-.08.13-.23 0-.32l-1.67-1a.594.594 0 0 0-.56 0zm2.48-1.46l-1.76 1c-.14.08-.12.23 0 .32l1.68 1a.644.644 0 0 0 .56 0l1.75-1c.14-.08.13-.23 0-.32l-1.67-1a.582.582 0 0 0-.56 0zm2.47-1.4l-1.75 1c-.14.08-.13.23 0 .32l1.67 1a.644.644 0 0 0 .56 0l1.76-1c.14-.08.12-.23 0-.32l-1.68-1a.594.594 0 0 0-.56 0zm-25.4 14.67l-2.4 1.38c-.14.08-.12.22 0 .32l1.68 1a.644.644 0 0 0 .56 0l2.39-1.38c.14-.08.12-.23 0-.32l-1.68-1a.575.575 0 0 0-.55 0zm15.5-8.95l-2.4 1.38c-.14.08-.12.22 0 .32l1.68 1a.644.644 0 0 0 .56 0l2.39-1.38c.14-.08.13-.23 0-.32l-1.67-1a.594.594 0 0 0-.56 0zm-3.15 1.79l-11.66 6.74c-.15.08-.13.23 0 .32l1.67 1a.644.644 0 0 0 .56 0l11.67-6.73c.14-.09.12-.23-.05-.33l-1.67-1a.615.615 0 0 0-.52 0zm-11.26 12.08l-1.75 1c-.15.08-.13.22 0 .32l1.67 1a.62.62 0 0 0 .56 0l1.76-1c.14-.08.12-.22 0-.32l-1.68-1a.62.62 0 0 0-.56 0zm2.48-1.43l-1.75 1c-.14.09-.13.23 0 .33l1.67 1a.62.62 0 0 0 .56 0l1.76-1c.14-.08.12-.22 0-.32l-1.68-1a.645.645 0 0 0-.56-.01zm2.48-1.43l-1.75 1c-.14.08-.13.23 0 .32l1.67 1a.594.594 0 0 0 .56 0l1.76-1c.14-.08.12-.23 0-.32l-1.68-1a.62.62 0 0 0-.56 0zm2.49-1.43l-1.76 1c-.14.08-.12.23 0 .32l1.68 1a.626.626 0 0 0 .55 0l1.76-1c.14-.09.12-.23 0-.33l-1.68-1a.565.565 0 0 0-.55.01zm2.48-1.44l-1.76 1c-.14.08-.12.22 0 .32l1.68 1a.62.62 0 0 0 .56 0l1.75-1c.14-.08.13-.22 0-.32l-1.67-1a.62.62 0 0 0-.56 0zm2.48-1.46l-1.76 1c-.14.09-.12.23 0 .33l1.68 1a.62.62 0 0 0 .56 0l1.75-1c.14-.08.13-.22 0-.32l-1.67-1a.645.645 0 0 0-.56-.01zm2.48-1.4l-1.76 1c-.14.08-.12.23 0 .32l1.68 1a.594.594 0 0 0 .56 0l1.75-1c.15-.08.13-.23 0-.32l-1.67-1a.62.62 0 0 0-.56 0zm2.48-1.44l-1.75 1c-.15.08-.13.22 0 .32l1.67 1a.644.644 0 0 0 .56 0l1.75-1c.15-.09.13-.23 0-.33l-1.67-1a.623.623 0 0 0-.56.01zm2.48-1.43l-1.75 1c-.15.08-.13.22 0 .32l1.67 1a.62.62 0 0 0 .56 0l1.75-1c.15-.08.13-.22 0-.32l-1.67-1a.62.62 0 0 0-.56 0zm2.48-1.43l-1.75 1c-.14.09-.13.23 0 .33l1.67 1a.62.62 0 0 0 .56 0l1.76-1c.14-.08.12-.22 0-.32l-1.68-1a.645.645 0 0 0-.56-.01zm2.48-1.43l-1.75 1c-.14.08-.13.23 0 .32l1.67 1a.62.62 0 0 0 .56 0l1.76-1c.14-.08.12-.23 0-.32l-1.68-1a.594.594 0 0 0-.56 0z" fill="#2B303F"/><path d="M228 264.43l-1.76 1c-.14.08-.12.22 0 .32l1.68 1a.626.626 0 0 0 .55 0l1.76-1c.14-.09.12-.23 0-.33l-1.68-1a.608.608 0 0 0-.55.01zm-29.74 17.2l-3.63 2.09c-.14.08-.12.23 0 .32l1.68 1a.597.597 0 0 0 .55 0l3.63-2.09c.15-.09.13-.23 0-.32l-1.67-1a.594.594 0 0 0-.56 0zm-1.16-2.12l-1.75 1c-.15.08-.13.22 0 .32l1.67 1a.644.644 0 0 0 .56 0l1.76-1c.14-.09.12-.23 0-.33l-1.68-1a.623.623 0 0 0-.56.01zm2.48-1.43l-1.75 1c-.14.09-.13.23 0 .33l1.67 1a.62.62 0 0 0 .56 0l1.76-1c.14-.08.12-.22 0-.32l-1.68-1a.645.645 0 0 0-.56-.01zm2.48-1.43l-1.75 1c-.14.08-.13.23 0 .32l1.67 1a.594.594 0 0 0 .56 0l1.76-1c.14-.08.12-.23 0-.32l-1.68-1a.644.644 0 0 0-.56 0zm2.49-1.43l-1.76 1c-.14.08-.12.23 0 .32l1.68 1a.626.626 0 0 0 .55 0l1.76-1c.14-.08.12-.23 0-.32l-1.68-1a.575.575 0 0 0-.55 0zm2.45-1.44l-1.76 1c-.14.08-.12.22 0 .32l1.68 1a.626.626 0 0 0 .55 0l1.76-1c.14-.09.12-.23 0-.33l-1.68-1a.602.602 0 0 0-.55.01zm2.51-1.43l-1.76 1c-.14.08-.12.22 0 .32l1.68 1a.62.62 0 0 0 .56 0l1.75-1c.14-.08.13-.22 0-.32l-1.67-1a.62.62 0 0 0-.56 0zm2.49-1.43l-1.76 1c-.14.09-.12.23 0 .33l1.68 1a.62.62 0 0 0 .56 0l1.75-1c.14-.08.13-.22 0-.32l-1.67-1a.645.645 0 0 0-.56-.01zm2.47-1.43l-1.76 1c-.14.08-.12.23 0 .32l1.68 1a.594.594 0 0 0 .56 0l1.75-1c.14-.08.13-.23 0-.32l-1.67-1a.62.62 0 0 0-.56 0zm2.53-1.43l-1.76 1c-.14.08-.12.23 0 .32l1.68 1a.644.644 0 0 0 .56 0l1.75-1c.15-.08.13-.23 0-.32l-1.67-1a.594.594 0 0 0-.56 0zm2.43-1.44l-1.75 1c-.15.08-.13.22 0 .32l1.67 1a.644.644 0 0 0 .56 0l1.75-1c.15-.09.13-.23 0-.33l-1.67-1a.623.623 0 0 0-.56.01zm2.48-1.43l-1.75 1c-.15.09-.13.23 0 .33l1.67 1a.62.62 0 0 0 .56 0l1.75-1c.15-.08.13-.22 0-.32l-1.67-1a.645.645 0 0 0-.56-.01zm5.55-3.19l-4.82 2.78c-.15.08-.13.23 0 .32l1.67 1a.594.594 0 0 0 .56 0l4.83-2.78c.14-.08.12-.23 0-.32l-1.7-1a.588.588 0 0 0-.54 0zm-32.84 19l-2.39 1.38c-.14.08-.13.22 0 .32l1.67 1a.644.644 0 0 0 .56 0l2.4-1.38c.14-.08.12-.23-.05-.32l-1.67-1a.587.587 0 0 0-.52 0zm42.56-13.41l-35.24 20.35c-.14.08-.12.22 0 .32l.84.48a.62.62 0 0 0 .56 0l35.23-20.35c.15-.08.13-.22 0-.32l-.83-.48a.62.62 0 0 0-.56 0z" fill="#2B303F"/><path d="M195.95 268.5l.23.13 6.09 3.52 10.82-6.25.23-.13-6.32-3.64-11.05 6.37z" fill="#BFBFBF"/><path d="M196.18 268.63l6.09 3.52 10.82-6.25-6.09-3.51-10.82 6.24zm-17.59 8.08v.54a2.212 2.212 0 0 0 1.11 1.92l21.46 12.39c.336.197.72.301 1.11.3a2.23 2.23 0 0 0 1.11-.3l38.82-22.42a2.211 2.211 0 0 0 1.11-1.92v-.54l-41 23.7-23.72-13.67z" fill="#E5E5E5"/><path d="M202.89 290.71a2.633 2.633 0 0 0 2.27-.18l38.66-22.32a2.64 2.64 0 0 0 1.28-1.84l4.23-25.23c.01-.143.01-.287 0-.43a2.642 2.642 0 0 0-.77-1.87L208.41 262a2.004 2.004 0 0 0-.94 1.36l-4.58 27.35z" fill="#F4F4F4"/><path d="M202.27 290.38l.26.15c.116.068.236.128.36.18l4.58-27.32a2.008 2.008 0 0 1 .94-1.36l40.18-23.19a2.727 2.727 0 0 0-.54-.41l-40.26 23.24a2.004 2.004 0 0 0-.94 1.36l-4.58 27.35z" fill="#E5E5E5"/><path opacity=".1" d="M404.47 500c21.986 0 39.81-10.293 39.81-22.99s-17.824-22.99-39.81-22.99-39.81 10.293-39.81 22.99S382.484 500 404.47 500z" fill="#D6D8E5"/><path d="M436.74 302.29c.45 4 5.19 21.09 4.17 26.95-1.02 5.86-17.19 15.68-17.19 15.68l-2.24-10 9-8.78-2.48-16.67 8.74-7.18z" fill="#FFCEA9"/><path d="M424.23 285.42a7.059 7.059 0 0 1 9 2.72c2.38 3.94 4.85 17.46 5.08 19.77 0 0-3.34 4.61-8.35 3.84l-5.73-26.33z" fill="#EDEDED"/><path d="M405.75 476.32a13.83 13.83 0 0 1-10.47-1.27c-2.52.08-16.21-5.78-18.07-.86-1.63 4.31 4.3 8.3 7.47 9.07 6.91 1.67 12 5.12 14.8 5.7 2.07.44 4.75.73 6.4-.9 1.98-1.95 1.81-9.17-.13-11.74z" fill="#6B6B6B"/><path d="M399.48 487.77c-2.77-.58-7.89-4-14.8-5.71-2.66-.64-7.23-3.55-7.69-7-.62 4 4.73 7.49 7.69 8.21 6.91 1.67 12 5.12 14.8 5.7 2.07.44 4.75.73 6.4-.9a4.166 4.166 0 0 0 .91-1.65 8.292 8.292 0 0 1-3.495 1.542 8.29 8.29 0 0 1-3.815-.192z" fill="#1B1B1B"/><path d="M428 466.35c-3.52.974-7.282.521-10.47-1.26-2.52.07-16.21-5.79-18.07-.87-1.63 4.31 4.3 8.3 7.47 9.07 6.91 1.67 12 5.12 14.8 5.71 2.08.43 4.75.72 6.4-.91 1.93-1.95 1.76-9.17-.13-11.74z" fill="#6B6B6B"/><path d="M421.68 477.8c-2.77-.58-7.89-4-14.8-5.71-2.66-.64-7.23-3.54-7.69-7-.62 4 4.73 7.48 7.69 8.2 6.91 1.67 12 5.12 14.8 5.71 2.08.43 4.75.72 6.4-.91a4.166 4.166 0 0 0 .91-1.65 8.274 8.274 0 0 1-7.31 1.36z" fill="#1B1B1B"/><path d="M428.22 429.16a82.423 82.423 0 0 0-3.16-15s.95-12.94 1.42-25.21c.54-13.92 5.36-26.17 1.55-37.28l-42.95 9.55s2.6 55.5 3.18 62.22a125.42 125.42 0 0 0 1.92 15.56c2 10.77 5.15 36.4 5.15 36.4 4.54 2.64 10.5 1.18 10.5 1.18s-.32-32.41-.62-40.17c-.35-9.48-.64-8.76-.64-8.76l1.43-23.58.93-11.74s1.19 8.62 2 16.32c.67 6.71 2.29 12.78 4.1 25.28 1.57 10.84 4.12 32.62 4.12 32.62 4.54 2.65 10.71.45 10.71.45s1.59-28.44.36-37.84z" fill="#6A9A9A"/><path d="M422 285.65c-3.27.16-5.7 1-6.11 0a42.32 42.32 0 0 1-.75-5.11c.38-.95.7-2 .7-2 4.11-2.53 5.41-7 5.95-12.14.92-8.84-3.86-16.57-12.69-17.5-8.31-.86-14.42 5-16.05 13-.88 4-2.63 11.44-.26 18 1.32 3.64 3 6.53 4.72 7.09a40.146 40.146 0 0 0 4.92-.43s.44 2.46.75 4 .18 2.41-2.95 4.34c-3.13 1.93 4.74 5.91 9.89 5.51 5.15-.4 10.88-3.41 12.46-6.78 1.77-3.71 1.62-8.09-.58-7.98z" fill="#FFCEA9"/><path d="M417.22 286.14c.9 2.25-1.4 5-7.54 6.95-6.14 1.95-6.7-.55-6.7-.55s-9 4.1-11.94 6.15c-3.68 2.58-5.32 10-5.82 22.63-.57 14.57-.62 36.18-.14 39.91 0 0 6.89 6.87 15.71 6.15 8.82-.72 23.66-8.53 27.26-14.56-.1-12.77-1.6-14.85.47-22.21 4.74-16.85 7.23-23.75 4.93-34.95-1.9-9.23-4.56-10.37-8.2-10.28-2.688.11-5.369.364-8.03.76z" fill="#F4F4F4"/><path d="M371.36 333.36c7.24 1.83 8.94-2.74 9.89-6.51 2.3-9.15 3.54-17.41 5.26-22.61 2-6.12 4.14-7.09 7.11-8.29 3.5-1.4 6.5 1.55 5.34 9.35-1.38 9.22-3.18 15.69-6.63 26.6-.9 2.85-2.92 7.91-5.94 10.36-3.74 3-9.36 2.89-17.87.77-3.63-.9-7.61-3.07-14.47-6.27-1.84-.86-3.28-1.43-6.81-3.08-3.53-1.65-7.22-4.4-9.07-7.08-1.85-2.68-2.1-4-1.72-4.56.47-.77 1.31-.6 2.3.53a19.518 19.518 0 0 0 5.21 4.82s-2.29-2.36-3.53-3.89a19.721 19.721 0 0 1-2.74-4.48c-.65-1.56.7-3.68 1.72-2.57 1.02 1.11 1.52 2.25 3.39 4.49a19.013 19.013 0 0 0 3.35 3.2 37.011 37.011 0 0 1-3.09-5 8.188 8.188 0 0 1-1.13-4.49c.05-.82 1.21-1.79 2.29-.24 1 1.39 1.62 3.57 3.89 5.94 1.65 1.71 3.06 2.7 3.1 2.22.04-.48-1-1.41-1.59-3.41-.59-2 0-4.11 1.11-4.34 1.11-.23.89-.17 1.77 1.7.88 1.87 2.25 3.25 3.29 6a12.295 12.295 0 0 0 3 5.12c1.76 1.9 5.69 3.99 12.57 5.72z" fill="#FFCEA9"/><path d="M396.3 294.7c-4.83-.71-8.24 1.46-10.38 8.79-2.14 7.33-3.62 13.33-3.62 13.33a13.102 13.102 0 0 0 8.09 5.37c5.78 1.4 7.86-1.36 7.86-1.36s1.61-7.67 2.61-12.89c1-5.22 1.42-12.36-4.56-13.24z" fill="#EDEDED"/><path d="M393.28 260.79s-7.64-11.6 8.91-14c11.93-1.7 19.6 6 20.48 14.28.85 7.95-4.05 16.2-7.58 19.48-1.72.61-5.44 1-10.31-1.25a58.213 58.213 0 0 1-.23-6.51s5.82-12.21-11.27-12z" fill="#6B6B6B"/><path d="M215.81 220.51c9.71 0 17.58-7.871 17.58-17.58 0-9.709-7.87-17.58-17.58-17.58-9.709 0-17.58 7.871-17.58 17.58 0 9.709 7.871 17.58 17.58 17.58z" fill="#6A9A9A"/><path d="M215.81 211.25c-6.67 0-13.13-1.52-17.72-4.18-3.83-2.21-6-5-6-7.64 0-2.64 2.2-5.43 6-7.64 4.59-2.66 11-4.18 17.72-4.18 6.72 0 13.12 1.53 17.72 4.18 3.83 2.21 6 5 6 7.64 0 2.64-2.19 5.43-6 7.64-4.56 2.66-11.06 4.18-17.72 4.18z" fill="#84B6B6"/><path d="M215.81 208.22c-6.67 0-13.13-1.52-17.72-4.17-3.83-2.21-6-5-6-7.64 0-2.64 2.2-5.43 6-7.65 4.59-2.65 11-4.17 17.72-4.17 6.72 0 13.12 1.52 17.72 4.17 3.83 2.22 6 5 6 7.65 0 2.65-2.19 5.43-6 7.64-4.56 2.65-11.06 4.17-17.72 4.17z" fill="#6A9A9A"/><path d="M215.81 205.49c-8.64 0-17-2-23-5.41-5-2.87-7.81-6.48-7.81-9.91 0-3.43 2.84-7 7.81-9.9 5.95-3.44 14.32-5.41 23-5.41s17 2 23 5.41c5 2.86 7.82 6.47 7.82 9.9 0 3.43-2.85 7-7.82 9.91-5.99 3.44-14.36 5.41-23 5.41z" fill="#84B6B6"/><path d="M215.81 201.57c-8.64 0-17-2-23-5.41-5-2.86-7.81-6.48-7.81-9.9s2.84-7 7.81-9.91c5.95-3.44 14.32-5.41 23-5.41s17 2 23 5.41c5 2.87 7.82 6.48 7.82 9.91 0 3.43-2.85 7-7.82 9.9-5.99 3.44-14.36 5.41-23 5.41z" fill="#6A9A9A"/><path d="M215.81 197.92c-10.54 0-20.74-2.4-28-6.59-6.05-3.5-9.52-7.9-9.52-12.08s3.47-8.58 9.52-12.07c7.26-4.19 17.46-6.6 28-6.6s20.73 2.41 28 6.6c6.05 3.49 9.52 7.89 9.52 12.07 0 4.18-3.47 8.58-9.52 12.08-7.26 4.19-17.47 6.59-28 6.59z" fill="#84B6B6"/><path d="M215.81 193.14c-10.54 0-20.74-2.4-28-6.59-6.05-3.49-9.52-7.9-9.52-12.08s3.47-8.58 9.52-12.07c7.26-4.19 17.46-6.59 28-6.59s20.73 2.4 28 6.59c6.05 3.49 9.52 7.9 9.52 12.08s-3.47 8.58-9.52 12.07c-7.26 4.19-17.47 6.59-28 6.59z" fill="#6A9A9A"/><path d="M215.81 188.21c-12.1 0-23.81-2.75-32.15-7.57-6.95-4-10.93-9.06-10.93-13.86 0-4.8 4-9.85 10.93-13.87 8.33-4.81 20.05-7.56 32.14-7.56s23.82 2.75 32.15 7.57c6.95 4 10.93 9.06 10.93 13.86 0 4.8-4 9.85-10.93 13.86-8.33 4.82-20.05 7.57-32.14 7.57z" fill="#84B6B6"/><path d="M215.81 182.73c-12.1 0-23.81-2.76-32.15-7.57-6.95-4-10.93-9.06-10.93-13.86 0-4.8 4-9.86 10.93-13.87 8.33-4.81 20.05-7.57 32.14-7.57s23.82 2.76 32.15 7.57c6.95 4 10.93 9.07 10.93 13.87 0 4.8-4 9.85-10.93 13.86-8.33 4.84-20.05 7.57-32.14 7.57z" fill="#6A9A9A"/><path d="M215.81 178.65c26.753 0 48.44-12.523 48.44-27.97s-21.687-27.97-48.44-27.97c-26.752 0-48.44 12.523-48.44 27.97s21.688 27.97 48.44 27.97z" fill="#F99422"/><path d="M203.29 81.76H199v66.69h4.29V81.76zm29.37 0h-4.29v66.69h4.29V81.76z" fill="#D8AA44"/><path d="M215.53 86.1l-6.29-5.76-7.72 5.17-2.52-3.74 10.66-7 6.11 5.59 7.32-5.68 9.57 7.09-2.99 3.43-6.59-4.95-7.55 5.85z" fill="#D8AA44"/><path opacity=".69" d="M264.18 152.14c.08-6.28 1.16-24.82 15.91-50.37C297.54 71.54 279.35 0 215.68 0c-63.67 0-81.86 71.54-64.41 101.77 12.75 22.09 15.53 41.69 16.11 50.65" fill="#F99422"/><path opacity=".2" d="M205.13 334.14l-2.78-2.6a6.51 6.51 0 0 0-1.26-1.36 5.449 5.449 0 0 0-.67-.48l-3.6-2.4-3.93-1.74a6.795 6.795 0 0 0-.74-.29 6.828 6.828 0 0 0-1.79-.34l-3.74-1.22c-.21 0-.09.38 0 .54l.36.15c.45.17.07.11.54.44l2.15.55a7.071 7.071 0 0 1 3.9 1l2.85 1.43 2.74 1.65a6.429 6.429 0 0 1 2.74 2.94l1.45 1.17c.45.42.19.24.86.34l.37.32c.27.07.67.08.55-.1z" fill="#000"/><path opacity=".1" d="M197.31 328.64c.222-.342.52-.63.87-.84a2.736 2.736 0 0 1 1.7-.39 5.32 5.32 0 0 1 2 .62h.07l1 .54c.26.14.5.3.74.46l.46.34c.69.55.49 1.63-.12 2.49-.338.48-.727.923-1.16 1.32a2.999 2.999 0 0 1-2.82.61 6.74 6.74 0 0 1-1.29-.56 7.3 7.3 0 0 1-1.07-.76 2.75 2.75 0 0 1-.66-3.07c.065-.263.159-.518.28-.76zm-8.25-5c.54-.83 1.46-1.46 2.24-1.2l.5.19c.253.099.5.212.74.34l.91.47h.06a4.257 4.257 0 0 1 1.45 1.25 2.005 2.005 0 0 1 .37 1.49c-.06.387-.21.753-.44 1.07-.187.226-.398.43-.63.61a3.349 3.349 0 0 1-3.23.83 6.365 6.365 0 0 1-1.16-.5 6.476 6.476 0 0 1-1-.76 2.155 2.155 0 0 1-.53-2.39c.187-.489.429-.955.72-1.39v-.01z" fill="#000"/><path d="M188 324.86l2.14-.2a6.87 6.87 0 0 1 3.92.78l11.81 5.93.69-1-13.22-5.83a6.77 6.77 0 0 0-2.53-.63l-4.2-.24a.236.236 0 0 0-.136.017.23.23 0 0 0-.084.353l.11.15a1.697 1.697 0 0 0 1.5.67z" fill="#2B303F"/><path d="M203.28 333.42l-.89-2a6.475 6.475 0 0 0-2.73-2.95l-10.79-6.46.61-.93 11.41 7.59a6.663 6.663 0 0 1 1.92 1.85l2.45 3.58c.12.18-.06.41-.3.37h-.21a1.881 1.881 0 0 1-1.47-1.05z" fill="#2B303F"/><path opacity=".3" d="M200.08 327a5.306 5.306 0 0 1 2 .61h.06l1 .53c.26.15.5.3.74.46.24.16.31.23.46.35.68.54.48 1.63-.12 2.48a7.308 7.308 0 0 1-1.17 1.32 2.936 2.936 0 0 1-2.81.62 7.496 7.496 0 0 1-1.29-.57 6.086 6.086 0 0 1-1.07-.76 2.719 2.719 0 0 1-.66-3.06 3.35 3.35 0 0 1 .33-.8 2.79 2.79 0 0 1 .87-.84 2.695 2.695 0 0 1 1.66-.34z" fill="url(#b)"/><path d="M189.16 320.87l-.52.82a.258.258 0 0 0 0 .35.544.544 0 0 1 .12.65l-.86 1.8a2.63 2.63 0 0 0 .58 3.1A6.683 6.683 0 0 0 191 329a4.005 4.005 0 0 0 4-1l.8-.81a.997.997 0 0 0 .3-.65.708.708 0 0 1 .365-.519.7.7 0 0 1 .635-.011l.2.1.2.12a.598.598 0 0 1 .243.519.584.584 0 0 1-.313.481 1.156 1.156 0 0 0-.51.54l-.45 1a3.229 3.229 0 0 0 .85 3.77 7.345 7.345 0 0 0 2.63 1.49 3.509 3.509 0 0 0 3.59-.89l1.5-1.58a.787.787 0 0 1 .78-.2.37.37 0 0 0 .41-.12l.61-.84a.423.423 0 0 0 0-.54 12.607 12.607 0 0 0-3.26-2.34l-1-.54a6.35 6.35 0 0 0-2.39-.74l-.74-.08a.63.63 0 0 1-.45-.16.84.84 0 0 0-.28-.25l-.82-.44-.82-.45a.933.933 0 0 0-.38-.1.635.635 0 0 1-.49-.25l-.4-.54a4.992 4.992 0 0 0-1.75-1.47l-.91-.48a10.996 10.996 0 0 0-3.48-1.33.523.523 0 0 0-.51.18zm8.35 7.37a2.79 2.79 0 0 1 .87-.84 2.691 2.691 0 0 1 1.7-.38c.701.068 1.38.276 2 .61h.06l1 .53c.26.15.5.3.74.46.24.16.31.23.46.35.68.54.48 1.63-.12 2.48a7.347 7.347 0 0 1-1.17 1.32 2.94 2.94 0 0 1-2.81.62 7.496 7.496 0 0 1-1.29-.57 6.086 6.086 0 0 1-1.07-.76 2.718 2.718 0 0 1-.66-3.06c.065-.264.162-.52.29-.76zm-8.26-5c.55-.82 1.46-1.45 2.25-1.19.17.051.337.111.5.18.25.1.5.22.74.34l.91.48h.06a4.493 4.493 0 0 1 1.45 1.25 1.99 1.99 0 0 1 .36 1.5 2.356 2.356 0 0 1-.44 1.06 3.696 3.696 0 0 1-.63.62 3.36 3.36 0 0 1-3.23.83c-.4-.129-.786-.3-1.15-.51a5.63 5.63 0 0 1-1-.75 2.177 2.177 0 0 1-.53-2.4c.189-.489.427-.959.71-1.4v-.01z" fill="#2B303F"/><path d="M194.37 327.64a3.326 3.326 0 0 1-3.23.83A5.962 5.962 0 0 1 190 328a5.227 5.227 0 0 1-1-.75 2.155 2.155 0 0 1-.53-2.39c.197-.506.448-.989.75-1.44-.276.421-.508.87-.69 1.34a2.18 2.18 0 0 0 .53 2.4c.304.286.64.538 1 .75.364.21.75.381 1.15.51a3.352 3.352 0 0 0 3.23-.83c.232-.18.443-.384.63-.61l-.07.02a3.567 3.567 0 0 1-.63.64zm8.55 5.3a2.939 2.939 0 0 1-2.81.61 6.74 6.74 0 0 1-1.29-.56 7.354 7.354 0 0 1-1.07-.76 2.75 2.75 0 0 1-.66-3.07c.079-.275.19-.54.33-.79l.08-.11a3.537 3.537 0 0 0-.32.78 2.717 2.717 0 0 0 .66 3.06c.328.291.687.546 1.07.76.411.23.843.421 1.29.57a2.936 2.936 0 0 0 2.81-.62 7.498 7.498 0 0 0 1.09-1.21 7.343 7.343 0 0 1-1.18 1.34z" fill="#1F232D"/><path opacity=".3" d="M195.16 324.34a4.493 4.493 0 0 0-1.45-1.25h-.06l-.91-.48c-.24-.12-.49-.24-.74-.34a4.88 4.88 0 0 0-.5-.18c-.79-.26-1.7.37-2.25 1.19-.3.452-.551.935-.75 1.44a2.18 2.18 0 0 0 .53 2.4c.304.286.64.538 1 .75.364.21.75.381 1.15.51a3.352 3.352 0 0 0 3.23-.83c.234-.181.446-.389.63-.62.232-.312.383-.676.44-1.06a2.004 2.004 0 0 0-.32-1.53z" fill="url(#c)"/></g><defs><linearGradient id="b" x1="200.86" y1="327" x2="200.86" y2="333.56" gradientUnits="userSpaceOnUse"><stop offset=".01" stop-color="#fff"/><stop offset=".88" stop-color="#fff" stop-opacity="0"/></linearGradient><linearGradient id="c" x1="1565.54" y1="2405.08" x2="1565.54" y2="2447.07" gradientUnits="userSpaceOnUse"><stop offset=".01" stop-color="#fff"/><stop offset=".88" stop-color="#fff" stop-opacity="0"/></linearGradient><clipPath id="a"><path fill="#fff" d="M0 0h449.09v500H0z"/></clipPath></defs></svg>