<svg width="1440" height="660" viewBox="0 0 1440 660" fill="none" xmlns="http://www.w3.org/2000/svg"><g opacity=".03" clip-rule="evenodd" stroke="#6B6B6B" stroke-width="5"><path d="M475.935 467.715c-20.903.079-44.409 31.768-56.528 45.304-23.97 26.765-46.105 54.602-68.593 82.181-22.489 27.578-44.916 55.232-69.605 81.53-16.027 17.075-34.077 37.139-56.962 48.719-48.768 24.67-41.526-53.112-42.593-73.26-2.725-51.256-1.481-110.047-26.877-158.092-15.161-28.68-40.588-40.117-77.646-33.957-12.052 1.986-25.92 7.863-37.661 2.884-12.54-5.316-19.776-17.547-24.628-27.698-17.679-37.025-19.727-79.594-21.946-118.768-2.438-42.242-1.725-84.881-1.914-126.825-.08-17.785-7.925-36.36-14.302-53.296-8.357-22.203-17.745-44.143-26.822-66.163-19.922-48.441-40.905-98.357-45.964-149.608-3.17-32.096 1.115-67.175 28.688-92.108 13.844-12.519 34.424-19.071 52.706-26.308 22.086-8.761 44.385-17.175 66.124-26.502 70.013-30.046 138.429-72.943 141.867-142.57.519-10.533-1.17-20.877-1.487-31.361-.195-6.676 1.786-12.618 10.363-15.1 21.513-6.239 55.474 13.373 72.543 21.414 37.363 17.607 73.049 37.462 109.662 56.061 24.214 12.305 57.303 33.605 86.723 33.828 26.213.199 45.159-28.194 58.071-43.651 12.088-14.485 29.005-40.728 53.596-42.317 11.924-.769 21.806 5.634 29.475 12.32 13.411 11.72 22.872 25.221 38.173 35.765 25.104 17.288 59.644 31.733 93.471 29.385 23.439-1.628 38.789-12.519 53.463-26.372 6.169-5.823 10.534-10.548 20.549-10.856 15.905-.497 32.736 4.576 47.483 8.756 52.773 14.951 103.803 36.186 151.446 59.809 23.82 11.803 47.55 24.555 67.87 40.206 13.33 10.25 29.21 24.075 29.19 39.71 0 18.103-8.02 37.259-14.02 54.855-11.21 32.866-24.17 65.334-37.47 97.673-30.76 74.787-64.011 148.872-99.754 222.253-25.219 51.688-50.475 104.473-84.003 153.069-6.585 9.477-14.262 18.422-22.928 26.715-9.101 8.86-13.173 19.855-16.209 31.003-18.843 69.196-4.377 145.003 4.694 214.486 2.298 17.636 4.608 35.272 6.218 52.958 1.384 15.204 5.352 33.406-.61 48.184-11.735 29.117-54.986 3.663-72.61-7.099-62.052-37.888-114.551-86.771-168.147-132.081-25.525-21.543-50.982-43.249-77.951-63.621-14.021-10.607-36.82-31.525-55.145-31.455z"/><path d="M472.412 454.658c-22.119 11.613-38.468 31.989-53.854 48.902-22.149 24.339-43.067 49.443-64.589 74.17-20.352 23.38-40.935 46.811-64.048 68.463-14.093 13.202-30.948 29.768-51.793 36.022-45.182 13.565-38.327-59.413-39.509-77.429-2.925-44.789-3.596-95.568-27.384-137.005-14.856-25.874-39.491-36.504-73.693-30.985-11.834 1.907-21.936 5.345-33.709.993-13.624-5.031-22.118-16.605-28.114-27.215-18.786-33.235-22.777-72.521-26.098-108.548-3.43-37.219-5.85-75.998-3.34-112.02 1-14.405-4.673-30.985-9.024-45.241-6.702-21.935-14.435-43.647-21.625-65.472C-38.992 34.936-53.08-10.574-54.682-56.72c-1.158-33.315 5.118-68.05 29.376-95.767 24.598-28.09 62.73-40.552 98.98-56.13 62.67-26.902 138.868-63.237 152.109-125.476 2.011-9.437.92-18.507 1.413-27.935.25-4.848 1.042-10.367 6.91-12.825 15.234-6.383 43.086 11.106 54.755 16.992 32.246 16.263 62.914 34.547 94.539 51.59 25.11 13.535 53.012 30.692 82.778 35.927 36.121 6.353 61.823-35.158 87.257-49.756 44.104-25.308 69.233 22.64 90.261 46.279 24.142 27.146 68.185 49.553 105.537 25.219 14.283-9.309 22.795-20.763 41.435-24.921 29.15-6.502 62.463-1.584 91.278 3.691 43.318 7.947 86.167 20.524 125.314 37.621 28.03 12.249 71.98 32.57 68.69 62.329-2.2 20.032-10.24 40.398-17.34 59.904-10.64 29.207-22.76 58.046-35.35 86.732-28.976 66.218-60.93 131.705-96.076 195.906-23.99 43.805-122.026 165.998-125.524 175.192-10.419 27.414-8.585 58.583-6.971 86.847 2.145 37.596 7.703 75.004 12.851 112.382 2.438 17.793 5.417 35.675 6.618 53.562.853 12.73 1.584 29.45-7.501 40.601-17.726 21.767-58.283-2.483-75.442-12.512-52.604-30.722-98.158-69.585-144.736-106.025-22.868-17.881-45.7-36.037-70.402-52.269-9.975-6.547-30.004-22.959-43.665-15.781z"/><path d="M461.068 438.591c-44.263 31.716-77.182 75.49-114.149 113.27-18.559 18.962-37.625 38.043-59.732 54.398-11.495 8.508-26.032 19.131-42.056 20.77-42.866 4.38-37.07-61.396-38.697-81.083-3.157-38.063-5.553-81.062-27.428-115.594-13.372-21.097-35.321-31.487-64.169-27.544-12.799 1.748-23.673 4.47-36.241 0-12.733-4.529-21.717-13.966-28.452-23.521-19.37-27.46-25.563-61.584-30.176-92.5A609.456 609.456 0 0 1 13.69 177.46c1.03-31.984-10.557-63.814-18.194-95.043-10.112-41.37-18.944-83.491-17.609-125.825 1.06-33.434 9.393-67.132 31.536-95.714 22.552-29.044 56.306-46.506 92.73-62.249 55.063-23.8 128.85-53.459 149.762-105.672 3.048-7.593 3.383-14.67 3.913-22.503.256-3.804.336-8.716 5.205-10.603 11.727-4.539 34.462 12.242 42.386 16.926 25.294 14.949 49.449 31.154 74.408 46.476 23.302 14.303 47.584 29.883 74.89 38.768 43.489 14.139 68.917-31.065 110.358-29.799 25.727.79 44.177 20.859 56.94 36.752 15.695 19.568 26.014 47.743 54.654 57.536 21.333 7.296 33.749-4.152 49.937-12.967 27.428-14.939 64.608-15.957 96.357-14.403 42.903 2.096 86.44 10.286 125.875 24.227 17.877 6.317 36.473 14.055 50.358 25.448 13.014 10.673 16.344 20.774 13.684 35.038-8.17 43.665-30.933 87.752-51.266 129.625-25.551 52.61-53.759 104.494-85.496 154.829-21.643 34.323-44.543 69.421-74.445 99.548-7.796 7.852-16.268 15.892-26.55 21.633-7.729 4.341-14.11 6.184-18.523 13.499-13.074 21.684-9.655 51.845-8.295 75.078 2.163 37.149 7.923 74.12 13.11 111.04 3.048 21.545 12.635 62.131-10.362 79.334-19.857 14.85-53.715-3.069-71.208-12.222-44.238-23.154-83.064-52.938-123.041-80.571-18.322-12.664-36.784-25.825-57.154-36.285-5.193-2.672-12.074-6.953-18.383-7.688-7.228-.824-12.744 3.025-18.199 6.918z"/><path d="M471.372 435.865c-39.136 29.306-71.288 64.613-107.911 96.076-16.421 14.106-33.646 28.352-53.678 39.101-10.772 5.782-24.332 11.922-37.721 10.327-38.429-4.575-34.958-58.672-37.209-80.528-3.306-32.476-6.636-69.784-27.357-98.5-13.572-18.81-33.616-25.864-59.467-22.352-27.729 3.77-47.858-4.659-63.327-23.843-19.38-24.051-27.278-54.41-32.89-82.336-6.729-33.645-9.712-67.716-8.912-101.798.78-33.146-6.039-65.259-10.473-98.186-5.874-43.657-8.772-88.715 3.27-131.88 10.485-37.581 33.59-71.527 69.323-96.974 37.294-26.58 84.28-39.738 125.539-61.32 25.735-13.461 59.778-32.232 69.781-57.386 3.337-8.39-1.165-23.679 15.25-16.978 9.387 3.83 17.622 10.997 25.296 16.66 12.4 9.149 24.46 18.602 36.69 27.906 26.07 19.829 52.695 41.063 83.566 55.925 38.868 18.727 68.781-9.11 108.192-5.717 21.209 1.823 38.136 13.834 51.433 26.54 8.613 8.22 16.073 17.216 23.033 26.4 7.271 9.592 12.809 20.942 22.209 29.307 13.377 11.921 29.212 6.745 46.505 4.51a458.348 458.348 0 0 1 91.911-2.573c37.568 2.722 76.21 9.105 110.351 22.551 13.291 5.23 27.381 11.857 36.293 21.697 8.912 9.84 8.302 20.018 5.618 31.293-7.93 33.444-26.381 66.819-43.869 98.544-21.892 39.708-46.359 78.636-74.192 115.811-19.214 25.66-39.972 51.405-66.024 72.874-7.582 6.243-15.7 12.184-24.765 16.987-6.215 3.299-14.237 5.067-18.909 9.845-14.584 14.952-10.229 44.968-9.381 62.503 1.689 34.994 9.723 69.436 11.675 104.385 1.067 19.074 3.751 48.947-16.189 62.955-18.745 13.173-48.268 1.241-66.329-6.632-35.513-15.472-67.152-36.26-100.164-54.892-13.584-7.66-27.797-16.054-43.309-21.016-13.822-4.411-23.825 3.204-33.859 10.714z"/><path d="M472.012 428.656c-34.439 23.327-65.01 51.449-100.009 74.945-20.496 13.753-54.953 37.437-83.849 26.801-31.752-11.668-32.617-52.342-35.175-75.853-3.046-27.982-7.206-60.843-27.032-84.791-6.268-7.574-14.564-14.026-25.491-16.761-11.695-2.928-21.928.273-33.635.69-24.559.874-44.275-11.068-57.816-26.87-19.144-22.335-28.195-50.263-34.505-76.642-7.118-29.886-10.627-60.269-10.477-90.712.122-29.095-.67-57.881-1.583-87.005C61.22 34.37 63.189-4.253 75.608-41.2c12.243-36.396 35.188-69.485 68.938-95.478 32.935-25.356 73.19-42.465 114.195-57.449 23.274-8.501 58.053-22.865 69.809-43.145 5.232-9.018 4.873-17.867 18.48-8.278 17.134 12.075 30.882 28.35 45.537 42.336 21.148 20.175 42.71 40.857 67.854 57.791 16.055 10.815 31.636 15.634 52.425 14.89 15.837-.576 31.509-3.186 47.406-1.866 37.314 3.092 62.902 27.029 86.73 48.192 15.325 13.614 27.014 26.047 48.814 33.055 25.765 8.289 53.796 11.768 80.547 17.307 29.377 6.085 59.936 13.113 85.811 26.394 23.036 11.823 33.366 26.2 27.16 47.721-9.673 33.567-33.501 66.651-55.544 96.45-22.428 30.33-47.644 60.139-78.471 85.273-16.647 13.569-36.193 22.831-54.076 34.881-22.452 15.158-13.949 49.449-12.048 69.827 3.155 33.83 26.764 140.275-49.703 130.453-31.917-4.099-61.373-20.245-89.538-32.052-11.688-4.894-25.716-11.976-39.11-13.083-14.588-1.206-28.445 9.623-38.812 16.636z"/><path d="M474.936 416.34c-31.208 17.827-60.692 39.16-94.399 54.456-21.829 9.923-50.996 19.667-74.093 6.866-26.065-14.447-32.141-46.304-35.462-69.711-3.419-24.117-6.296-52.908-26.059-72.619-6.295-6.271-14.785-11.441-24.95-12.403-9.75-.928-19.501 1.692-29.429.823-22.292-1.944-40.66-12.954-53.982-27.148-39.411-41.988-48.175-104.48-49.205-155.141-.511-25.357 2.176-51.453 4.102-76.974 2.499-33.117 7.861-66.284 20.787-97.868 27.473-67.151 88.403-112.16 164.22-143.595 23.865-9.893 49.686-17.464 68.865-32.968 9.903-7.993 17.015-6.246 26.046 1.925 14.115 12.775 24.901 28.359 36.681 42.538 16.753 20.168 33.756 40.768 53.824 58.603 13.834 12.295 27.162 21.022 47.907 23.671 14.79 1.89 29.861 1.449 44.743 2.585 28.271 2.163 56.329 9.57 79.779 22.683 18.588 10.419 35.481 22.822 51.588 35.642 20.97 16.665 42.275 30.76 67.164 43.417 32.945 16.779 93.716 40.355 77.634 79.877-17.746 43.59-62.837 84.447-106.527 112.414-14.668 9.391-32.658 17.101-43.476 29.767-16.167 18.963-15.601 38.203-15.534 60.757.092 33.767 9.093 107.244-53.019 108.038-24.609.312-47.876-8.36-71.546-12.513-26.51-4.683-44.39 4.703-65.659 16.878z"/><path d="M477.719 403.064c-40.675 17.632-107.512 57.171-152.742 27.098-23.903-15.885-32.886-43.981-38.239-67.551-4.33-18.967-5.956-41.842-24.311-56.173-13.495-10.534-33.135-5.858-50.028-9.893-20.944-5.009-38.081-16.506-50.961-30.634-35.998-39.479-47.045-94.371-49.395-141.863-2.436-49.323 8.958-103.67 30.876-150.083 27.337-57.871 79.102-101.227 144.654-131.548 12.1-5.594 24.518-10.678 36.765-16.049 8.215-3.609 16.162-8.96 24.804-11.804 14.409-4.736 26.187.844 35.577 9.789 13.52 12.867 23.142 28.672 33.288 43.341 13.885 20.06 27.52 40.567 43.811 59.226 10.962 12.54 22.77 25.665 41.789 30.152 12.972 3.063 26.71 3.698 40.145 3.59 28.805-.24 52.099.992 78.481 11.943 43.311 18.02 82.257 45.729 114.661 75.002 25.432 22.973 64.937 59.325 47.934 92.798-15.225 30.033-51.667 47.6-81.13 67.387-14.324 9.62-27.405 20.427-37.593 33.125-12.844 16.009-18.234 31.08-20.335 50.048-3.538 31.924-4.457 80.06-51.472 89.929-17.35 3.644-35.321 1.564-52.897 3.475-23.239 2.497-43.165 9.799-63.682 18.695z"/><path d="M479.225 384.729c-44.506 12.556-100.596 29.051-140.151-1.275-19.162-14.689-29.874-35.351-37.879-55.348-5.737-14.322-7.426-37.062-25.064-45.843-12.979-6.449-30.886-7.342-44.792-13.176-19.119-8.017-34.867-20.161-47.195-34.408-32.123-37.117-44.536-85.461-48.091-129.547-7.712-95.794 53.712-193.264 154.771-244.525 30.124-15.284 62.187-35.013 92.963-10.313 33.575 26.967 49.304 67.591 73.161 99.777 9.108 12.298 20.058 27.969 36.549 34.83 9.914 4.127 22.351 4.41 33.264 4.598 27.795.497 52.791 2.377 78.727 11.48 40.079 14.059 77.056 36.477 107.344 61.881 26.411 22.155 57.45 53.751 38.41 85.927-14.632 24.67-45.689 40.316-68.582 59.485-25.497 21.332-42.677 47.713-51.072 76.685-8.146 28.182-13.639 59.093-48.244 73.946-11.87 5.095-27.24 10.418-40.378 12.327-21.662 3.084-42.98 7.598-63.741 13.499z"/><path d="M479.539 364.285c-44.942 5.809-91.804 6.454-127.224-20.534-16.525-12.595-28.265-28.517-38.901-44.617-7.827-11.846-14.428-24.079-27.259-32.926-11.88-8.197-25.674-14.428-37.865-22.341-16.155-10.439-30.14-22.93-41.418-36.992-28.216-35.25-41.412-78.13-45.99-119.153-2.225-19.859-3.383-41.4 2.682-61.125 5.852-19.05 15.105-37.886 25.893-55.401 22.913-37.236 56.468-69.506 98.893-92.9 29.099-16.041 57.394-24.714 86.914-3.942 33.275 23.419 51.634 60.138 73.231 90.403 14.811 20.757 29.331 44.021 60.807 47.899 25.047 3.088 48.819 5.595 72.493 13.583 34.921 11.889 66.554 29.37 93.023 51.405 24.113 20.151 44.575 45.645 31.696 74.47-10.222 22.838-33.123 40.557-49.495 60.51-18.286 22.237-28.368 46.668-36.475 72.395-7.315 23.121-18.555 44.891-42.418 59.834-4.876 3.059-10.186 6.271-15.641 8.629-6.961 3.009-13.861 2.775-21.663 3.366-20.59 1.539-40.943 4.811-61.283 7.437z"/><path d="M475.865 341.744c-42.688-.496-83.031-8.858-116.298-31.759-14.232-9.791-25.954-21.482-38.995-32.255-10.513-8.675-20.281-16.872-28.944-26.847-20.514-23.661-47.06-42.89-65.326-68.034-24.421-33.566-37.92-72.014-43.317-110.165-2.638-18.629-3.559-37.873-.58-56.72 2.558-16.187 11.539-31.69 20.727-46.07 17.998-28.187 43.579-55.555 75.943-73.856 71.352-40.349 123.228 39.203 153.608 80.033 13.975 18.778 30.16 47.47 57.841 55.162 19.775 5.498 39.885 8.848 59.049 15.93 51.468 19.02 112.001 57.633 103.942 109.087-3.443 22.019-17.43 42.086-26.82 62.641-9.671 21.164-15.062 43.009-20.978 65.007-5.525 20.559-13.389 36.945-34.47 50.224-10.067 6.347-22.119 5.786-34.47 6.352-20.288.923-40.691 1.494-60.912 1.27z"/><path d="M470.397 321.219c-64.433-8.266-134.776-38.968-172.196-84.111-44.017-53.102-81.083-110.63-91.739-174.075-4.941-29.415-7.372-61.637 8.785-89.393 12.289-21.123 30.657-45.66 56.489-57.284 63.184-28.442 113.483 34.82 142.715 70.862 15.736 19.404 31.071 44.105 54.052 58.73 13.324 8.485 30.949 12.817 45.583 19.668 44.347 20.76 80.115 54.935 86.512 97.505 2.955 19.683-.7 39.509-3.607 59.043-2.973 19.996-4.587 40.24-8.736 60.112-3.314 15.862-8.925 34.556-29.768 40.399-26.264 7.367-61.777 1.917-88.09-1.456z"/><path d="M460.047 301.092c-60.578-12.056-119.669-37.586-155.833-80.504-19.176-22.759-32.414-49.18-45.493-74.545-14.823-28.753-26.329-58.794-32.036-89.477-7.11-38.203-13.518-100.075 39.926-120.035 53.048-19.81 99.998 30.25 126.754 59.854 17.14 18.98 32.871 39.292 51.609 57.426 10.158 9.833 21.896 17.408 33.81 25.729 33.012 22.998 59.146 55.784 73.097 89.202 13.524 32.389 19.511 72.457 15.042 106.646-1.921 14.752-8.402 25.296-26.829 29.757-25.615 6.183-55.023.931-80.047-4.053z"/><path d="M443.731 281.092c-53.337-11.977-102.053-37.81-134.065-75.491-35.886-42.239-55.826-96.628-65.967-146.619-5.386-26.572-19.989-84.155 21.805-97.699 41.794-13.544 82.981 25.61 105.654 48.145 27.476 27.351 54.005 56.84 78.657 86.293 21.434 25.591 43.348 52.897 59.901 80.615 9.39 15.632 17.057 31.917 22.91 48.661 4.299 12.398 10.711 28.164 7.511 41.163-8.082 32.786-70.903 20.66-96.406 14.932z"/><path d="M427.759 256.405C326.893 230.126 277.285 146.868 259.994 66.703c-4.014-18.628-18.485-70.848 12.327-81.26 29.874-10.09 65.303 22 82.089 37.023 52.014 46.553 90.579 104.068 128.786 158.569 11.925 17.012 37.804 47.693 25.866 68.795-12.985 22.912-60.388 12.019-81.303 6.575z"/><path d="M408.345 229.487c-74.281-22.853-116.883-89.324-130.928-150.436-3.436-14.969-14.136-52.984 6.593-64.322 19.175-10.491 46.959 14.546 58 23.913 24.585 20.854 44.839 45.567 64.306 69.983 18.011 22.574 36.473 45.393 51.706 69.146 8.018 12.511 25.128 35.976 12.746 50.194-13.319 15.307-45.929 6.596-62.423 1.522z"/><path d="M386.643 199.825c-48.508-17.418-80.008-64.069-90.475-105.22-2.811-11.074-10.102-35.007 2.853-44.348 11.93-8.6 29.421 5.26 37.498 11.412 35.804 27.262 67.785 67.184 87.427 103.762 4.938 9.197 14.631 25.73 4.664 35.19-10.236 9.705-30.829 3.205-41.967-.796z"/><path d="M366.271 168.362c-24.088-9.815-42.261-35.468-48.046-56.718-4.068-14.955-.554-32.93 20.414-19.897 20.807 12.947 39.811 36.971 48.236 57.332 6.424 15.535.086 27.711-20.604 19.283zm166.827 795.925c-47.588.63-97.045 21.225-145.534 11.054-39.824-8.352-43.149-50.4-61.191-75.625-14.335-20.045-39.727-31.421-64.09-42.261-21.873-9.74-44.403-18.489-65.917-28.749-13.908-6.642-41.218-18.048-41.711-32.452-.475-13.79 20.807-26.434 33.387-34.444 16.399-10.444 33.881-19.703 50.541-29.845 28.102-17.091 48.903-37.597 68.59-61.077a2071.837 2071.837 0 0 0 64.906-81.483c15.412-20.323 30.708-40.784 47.642-60.319 10.626-12.253 30.563-39.297 50.152-39.421 9.347-.059 19.699 7.153 27.17 12.015 12.648 8.229 24.211 17.607 35.525 27.015 21.075 17.522 41.194 35.787 61.557 53.855 26.427 23.45 52.422 45.849 82.424 66.464 31.056 21.314 63.134 41.677 94.774 62.455 21.434 14.072 45.505 28.13 58.658 48.427 16.441 25.424-.895 46.291-1.096 72.002-.176 22.117-63.115 20.486-80.616 23.297-17.714 2.82-34.203 9.036-51.96 11.445-22.165 3.003-44.841 3.043-67.244 3.782-27.402.897-53.488 1.254-63.937 25.101-5.938 13.571-7.186 28.253-10.742 42.3-2.308 9.101-6.254 26.266-21.288 26.464z"/><path d="M524.633 953.414c-39.891 2.319-90.947 16.015-132.125 3.063-35.188-11.065-39.75-45.671-58.234-68.973-15.246-19.236-40.195-27.8-64.705-37.415-19.662-7.715-39.512-15.196-58.546-23.953-14.026-6.453-37.707-16.307-40.61-29.726-2.61-12.063 18.296-25 28.931-31.771 15.527-9.879 32.39-18.328 48.898-27.055 28.999-15.335 55.076-31.037 76.378-53.48 21.393-22.543 37.39-47.205 54.039-72.13 13.026-19.5 26.431-38.9 41.47-57.427 11.196-13.8 25.528-33.643 45.494-39.957 15.796-4.999 42.007 20.353 51.258 27.829 19.022 15.39 36.878 31.697 54.625 48.035 21.625 19.916 40.536 40.468 65.205 58.056 44.104 31.459 99.027 57.754 131.807 98.233 19.771 24.414 24.827 51.583 21.869 78.738-1.171 10.752-19.814 13.334-30.688 14.689-18.063 2.254-36.438 2.537-54.575 4.269-16.978 1.624-33.109 5.228-49.758 8.132-16.868 2.938-34.151 3.763-51.136 5.927-10.544 1.34-22.814 2.666-31.291 8.529-8.776 6.066-12.453 16.074-15.246 24.821-5.196 16.426-4.91 59.928-33.06 61.566z"/><path d="M507.934 939.42c-36.616 3.899-82.222 9.357-115.958-6.526-27.584-12.983-33.534-40.673-51.508-60.45-14.946-16.45-38.717-22.663-60.807-30.829-18.12-6.7-36.318-13.435-53.561-21.555-13.076-6.159-30.806-14.096-35.367-26.324-3.898-10.455 13.563-22.266 22.254-28.062 14.813-9.869 31.409-17.915 47.787-25.906 26.798-13.073 55.424-25.102 77.222-43.707 21.152-18.079 33.638-39.555 47.676-61.434 10.756-16.757 21.926-33.411 34.753-49.2 9.842-12.124 21.506-27.148 37.883-33.466 14.124-5.463 30.843 8.563 40.807 15.571 16.444 11.572 31.53 24.416 46.678 37.081 16.341 13.669 31.415 28.807 48.158 42.034 35.233 27.813 74.243 50.035 101.236 84.315 17.486 22.201 33.371 52.076 30.514 78.32-2.059 18.874-53.353 17.632-69.743 19.445-26.798 2.98-54.955 8.736-79.64 17.88-21.152 7.852-27.675 26.512-32.42 43.677-2.978 10.753-4.586 22.023-9.19 32.423-5.335 12.039-11.426 15.079-26.774 16.713z"/><path d="M490.77 926.366c-30.957 2.322-67.564 1.8-94.343-13.237-23.457-13.178-29.632-36.641-48.11-53.328-14.416-13.024-37.921-18.139-56.985-25.143-23.31-8.56-66.361-20.555-75.133-42.149-8.155-20.087 43.937-41.095 59.471-48.367 24.586-11.513 51.549-21.141 74.254-35.105 19.546-12.024 30.352-28.135 41.964-45.235 14.831-21.803 32.417-54.904 61.322-66.561 21.538-8.689 53.558 19.566 68.481 29.214 15.589 10.091 34.066 17.692 49.105 28.106 23.731 16.434 42.838 43.063 57.419 65.049 14.184 21.375 29.882 49.133 28.948 73.381-.611 15.937-30.835 18.969-45.599 22.37-20.989 4.871-39.796 11.348-54.072 25.262-14.532 14.162-21.379 30.854-27.371 48.402-3.055 9.007-5.437 19.282-11.606 27.34-6.713 8.903-15.845 9.107-27.745 10.001z"/><path d="M472.927 910.462c-26.745-.129-55.265-5.109-75.895-19.874-17.183-12.298-22.927-31.547-40.494-43.32-13.907-9.325-33.431-14.072-49.581-20.315-19.791-7.635-54.365-18.432-61.233-37.418-6.686-18.531 31.395-34.922 46.463-42.027 22.095-10.405 45.515-18.829 67.549-29.328 17.286-8.225 28.428-18.283 39.57-31.676 13.086-15.722 27.583-37.657 49.234-46.055 15.677-6.055 40.725 8.602 54.535 13.923 9.276 3.568 18.698 6.833 28.751 8.626 7.829 1.398 15.074 1.536 21.797 5.584 16.91 10.193 19.117 32.539 24.69 47.7 7.398 20.137 15.804 41.502 17.409 62.575 1.003 12.952-13.652 19.561-23.961 26.954-12.187 8.735-20.952 21.103-30.149 31.904-12.156 14.255-19.718 29.769-27.462 45.817-3.495 7.239-6.923 15.742-13.871 21.351-7.202 5.856-17.7 5.623-27.352 5.579zm807.113-948.23c30.11 40.427 54.97 86.129 80.24 129.225 36.92 62.98 72.85 126.889 100.35 193.064 14.74 35.48 35.99 81.455 24.44 119.525-4.22 13.919-16.99 26.612-25.28 39.092-11.44 17.209-22.32 34.671-33.21 52.103-21.85 34.969-43.47 70.047-66.72 104.415-11.19 16.549-25.29 32.606-34.84 49.835-5.59 10.068-2.98 22.117-2.62 32.875.82 24.92 2.38 49.825 3.71 74.73 1.62 30.463 3.34 60.996 2.7 91.493-.29 13.756 2.7 47.444-11.84 55.016-7.84 4.074-21.96-5.528-28.5-9.979-12.01-8.173-22.83-17.566-33.55-26.835-24.78-21.437-48.38-44.204-76.06-63.258-14.23-9.791-31.61-22.618-51.04-16.227-19.62 6.451-36.61 17.626-56.16 24.444-22.5 7.85-45.92 11.105-69.78 14.812-17.63 2.744-33.255 9.136-49.513 15.145-17.969 6.639-36.091 13.517-55.042 18.127-12.517 3.047-35.037 7.964-42.962-2.695-11.269-15.144-2.144-43.543 1.175-60.807 4.581-23.858 10.417-47.542 15.442-71.336 3.655-17.274 7.663-34.607 8.089-52.168.689-28.309-1.693-56.713-3.91-84.948-4.106-52.281-9.673-104.188-9.673-156.646 0-45.959 65.281-152.166 76.776-177.027 22.946-49.622 44.698-100.564 75.228-147.521 8.27-12.703 19.28-32.254 36.29-38.938 10.49-4.124 16.55-2.228 23.3-11.954 9.22-13.269 12.84-30.27 16.96-44.958 6.64-23.654 12.26-47.493 18.28-71.257 12.12-48.064 25.84-95.8 39.04-143.665 3.99-14.47 4.87-31.977 11.9-45.772 4.52-8.892 10.2-7.969 17.06-1.086 12.04 12.073 18.72 28.994 25.58 43.255 10.06 20.896 19.03 42.134 27.88 63.382 8.84 21.248 17.41 42.606 26.28 63.864 5.83 14.043 10.58 30.056 19.98 42.675z"/><path d="M1273.41-4.5c30.18 42.763 54.22 90.231 77.67 135.993 30.04 58.566 58.19 118.458 76.97 180.166 11.02 36.232 23.18 78.981 10.55 116.002-4.51 13.207-14.64 23.074-23.59 34.395-10.2 12.904-19.55 26.305-28.76 39.706a2372.732 2372.732 0 0 0-54.9 83.631c-9.39 14.92-21.96 31.343-25.22 48.198-2.59 13.401 1.16 28.624 2.25 42.084 1.97 24.241 3.99 48.476 5.71 72.727 1.99 27.982 3.82 56.045 3.5 84.087-.18 15.63 2.74 42.461-9.66 53.514-10.82 9.644-49.96-25.466-57.39-31.641-23.22-19.282-45.33-39.562-70.16-57.509-14.64-10.607-32.44-23.521-51.85-27.993-16.53-3.807-35.38 3.539-50.66 7.877-19.15 5.425-39 9.802-57.75 16.106-16.7 5.613-31.577 14.547-46.761 22.394-16.702 8.631-33.678 17.371-51.899 23.779-11.212 3.926-29.989 10.423-40.676 2.621-12.322-9.014-4.27-36.798-2.513-48.219 3.611-23.168 8.979-46.158 13.786-69.168 7.979-38.217 14.958-74.652 13.286-113.569-2.184-50.68-7.32-101.31-10.163-151.98-1.061-18.712-3.196-37.721-2.043-56.447.665-10.736 4.691-18.91 13.774-25.154 12.395-8.527 19.258-28.167 26.371-41.826 11.084-21.297 21.393-42.862 31.836-64.368 22.937-47.211 45.042-95.33 74.712-140.103 9.38-14.165 19.84-30.385 35.34-40.863 8.64-5.846 16.97-4.372 26.16-7.941 12.08-4.725 17.54-20.26 21.49-29.546 7.64-17.923 12.75-36.58 17.55-55.093 10.84-41.89 17.98-83.879 23.23-126.449 1.22-9.976 5.44-49.26 25.82-28.628 22.51 22.797 33.55 55.713 46.24 82.55 11.41 24.175 22.02 48.371 37.75 70.666z"/><path d="M1267.83 54.598c26.55 40.196 46.36 84.725 65.3 128.016 23 52.533 43.49 106.383 54.97 161.48 7.21 34.611 12.74 72.77.77 107.148-8.18 23.476-30.27 41.637-45.47 62.256-15.21 20.62-29.48 42.075-41.37 64.17-7.38 13.713-14.82 28.465-13.84 43.724 2.36 37.1 7.99 74.156 10.73 111.297 1.82 24.569 3.33 49.189 2.88 73.833-.27 14.861.83 35.277-8.77 48.434-10.62 14.543-101.26-62.893-111.46-70.211-25.58-18.349-59.53-40.569-95.91-37.021-34.77 3.393-60.74 18.1-87.987 34.735-15.501 9.44-56.91 39.714-77.07 28.495-11.523-6.409-7.534-27.536-6.748-37.573 1.547-19.78 4.872-39.45 7.759-59.126 4.184-28.689 10.646-58.167 12.54-86.98 1.316-20.064-.444-40.246-.481-60.344-.049-28.818.219-57.636.536-86.454.268-24.197 0-48.598 2.85-72.711 1.755-14.99 5.695-26.368 16.829-37.12 9.684-9.356 15.354-23.472 21.511-35.396 10.166-19.696 19.588-39.65 29.161-59.539 20.05-41.642 39.68-83.761 64.74-123.619 11.43-18.195 27.44-48.787 55.15-53.055 10-1.54 14.32-2.673 20-10.623 8.06-11.284 11.7-24.798 14.86-37.458 7.37-29.514 6.27-59.882 13.55-89.346 3-11.999 9.48-27.665 24.32-13.966 17.35 15.984 26.89 39.252 37.61 58.4 5.35 9.56 10.35 19.408 16.88 28.486 5.03 6.97 11.48 12.938 16.16 20.068z"/><path d="M1259.54 130.73c21.57 37.136 37.24 77.467 51.38 117.074 15.67 43.992 28.66 89.046 34.18 134.695 3.83 31.52 4.96 65.105-6.75 95.698-7.42 19.347-23 32.463-36.07 49.111-19.76 25.126-35.41 52.311-31.6 82.498a1629.72 1629.72 0 0 1 9.59 101.859c1.29 20.547 2.25 41.174 1.35 61.746-.56 13.008-1.5 29.765-8.74 41.081-9.69 15.14-83.41-41.73-94.16-48.819-26.65-17.581-54.61-30.469-87.62-38-26.95-6.141-48.12 6.405-68.28 19.347-12.51 8.047-43.99 34.046-60.242 25.905-8.962-4.464-8.498-19.178-8.956-27.08-.867-15.061.037-30.187.433-45.248.611-22.239-3.583-45.911-.207-67.962 7.472-48.868 13.944-97.613 19.066-146.784 2.821-27.105 5.385-54.375 10.824-81.237 1.954-9.644 4.024-19.605 8.444-28.743 2.839-5.878 7.674-9.083 11.638-14.044 18.89-23.653 28.61-54.529 40.72-81.168 16.09-35.415 31.93-71.018 50.95-105.49 10-18.132 21.49-43.457 41.9-55.933 6.16-3.77 11.09-2.163 17.02-4.534 6.84-2.728 8.88-11.018 10.78-16.37 4.33-12.15 10.88-63.002 36.27-39.568 12.09 11.182 19.85 25.43 29.36 38.035 3.44 4.563 6.9 9.013 11.55 12.818 7.79 6.365 12.23 12.635 17.17 21.113z"/><path d="M1250.21 211.849c34.88 73.312 58.65 159.23 54.05 239.158-1.54 26.58-6.67 55.178-24.22 78.219-10.37 13.585-22.08 24.442-25.82 40.762-2.7 11.781.37 24.467 1.48 36.318 1.61 17.164 3.04 34.339 4.21 51.529 1.42 21.31 2.52 42.69 1.93 64.041-.42 15.256.06 36.322-10.01 49.575-12 15.823-68.3-24.452-78.34-30.119-24.31-13.735-47.87-23.364-77.18-26.843-8.54-1.024-17.29-4.474-25.9-4.027-8.79.468-16.61 4.877-23.52 8.948-9.06 5.324-30.54 23.796-41.58 18.507-6.103-2.923-6.871-13.894-8.164-19.581-2.44-10.667-3.751-21.489-5.691-32.222-3.305-18.208-14.07-36.288-13.765-54.561.805-49.138 19.517-98.987 29.79-147.141 6.13-28.627 11.7-57.449 20-85.729 2.62-8.948 5.34-18.164 9.8-26.669 3.11-5.935 8.66-9.748 12.14-15.246 13.38-21.082 21.49-45.325 30.5-67.963 11.71-29.389 23.06-58.876 35.53-88.061 7.81-18.293 14.68-41.816 29.18-57.579 10.58-11.512 13.74-3.643 23.6 2.431 5.02 3.102 9.98 2.386 15.67 3.733 8.12 1.924 13.97 7.362 19.23 12.463 7.26 7.033 13.24 16.404 22.15 22.155 3.13 2.028 7.03 1.934 9.76 3.574 7.96 4.772 11.88 17.433 15.17 24.328z"/><path d="M1237.78 289.795c21.93 59.5 34.42 125.705 28.62 188.6-2.02 21.883-6.71 43.9-17.01 64.284-4.68 9.274-9.89 16.236-10.17 26.399-.64 23.579 1.62 47.234 2.16 70.809.39 16.871.53 33.827-1.13 50.658-1.11 11.254-2.44 26.473-10.92 35.693-12.34 13.397-54.3-10.788-65.89-15.71-19.22-8.158-40.6-16.251-62.84-13.016-6.8.992-12.81 2.749-19.75 2.977-5.96.219-11.46-.392-17.16 1.33-7.07 2.129-18.03 11.597-24.53 8.341-4.45-2.218-4.65-8.797-6.07-13.174a117.466 117.466 0 0 0-9.05-20.722c-3.93-7.046-10-13.045-13.24-20.344-5.26-11.85-5.76-25.114-5.73-37.569.1-49.695 12.13-100.021 24.72-148.456 6.55-25.223 13.54-50.584 23.48-75.097 3.02-7.443 6.05-15.879 11.63-22.424 3.47-4.084 7.82-6.853 10.43-11.492 22.29-39.633 30.57-85.453 46.67-127.527 4.19-10.951 25.37-71.643 45.29-39.91 12.11 19.278 17.61 39.647 34.17 57.238 5.03 5.359 9.2 8.932 16.88 11.026 5.11 1.379 2.52-1.94 7.86 2.694 6.43 5.622 9.02 18.459 11.58 25.392z"/><path d="M1224.81 351.662c17.9 69.662 18.75 143.434 2.88 214.195-4 17.839-3.04 36.404-4.06 54.461-.97 17.545 1.06 48.738-15.51 61.482-12.01 9.24-37.53-.787-50.96-4.255-17.11-4.418-34.79-8.28-51.41-1.025-9.73 4.25-18.99 10.071-28.64 14.629-4.6 2.18-11.66 6.668-16.02 4.797-7.2-3.095-10.22-17.575-13.62-24.601-10.85-22.456-13.61-46.235-13.53-70.244.14-44.345 7.58-88.918 17.68-132.417 4.65-20.013 9.6-40.304 17.68-59.606 4.57-10.922 13.39-18.978 18.61-29.407 16.84-33.582 25.84-69.662 41.23-103.821 4.46-9.887 19.31-46.818 36.81-28.213 16.94 18.012 14.92 44.285 30.86 63.014 1.83 2.12 4.01 4.742 6.96 5.971 1.77.726 5.12-.552 6.13 0 10.9 5.752 12.64 26.198 14.91 35.04z"/><path d="M1212.98 396.795c6.01 35.738 7.51 72.263 7.89 108.603.2 19.864 1.76 41.688-4.42 61.125-3.8 11.939-7.13 23.47-9.53 35.778-2.58 13.242-4.46 34.564-18.45 42.628-10.45 6.025-31.94 1.896-44.64 1.677-13.94-.234-24.28 2.094-34.26 10.108-6.28 5.04-29.08 28.157-35.65 25.486-6.27-2.542-7.23-18.65-8.85-25.615-5.17-22.013-6.96-44.32-6.68-66.711.43-34.679 4.77-69.487 12.23-103.624 3.1-14.113 6.31-28.699 12.51-42.18 4.17-9.079 11.58-16.651 15.9-25.67 12.38-25.829 20.79-53.14 33.41-79.058 4.05-8.318 14.85-35.42 31.48-28.923 13.89 5.417 18.12 23.844 27.43 32.898 15.88 15.401 18.32 33.838 21.63 53.478z"/><path d="M1204.99 419.309c3.99 28.35 5.73 57.359 5.82 86.125.05 18.565.36 38.15-4.76 56.368-2.57 9.151-8.59 17.103-12.88 25.764-4.41 8.918-9.33 21.225-19.44 25.08-9.51 3.622-23.37 2.269-34.83 5.45-10.17 2.829-16.45 8.75-23.32 15.126-4.4 4.063-23.41 24.927-27.61 22.514-4.49-2.587-4.13-15.117-4.75-21.637a409.246 409.246 0 0 1-1.66-54.005c.92-24.584 3.51-49.357 9.35-73.515 4.15-17.138 14.02-30.065 21.25-46.043 9.4-20.7 16.84-42.143 27.12-62.645 5.13-10.217 11.72-25.338 24.94-30.57 5.07-2.012 17.96-3.964 23.03-1.724 6.09 2.69 8.68 12.703 10.24 17.43 3.91 11.841 5.81 24.233 7.5 36.282z"/><path d="M1195.27 445.868c4.89 35.439 9.05 75.48-.81 111.028-3.97 14.366-15.76 28.672-31.83 34.53-8.3 3.035-18.19 3.687-26.24 8.221-5.95 3.356-11.32 7.627-16.33 11.839-2.82 2.373-18.32 17.574-21.08 14.642-2.92-3.094-1.97-10.687-2.04-15.873-.18-12.423.41-24.895 1.57-37.278 1.33-14.237 3.06-28.81 7.73-42.617 3.8-11.137 11.79-21.286 16.53-32.132 12.57-28.513 22.41-58.559 41.01-85.327 3.95-5.695 9.87-16.956 18.81-10.115 11.13 8.513 11.17 32.132 12.68 43.082z"/><path d="M1186.44 476.76c3.43 25.236 5.04 53.23-2.02 78.565-3.58 12.83-11.03 24.276-25.44 29.864-10.27 3.999-21.73 5.078-31.61 10.541-3.48 1.934-13.25 9.042-15.39 5.538-4.59-7.497.7-24.231 3.1-34.632 3.65-15.654 13.86-28.724 19.92-43.608 9.28-22.832 14.24-51.761 30.06-72.568 15.3-20.052 20.38 18.938 21.38 26.3z"/></g></svg>