<svg width="174" height="189" viewBox="0 0 174 189" fill="none" xmlns="http://www.w3.org/2000/svg"><path opacity=".2" d="M42.525 55.944c8.065-3.504 14.217-3.888 18.457-1.152 4.24 2.736 6.36 7.992 6.36 15.768 0 5.856-1.288 11.928-3.866 18.216-2.577 6.288-6.485 12.384-11.722 18.288-5.155 5.76-11.473 10.8-18.956 15.12-6.235 3.6-12.263 6.072-18.083 7.416-5.736 1.2-10.641 1.152-14.715-.144l6.984-18.576c3.159 1.248 6.983 1.488 11.473.72 4.572-.912 9.27-2.76 14.092-5.544 5.736-3.312 10.226-7.248 13.468-11.808 3.326-4.704 4.988-9.408 4.988-14.112 0-4.704-1.58-7.44-4.739-8.208-3.076-.912-7.814.48-14.216 4.176l-7.981 4.608V67.896l19.828-38.664L4.24 52.128V36.432L63.726 2.088v12.528l-21.2 41.328z" fill="#6B6B6B"/><rect opacity=".1" width="100" height="92.691" rx="10" transform="matrix(.86603 -.5 .86603 .5 7 142)" fill="#6B6B6B"/><path d="M101.95 59.77l-7.994 4.615V29c0-2.549-1.79-3.582-3.997-2.308L47.323 51.308c-2.207 1.274-3.997 4.374-3.997 6.923v35.384l-7.994 4.616c-.735.425-1.332 1.458-1.332 2.307v46.154c0 2.549 1.79 3.582 3.997 2.308l61.288-35.385c2.207-1.274 3.997-4.374 3.997-6.923V60.539c0-.85-.597-1.195-1.332-.77zM83.848 94.834l16.769-29.044v38.726l-16.769-9.682zm14.885-30.132l-4.777 8.275v-5.516l4.777-2.759zM83.297 33.615l2.665-1.538v7.055l-.39-.225c-.521-.3-1.364.187-1.885 1.088l-.39.676v-7.056zm-35.973 20.77l33.308-19.231v10.77c0 .621.325.995.822.946.498-.05 1.071-.513 1.453-1.172l1.722-2.984 1.723.995c.381.219.954.02 1.452-.505.498-.526.822-1.274.822-1.896v-10.77l1.333-.769c.735-.425 1.332-.08 1.332.77v47.055L78.748 99.319l-20.214 11.67-12.543-7.241V56.692c0-.85.597-1.883 1.333-2.307zm6.11 58.01l-16.77 29.045v-38.726l16.77 9.681zm-10.108-10.186l-4.777-2.758 4.777-2.759v5.517zm55.959 8.329l-61.288 35.385c-.556.318-1.05.2-1.24-.293l18.56-32.147 1.723.995c.25.144.589.111.942-.093L79.3 102.077c.353-.204.692-.562.942-.995l1.722-2.983 18.56 10.715c-.189.712-.683 1.401-1.239 1.724z" fill="#fff"/><path d="M51.32 58.23l7.995-4.615v3.077l-7.994 4.616V58.23zm0 6.155l7.995-4.616v3.077l-7.994 4.616v-3.077zm7.432 17.166l-2.675 9.78c-.305 1.12-.19 2.112.307 2.653.498.542 1.316.564 2.189.06l4.739-2.736c.505-.292.967-.888 1.192-1.54l.693-2 .847 2.448c.182.524.691.654 1.265.322L69.974 89c.573-.331 1.083-1.05 1.264-1.783l.847-3.425.693 1.2c.226.39.688.453 1.193.162l4.74-2.736c.872-.505 1.69-1.471 2.188-2.587.497-1.116.612-2.24.307-3.008l-2.675-6.688c-.523-1.294-1.764-1.712-3.228-1.09v-4.078c.023-3.383-.848-6.178-2.495-8.008-2.779-3.026-5.556-1.423-8.333 4.81-1.648 3.734-2.52 7.535-2.495 10.89v4.079c-1.464 1.067-2.705 2.917-3.228 4.813zm9.518 5.356l-.445-1.282 1.633-.943-.445 1.796-.743.429zm7.766-14.255l2.674 6.689-3.916 2.26-.116-.2c.384-.493.62-1.11.625-1.632v-7.556a.675.675 0 0 1 .733.44zm-11.392-1.53c-.021-2.73.685-5.823 2.023-8.86 1.002-2.254 1.708-3.108 1.974-3.262.267-.154.973-.115 1.975.977 1.338 1.493 2.044 3.77 2.022 6.524V79.77l-2.664 1.539v-9.231l-2.665 1.538v9.231l-2.665 1.538V71.121zm-2.664 8.784v7.555c.005.517.241.86.625.91l-.117.335-3.915 2.26 2.673-9.775c.132-.467.397-.931.734-1.285z" fill="#fff"/><path d="M68.641 66.874h2.07l1.19-3.44h-2.665c-.374 0-.816.254-1.19.687l-2.665 3.077 1.19 2.066 2.07-2.39zm-1.332 26.741l2.664-1.538v3.077l-2.664 1.538v-3.077zm7.994-6.153l2.664-1.539V89l-2.664 1.538v-3.076zm-15.989 9.23l2.665-1.538v3.077l-2.665 1.538v-3.077z" fill="#fff"/></svg>