<svg width="171" height="196" viewBox="0 0 171 196" fill="none" xmlns="http://www.w3.org/2000/svg"><path opacity=".2" d="M67.716 86.4v15.84L3.367 139.392v-12.528l34.669-58.032c3.907-6.576 6.526-11.832 7.856-15.768 1.414-4.08 2.12-7.704 2.12-10.872 0-4.704-1.371-7.512-4.115-8.424-2.743-.912-6.776.168-12.096 3.24-8.896 5.136-15.714 12.576-20.453 22.32L0 55.8c3.409-7.248 7.981-13.968 13.718-20.16 5.82-6.336 12.304-11.568 19.454-15.696 9.478-5.472 17.044-7.248 22.697-5.328 5.653 1.92 8.48 7.344 8.48 16.272 0 5.472-.998 11.184-2.993 17.136-1.995 5.952-5.82 13.632-11.473 23.04l-23.32 39.096L67.716 86.4z" fill="#6B6B6B"/><rect opacity=".1" width="100" height="92.691" rx="10" transform="matrix(.86603 -.5 .86603 .5 4 149)" fill="#6B6B6B"/><path d="M67.293 73.246c-10.022 5.787-18.146 19.858-18.146 31.431s8.124 16.264 18.146 10.478c10.023-5.787 18.147-19.86 18.147-31.432-.01-11.56-8.129-16.248-18.147-10.477zm0 39.115c-8.685 5.014-15.727.949-15.727-9.08 0-10.03 7.042-22.226 15.727-27.24 8.686-5.016 15.728-.95 15.728 9.08-.01 10.03-7.046 22.216-15.728 27.24z" fill="#fff"/><path d="M103.586 52.292c-.008-7.201-4.754-10.481-10.967-7.578-.583-4.498-4.162-6.032-8.39-3.597-1.756 1.007-3.47 2.628-4.9 4.634-3.177-3.612-8.817-3.156-14.426 1.165S54.75 58.627 53.279 65.819c-2.431-.172-5.38 1.441-7.88 4.311s-4.228 6.628-4.62 10.042l-.1.058C35.332 83.316 31 90.821 31 96.993c0 6.172 4.333 8.674 9.678 5.588l7.259-4.19v-2.795l-7.259 4.191c-4.008 2.314-7.258.438-7.258-4.19 0-4.63 3.25-10.259 7.258-12.573.35-.199.697-.367 1.042-.504.355-.166.708-.509.968-.941.264-.442.413-.93.41-1.349-.004-2.781 1.426-6.127 3.638-8.51 2.212-2.384 4.782-3.35 6.538-2.458.332.167.81.004 1.239-.422.428-.425.733-1.042.79-1.596.656-6.414 4.62-13.551 9.799-17.646 5.18-4.094 10.382-4.203 12.861-.268.182.29.516.366.898.208.383-.16.769-.534 1.037-1.01 1.718-3.024 4.33-5.163 6.608-5.41 2.278-.247 3.77 1.447 3.772 4.285 0 .771.542 1.084 1.21.698 5.346-3.086 9.678-.584 9.678 5.588 0 6.171-4.332 13.677-9.678 16.763l-4.839 2.794v2.794l4.84-2.794c6.678-3.865 12.09-13.239 12.097-20.954z" fill="#fff"/><path d="M85.44 48.8l2.419-1.397v2.794l-2.42 1.397V48.8zm-4.84 2.794l2.42-1.397v2.794l-2.42 1.397v-2.794zm15.727 4.889c0 3.086-2.166 6.839-4.839 8.382v2.794c4.008-2.319 7.255-7.944 7.259-12.573l-2.42 1.397zM86.65 67.659l2.419-1.398v2.794l-2.42 1.397V67.66zm-41.133 60.067l2.42-1.397v2.794l-2.42 1.397v-2.794zm0-5.588l2.42-1.397v2.794l-2.42 1.397v-2.794zm-7.258-1.397l-2.42 1.397v2.794l-2.42 1.397v2.794l2.42-1.397v2.794l2.42-1.397v-2.794l2.42-1.397v-2.794l-2.42 1.397v-2.794zm-2.42-4.191l2.42-1.397v2.794l-2.42 1.397v-2.794zm0-5.586l2.42-1.397v2.794l-2.42 1.397v-2.794zm50.811-9.78l2.419-1.397v2.794l-2.42 1.397v-2.794zm0-5.587l2.419-1.397v2.794l-2.42 1.397v-2.794zm0-5.587l2.419-1.398v2.794l-2.42 1.397v-2.794zm-41.133 26.54l2.42-1.397v2.794l-2.42 1.397v-2.794zm53.23-26.541l-2.42 1.397V94.2l-2.42 1.397v2.794l2.42-1.397v2.793l2.42-1.396v-2.794l2.419-1.397v-2.794l-2.42 1.397v-2.794zm-2.42-4.191l2.42-1.397v2.794l-2.42 1.397v-2.794zm0-5.588l2.42-1.396v2.793l-2.42 1.398V80.23zm0-5.587l2.42-1.397v2.794l-2.42 1.397v-2.794zm-36.293 46.098l2.42-1.397v5.588l-2.42 1.397v-5.588zm0 8.382l2.42-1.397v2.794l-2.42 1.397v-2.794zm12.098-13.97l2.42-1.397v5.588l-2.42 1.397v-5.588zm0 8.382l2.42-1.397v2.794l-2.42 1.397v-2.794zm3.631-32.827l-3.63 2.095v-13.97c0-.771-.541-1.083-1.21-.698l-7.258 4.191c-.669.386-1.21 1.324-1.21 2.096v13.97l-3.63 2.095c-.489.282-.93.877-1.117 1.507-.187.63-.084 1.171.262 1.37l8.469 4.89c.472.273 1.238-.169 1.71-.988l8.469-14.668c.346-.599.45-1.26.262-1.673-.187-.414-.628-.5-1.117-.217zm-8.469 14.089l-5.548-3.203 1.919-1.107c.668-.386 1.21-1.324 1.21-2.096v-13.97l4.839-2.793v13.97c0 .77.541 1.084 1.21.698l1.918-1.108-5.548 9.609zm-20.567 27.818c-2.005 1.157-3.63 3.971-3.63 6.286 0 2.315 1.625 3.253 3.63 2.096 2.004-1.158 3.629-3.972 3.629-6.287s-1.625-3.253-3.63-2.095zm0 5.588c-.669.385-1.21.073-1.21-.699 0-.772.541-1.709 1.21-2.095.668-.386 1.21-.074 1.21.698 0 .772-.542 1.71-1.21 2.096zm41.132-32.13c-2.004 1.158-3.63 3.972-3.63 6.287 0 2.314 1.626 3.252 3.63 2.095 2.005-1.157 3.63-3.972 3.63-6.286 0-2.315-1.625-3.253-3.63-2.096zm0 5.588c-.668.386-1.21.073-1.21-.698 0-.772.542-1.71 1.21-2.096.668-.385 1.21-.073 1.21.699 0 .771-.542 1.71-1.21 2.095z" fill="#fff"/></svg>