<svg width="167" height="202" viewBox="0 0 167 202" fill="none" xmlns="http://www.w3.org/2000/svg"><path opacity=".2" d="M83.065 77.904L67.6 86.832v22.896L51.888 118.8V95.904L4 123.552v-12.96l43.024-89.784L64.36 10.8 23.83 96.264l28.558-16.488V59.472L67.6 50.688v20.304l15.464-8.928v15.84z" fill="#6B6B6B"/><rect opacity=".1" width="100" height="92.691" rx="10" transform="matrix(.86603 -.5 .86603 .5 0 155)" fill="#6B6B6B"/><path d="M64.424 90.503c.726-.419 1.315-.08 1.315.76l2.632-1.52c-.007-1.92-1.06-3.024-2.632-2.759v-1.799l-2.631 1.52v1.799c-2.052 2.019-3.13 5.237-2.407 7.19.556 1.501 2.049 1.857 3.723.887.726-.42 1.315-.08 1.315.76 0 .839-.589 1.86-1.315 2.279-.727.419-1.316.08-1.316-.76l-2.632 1.519c.007 1.922 1.06 3.025 2.632 2.76v1.799l2.631-1.52v-1.798c2.052-2.02 3.129-5.238 2.407-7.19-.556-1.502-2.049-1.858-3.722-.888-.727.42-1.316.08-1.316-.76 0-.839.589-1.859 1.316-2.279z" fill="#fff"/><path d="M102.584 35.044l-7.895 4.559c-.727.42-1.316 1.44-1.316 2.279v.76l-.339-.064c-.427-.076-.927.038-1.438.33l-26.08 15.057c-1.051.604-2.06 1.669-2.8 2.957L48.612 85.35c-1.536 2.66-1.543 5.537-.016 6.438l1.87 1.097c.882.504 2.125.257 3.353-.664-4.285 9.183-3.058 17.923 2.743 19.536l-14.507 8.376c-.35.201-.684.554-.93.982l-3.862 6.687-1.963-2.795c-.362-.518-1.166-.305-1.796.477l-.002.002-6.843 8.51c-.63.783-.845 1.836-.482 2.353l10.527 14.982c.364.516 1.167.301 1.797-.481l6.842-8.509c.63-.782.845-1.836.483-2.353l-.382-.539 29.732-17.166c1.048-.601 2.054-1.663 2.793-2.948l14.104-24.434c1.538-2.67 1.543-5.554.011-6.46l-1.857-1.085c-.737-.435-1.741-.337-2.788.27l-.007.003c-1.045.6-2.048 1.658-2.785 2.938L72.45 111.7l-.131.076v-6.078c-.003-.895-.35-1.542-.948-1.769 5.566-7.17 7.74-16.527 5.087-21.893l10.743-6.202c.878-.51 1.73-1.34 2.426-2.36l3.745-5.526v1.284c0 .838.59 1.179 1.316.76l7.896-4.56c.726-.418 1.315-1.44 1.315-2.278v-27.35c0-.84-.589-1.18-1.315-.76zM67.055 78.348v.32c-2.596.87-5.296 2.733-7.738 5.34l8.922-15.46 15.922-9.193c.727-.42 1.316-.079 1.316.76v3.04c0 .838-.589 1.859-1.316 2.278L69.687 73.79c-1.454.84-2.632 2.88-2.632 4.558zm-28.73 69.212l-9.211-13.11 4.56-5.672 9.211 13.107-4.56 5.675zm31.362-40.343v6.078l-11.843 6.838v3.038l15.146-8.744c.349-.201.683-.555.93-.982l12.588-21.801c.244-.423.576-.773.92-.971.347-.2.678-.232.922-.089l1.855 1.086c.515.3.515 1.267 0 2.163L76.107 118.26c-.247.429-.582.782-.931.983L43.93 137.281l-5.306-7.541 3.973-6.883 27.089-15.64zm5.263-18.233c0 6.714-4.713 14.877-10.526 18.233-5.815 3.357-10.528.636-10.528-6.078 0-6.713 4.713-14.876 10.528-18.233a11.27 11.27 0 0 1 2.631-1.132v2.652c0 1.678 1.178 2.358 2.632 1.52l3.85-2.224c.928 1.31 1.416 3.126 1.413 5.262zm13.065-16.981c-.232.343-.519.623-.814.791L69.687 82.906V76.83l14.474-8.357c2.18-1.259 3.948-4.32 3.948-6.838v-3.039c0-2.517-1.767-3.538-3.948-2.279L68.24 65.51c-.694.403-1.359 1.105-1.851 1.955L54.19 88.59c-.514.89-1.346 1.37-1.86 1.074l-1.872-1.095c-.503-.306-.497-1.262.013-2.144L64.577 62c.247-.433.585-.793.939-.997l26.078-15.057 1.778.341v17.81l-5.357 7.905zm13.253-8.85l-5.264 3.04V41.882l5.264-3.04v24.312z" fill="#fff"/></svg>