<svg width="182" height="168" viewBox="0 0 182 168" fill="none" xmlns="http://www.w3.org/2000/svg"><path opacity=".2" d="M34.669 2v100.8l-16.212 9.36V27.056L0 37.712V22.016L34.669 2z" fill="#6B6B6B"/><path d="M75.915 47.731l-16.657 9.617c-1.84 1.063-3.606 2.926-4.907 5.18-1.302 2.255-2.033 4.715-2.033 6.84V88.73c-2.31 1.719-4.424 4.272-5.953 7.191-1.53 2.92-2.373 6.011-2.375 8.708v17.262c-.001 1.444.153 2.792.458 4.015l.93 3.759v6.218l2.776-1.602v-6.411a1.5 1.5 0 0 0-.042-.361l-.971-3.943c-.25-.998-.375-2.099-.375-3.278v-17.261c.002-1.848.555-3.957 1.567-5.972 1.01-2.014 2.419-3.811 3.985-5.088v12.662c0 .288.067.532.194.706l3.373 4.543c.362.497.875.785 1.49.837.616.052 1.313-.134 2.022-.54.92-.522 1.816-1.382 2.549-2.446.733-1.064 1.262-2.272 1.504-3.436l1.596-7.814c.097-.467.33-.953.65-1.351s.7-.676 1.058-.772a.85.85 0 0 1 .481-.008.652.652 0 0 1 .351.264c.094.128.154.295.178.49.024.196.01.416-.039.648l-2.582 12.662a15.363 15.363 0 0 0-.333 3.093v3.013l-3.886 8.223c-.182.381-.28.775-.278 1.122v3.205l2.776-1.603v-2.676l3.887-8.222c.181-.382.279-.776.277-1.122v-3.542c.002-.699.081-1.44.236-2.204l.18-.906 7.913-4.568c1.84-1.062 3.605-2.926 4.907-5.18 1.302-2.255 2.033-4.715 2.033-6.84V51.737c0-2.125-.731-3.742-2.033-4.493-1.302-.751-3.067-.577-4.907.486zm4.164 44.076c-.004 1.276-.443 2.75-1.224 4.102-.78 1.352-1.837 2.47-2.94 3.11l-7.163 4.136.736-3.63 2.263-1.307v-3.205l-1.514.873.181-.857c.282-1.397.133-2.623-.416-3.414-.415-.581-1.03-.887-1.77-.878-.74.009-1.569.331-2.385.927-.816.596-1.581 1.44-2.2 2.423-.62.984-1.065 2.064-1.28 3.106l-1.596 7.813c-.07.34-.215.693-.416 1.015a2.91 2.91 0 0 1-.718.795c-.267.197-.538.305-.78.311a.677.677 0 0 1-.584-.278l-3.179-4.271V67.766c.003-1.276.443-2.75 1.223-4.102.78-1.352 1.838-2.47 2.941-3.11l16.657-9.617c1.103-.633 2.16-.736 2.94-.286.78.45 1.22 1.418 1.224 2.69v38.466z" fill="#fff"/><path d="M63.422 61.355l8.328-4.808v3.205l-8.328 4.808v-3.205zM57.87 64.56l2.776-1.602v3.205l-2.776 1.603V64.56zm4.164 5.61l-2.776 1.603c-.767.442-1.388 1.519-1.388 2.404v3.205c0 .886.621 1.244 1.388.802l2.776-1.603c.767-.443 1.388-1.519 1.388-2.404v-3.206c0-.885-.621-1.244-1.388-.801zm13.88-8.014l-2.776 1.603c-.766.442-1.388 1.519-1.388 2.404v3.206c0 .885.622 1.244 1.388.801l2.776-1.603c.767-.442 1.388-1.519 1.388-2.404v-3.205c0-.886-.621-1.244-1.388-.802zm-13.88 24.042L59.258 87.8c-.767.442-1.388 1.519-1.388 2.404v3.205c0 .885.621 1.244 1.388.802l2.776-1.603c.767-.443 1.388-1.52 1.388-2.404v-3.206c0-.885-.621-1.244-1.388-.801zm12.492-4.008l-2.776 1.603V87l4.164-2.404c.368-.213.721-.585.982-1.036.26-.451.406-.943.406-1.368v-4.809l-2.776 1.603v3.206zm-8.328-14.424l2.776-1.603v6.411l-2.776 1.603v-6.411zm5.552 6.411l5.552-3.206v3.206l-5.552 3.205v-3.205zm-8.328 4.808l5.552-3.205v3.205l-5.552 3.206v-3.206zm2.776 4.808l2.776-1.602v6.41l-2.776 1.603v-6.41zM57.87 82.19l2.776-1.602v3.206l-2.776 1.602v-3.205z" fill="#fff"/><path d="M109.228 2.854l-61.074 35.26c-1.104.641-2.16 1.76-2.941 3.11-.78 1.352-1.22 2.827-1.223 4.103V93.41l2.776-1.603V54.944l63.85-36.864v59.302c0 .425-.147.917-.407 1.368-.26.451-.613.824-.981 1.037L84.243 94.21v3.206l24.985-14.425c1.103-.64 2.16-1.759 2.94-3.11.781-1.352 1.22-2.827 1.224-4.102V5.258c-.004-1.272-.443-2.24-1.224-2.69-.78-.45-1.837-.348-2.94.286zm1.388 12.02l-63.85 36.864v-8.014c0-.425.146-.917.406-1.368.26-.45.614-.823.982-1.036l61.074-35.26c.368-.213.721-.248.981-.098s.407.473.407.899v8.013z" fill="#fff"/><path d="M49.542 43.724l2.776-1.603v3.206l-2.776 1.603v-3.206zm5.552-3.205l2.776-1.603v3.206l-2.776 1.602V40.52zm5.552-3.206l2.776-1.603v3.206l-2.776 1.603v-3.206zm29.149.802l-2.776 1.602c-.767.443-1.388 1.52-1.388 2.404v3.206c0 .885.621 1.244 1.388.801l2.776-1.602c.767-.443 1.388-1.52 1.388-2.405v-3.205c0-.885-.621-1.244-1.388-.801zm13.88-8.015l-2.776 1.604c-.767.442-1.388 1.519-1.388 2.404v3.205c0 .886.621 1.244 1.388.802l2.776-1.603c.767-.443 1.388-1.519 1.388-2.404v-3.206c0-.885-.621-1.244-1.388-.801zm-13.88 24.042l-2.776 1.603c-.767.443-1.388 1.519-1.388 2.404v3.206c0 .885.621 1.244 1.388.801l2.776-1.603c.767-.442 1.388-1.519 1.388-2.404v-3.205c0-.886-.621-1.244-1.388-.802zm9.716.802l4.164-2.404c.368-.213.721-.586.982-1.036.26-.451.406-.943.406-1.368v-4.809l-2.776 1.603v3.206l-2.776 1.602v3.206zM93.959 35.71l2.776-1.602v6.41l-2.776 1.604V35.71zm5.552 6.412l5.552-3.206v3.206l-5.552 3.205v-3.205zm-8.328 4.808l5.552-3.206v3.206l-5.552 3.205V46.93zm2.776 4.808l2.776-1.602v6.41l-2.776 1.603v-6.41zm-8.329-1.603l2.777-1.602v3.205l-2.776 1.603v-3.206zm5.553 20.836l13.88-8.014v3.206l-13.88 8.014V70.97zm0 6.411l13.88-8.014v3.206l-13.88 8.014v-3.206z" fill="#fff"/><rect opacity=".1" width="100" height="92.691" rx="10" transform="matrix(.86603 -.5 .86603 .5 15 121)" fill="#6B6B6B"/></svg>