<svg width="20" height="20" viewBox="0 0 20 20" fill="none" xmlns="http://www.w3.org/2000/svg"><path d="M14.48 0A5.526 5.526 0 0 1 20 5.52v8.96A5.526 5.526 0 0 1 14.48 20H5.52A5.525 5.525 0 0 1 0 14.48V5.52A5.526 5.526 0 0 1 5.52 0h8.96zm3.746 14.48V5.52a3.75 3.75 0 0 0-3.745-3.745H5.519a3.749 3.749 0 0 0-3.745 3.744v8.962a3.749 3.749 0 0 0 3.745 3.745h8.962a3.75 3.75 0 0 0 3.745-3.745zM10 5c2.757 0 5 2.243 5 5s-2.243 5-5 5-5-2.243-5-5 2.243-5 5-5zm0 8.278A3.282 3.282 0 0 0 13.278 10 3.282 3.282 0 0 0 10 6.722 3.282 3.282 0 0 0 6.722 10 3.282 3.282 0 0 0 10 13.278zm5.417-9.945c.33 0 .652.133.884.366.233.232.366.555.366.884 0 .329-.133.651-.366.884a1.262 1.262 0 0 1-.884.366 1.26 1.26 0 0 1-.883-.366 1.26 1.26 0 0 1-.367-.884 1.255 1.255 0 0 1 1.25-1.25z" fill="#F8F8F8"/></svg>