<svg width="123" height="43" viewBox="0 0 123 43" fill="none" xmlns="http://www.w3.org/2000/svg"><rect x="1.132" y=".5" width="121.211" height="42" rx="4.5" stroke="#F99422"/><g clip-path="url(#a)" fill="#F99422"><path d="M13.054 6.79c.63 0 .944.307.944.923v16.772c0 1.122.094 2.052.279 2.795.185.743.494 1.332.924 1.765.43.435 1.011.743 1.74.924.73.183 1.654.272 2.775.272h11.907c1.117 0 2.04-.092 2.774-.272.73-.181 1.31-.489 1.74-.924.43-.436.73-1.022.903-1.765.173-.743.258-1.673.258-2.795V7.713c0-.616.315-.924.944-.924h4.685c.63 0 .945.308.945.924v17.402c0 2.017-.215 3.734-.645 5.15-.43 1.415-1.124 2.564-2.083 3.446-.96.883-2.208 1.52-3.74 1.913-1.533.394-3.389.59-5.566.59h-12.38c-2.177 0-4.027-.196-5.544-.59-1.52-.39-2.76-1.03-3.719-1.913-.96-.882-1.662-2.03-2.108-3.446-.445-1.416-.666-3.133-.666-5.15V7.713c0-.616.33-.924.99-.924h4.643zm67.336 0c.629 0 .944.307.944.923v4.12c0 .645-.315.964-.945.964H58.852c-1.117 0-2.04.092-2.77.273-.73.183-1.312.491-1.742.924-.43.435-.739 1.015-.923 1.744-.188.728-.279 1.652-.279 2.774v6.053c0 1.122.094 2.052.279 2.795.184.743.493 1.332.923 1.765.43.435 1.012.743 1.741.924.73.183 1.654.272 2.771.272h14.185c.744 0 1.29-.19 1.632-.569.342-.379.515-1.042.515-1.995v-3.405c0-.365-.173-.548-.515-.548H62.074c-.63 0-.944-.323-.944-.966v-3.144c0-.646.314-.969.944-.969h17.924c.86 0 1.29.42 1.29 1.262v9.792c0 2.354-.457 4.015-1.374 4.98-.918.969-2.235 1.452-3.955 1.452H58.592c-2.177 0-4.028-.196-5.545-.59-1.52-.39-2.758-1.03-3.718-1.913-.96-.882-1.663-2.03-2.108-3.446-.445-1.416-.666-3.13-.666-5.15v-7.227c0-2.017.22-3.726.666-5.129.445-1.4 1.145-2.544 2.108-3.426.96-.882 2.198-1.528 3.718-1.934 1.52-.402 3.37-.607 5.548-.607h21.794zm33.601 0c.63 0 .945.307.945.923v3.995c0 .616-.315.924-.945.924H92.454c-.833 0-1.417.21-1.762.63-.345.42-.515.995-.515 1.724v1.43c0 1.57.745 2.354 2.235 2.354h16.119c2.492 0 4.37.625 5.632 1.871 1.26 1.247 1.89 3.035 1.89 5.36v3.363c0 2.047-.618 3.699-1.847 4.96-1.233 1.262-3.153 1.892-5.76 1.892H84.632c-.66 0-.99-.308-.99-.923v-3.998c0-.616.33-.924.99-.924H107.2c.829 0 1.417-.21 1.762-.63.342-.42.515-.995.515-1.724v-1.723c0-1.57-.745-2.354-2.235-2.354h-16.12c-2.492 0-4.369-.625-5.629-1.872-1.263-1.246-1.892-3.032-1.892-5.359v-3.068c0-2.046.614-3.698 1.847-4.96 1.232-1.26 3.152-1.892 5.76-1.892h22.784z"/></g><defs><clipPath id="a"><path fill="#fff" transform="translate(7.421 6.79)" d="M0 0h108.632v29.421H0z"/></clipPath></defs></svg>