<svg width="365" height="436" viewBox="0 0 365 436" fill="none" xmlns="http://www.w3.org/2000/svg"><g clip-path="url(#a)"><path opacity=".1" d="M262.156 314.65a5.002 5.002 0 0 1-5.056-.031l-98.624-58.627c-3.283-1.952-3.254-6.716.053-8.627l5.828-3.369a5 5 0 0 1 5.058.031l98.621 58.631c3.284 1.952 3.254 6.717-.055 8.628l-5.825 3.364z" fill="#D6D8E5"/><path d="M259.417 300.145l-79.095-45.674c-6.699-3.87-12.134-14.246-12.134-23.184V10.627c.007-8.931 5.435-13.04 12.134-9.184l79.095 45.689c6.699 3.863 12.127 14.245 12.127 23.176v220.66c0 8.939-5.428 13.047-12.127 9.177z" fill="#B1B4C4"/><path d="M260.767 304.123l6.273-3.169-6.014-10.303-.259 13.472zM166.96 3.66l5.768-3.025-1.162 8.498-4.606-5.473z" fill="#B1B4C4"/><path d="M254.371 302.665l-79.095-45.631c-6.699-3.87-12.127-14.253-12.127-23.184V13.147c0-8.931 5.428-13.04 12.127-9.17l79.095 45.675c6.699 3.87 12.127 14.245 12.127 23.183v220.66c0 8.939-5.428 13.04-12.127 9.17z" fill="#616E84"/><path d="M265.646 73.398v220.653c0 8.946-5.428 13.04-12.127 9.177l-31.04-17.906-9.637-5.574-38.432-22.187c-6.699-3.877-12.128-14.253-12.128-23.191V13.717c0-8.945 5.429-13.046 12.128-9.184l79.124 45.675c6.698 3.877 12.112 14.245 12.112 23.19z" fill="#3C3C3C"/><path d="M259.951 71.16v214.906c0 5.415-3.79 7.617-8.482 4.902l-24.731-14.281-2.166-1.256-.722-.426-5.341-3.083-15.47-8.924-6.41-3.704-2.584-1.495-17.549-10.151c-4.685-2.708-8.489-9.293-8.489-14.708V18.05c0-5.416 3.804-7.603 8.489-4.903L207.37 30.98v.066c0 4.209 2.967 9.335 6.612 11.443 3.646 2.108 6.613.405 6.613-3.812v-.101l30.881 17.84c4.685 2.73 8.475 9.322 8.475 14.744z" fill="#6A9A9A"/><path d="M246.993 121.686l-65.726-37.934a5.922 5.922 0 0 1-2.461-4.707v-45.71c0-1.82 1.104-2.65 2.461-1.864l65.726 37.95a5.908 5.908 0 0 1 2.462 4.707v45.724c0 1.784-1.133 2.621-2.462 1.834zm1.473 20.924l-68.678-39.66a2.359 2.359 0 0 1-.982-1.87v-6.317c0-.722.44-1.062.982-.722l68.678 39.66a2.338 2.338 0 0 1 .989 1.884v6.318c0 .693-.412 1.054-.989.707zm-10.431 8.83l-58.247-33.631a2.377 2.377 0 0 1-.982-1.884V109.6c0-.722.44-1.054.982-.722l58.247 33.638a2.348 2.348 0 0 1 .989 1.885v6.317c0 .701-.44 1.04-.989.722zm-9.204 9.516l-49.007-28.295a2.36 2.36 0 0 1-.982-1.885v-6.317c0-.722.44-1.062.982-.722l49.007 28.274a2.352 2.352 0 0 1 .982 1.884v6.318c-.036.729-.476 1.061-.982.743zm18.487 85.248l-68.678-39.66a2.368 2.368 0 0 1-.72-.824 2.364 2.364 0 0 1-.269-1.061v-6.317c0-.722.44-1.062.989-.722l68.678 39.66a2.357 2.357 0 0 1 .989 1.884v6.318c.015.722-.44 1.039-.989.722zm-10.431 8.83l-58.247-33.638a2.334 2.334 0 0 1-.989-1.878v-6.324c0-.722.44-1.062.989-.722l58.247 33.631a2.377 2.377 0 0 1 .982 1.884v6.325c0 .7-.44 1.04-.982.722zm-9.247 9.516l-49-28.296a2.35 2.35 0 0 1-.989-1.884v-6.318c0-.722.44-1.061.989-.722l49 28.26a2.35 2.35 0 0 1 .989 1.884v6.318c0 .743-.44 1.076-.989.758zm32.311-187.975v52.404l-2.519-1.394a5.944 5.944 0 0 1-2.469-4.722V77.182c0-1.82 1.112-2.657 2.469-1.863l2.519 1.256zm-75.724 112.287l-4.93-2.845a2.377 2.377 0 0 1-.996-1.906V160.48c0-.722.447-1.062.989-.722l4.93 2.888a2.345 2.345 0 0 1 .982 1.877v23.66c.007.657-.404.982-.975.679zm10.677 6.18l-4.931-2.844a2.354 2.354 0 0 1-.982-1.885v-29.306c0-.722.441-1.062.982-.722l4.931 2.845a2.373 2.373 0 0 1 .988 1.884v29.299c.029.715-.418 1.047-.988.729zm10.734 6.188l-4.959-2.852a2.345 2.345 0 0 1-.982-1.877v-20.765c0-.722.44-1.062.982-.722l4.93 2.844c.301.215.548.497.719.825.172.327.265.69.27 1.06v20.758c.029.707-.412 1.039-.96.729zm10.712 6.18l-4.93-2.844a2.369 2.369 0 0 1-.989-1.885v-34.707c0-.722.44-1.061.989-.722l4.93 2.852a2.36 2.36 0 0 1 .982 1.885v34.706c0 .694-.44 1.033-.982.715zm10.706 6.181l-4.931-2.845a2.36 2.36 0 0 1-.989-1.885v-29.299c0-.722.448-1.061.989-.722l4.931 2.845a2.377 2.377 0 0 1 .981 1.885v29.277c0 .729-.44 1.061-.981.744zm21.41 12.397l-4.923-2.889a2.35 2.35 0 0 1-.989-1.884V191.93c0-.722.44-1.061.989-.722l4.923 2.845a2.344 2.344 0 0 1 .989 1.885v29.299c0 .707-.411 1.039-.989.751zm-10.705-6.21l-4.93-2.844a2.377 2.377 0 0 1-.982-1.885v-40.122c0-.722.44-1.054.982-.722l4.93 2.845a2.366 2.366 0 0 1 .989 1.884v40.122c0 .701-.44 1.033-.989.722z" fill="#477474"/><path d="M215.759 40.301c.981-.566.982-2.4.003-4.095-.978-1.696-2.567-2.611-3.547-2.045-.981.566-.982 2.4-.004 4.095.979 1.696 2.567 2.611 3.548 2.045z" fill="#2B303F"/><path opacity=".1" d="M213.982 38.439a2.323 2.323 0 0 1-1.032-1.82c0-.671.477-.938 1.054-.606a2.335 2.335 0 0 1 1.054 1.82c-.022.67-.498.945-1.076.606z" fill="#fff"/><path d="M268.866 102.43c-.642.376-1.169 0-1.169-.881v-9.386a2.798 2.798 0 0 1 1.169-2.23c.643-.369 1.169 0 1.169.887v9.387a2.797 2.797 0 0 1-1.169 2.223zm0 15.415c-.642.376-1.169 0-1.169-.881v-9.386a2.801 2.801 0 0 1 1.169-2.231c.643-.368 1.169 0 1.169.888v9.386a2.807 2.807 0 0 1-1.169 2.224z" fill="#757B89"/><path opacity=".1" d="M106.1 226.399c19.467 0 35.249-9.112 35.249-20.353 0-11.241-15.782-20.354-35.249-20.354-19.468 0-35.249 9.113-35.249 20.354s15.781 20.353 35.249 20.353z" fill="#D6D8E5"/><path d="M109.622 221.092c19.468 0 35.249-9.112 35.249-20.353 0-11.241-15.781-20.354-35.249-20.354-19.467 0-35.248 9.113-35.248 20.354s15.781 20.353 35.248 20.353z" fill="#F99422"/><path d="M74.38 201.049v-9.27l6.967 6.202-6.966 3.068zm70.491-9.032v8.722l-3.559 3.783-1.747-9.985 5.306-2.52z" fill="#DD990E"/><path d="M109.622 212.37c19.468 0 35.249-9.112 35.249-20.353 0-11.241-15.781-20.353-35.249-20.353-19.467 0-35.248 9.112-35.248 20.353 0 11.241 15.781 20.353 35.248 20.353z" fill="#F9CB07"/><path d="M134.815 192.652c-.361 3.423-2.8 6.802-7.348 9.43-9.854 5.689-25.836 5.689-35.69 0-4.54-2.628-6.987-6.007-7.333-9.43-.426-4.014 2.02-8.115 7.334-11.176 9.853-5.697 25.835-5.697 35.689 0 5.313 3.061 7.767 7.162 7.348 11.176z" fill="#CC8B09"/><path d="M134.816 192.652c-.361 3.423-2.801 6.802-7.349 9.43-9.853 5.689-25.836 5.689-35.689 0-4.54-2.628-6.988-6.007-7.334-9.43.346-3.429 2.793-6.808 7.334-9.436 9.853-5.697 25.836-5.697 35.689 0 4.548 2.628 6.988 6.007 7.349 9.436z" fill="#E8A30A"/><path d="M109.254 187.88a5.726 5.726 0 0 0-.924.072c-.418.065-.88.145-1.393.253-.512.108-1.054.245-1.61.411-.542.161-1.07.364-1.581.607l4.057 2.339.722-.26a57.48 57.48 0 0 1 2.888-.873c.859-.23 1.739-.375 2.627-.434a9.197 9.197 0 0 1 2.411.166 7.772 7.772 0 0 1 2.31.896 4.634 4.634 0 0 1 1.747 1.538 2.045 2.045 0 0 1 .253 1.581 3.505 3.505 0 0 1-.946 1.567 9.98 9.98 0 0 1-1.855 1.444l2.577 1.487-1.4.816-2.599-1.502a21.617 21.617 0 0 1-3.869 1.444 25.458 25.458 0 0 1-4.266.801l-1.329-2.404a11.03 11.03 0 0 0 1.134-.086 16.91 16.91 0 0 0 1.703-.289 30.122 30.122 0 0 0 1.978-.506c.677-.19 1.338-.432 1.978-.722l-4.028-2.332-.527.188-.549.166a32.966 32.966 0 0 1-2.793.787c-.78.181-1.575.288-2.375.318a8.192 8.192 0 0 1-2.094-.195 7.452 7.452 0 0 1-1.949-.787 5.006 5.006 0 0 1-1.689-1.444 2.479 2.479 0 0 1-.454-1.56 2.89 2.89 0 0 1 .67-1.574 7.08 7.08 0 0 1 1.64-1.494l-2.39-1.379 1.408-.809 2.36 1.365a17.392 17.392 0 0 1 3.48-1.278 25.019 25.019 0 0 1 3.479-.628l1.198 2.31zm-6.886 4.253a2.965 2.965 0 0 0 1.754.375c.82-.097 1.628-.278 2.411-.541l-3.79-2.167c-1.393.889-1.516 1.668-.375 2.333zm13.304 1.104a3.07 3.07 0 0 0-1.899-.339c-.884.125-1.756.326-2.606.599l3.768 2.166c1.574-.989 1.834-1.79.737-2.426z" fill="#CC8B09"/><path d="M107.074 197.829v-1.364l1.545.996-.671 1.032-.874-.664zm13.499.859v-1.364l-3.356.252 1.927 1.315 1.429-.203zm.282-5.018v-1.379l-2.512.91 2.512.469zm-10.41-.072l.83-.801 2.946 2.036-.181.599s-2.201-.924-2.274-.975c-.072-.05-1.321-.859-1.321-.859zm-7.695-4.303l3.913 2.209.794-.577s-.491-.563-.527-.614a4.959 4.959 0 0 0-1.213-1.018c-.296-.058-2.165-.888-2.165-.888l-.802.888zm6.504-1.415v-1.365l-1.797-.584-.383 1.068.094.491 2.086.39zm-11.924-.989v-1.365l2.078.224-.671 1.329-1.408-.188zm.071 4.642v-1.444h2.382l-.584 1.271-1.025 1.162-.773-.989z" fill="#CC8B09"/><path d="M109.254 186.515c-.309 0-.618.024-.924.073-.418.057-.88.144-1.393.252a20.77 20.77 0 0 0-1.61.412 11.78 11.78 0 0 0-1.581.599l4.057 2.339.722-.252a50.243 50.243 0 0 1 2.888-.874 13.734 13.734 0 0 1 2.627-.433 9.464 9.464 0 0 1 2.411.159c.814.175 1.594.48 2.31.902a4.634 4.634 0 0 1 1.747 1.538 2.043 2.043 0 0 1 .253 1.581 3.486 3.486 0 0 1-.946 1.56 9.648 9.648 0 0 1-1.855 1.444l2.592 1.509-1.401.808-2.599-1.501a21.16 21.16 0 0 1-3.869 1.444 25.545 25.545 0 0 1-4.266.794l-1.357-2.433c.379-.009.757-.038 1.133-.087a19.191 19.191 0 0 0 1.704-.289c.628-.13 1.285-.31 1.978-.512a14.095 14.095 0 0 0 1.978-.722l-4.028-2.325-.527.18-.549.174a29.598 29.598 0 0 1-2.794.779c-.779.185-1.574.291-2.375.318a8.14 8.14 0 0 1-2.093-.195 6.936 6.936 0 0 1-1.949-.787 4.993 4.993 0 0 1-1.69-1.444 2.475 2.475 0 0 1-.454-1.559 2.94 2.94 0 0 1 .671-1.582 7.23 7.23 0 0 1 1.639-1.487l-2.375-1.343 1.408-.816 2.36 1.372a17.453 17.453 0 0 1 3.48-1.278c1.143-.291 2.306-.5 3.479-.628l1.198 2.31zm-6.886 4.246a2.877 2.877 0 0 0 1.754.382 11.93 11.93 0 0 0 2.411-.541l-3.79-2.166c-1.391.89-1.516 1.665-.375 2.325zm13.304 1.112a3.022 3.022 0 0 0-1.899-.34c-.896.115-1.781.311-2.642.585l3.768 2.166c1.612-.977 1.87-1.781.773-2.411z" fill="#F9CA06"/><path d="M109.622 209.677c19.468 0 35.249-9.112 35.249-20.353 0-11.241-15.781-20.353-35.249-20.353-19.467 0-35.248 9.112-35.248 20.353 0 11.241 15.781 20.353 35.248 20.353z" fill="#F99422"/><path d="M74.38 189.627v-9.27l6.967 6.202-6.966 3.068zm70.491-9.025v8.722l-3.559 3.776-1.747-9.985 5.306-2.513z" fill="#DD990E"/><path d="M109.622 200.956c19.468 0 35.249-9.113 35.249-20.354s-15.781-20.353-35.249-20.353c-19.467 0-35.248 9.112-35.248 20.353 0 11.241 15.781 20.354 35.248 20.354z" fill="#F9CB07"/><path d="M134.815 181.223c-.361 3.43-2.8 6.801-7.348 9.429-9.854 5.69-25.836 5.69-35.69 0-4.54-2.628-6.987-5.999-7.333-9.429-.426-4.014 2.02-8.115 7.334-11.177 9.853-5.696 25.835-5.696 35.689 0 5.313 3.069 7.767 7.17 7.348 11.177z" fill="#CC8B09"/><path d="M134.816 181.223c-.361 3.43-2.801 6.801-7.349 9.429-9.853 5.69-25.836 5.69-35.689 0-4.54-2.628-6.988-5.999-7.334-9.429.346-3.43 2.793-6.801 7.334-9.429 9.853-5.697 25.836-5.697 35.689 0 4.548 2.635 6.988 6.007 7.349 9.429z" fill="#E8A30A"/><path d="M109.254 176.458a5.971 5.971 0 0 0-.924.079c-.418.058-.88.137-1.393.246-.512.108-1.054.252-1.61.418-.541.159-1.07.359-1.581.6l4.057 2.339.722-.253a50.995 50.995 0 0 1 2.888-.873c.859-.23 1.739-.375 2.627-.434a9.2 9.2 0 0 1 2.411.159c.814.176 1.593.48 2.31.903.703.353 1.304.88 1.747 1.53.146.235.244.496.288.769.043.273.031.552-.035.82a3.477 3.477 0 0 1-.946 1.559 9.937 9.937 0 0 1-1.855 1.444l2.577 1.488-1.4.808-2.599-1.501a21.694 21.694 0 0 1-3.869 1.444 26.317 26.317 0 0 1-4.266.794l-1.358-2.433c.379-.009.758-.038 1.134-.087a19.451 19.451 0 0 0 1.703-.296 29.603 29.603 0 0 0 1.978-.505 14.004 14.004 0 0 0 1.978-.722l-4.028-2.325-.527.18-.548.166c-.918.31-1.85.573-2.794.787-.78.182-1.575.288-2.375.318a8.136 8.136 0 0 1-2.093-.195 7.153 7.153 0 0 1-1.95-.787 4.992 4.992 0 0 1-1.689-1.444 2.513 2.513 0 0 1-.454-1.567 2.89 2.89 0 0 1 .671-1.574 7.086 7.086 0 0 1 1.639-1.487l-2.36-1.379 1.407-.816 2.36 1.365a17.453 17.453 0 0 1 3.48-1.278 26.285 26.285 0 0 1 3.479-.628l1.198 2.368zm-6.886 4.252c.53.309 1.144.44 1.754.376.821-.09 1.63-.272 2.411-.542l-3.79-2.166c-1.391.896-1.516 1.673-.375 2.332zm13.304 1.112a2.974 2.974 0 0 0-1.899-.339c-.896.116-1.78.309-2.642.578l3.768 2.166c1.612-.973 1.87-1.774.773-2.405z" fill="#CC8B09"/><path d="M107.074 186.407v-1.372l1.545.997-.671 1.039-.874-.664zm13.499.866v-1.371l-3.356.26 1.927 1.314 1.429-.203zm.282-5.018v-1.386l-2.512.91 2.512.476zm-10.41-.072l.83-.801 2.946 2.036-.181.599s-2.201-.931-2.274-.982a274.64 274.64 0 0 0-1.321-.852zm-7.695-4.31l3.913 2.216.794-.577s-.491-.563-.527-.621a5.107 5.107 0 0 0-1.213-1.018c-.296-.058-2.165-.888-2.165-.888l-.802.888zm6.504-1.408v-1.372l-1.797-.585-.383 1.076.094.491 2.086.39zm-11.924-.989v-1.372l2.078.224-.671 1.328-1.408-.18zm.071 4.635v-1.444h2.382l-.584 1.271-1.025 1.162-.773-.989z" fill="#CC8B09"/><path d="M109.254 175.093a5.842 5.842 0 0 0-.924.072c-.418.065-.88.145-1.393.253-.512.108-1.054.246-1.61.412-.542.16-1.07.363-1.58.606l4.056 2.339.722-.26a57.48 57.48 0 0 1 2.888-.873 13.656 13.656 0 0 1 2.627-.433 9.112 9.112 0 0 1 2.411.166 7.742 7.742 0 0 1 2.31.895 4.643 4.643 0 0 1 1.791 1.509 2.041 2.041 0 0 1 .252 1.581 3.502 3.502 0 0 1-.974 1.596 9.71 9.71 0 0 1-1.855 1.444l2.577 1.487-1.401.816-2.599-1.502a21.589 21.589 0 0 1-3.869 1.444 25.562 25.562 0 0 1-4.266.802l-1.357-2.441a11.01 11.01 0 0 0 1.133-.086 16.929 16.929 0 0 0 1.704-.289 30.122 30.122 0 0 0 1.978-.506c.676-.19 1.337-.431 1.978-.722l-4.028-2.332-.527.188-.549.166a32.98 32.98 0 0 1-2.794.787c-.779.181-1.575.288-2.374.318a8.188 8.188 0 0 1-2.094-.195 7.449 7.449 0 0 1-1.949-.787 5.007 5.007 0 0 1-1.69-1.444 2.477 2.477 0 0 1-.454-1.56 2.89 2.89 0 0 1 .671-1.574 7.08 7.08 0 0 1 1.64-1.494l-2.39-1.379 1.407-.809 2.361 1.365a17.444 17.444 0 0 1 3.479-1.278 25.06 25.06 0 0 1 3.48-.628l1.212 2.346zm-6.886 4.253a2.965 2.965 0 0 0 1.754.375 11.51 11.51 0 0 0 2.411-.541l-3.79-2.166c-1.393.888-1.516 1.668-.375 2.332zm13.304 1.104a3.07 3.07 0 0 0-1.899-.339 15.7 15.7 0 0 0-2.642.585l3.768 2.166c1.61-.975 1.87-1.776.773-2.412z" fill="#F9CA06"/><path d="M111.903 196.732c19.468 0 35.249-9.113 35.249-20.354 0-11.24-15.781-20.353-35.249-20.353-19.467 0-35.248 9.113-35.248 20.353 0 11.241 15.781 20.354 35.248 20.354z" fill="#F99422"/><path d="M76.67 176.689v-9.278l6.958 6.209-6.959 3.069zm70.482-9.032v8.721l-3.558 3.784-1.747-9.986 5.305-2.519z" fill="#DD990E"/><path d="M111.903 188.01c19.468 0 35.249-9.113 35.249-20.354 0-11.24-15.781-20.353-35.249-20.353-19.467 0-35.248 9.113-35.248 20.353 0 11.241 15.781 20.354 35.248 20.354z" fill="#F9CB07"/><path d="M137.097 168.285c-.361 3.429-2.801 6.808-7.342 9.436-9.86 5.683-25.835 5.683-35.696 0-4.54-2.628-6.98-6.007-7.334-9.436-.426-4.007 2.028-8.108 7.334-11.17 9.861-5.696 25.836-5.696 35.696 0 5.306 3.062 7.76 7.163 7.342 11.17z" fill="#CC8B09"/><path d="M137.097 168.285c-.361 3.429-2.801 6.808-7.341 9.436-9.861 5.682-25.836 5.682-35.697 0-4.54-2.628-6.98-6.007-7.334-9.436.354-3.423 2.794-6.802 7.334-9.43 9.861-5.696 25.836-5.696 35.697 0 4.511 2.628 6.98 6.007 7.341 9.43z" fill="#E8A30A"/><path d="M111.535 163.519c-.309 0-.618.024-.924.073a20.792 20.792 0 0 0-2.995.664 12.24 12.24 0 0 0-1.588.599l4.056 2.347.722-.26c1.025-.34 2-.636 2.888-.874.857-.23 1.735-.375 2.62-.433a9.253 9.253 0 0 1 2.418.166 7.718 7.718 0 0 1 2.303.895 4.634 4.634 0 0 1 1.747 1.538 2.076 2.076 0 0 1 .26 1.581 3.612 3.612 0 0 1-.953 1.567 10.128 10.128 0 0 1-1.848 1.444l2.577 1.487-1.407.816-2.599-1.501a21.723 21.723 0 0 1-3.869 1.444 25.378 25.378 0 0 1-4.259.801l-1.365-2.44c.382-.01.762-.039 1.141-.087a17.06 17.06 0 0 0 1.696-.289 29.603 29.603 0 0 0 1.978-.505 15.037 15.037 0 0 0 1.985-.722l-4.035-2.325-.527.18-.549.174a29.823 29.823 0 0 1-2.786.779 12.76 12.76 0 0 1-2.382.325 7.918 7.918 0 0 1-2.093-.202 7.115 7.115 0 0 1-1.95-.78 4.974 4.974 0 0 1-1.681-1.444 2.385 2.385 0 0 1-.455-1.559 2.93 2.93 0 0 1 .664-1.581 7.2 7.2 0 0 1 1.675-1.502l-2.383-1.365 1.408-.808 2.368 1.364c1.11-.55 2.277-.979 3.479-1.278a24.741 24.741 0 0 1 3.48-.628l1.183 2.339zm-6.865 4.246a2.926 2.926 0 0 0 1.755.382 11.996 11.996 0 0 0 2.418-.541l-3.797-2.166c-1.405.895-1.53 1.67-.376 2.325zm13.312 1.112a3.093 3.093 0 0 0-1.899-.34c-.899.115-1.785.311-2.649.585l3.768 2.166c1.598-.977 1.85-1.781.758-2.411h.022z" fill="#CC8B09"/><path d="M109.355 173.461c.044-.101 0-1.364 0-1.364l1.552.996-.671 1.033-.881-.665zm13.499.867v-1.365l-3.356.253 1.927 1.314 1.429-.202zm.282-5.018v-1.379l-2.512.91 2.512.469zm-10.395-.072l.837-.802 2.946 2.036-.188.6s-2.166-.925-2.267-.982l-1.328-.852zm-7.702-4.311l3.905 2.217.801-.578s-.491-.563-.527-.621a5.369 5.369 0 0 0-1.22-1.018c-.289-.05-2.165-.881-2.165-.881l-.794.881zm6.497-1.408v-1.364l-1.791-.585-.39 1.069.094.491 2.087.389zm-11.926-.989v-1.364l2.086.223-.678 1.322-1.408-.181zm.08 4.643v-1.444h2.382l-.578 1.27-1.039 1.141-.765-.967z" fill="#CC8B09"/><path d="M111.535 162.155a4.943 4.943 0 0 0-.924.072c-.411.058-.88.144-1.393.253-.512.108-1.054.245-1.602.411-.543.163-1.074.363-1.588.6l4.056 2.339.722-.253c1.025-.346 2-.635 2.888-.874a13.676 13.676 0 0 1 2.62-.433 9.25 9.25 0 0 1 2.418.159c.811.176 1.589.48 2.303.903a4.634 4.634 0 0 1 1.747 1.538 2.082 2.082 0 0 1 .26 1.581 3.561 3.561 0 0 1-.953 1.559 9.817 9.817 0 0 1-1.848 1.444l2.577 1.488-1.407.808-2.599-1.502a21.57 21.57 0 0 1-3.869 1.444c-1.396.383-2.82.649-4.259.795l-1.365-2.433c.382-.01.762-.039 1.141-.087a17.383 17.383 0 0 0 1.696-.296 29.034 29.034 0 0 0 1.978-.506c.679-.19 1.343-.431 1.985-.722l-4.035-2.324-.527.18-.549.166c-.914.31-1.844.573-2.786.787a12.75 12.75 0 0 1-2.382.318 8.225 8.225 0 0 1-2.093-.195 6.954 6.954 0 0 1-1.95-.787 4.882 4.882 0 0 1-1.681-1.444 2.396 2.396 0 0 1-.455-1.567c.057-.58.289-1.128.664-1.574a7.199 7.199 0 0 1 1.638-1.487l-2.346-1.35 1.408-.816 2.368 1.372a16.279 16.279 0 0 1 3.479-1.278 26 26 0 0 1 3.48-.636l1.183 2.347zm-6.865 4.245c.531.308 1.145.44 1.755.376.823-.09 1.635-.272 2.418-.542l-3.797-2.166c-1.405.895-1.53 1.673-.376 2.332zm13.29 1.105a3.033 3.033 0 0 0-1.898-.339c-.899.115-1.785.308-2.65.577l3.768 2.166c1.613-.967 1.872-1.769.78-2.404z" fill="#F9CA06"/><path d="M111.145 183.793c19.468 0 35.249-9.112 35.249-20.353 0-11.241-15.781-20.353-35.249-20.353-19.467 0-35.248 9.112-35.248 20.353 0 11.241 15.781 20.353 35.248 20.353z" fill="#F99422"/><path d="M75.904 163.743v-9.27l6.966 6.202-6.966 3.068zm70.49-9.025v8.722l-3.559 3.776-1.747-9.985 5.306-2.513z" fill="#DD990E"/><path d="M111.146 175.072c19.467 0 35.248-9.113 35.248-20.354s-15.781-20.353-35.248-20.353c-19.468 0-35.249 9.112-35.249 20.353 0 11.241 15.781 20.354 35.249 20.354z" fill="#F9CB07"/><path d="M136.339 155.346c-.361 3.43-2.801 6.802-7.349 9.43-9.853 5.689-25.836 5.689-35.69 0-4.547-2.628-6.987-6-7.333-9.43-.426-4.014 2.021-8.115 7.334-11.176 9.853-5.697 25.836-5.697 35.689 0 5.313 3.061 7.767 7.162 7.349 11.176z" fill="#CC8B09"/><path d="M136.339 155.346c-.361 3.43-2.801 6.802-7.349 9.43-9.853 5.689-25.836 5.689-35.689 0-4.548-2.628-6.988-6-7.334-9.43.346-3.429 2.786-6.808 7.334-9.429 9.853-5.697 25.836-5.697 35.689 0 4.555 2.621 6.988 6 7.349 9.429z" fill="#F99422"/><path d="M110.777 150.574a5.971 5.971 0 0 0-.924.079c-.418.058-.88.137-1.4.246-.52.108-1.047.245-1.602.411-.541.164-1.07.367-1.581.607l4.049 2.339.722-.253a50.75 50.75 0 0 1 2.888-.873 13.58 13.58 0 0 1 2.627-.433c.807-.054 1.618 0 2.411.158.814.176 1.593.48 2.31.903.703.353 1.304.88 1.747 1.531a2.055 2.055 0 0 1 .253 1.588 3.486 3.486 0 0 1-.946 1.56 9.905 9.905 0 0 1-1.855 1.444l2.577 1.494-1.4.809-2.606-1.502a20.804 20.804 0 0 1-3.862 1.444 25.451 25.451 0 0 1-4.267.801l-1.357-2.433a11.03 11.03 0 0 0 1.134-.086 19.451 19.451 0 0 0 1.703-.296 30.26 30.26 0 0 0 1.978-.506c.677-.19 1.338-.432 1.978-.722l-4.028-2.325-.527.181-.548.166c-1.018.332-1.95.599-2.794.787-.78.181-1.575.287-2.375.318a8.288 8.288 0 0 1-2.101-.195 7.171 7.171 0 0 1-1.941-.787 5 5 0 0 1-1.69-1.444 2.516 2.516 0 0 1-.454-1.567c.057-.58.289-1.128.664-1.574a7.201 7.201 0 0 1 1.646-1.487l-2.39-1.38 1.401-.815 2.367 1.364a17.538 17.538 0 0 1 3.48-1.278 26.314 26.314 0 0 1 3.479-.628l1.234 2.354zm-6.893 4.252a2.942 2.942 0 0 0 1.761.376c.821-.09 1.63-.272 2.411-.542l-3.797-2.166c-1.386.888-1.516 1.675-.375 2.332zm13.311 1.127a3.013 3.013 0 0 0-1.899-.332c-.898.115-1.784.308-2.649.577l3.775 2.166c1.613-.986 1.87-1.79.773-2.411z" fill="#CC8B09"/><path d="M108.597 160.523c.036-.101 0-1.372 0-1.372l1.545.997-.671 1.039-.874-.664zm13.492.866v-1.371l-3.349.26 1.927 1.314 1.422-.203zm.289-5.017v-1.387l-2.513.91 2.513.477zm-10.402-.073l.837-.801 2.945 2.036-.18.599s-2.202-.931-2.274-.982c-.072-.05-1.328-.852-1.328-.852zm-7.703-4.31l3.905 2.217.802-.578s-.491-.57-.527-.621a5.053 5.053 0 0 0-1.22-1.018c-.289-.058-2.166-.888-2.166-.888l-.794.888zm6.504-1.415v-1.365l-1.797-.585-.383 1.076.094.491 2.086.383zm-11.925-.982v-1.372l2.079.224-.671 1.328-1.408-.18zm.043 4.635v-1.444h2.39l-.585 1.271-1.004 1.177-.8-1.004z" fill="#CC8B09"/><path d="M110.777 149.209a5.842 5.842 0 0 0-.924.072c-.418.065-.88.145-1.4.253a19.34 19.34 0 0 0-1.603.412c-.542.16-1.07.363-1.581.606l4.05 2.339.722-.259a56.505 56.505 0 0 1 2.887-.874c.86-.229 1.74-.375 2.628-.433a9.157 9.157 0 0 1 2.411.166 7.77 7.77 0 0 1 2.31.895 4.699 4.699 0 0 1 1.747 1.538c.146.233.244.493.288.765a2.06 2.06 0 0 1-.035.816 3.508 3.508 0 0 1-.946 1.567 10.21 10.21 0 0 1-1.855 1.444l2.577 1.487-1.401.816-2.606-1.502a21.267 21.267 0 0 1-3.862 1.444 25.524 25.524 0 0 1-4.266.802l-1.357-2.441a11.01 11.01 0 0 0 1.133-.086 16.881 16.881 0 0 0 1.704-.289 30.733 30.733 0 0 0 1.978-.505 14.004 14.004 0 0 0 1.978-.722l-3.992-2.289-.527.187-.549.167a32.966 32.966 0 0 1-2.793.787c-.78.18-1.575.287-2.375.317a8.242 8.242 0 0 1-2.101-.195 7.349 7.349 0 0 1-1.942-.787 4.996 4.996 0 0 1-1.689-1.444 2.475 2.475 0 0 1-.454-1.559 2.88 2.88 0 0 1 .664-1.574 7.257 7.257 0 0 1 1.645-1.495l-2.389-1.379 1.4-.808 2.368 1.364a17.515 17.515 0 0 1 3.48-1.278c1.143-.29 2.306-.5 3.479-.628l1.198 2.303zm-6.894 4.253c.535.302 1.15.433 1.762.375.82-.097 1.628-.278 2.411-.541l-3.797-2.166c-1.386.888-1.516 1.668-.376 2.332zm13.312 1.105a3.064 3.064 0 0 0-1.899-.34 15.8 15.8 0 0 0-2.649.585l3.775 2.166c1.61-.975 1.87-1.747.773-2.411z" fill="#F9CA06"/><path opacity=".1" d="M262.788 353.342c19.467 0 35.249-9.112 35.249-20.353 0-11.241-15.782-20.353-35.249-20.353-19.467 0-35.249 9.112-35.249 20.353 0 11.241 15.782 20.353 35.249 20.353z" fill="#D6D8E5"/><path d="M266.96 349.328c19.468 0 35.249-9.113 35.249-20.353 0-11.241-15.781-20.354-35.249-20.354-19.467 0-35.248 9.113-35.248 20.354 0 11.24 15.781 20.353 35.248 20.353z" fill="#F99422"/><path d="M231.726 329.285v-9.278l6.959 6.21-6.959 3.068zm70.483-9.032v8.722l-3.559 3.783-1.739-9.985 5.298-2.52z" fill="#F99422"/><path d="M266.96 340.606c19.468 0 35.249-9.112 35.249-20.353 0-11.241-15.781-20.354-35.249-20.354-19.467 0-35.248 9.113-35.248 20.354s15.781 20.353 35.248 20.353z" fill="#F9CB07"/><path d="M292.153 320.881c-.353 3.429-2.8 6.808-7.341 9.437-9.861 5.682-25.836 5.682-35.696 0-4.541-2.629-6.981-6.008-7.334-9.437-.426-4.007 2.028-8.108 7.334-11.17 9.86-5.696 25.835-5.696 35.696 0 5.313 3.062 7.76 7.163 7.341 11.17z" fill="#CC8B09"/><path d="M292.153 320.881c-.353 3.429-2.8 6.808-7.341 9.437-9.861 5.682-25.836 5.682-35.696 0-4.541-2.629-6.981-6.008-7.334-9.437.353-3.422 2.793-6.801 7.334-9.43 9.86-5.696 25.835-5.696 35.696 0 4.541 2.621 6.988 6.008 7.341 9.43z" fill="#E8A30A"/><path d="M266.592 316.116a5.726 5.726 0 0 0-.924.072c-.411.058-.881.144-1.393.253-.513.108-1.054.245-1.603.411-.542.163-1.073.363-1.588.599l4.057 2.347.722-.26c1.025-.339 2-.635 2.888-.874a13.663 13.663 0 0 1 2.62-.433 9.253 9.253 0 0 1 2.418.166c.812.17 1.59.472 2.303.896a4.639 4.639 0 0 1 1.747 1.537 2.073 2.073 0 0 1 .26 1.582 3.566 3.566 0 0 1-.953 1.566 9.89 9.89 0 0 1-1.848 1.444l2.62 1.502-1.444.816-2.598-1.502a21.362 21.362 0 0 1-3.869 1.444c-1.394.39-2.819.656-4.259.794l-1.365-2.433c.382-.009.762-.038 1.141-.086.57-.067 1.136-.164 1.696-.289a25.6 25.6 0 0 0 1.978-.513c.679-.19 1.343-.432 1.985-.722l-4.035-2.325-.527.181-.549.173a30.162 30.162 0 0 1-2.786.78c-.782.184-1.58.291-2.382.318a7.642 7.642 0 0 1-2.094-.195 7.046 7.046 0 0 1-1.941-.78 4.952 4.952 0 0 1-1.69-1.444 2.392 2.392 0 0 1-.454-1.56c.059-.581.29-1.132.664-1.581a7.199 7.199 0 0 1 1.638-1.487l-2.389-1.379 1.408-.809 2.367 1.365a17.127 17.127 0 0 1 3.48-1.278 24.728 24.728 0 0 1 3.479-.628l1.22 2.332zm-6.886 4.245c.53.308 1.143.441 1.754.383a11.998 11.998 0 0 0 2.418-.542l-3.797-2.166c-1.391.891-1.516 1.666-.375 2.325zm13.311 1.112a3.042 3.042 0 0 0-1.899-.339c-.899.115-1.785.31-2.649.584l3.768 2.167c1.612-.978 1.872-1.781.78-2.412z" fill="#CC8B09"/><path d="M264.412 326.058c.044-.101 0-1.365 0-1.365l1.552.997-.671 1.032-.881-.664zm13.499.866v-1.364l-3.357.252 1.928 1.314 1.429-.202zm.282-5.018v-1.379l-2.512.91 2.512.469zm-10.381-.072l.837-.801 2.946 2.036-.188.599s-2.166-.924-2.267-.982l-1.328-.852zm-7.717-4.31l3.906 2.216.801-.577s-.491-.564-.527-.621a5.343 5.343 0 0 0-1.22-1.018c-.289-.051-2.166-.881-2.166-.881l-.794.881zm6.497-1.408v-1.365l-1.79-.585-.39 1.069.094.491 2.086.39zm-11.925-.989v-1.365l2.086.224-.678 1.321-1.408-.18zm.079 4.642v-1.444h2.383l-.578 1.271-1.011 1.155-.794-.982z" fill="#CC8B09"/><path d="M266.592 314.751a5.022 5.022 0 0 0-.924.072 19.072 19.072 0 0 0-2.996.665c-.542.162-1.073.362-1.588.599l4.057 2.317.722-.252c1.025-.347 2-.636 2.888-.874.857-.23 1.734-.375 2.62-.433a9.21 9.21 0 0 1 2.418.159c.811.175 1.589.48 2.303.902a4.594 4.594 0 0 1 1.747 1.538 2.076 2.076 0 0 1 .26 1.581 3.503 3.503 0 0 1-.953 1.56 9.933 9.933 0 0 1-1.848 1.444l2.577 1.487-1.401.831-2.598-1.502a21.437 21.437 0 0 1-3.869 1.444c-1.396.382-2.82.648-4.259.794l-1.365-2.433c.382-.01.762-.038 1.141-.087.57-.07 1.136-.168 1.696-.296.628-.13 1.285-.303 1.978-.505a14.092 14.092 0 0 0 1.985-.722l-4.035-2.325-.527.18-.549.166c-.914.31-1.844.573-2.786.787-.782.181-1.58.288-2.382.318a8.237 8.237 0 0 1-2.094-.195 7.033 7.033 0 0 1-1.941-.787 4.843 4.843 0 0 1-1.69-1.444 2.41 2.41 0 0 1-.454-1.567 2.887 2.887 0 0 1 .664-1.574 7.222 7.222 0 0 1 1.638-1.487l-2.389-1.379 1.408-.816 2.367 1.372a16.736 16.736 0 0 1 3.48-1.285 27.014 27.014 0 0 1 3.479-.628l1.22 2.375zm-6.886 4.245a2.935 2.935 0 0 0 1.754.376c.823-.09 1.635-.271 2.418-.542l-3.797-2.166c-1.391.896-1.516 1.673-.375 2.332zm13.311 1.112a3.042 3.042 0 0 0-1.899-.339c-.898.116-1.784.309-2.649.578l3.768 2.166c1.612-.973 1.872-1.774.78-2.405z" fill="#F9CA06"/><path d="M266.96 337.913c19.468 0 35.249-9.112 35.249-20.353 0-11.241-15.781-20.354-35.249-20.354-19.467 0-35.248 9.113-35.248 20.354s15.781 20.353 35.248 20.353z" fill="#F99422"/><path d="M231.726 317.863v-9.271l6.959 6.202-6.959 3.069zm70.483-9.032v8.729l-3.559 3.776-1.739-9.986 5.298-2.519z" fill="#F99422"/><path d="M266.96 329.184c19.468 0 35.249-9.113 35.249-20.353 0-11.241-15.781-20.354-35.249-20.354-19.467 0-35.248 9.113-35.248 20.354 0 11.24 15.781 20.353 35.248 20.353z" fill="#F9CB07"/><path d="M292.153 309.466c-.353 3.43-2.8 6.801-7.341 9.429-9.861 5.69-25.836 5.69-35.696 0-4.541-2.628-6.981-5.999-7.334-9.429-.426-4.014 2.028-8.115 7.334-11.177 9.86-5.696 25.835-5.696 35.696 0 5.313 3.062 7.76 7.163 7.341 11.177z" fill="#CC8B09"/><path d="M292.153 309.466c-.353 3.43-2.8 6.801-7.341 9.429-9.861 5.69-25.836 5.69-35.696 0-4.541-2.628-6.981-5.999-7.334-9.429.353-3.43 2.793-6.809 7.334-9.429 9.86-5.697 25.835-5.697 35.696 0 4.541 2.62 6.988 5.999 7.341 9.429z" fill="#F99422"/><path d="M266.592 304.686c-.309 0-.618.024-.924.072-.411.065-.881.145-1.393.253a19.34 19.34 0 0 0-1.603.412c-.543.162-1.074.364-1.588.606l4.057 2.34.722-.26c1.025-.34 2-.629 2.888-.874.857-.23 1.734-.375 2.62-.433a9.522 9.522 0 0 1 2.418.166c.812.172 1.59.477 2.303.902a4.583 4.583 0 0 1 1.747 1.531 2.115 2.115 0 0 1 .26 1.588 3.501 3.501 0 0 1-.903 1.567 9.572 9.572 0 0 1-1.848 1.444l2.57 1.516-1.444.802-2.598-1.502a20.942 20.942 0 0 1-3.869 1.444 25.28 25.28 0 0 1-4.259.802l-1.365-2.434a9.68 9.68 0 0 0 1.141-.094c.57-.067 1.136-.163 1.696-.288a30.26 30.26 0 0 0 1.978-.506c.679-.19 1.343-.432 1.985-.722l-4.035-2.332-.527.188-.549.166a30.358 30.358 0 0 1-2.786.787 12.75 12.75 0 0 1-2.382.318 8.237 8.237 0 0 1-2.094-.195 7.329 7.329 0 0 1-1.941-.787 4.805 4.805 0 0 1-1.69-1.444 2.392 2.392 0 0 1-.454-1.56c.057-.58.289-1.128.664-1.574a7.027 7.027 0 0 1 1.638-1.487l-2.389-1.386 1.408-.809 2.367 1.365a17.127 17.127 0 0 1 3.48-1.278 24.875 24.875 0 0 1 3.479-.629l1.22 2.325zm-6.886 4.253a2.934 2.934 0 0 0 1.754.375 11.075 11.075 0 0 0 2.418-.541l-3.797-2.166c-1.393.895-1.516 1.689-.375 2.339v-.007zm13.311 1.105a3.093 3.093 0 0 0-1.899-.34c-.897.122-1.783.318-2.649.585l3.768 2.166c1.612-.967 1.872-1.769.78-2.404v-.007z" fill="#CC8B09"/><path d="M264.412 314.643c.044-.101 0-1.372 0-1.372l1.552.996-.671 1.033-.881-.657zm13.499.859v-1.365l-3.357.26 1.928 1.307 1.429-.202zm.282-5.018v-1.379l-2.512.91 2.512.469zm-10.381-.072l.837-.794 2.946 2.036-.188.599s-2.166-.931-2.267-.982a69.101 69.101 0 0 1-1.328-.859zm-7.717-4.282l3.906 2.217.801-.585s-.491-.563-.527-.614a5.057 5.057 0 0 0-1.22-1.018c-.289-.057-2.166-.888-2.166-.888l-.794.888zm6.497-1.436v-1.365l-1.79-.585-.39 1.076.094.491 2.086.383zm-11.925-.99v-1.364l2.086.224-.678 1.328-1.408-.188zm.079 4.643v-1.444h2.383l-.578 1.271-1.011 1.162-.794-.989z" fill="#CC8B09"/><path d="M266.592 303.329a5.726 5.726 0 0 0-.924.072 21.387 21.387 0 0 0-2.996.664 12.21 12.21 0 0 0-1.588.6l4.057 2.346.722-.26c1.025-.339 2-.635 2.888-.873.857-.23 1.734-.375 2.62-.434a9.253 9.253 0 0 1 2.418.166 7.731 7.731 0 0 1 2.303.896 4.641 4.641 0 0 1 1.747 1.538 2.081 2.081 0 0 1 .26 1.581 3.558 3.558 0 0 1-.903 1.559 9.826 9.826 0 0 1-1.848 1.444l2.577 1.488-1.451.837-2.598-1.502a21.362 21.362 0 0 1-3.869 1.444 25.28 25.28 0 0 1-4.259.802l-1.365-2.441c.382-.009.762-.038 1.141-.086.57-.067 1.136-.164 1.696-.289a29.603 29.603 0 0 0 1.978-.505 15.037 15.037 0 0 0 1.985-.722l-4.035-2.325-.527.18-.549.174a29.823 29.823 0 0 1-2.786.779 12.76 12.76 0 0 1-2.382.325 7.93 7.93 0 0 1-2.094-.202 6.985 6.985 0 0 1-1.941-.78 4.93 4.93 0 0 1-1.69-1.444 2.388 2.388 0 0 1-.454-1.559 2.93 2.93 0 0 1 .664-1.581 7.203 7.203 0 0 1 1.638-1.488l-2.389-1.379 1.408-.808 2.367 1.364a17.187 17.187 0 0 1 3.48-1.278 24.728 24.728 0 0 1 3.479-.628l1.22 2.325zm-6.886 4.245a2.93 2.93 0 0 0 1.754.383 11.998 11.998 0 0 0 2.418-.542l-3.797-2.166c-1.391.891-1.516 1.666-.375 2.325zm13.311 1.112a3.042 3.042 0 0 0-1.899-.339c-.899.115-1.785.31-2.649.585l3.768 2.166c1.612-.977 1.872-1.781.78-2.412z" fill="#F9CA06"/><path opacity=".15" d="M217.144 194.638l-12.878-7.646.087-76.129 12.878 7.646-.087 76.129z" fill="#000"/><path d="M207.233 115.961c-15.542 9.667-27.958 31.602-27.958 49.717s12.416 25.718 27.958 17.444v-67.161z" fill="#F99422"/><path d="M207.226 115.954l7.637 4.361-6.186 13.14-6.88-5.942 5.429-11.559z" fill="#F99422"/><path d="M196.723 189.533c-.159-.072-10.106-5.776-10.106-5.776l5.32-4.245 4.786 10.021z" fill="#DD990E"/><path d="M214.863 120.314c-15.534 9.675-27.95 31.61-27.95 49.725 0 18.115 12.416 25.711 27.95 17.444v-67.169z" fill="#F9CB07"/><path d="M214.863 132.127c-10.972 7.025-19.678 22.548-19.678 35.378 0 12.83 8.706 18.303 19.678 12.657v-48.035z" fill="#F99422"/><path d="M210.294 157.303a3.447 3.447 0 0 0 1.703.245c.82-.074 1.631-.218 2.426-.433l.44-.101v-4.498a3.35 3.35 0 0 1-1.444 0c-.425-.116-.642-.534-.642-1.256a4.51 4.51 0 0 1 2.057-3.61v-3.813a16.128 16.128 0 0 0-2.165 1.834 14.147 14.147 0 0 0-1.985 2.535 13.272 13.272 0 0 0-1.314 2.888 10.404 10.404 0 0 0-.477 3.104c-.031.696.087 1.39.347 2.036.205.476.581.857 1.054 1.069zm4.569 5.206a8.77 8.77 0 0 1-1.357.411 12.16 12.16 0 0 1-1.667.224c-.43.026-.861.004-1.285-.065a2.716 2.716 0 0 1-.758-.231l-1.668 4.722a8.255 8.255 0 0 0 3.299.043 13.322 13.322 0 0 0 3.436-1.119v-3.985z" fill="#F9CA06"/><path opacity=".1" d="M132.202 360.281L1.227 284.658c-1.82-1.047-1.588-2.888.505-4.08l73.19-42.266c2.094-1.213 5.263-1.343 7.075-.296l130.953 75.638c1.812 1.047 1.588 2.888-.505 4.086l-73.168 42.259c-2.123 1.213-5.263 1.343-7.075.282z" fill="#D6D8E5"/><path d="M217.231 310.831l-1.371.498-130.831-75.551c-1.812-1.047-4.981-.917-7.075.289l-73.19 42.266c-.3.171-.58.375-.837.606l-.888-.722v2.398a2.084 2.084 0 0 0 1.22 1.783l130.975 75.659c1.812 1.047 4.981.91 7.075-.296l73.19-42.245c1.184-.722 1.768-1.566 1.732-2.389v-2.296z" fill="#DADCE5"/><path d="M135.234 355.747L4.259 280.138c-1.82-1.047-1.588-2.888.505-4.079l73.197-42.295c2.094-1.213 5.263-1.343 7.075-.297l130.968 75.638c1.819 1.047 1.588 2.888-.506 4.087l-73.19 42.259c-2.093 1.22-5.262 1.343-7.074.296z" fill="#fff"/><path d="M47.86 292.463l-25.136-14.505 5.818-3.358 25.128 14.505-5.81 3.358zm50.097-29.523l-25.128-14.513 5.81-3.357 25.129 14.512-5.811 3.358zM78.3 310.051l-25.12-14.513 5.81-3.357 25.129 14.512-5.818 3.358zm30.456 17.581l-25.135-14.513 5.818-3.357 25.128 14.512-5.811 3.358zm30.449 17.581L114.076 330.7l5.811-3.357 25.129 14.512-5.811 3.358z" fill="#6A9A9A"/><path opacity=".5" d="M185.621 315.877c5.856 0 10.604-2.741 10.604-6.122 0-3.382-4.748-6.123-10.604-6.123-5.857 0-10.605 2.741-10.605 6.123 0 3.381 4.748 6.122 10.605 6.122z" fill="#6A9A9A"/><path opacity=".5" d="M177.406 311.127c5.856 0 10.604-2.742 10.604-6.123 0-3.381-4.748-6.123-10.604-6.123-5.857 0-10.604 2.742-10.604 6.123 0 3.381 4.747 6.123 10.604 6.123z" fill="#EB5757"/><rect x=".5" y="50.5" width="107" height="37" rx="4.5" stroke="#F99422"/><g clip-path="url(#b)" fill="#F99422"><path d="M23.967 56c.557 0 .835.285.835.853v12.074c0 .544-.278.816-.835.816h-3.722c-.557 0-.835-.272-.835-.816V56.853c0-.57.278-.853.835-.853h3.722z"/><path d="M10.978 56c.556 0 .835.272.835.816v14.822c0 .991.082 1.813.246 2.47.163.657.436 1.177.816 1.56.38.384.894.656 1.539.816.645.162 1.46.24 2.451.24h10.523c.987 0 1.803-.08 2.45-.24.646-.16 1.16-.432 1.54-.816.38-.385.645-.903.797-1.56.153-.657.228-1.479.228-2.47V56.816c0-.544.278-.816.834-.816h4.14c.557 0 .835.272.835.816v15.38c0 1.781-.19 3.299-.57 4.55-.38 1.25-.992 2.266-1.84 3.046-.85.78-1.952 1.342-3.306 1.69-1.354.348-2.994.52-4.919.52h-10.94c-1.924 0-3.559-.172-4.9-.52-1.343-.346-2.437-.91-3.286-1.69-.848-.78-1.469-1.796-1.862-3.046C6.195 75.495 6 73.977 6 72.196v-15.38c0-.544.292-.816.875-.816h4.103zm59.505 0c.557 0 .835.272.835.816v3.64c0 .57-.278.853-.835.853H51.451c-.988 0-1.804.082-2.449.241-.645.162-1.159.434-1.539.817-.38.384-.653.897-.816 1.54-.166.645-.246 1.461-.246 2.453v5.348c0 .992.083 1.814.246 2.47.163.657.436 1.178.816 1.56.38.385.894.657 1.539.817.645.162 1.461.24 2.449.24h12.535c.658 0 1.14-.167 1.442-.502.302-.335.455-.921.455-1.764v-3.01c0-.32-.153-.483-.455-.483h-11.13c-.557 0-.835-.285-.835-.853v-2.78c0-.57.278-.855.835-.855h15.84c.76 0 1.14.372 1.14 1.115v8.653c0 2.08-.404 3.549-1.215 4.402-.81.855-1.975 1.282-3.495 1.282H51.221c-1.925 0-3.56-.173-4.9-.52-1.344-.346-2.438-.911-3.287-1.691-.848-.78-1.469-1.795-1.862-3.046-.394-1.25-.589-2.766-.589-4.55v-6.388c0-1.782.195-3.292.589-4.532.393-1.238 1.011-2.248 1.862-3.028.849-.78 1.943-1.35 3.287-1.709 1.343-.355 2.978-.536 4.902-.536h19.26zm29.695 0c.556 0 .835.272.835.816v3.53c0 .545-.279.817-.835.817H81.145c-.736 0-1.252.186-1.557.557-.305.372-.455.88-.455 1.523v1.264c0 1.387.658 2.08 1.975 2.08h14.245c2.202 0 3.861.552 4.977 1.654 1.114 1.102 1.67 2.682 1.67 4.737v2.972c0 1.808-.546 3.268-1.632 4.383-1.09 1.115-2.786 1.672-5.09 1.672H74.233c-.584 0-.875-.272-.875-.816v-3.533c0-.544.291-.816.875-.816h19.942c.734 0 1.253-.186 1.558-.558.302-.371.455-.879.455-1.522v-1.523c0-1.387-.659-2.08-1.975-2.08H79.968c-2.203 0-3.862-.553-4.975-1.655-1.116-1.101-1.673-2.68-1.673-4.736v-2.71c0-1.809.544-3.27 1.633-4.384C76.042 56.557 77.739 56 80.043 56h20.135z"/></g></g><defs><clipPath id="a"><path fill="#fff" d="M0 0h365v436H0z"/></clipPath><clipPath id="b"><path fill="#fff" transform="translate(6 56)" d="M0 0h96v26H0z"/></clipPath></defs></svg>