<svg width="283" height="546" viewBox="0 0 283 546" fill="none" xmlns="http://www.w3.org/2000/svg"><g opacity=".3" fill="#6B6B6B"><path d="M169.784 322.708c-4.202-4.179-10.973-4.158-15.139.031-4.16 4.182-4.136 10.973.052 15.138l7.645 7.605a1.006 1.006 0 0 0 1.423-.003l9.923-9.977 1.58 1.572a1.005 1.005 0 0 0 1.422-.003l3.038-3.054a1.006 1.006 0 0 0-.005-1.423l-1.58-1.571 1.62-1.629 1.58 1.572c.394.392 1.031.39 1.423-.003l3.037-3.054a1.006 1.006 0 0 0-.005-1.423l-1.58-1.572 2.329-2.341a1.007 1.007 0 0 0-.005-1.423l-3.058-3.041a1.007 1.007 0 0 0-1.423.002l-2.329 2.342-4.638-4.613a1.007 1.007 0 0 0-1.423.002l-3.037 3.055c-.392.393-.39 1.03.005 1.422l4.638 4.614-1.62 1.628-3.873-3.853zm-6.758 14.542l-3.874-3.852a4.387 4.387 0 0 1-.021-6.197 4.387 4.387 0 0 1 6.197-.013l3.874 3.853-6.176 6.209zm63.122 120.859c-4.545-.739-8.82 2.384-9.566 6.972-.744 4.581 2.336 8.907 6.866 9.643l8.271 1.344a.788.788 0 0 0 .9-.655l1.775-10.928 1.709.278a.787.787 0 0 0 .9-.655l.543-3.345a.788.788 0 0 0-.645-.907l-1.709-.277.29-1.784 1.709.278a.787.787 0 0 0 .899-.656l.543-3.345a.785.785 0 0 0-.645-.906l-1.709-.278.417-2.564a.787.787 0 0 0-.646-.906l-3.308-.538a.786.786 0 0 0-.899.655l-.417 2.565-5.018-.816a.787.787 0 0 0-.899.655l-.543 3.346a.787.787 0 0 0 .645.906l5.018.815-.29 1.784-4.191-.681zm2.288 12.389l-4.19-.681c-1.855-.301-3.116-2.072-2.811-3.947.305-1.875 2.061-3.156 3.916-2.854l4.19.681-1.105 6.801z"/><path d="M83.935 449.239c-2.903 2.183-3.46 6.322-1.256 9.252 2.2 2.926 6.345 3.535 9.238 1.359l5.283-3.974a.62.62 0 0 0 .118-.869l-5.25-6.979 1.092-.821a.621.621 0 0 0 .118-.87l-1.607-2.136a.62.62 0 0 0-.869-.128l-1.091.821-.857-1.139 1.091-.821a.62.62 0 0 0 .119-.87l-1.608-2.136a.62.62 0 0 0-.868-.128l-1.091.821-1.232-1.638a.62.62 0 0 0-.869-.127l-2.113 1.589a.621.621 0 0 0-.118.87l1.232 1.638-3.204 2.41a.621.621 0 0 0-.118.87l1.607 2.136a.62.62 0 0 0 .868.128l3.205-2.411.856 1.139-2.676 2.014zm8.301 5.464l-2.676 2.013c-1.185.891-2.881.642-3.782-.556-.9-1.198-.67-2.897.514-3.788l2.677-2.013 3.267 4.344z" filter="url(#a)"/><path d="M227.585 237.541c-3.569 4.402-2.893 10.841 1.495 14.399 4.381 3.552 10.84 2.872 14.397-1.516l6.493-8.01a.962.962 0 0 0-.14-1.353l-10.452-8.473 1.342-1.655a.962.962 0 0 0-.141-1.354l-3.199-2.594a.962.962 0 0 0-1.353.143l-1.342 1.655-1.706-1.383 1.342-1.655a.963.963 0 0 0-.141-1.353l-3.2-2.594a.961.961 0 0 0-1.353.142l-1.342 1.655-2.452-1.988a.961.961 0 0 0-1.353.142l-2.598 3.204a.962.962 0 0 0 .141 1.354l2.453 1.988-3.94 4.859a.962.962 0 0 0 .141 1.354l3.199 2.593a.961.961 0 0 0 1.353-.142l3.94-4.859 1.706 1.383-3.29 4.058zm14.488 5.02l-3.29 4.059a4.195 4.195 0 0 1-5.893.62 4.195 4.195 0 0 1-.612-5.894l3.29-4.059 6.505 5.274zm-80.969-9.309c5.258 2.113 11.212-.43 13.319-5.672 2.103-5.233-.449-11.204-5.69-13.31l-9.568-3.846a.963.963 0 0 0-1.252.533l-5.017 12.485-1.977-.795a.962.962 0 0 0-1.252.533l-1.536 3.822a.962.962 0 0 0 .535 1.251l1.977.795-.819 2.037-1.977-.794a.962.962 0 0 0-1.252.533l-1.536 3.822a.963.963 0 0 0 .535 1.251l1.977.794-1.177 2.93a.962.962 0 0 0 .534 1.251l3.828 1.538a.961.961 0 0 0 1.251-.533l1.178-2.93 5.804 2.333a.962.962 0 0 0 1.252-.533l1.536-3.822a.962.962 0 0 0-.535-1.251l-5.804-2.333.819-2.037 4.847 1.948zm.529-15.325l4.847 1.948a4.196 4.196 0 0 1 2.329 5.449 4.195 4.195 0 0 1-5.452 2.322l-4.847-1.948 3.123-7.771zm113.583 98.327c-5.632-.628-10.688 3.416-11.314 9.03-.626 5.606 3.432 10.676 9.046 11.302l10.248 1.143a.962.962 0 0 0 1.063-.848l1.492-13.372 2.118.236a.962.962 0 0 0 1.063-.849l.457-4.093a.963.963 0 0 0-.85-1.063l-2.118-.236.243-2.182 2.118.236a.96.96 0 0 0 1.063-.849l.457-4.093a.963.963 0 0 0-.85-1.063l-2.118-.236.351-3.138a.963.963 0 0 0-.851-1.062l-4.099-.458a.963.963 0 0 0-1.063.849l-.35 3.138-6.217-.693a.962.962 0 0 0-1.064.848l-.456 4.094a.961.961 0 0 0 .85 1.062l6.217.694-.244 2.182-5.192-.579zm3.594 14.907l-5.192-.58a4.194 4.194 0 0 1-3.703-4.626 4.193 4.193 0 0 1 4.631-3.696l5.192.579-.928 8.323z"/><path d="M244.27 157.937l.561-.888 1.773 1.119-1.455 2.305a1.966 1.966 0 0 0 .612 2.71 1.966 1.966 0 0 0 2.709-.615l1.455-2.305.603.381a1.967 1.967 0 0 0 2.098-3.325l-.603-.381.56-.888a4.984 4.984 0 0 0-1.549-6.868 4.984 4.984 0 0 0-6.866 1.559l-.56.888-1.773-1.119 1.454-2.305a1.968 1.968 0 0 0-.611-2.711 1.969 1.969 0 0 0-2.71.615l-1.454 2.305-.604-.38a1.966 1.966 0 0 0-2.098 3.325l.604.381-.561.888a4.985 4.985 0 0 0 1.549 6.868 4.984 4.984 0 0 0 6.866-1.559zm3.219-5.101a1.048 1.048 0 1 1 1.773 1.119l-.56.888-1.773-1.119.56-.888zm-8.313 1.887l.56-.888 1.774 1.119-.56.888a1.048 1.048 0 1 1-1.774-1.119z" filter="url(#b)"/><path d="M126.198 165.511l1.237.444-.884 2.461-3.211-1.154a2.457 2.457 0 0 0-3.145 1.471 2.457 2.457 0 0 0 1.489 3.136l3.211 1.154-.301.838a2.458 2.458 0 0 0 1.488 3.137 2.458 2.458 0 0 0 3.145-1.472l.301-.837 1.237.444c3.237 1.163 6.812-.509 7.968-3.728 1.157-3.219-.535-6.785-3.772-7.948l-1.237-.445.884-2.46 3.212 1.154a2.457 2.457 0 0 0 3.144-1.471 2.458 2.458 0 0 0-1.488-3.137l-3.212-1.154.301-.837a2.458 2.458 0 0 0-1.488-3.137 2.458 2.458 0 0 0-3.145 1.472l-.301.837-1.237-.445c-3.237-1.163-6.811.51-7.968 3.729-1.157 3.219.535 6.784 3.772 7.948zm7.107 2.554c.682.245 1.039.996.795 1.675a1.31 1.31 0 0 1-1.679.785l-1.237-.444.884-2.461 1.237.445zm-4.567-9.623l1.237.445-.884 2.46-1.237-.444a1.313 1.313 0 0 1-.795-1.675 1.31 1.31 0 0 1 1.679-.786zm4.061 303.407c.269-4.731 4.07-8.383 8.638-8.548l.11-1.922a.848.848 0 0 1 .891-.802l3.611.206a.847.847 0 0 1 .795.898l-.107 1.883 1.925.109.107-1.882a.85.85 0 0 1 .892-.803l3.611.206a.848.848 0 0 1 .794.899l-.109 1.921c4.514.683 7.881 4.738 7.611 9.473-.284 4.991-4.538 8.822-9.483 8.54a.849.849 0 0 1-.795-.899l.208-3.644a.848.848 0 0 1 .891-.802c2.025.115 3.766-1.453 3.882-3.496a3.71 3.71 0 0 0-2.622-3.767l-.206 3.606a.849.849 0 0 1-.891.803l-3.611-.206a.85.85 0 0 1-.795-.899l.211-3.704-1.925-.11-.211 3.705a.848.848 0 0 1-.891.802l-3.612-.206a.847.847 0 0 1-.794-.898l.205-3.606a3.71 3.71 0 0 0-3.033 3.445c-.117 2.049 1.432 3.798 3.459 3.913a.85.85 0 0 1 .795.899l-.207 3.644a.85.85 0 0 1-.892.803c-4.945-.282-8.736-4.571-8.452-9.561z"/><path d="M121.534 519.577c.175-3.077 2.646-5.451 5.617-5.559l.071-1.249a.553.553 0 0 1 .58-.522l2.348.134a.551.551 0 0 1 .516.584l-.069 1.224 1.251.072.07-1.224a.551.551 0 0 1 .58-.522l2.348.134a.55.55 0 0 1 .516.584l-.071 1.249c2.936.444 5.125 3.081 4.949 6.16-.184 3.245-2.951 5.736-6.166 5.552a.55.55 0 0 1-.516-.584l.135-2.369a.55.55 0 0 1 .579-.522c1.316.075 2.449-.945 2.524-2.273a2.413 2.413 0 0 0-1.705-2.45l-.134 2.345a.551.551 0 0 1-.579.522l-2.348-.134a.552.552 0 0 1-.517-.584l.137-2.409-1.252-.071-.137 2.409a.552.552 0 0 1-.579.522l-2.348-.134a.552.552 0 0 1-.517-.584l.134-2.345a2.413 2.413 0 0 0-1.973 2.24 2.401 2.401 0 0 0 2.249 2.545.55.55 0 0 1 .517.584l-.135 2.369a.55.55 0 0 1-.579.522c-3.215-.183-5.681-2.972-5.496-6.216z" filter="url(#c)"/><path d="M211.342 372.68c2.715 3.884 1.988 9.104-1.499 12.06l1.103 1.578a.849.849 0 0 1-.204 1.182l-2.964 2.072a.85.85 0 0 1-1.181-.214l-1.08-1.546-1.581 1.105 1.081 1.545a.849.849 0 0 1-.204 1.182l-2.965 2.073a.848.848 0 0 1-1.18-.215l-1.102-1.578c-3.97 2.257-9.124 1.153-11.841-2.734-2.864-4.097-1.891-9.738 2.168-12.576a.848.848 0 0 1 1.18.215l2.092 2.991a.849.849 0 0 1-.204 1.182c-1.662 1.162-2.06 3.471-.888 5.148a3.711 3.711 0 0 0 4.391 1.338l-2.069-2.961a.848.848 0 0 1 .204-1.182l2.964-2.072a.848.848 0 0 1 1.18.215l2.126 3.041 1.581-1.105-2.126-3.041a.848.848 0 0 1 .204-1.182l2.964-2.073a.848.848 0 0 1 1.18.215l2.07 2.96a3.71 3.71 0 0 0 .252-4.583c-1.176-1.683-3.475-2.098-5.139-.935a.85.85 0 0 1-1.181-.214l-2.091-2.992a.849.849 0 0 1 .204-1.182c4.06-2.837 9.692-1.813 12.555 2.283z"/><path d="M228.89 303.938c2.001 2.864 1.465 6.713-1.106 8.892l.813 1.164a.624.624 0 0 1-.15.871l-2.186 1.528a.625.625 0 0 1-.87-.158l-.797-1.14-1.165.815.796 1.14a.624.624 0 0 1-.15.871l-2.186 1.528a.625.625 0 0 1-.87-.158l-.813-1.163c-2.927 1.664-6.728.85-8.731-2.016-2.112-3.022-1.395-7.181 1.599-9.274a.625.625 0 0 1 .87.159l1.542 2.205a.626.626 0 0 1-.15.872c-1.226.857-1.519 2.559-.655 3.796a2.736 2.736 0 0 0 3.238.986l-1.526-2.183a.624.624 0 0 1 .15-.871l2.186-1.528a.624.624 0 0 1 .87.158l1.568 2.242 1.165-.814-1.567-2.243a.624.624 0 0 1 .15-.871l2.186-1.528a.625.625 0 0 1 .87.158l1.526 2.183a2.736 2.736 0 0 0 .186-3.38c-.867-1.241-2.562-1.547-3.789-.689a.627.627 0 0 1-.871-.158l-1.542-2.206a.626.626 0 0 1 .151-.872c2.993-2.092 7.146-1.337 9.258 1.684z" filter="url(#d)"/><path d="M173.948 76.285c.282-4.96 4.267-8.79 9.058-8.963l.114-2.015a.89.89 0 0 1 .935-.842l3.786.216c.489.028.861.45.833.942l-.112 1.974 2.019.115.112-1.974a.89.89 0 0 1 .935-.841l3.786.216a.89.89 0 0 1 .833.942l-.115 2.015c4.735.715 8.265 4.968 7.982 9.932-.298 5.234-4.759 9.25-9.944 8.955a.89.89 0 0 1-.833-.942l.218-3.821a.889.889 0 0 1 .934-.842c2.123.121 3.949-1.523 4.071-3.665a3.891 3.891 0 0 0-2.75-3.95l-.216 3.781a.889.889 0 0 1-.934.841l-3.787-.215a.89.89 0 0 1-.833-.942l.222-3.885-2.019-.115-.222 3.885a.889.889 0 0 1-.934.841l-3.787-.216a.89.89 0 0 1-.833-.942l.216-3.781a3.89 3.89 0 0 0-3.181 3.612c-.123 2.15 1.501 3.983 3.627 4.104a.89.89 0 0 1 .834.942l-.218 3.821a.889.889 0 0 1-.935.842c-5.185-.296-9.16-4.793-8.862-10.025zm86.399 340.3a4.45 4.45 0 0 0 4.678 4.202 4.416 4.416 0 0 0 3.069-1.471 4.415 4.415 0 0 0 1.133-3.208 4.421 4.421 0 0 0-1.47-3.069 4.418 4.418 0 0 0-3.209-1.133 4.452 4.452 0 0 0-4.201 4.679zm4.407-.843a.606.606 0 1 1 .064 1.21.606.606 0 0 1-.064-1.21zm-13.696-12.866a4.419 4.419 0 0 0 1.47 3.068 4.413 4.413 0 0 0 3.209 1.133 4.451 4.451 0 0 0 4.201-4.679 4.453 4.453 0 0 0-4.679-4.201 4.416 4.416 0 0 0-3.068 1.471 4.415 4.415 0 0 0-1.133 3.208zm4.408-.843a.606.606 0 0 1 .065 1.209.605.605 0 1 1-.065-1.209zm-3.699 16.785a1.91 1.91 0 0 0 1.387.489 1.91 1.91 0 0 0 1.326-.635l14.183-15.795a1.922 1.922 0 0 0-2.858-2.566l-14.184 15.795a1.924 1.924 0 0 0 .146 2.712zm-89.48-28.995a4.12 4.12 0 0 0 4.981-3.011 4.09 4.09 0 0 0-.475-3.114 4.088 4.088 0 0 0-2.536-1.868 4.087 4.087 0 0 0-3.113.475 4.087 4.087 0 0 0-1.869 2.536 4.122 4.122 0 0 0 3.012 4.982zm.441-4.131a.56.56 0 1 1 1.089.27.56.56 0 0 1-1.089-.27zm-15.085 8.662a4.087 4.087 0 0 0 3.113-.475 4.084 4.084 0 0 0 1.868-2.536 4.12 4.12 0 0 0-3.011-4.982 4.124 4.124 0 0 0-4.981 3.011 4.09 4.09 0 0 0 .475 3.114 4.088 4.088 0 0 0 2.536 1.868zm.441-4.13a.562.562 0 0 1 .678-.411.56.56 0 1 1-.678.411zm13.868 7.798c.406-.246.693-.635.806-1.096a1.762 1.762 0 0 0-.204-1.345l-10.165-16.818a1.78 1.78 0 0 0-3.248.495c-.113.461-.04.939.205 1.345l10.165 16.818a1.78 1.78 0 0 0 2.441.601zm28.822-123.923a5.94 5.94 0 0 0 6.243 5.606 5.893 5.893 0 0 0 4.095-1.962 5.895 5.895 0 0 0 1.511-4.281 5.89 5.89 0 0 0-1.962-4.094 5.886 5.886 0 0 0-4.281-1.512 5.94 5.94 0 0 0-5.606 6.243zm5.881-1.125a.809.809 0 0 1 .087 1.613.808.808 0 0 1-.087-1.613zm-18.275-17.168a5.887 5.887 0 0 0 1.962 4.095 5.895 5.895 0 0 0 4.281 1.511 5.94 5.94 0 0 0 5.606-6.243 5.943 5.943 0 0 0-5.065-5.553 5.901 5.901 0 0 0-1.178-.053 5.895 5.895 0 0 0-4.095 1.962 5.892 5.892 0 0 0-1.511 4.281zm5.881-1.125a.809.809 0 1 1-.763.85.808.808 0 0 1 .763-.85zm-4.935 22.397c.51.458 1.167.69 1.85.653a2.55 2.55 0 0 0 1.77-.847l18.925-21.076a2.565 2.565 0 0 0-2.045-4.271 2.55 2.55 0 0 0-1.769.847l-18.925 21.076a2.565 2.565 0 0 0 .194 3.618zm6.039-118.021a3.73 3.73 0 0 0 5.27 0 3.698 3.698 0 0 0 1.09-2.635c0-.996-.387-1.932-1.09-2.635a3.698 3.698 0 0 0-2.635-1.09 3.706 3.706 0 0 0-2.635 1.09 3.73 3.73 0 0 0 0 5.27zm2.276-2.994a.508.508 0 1 1 .717.718.508.508 0 0 1-.717-.718zm-15.745-.354a3.702 3.702 0 0 0 2.635 1.09c.996 0 1.932-.387 2.635-1.09a3.73 3.73 0 0 0 0-5.27 3.732 3.732 0 0 0-5.27-.001 3.702 3.702 0 0 0-1.09 2.636c0 .996.387 1.932 1.09 2.635zm2.276-2.994a.508.508 0 1 1 .718.72.508.508 0 0 1-.718-.72zm7.093 12.538c.43 0 .834-.167 1.138-.471a1.6 1.6 0 0 0 .472-1.138l.001-17.792a1.61 1.61 0 0 0-3.219 0l-.002 17.792a1.613 1.613 0 0 0 1.61 1.609z"/><path d="M236.708 31.658a2.9 2.9 0 0 0 4.098 0 2.877 2.877 0 0 0 .848-2.05 2.88 2.88 0 0 0-.847-2.048 2.88 2.88 0 0 0-2.049-.848 2.88 2.88 0 0 0-2.049.848 2.902 2.902 0 0 0-.001 4.098zm1.77-2.328a.396.396 0 0 1 .559 0 .394.394 0 1 1-.559 0zm-12.242-.276a2.876 2.876 0 0 0 2.048.848 2.88 2.88 0 0 0 2.05-.848 2.903 2.903 0 0 0 0-4.098 2.902 2.902 0 0 0-4.098 0 2.877 2.877 0 0 0-.848 2.05c0 .774.301 1.502.848 2.048zm1.77-2.328a.395.395 0 1 1 .558.56.395.395 0 0 1-.558-.56zm5.514 9.75c.335 0 .649-.13.886-.367.236-.236.366-.55.366-.885l.001-13.834a1.253 1.253 0 0 0-2.503 0l-.001 13.834c0 .69.562 1.252 1.251 1.252z" filter="url(#e)"/><path d="M100.768 88.753a4.984 4.984 0 0 0-.475 7.025c.874 1 2.086 1.6 3.414 1.69a4.947 4.947 0 0 0 3.611-1.215 4.95 4.95 0 0 0 1.69-3.415 4.948 4.948 0 0 0-1.215-3.61 4.985 4.985 0 0 0-7.025-.475zm3.785 3.304a.68.68 0 0 1-1.021.891.679.679 0 0 1 1.021-.891zm1.891-20.955a4.944 4.944 0 0 0-1.691 3.414 4.943 4.943 0 0 0 1.216 3.61 4.985 4.985 0 0 0 7.025.476 4.988 4.988 0 0 0 1.049-6.219 4.963 4.963 0 0 0-.575-.806c-.873-1-2.086-1.6-3.414-1.69a4.944 4.944 0 0 0-3.61 1.215zm3.785 3.304a.679.679 0 0 1-1.021.892.678.678 0 0 1 1.021-.892zM92.878 82.73a2.136 2.136 0 0 0 .526 1.56c.378.432.902.692 1.475.73l23.714 1.605a2.153 2.153 0 0 0 2.015-3.21 2.189 2.189 0 0 0-.251-.35 2.136 2.136 0 0 0-1.474-.731L95.168 80.73a2.153 2.153 0 0 0-2.29 2zm108.309 435.557a6.547 6.547 0 0 0 8.46 3.735 6.494 6.494 0 0 0 3.617-3.458 6.495 6.495 0 0 0 .118-5.002 6.497 6.497 0 0 0-3.458-3.617 6.503 6.503 0 0 0-5.002-.118 6.548 6.548 0 0 0-3.735 8.46zm5.775-3.193a.892.892 0 0 1 .644 1.661.892.892 0 0 1-.644-1.661zm-25.022-11.725a6.496 6.496 0 0 0 3.457 3.617 6.49 6.49 0 0 0 5.002.117 6.546 6.546 0 0 0 3.735-8.459 6.551 6.551 0 0 0-7.207-4.083c-.42.073-.84.188-1.253.348a6.496 6.496 0 0 0-3.617 3.457 6.498 6.498 0 0 0-.117 5.003zm5.775-3.193a.892.892 0 0 1 1.152.508.89.89 0 1 1-1.152-.508zm2.5 25.152a2.814 2.814 0 0 0 2.162.05 2.807 2.807 0 0 0 1.563-1.493l12.609-28.558a2.828 2.828 0 0 0-3.058-3.926 2.89 2.89 0 0 0-.547.152 2.81 2.81 0 0 0-1.563 1.493l-12.608 28.558a2.828 2.828 0 0 0 1.442 3.724z"/></g><defs><filter id="a" x="69.866" y="433.293" width="33.411" height="34.505" filterUnits="userSpaceOnUse" color-interpolation-filters="sRGB"><feFlood flood-opacity="0" result="BackgroundImageFix"/><feBlend in="SourceGraphic" in2="BackgroundImageFix" result="shape"/><feGaussianBlur stdDeviation="2" result="effect1_foregroundBlur"/></filter><filter id="b" x="226.933" y="137.885" width="34.573" height="32.909" filterUnits="userSpaceOnUse" color-interpolation-filters="sRGB"><feFlood flood-opacity="0" result="BackgroundImageFix"/><feBlend in="SourceGraphic" in2="BackgroundImageFix" result="shape"/><feGaussianBlur stdDeviation="2" result="effect1_foregroundBlur"/></filter><filter id="c" x="117.199" y="507.915" width="27.478" height="22.612" filterUnits="userSpaceOnUse" color-interpolation-filters="sRGB"><feFlood flood-opacity="0" result="BackgroundImageFix"/><feBlend in="SourceGraphic" in2="BackgroundImageFix" result="shape"/><feGaussianBlur stdDeviation="2" result="effect1_foregroundBlur"/></filter><filter id="d" x="203.645" y="294.46" width="34.23" height="32.784" filterUnits="userSpaceOnUse" color-interpolation-filters="sRGB"><feFlood flood-opacity="0" result="BackgroundImageFix"/><feBlend in="SourceGraphic" in2="BackgroundImageFix" result="shape"/><feGaussianBlur stdDeviation="2" result="effect1_foregroundBlur"/></filter><filter id="e" x="220.267" y="15.655" width="26.509" height="25.305" filterUnits="userSpaceOnUse" color-interpolation-filters="sRGB"><feFlood flood-opacity="0" result="BackgroundImageFix"/><feBlend in="SourceGraphic" in2="BackgroundImageFix" result="shape"/><feGaussianBlur stdDeviation="2" result="effect1_foregroundBlur"/></filter></defs></svg>