<svg width="261" height="494" viewBox="0 0 261 494" fill="none" xmlns="http://www.w3.org/2000/svg"><g opacity=".3" fill="#6B6B6B"><path d="M139.136 204.457c3.333 4.9 9.985 6.163 14.87 2.84 4.877-3.318 6.141-9.99 2.819-14.874l-6.065-8.916a1.008 1.008 0 0 0-1.398-.267l-11.634 7.915-1.253-1.843a1.007 1.007 0 0 0-1.398-.267l-3.561 2.423a1.006 1.006 0 0 0-.265 1.398l1.253 1.842-1.899 1.292-1.253-1.842a1.007 1.007 0 0 0-1.398-.267l-3.561 2.423a1.006 1.006 0 0 0-.265 1.398l1.253 1.842-2.73 1.857a1.006 1.006 0 0 0-.265 1.398l2.426 3.567c.313.459.938.579 1.398.267l2.73-1.858 3.679 5.409c.313.46.939.579 1.398.267l3.561-2.423c.459-.312.578-.938.265-1.398l-3.679-5.409 1.899-1.291 3.073 4.517zm9.392-12.997l3.073 4.517a4.388 4.388 0 0 1-1.154 6.089 4.387 4.387 0 0 1-6.087-1.163l-3.073-4.517 7.241-4.926zM109.465 60.825c4.322 1.587 9.112-.668 10.714-5.032 1.6-4.356-.604-9.187-4.913-10.77l-7.867-2.887a.787.787 0 0 0-1.007.473L102.577 53l-1.625-.596a.787.787 0 0 0-1.007.473l-1.168 3.181a.786.786 0 0 0 .461 1.012l1.626.597-.623 1.696-1.625-.596a.787.787 0 0 0-1.007.472l-1.168 3.182a.786.786 0 0 0 .461 1.012l1.626.597-.896 2.439c-.15.41.057.863.462 1.012l3.147 1.155a.787.787 0 0 0 1.007-.473l.895-2.439 4.772 1.752a.786.786 0 0 0 1.007-.473l1.168-3.181a.786.786 0 0 0-.462-1.012l-4.772-1.752.623-1.697 3.986 1.463zm.102-12.598l3.986 1.464c1.763.647 2.666 2.625 2.011 4.408-.655 1.783-2.622 2.708-4.386 2.06l-3.986-1.463 2.375-6.469z"/><path d="M247.417 96.498c3.264-1.594 4.596-5.552 2.988-8.847-1.606-3.29-5.56-4.674-8.814-3.085l-5.94 2.9a.621.621 0 0 0-.281.831l3.832 7.848-1.228.6a.621.621 0 0 0-.281.83l1.173 2.403c.152.31.522.439.829.29l1.227-.6.625 1.282-1.227.599a.62.62 0 0 0-.281.831l1.173 2.403a.621.621 0 0 0 .828.29l1.228-.6.899 1.842a.62.62 0 0 0 .828.29l2.376-1.16a.62.62 0 0 0 .281-.831l-.899-1.842 3.603-1.759a.62.62 0 0 0 .281-.832l-1.173-2.402a.62.62 0 0 0-.828-.29l-3.603 1.76-.626-1.282 3.01-1.47zm-7.115-6.94l3.01-1.468c1.332-.65 2.95-.084 3.607 1.263.658 1.346.109 2.97-1.223 3.621l-3.009 1.47-2.385-4.885z" filter="url(#a)"/><path d="M41.24 28.234c2.9-1.097 4.347-4.358 3.24-7.287-1.106-2.924-4.359-4.413-7.251-3.32l-5.28 1.997a.53.53 0 0 0-.305.685l2.638 6.975-1.091.413a.53.53 0 0 0-.305.685l.808 2.135a.53.53 0 0 0 .681.312l1.091-.412.43 1.138-1.09.413a.53.53 0 0 0-.305.685l.808 2.135a.53.53 0 0 0 .68.312l1.092-.412.619 1.637a.53.53 0 0 0 .681.312l2.112-.799a.53.53 0 0 0 .305-.685l-.619-1.637 3.203-1.21a.53.53 0 0 0 .305-.685l-.808-2.136a.53.53 0 0 0-.681-.312l-3.203 1.211-.43-1.139 2.674-1.011zm-5.502-6.463l2.675-1.011c1.184-.448 2.516.162 2.968 1.359.453 1.197-.142 2.535-1.326 2.983l-2.675 1.011-1.642-4.342z" filter="url(#b)"/><path d="M66.236 277.121c4.338-3.646 4.896-10.096 1.261-14.421-3.628-4.319-10.098-4.876-14.422-1.242l-7.895 6.634a.962.962 0 0 0-.118 1.355l8.655 10.301-1.631 1.371a.962.962 0 0 0-.119 1.355l2.65 3.154a.962.962 0 0 0 1.356.116l1.631-1.37 1.413 1.681-1.631 1.371a.962.962 0 0 0-.119 1.355l2.65 3.154a.962.962 0 0 0 1.355.116l1.632-1.371 2.031 2.418a.963.963 0 0 0 1.355.117l3.158-2.654a.962.962 0 0 0 .119-1.355l-2.031-2.418 4.789-4.024a.962.962 0 0 0 .118-1.355l-2.65-3.154a.962.962 0 0 0-1.355-.116l-4.79 4.024-1.412-1.682 4-3.36zm-13.274-7.677l4-3.361a4.195 4.195 0 0 1 5.903.509 4.195 4.195 0 0 1-.516 5.903l-4 3.361-5.387-6.412zm77.735 24.492c-4.762-3.071-11.09-1.704-14.152 3.044-3.058 4.739-1.684 11.086 3.063 14.148l8.665 5.59a.962.962 0 0 0 1.33-.286l7.294-11.307 1.79 1.155a.962.962 0 0 0 1.33-.286l2.233-3.461a.962.962 0 0 0-.288-1.33l-1.79-1.155 1.19-1.846 1.791 1.155a.962.962 0 0 0 1.33-.286l2.232-3.461a.963.963 0 0 0-.287-1.33l-1.791-1.155 1.712-2.653a.963.963 0 0 0-.288-1.33l-3.466-2.236a.963.963 0 0 0-1.331.286l-1.711 2.654-5.257-3.391a.962.962 0 0 0-1.33.286l-2.233 3.461a.963.963 0 0 0 .288 1.33l5.257 3.391-1.191 1.845-4.39-2.832zm-3.424 14.947l-4.39-2.832a4.195 4.195 0 0 1-1.254-5.792 4.195 4.195 0 0 1 5.793-1.246l4.39 2.832-4.539 7.038zM34.392 190.805c5.41 1.684 11.142-1.328 12.821-6.722 1.677-5.385-1.346-11.132-6.739-12.811l-9.845-3.066a.962.962 0 0 0-1.205.632l-4 12.846-2.035-.633a.962.962 0 0 0-1.205.631l-1.224 3.933a.962.962 0 0 0 .633 1.204l2.034.634-.653 2.097-2.034-.634a.962.962 0 0 0-1.205.632l-1.225 3.933a.962.962 0 0 0 .634 1.204l2.034.633-.939 3.015a.962.962 0 0 0 .634 1.204l3.938 1.226a.963.963 0 0 0 1.205-.631l.939-3.015 5.972 1.859a.96.96 0 0 0 1.205-.631l1.225-3.933a.962.962 0 0 0-.633-1.204l-5.973-1.86.653-2.097 4.988 1.554zm-.702-15.318l4.988 1.553a4.195 4.195 0 0 1 2.759 5.245 4.195 4.195 0 0 1-5.249 2.751l-4.988-1.553 2.49-7.996z"/><path d="M34.76 352.117l-.718.766-1.529-1.435 1.865-1.987a1.968 1.968 0 0 0-.086-2.778c-.79-.74-2.035-.7-2.777.091l-1.865 1.987-.52-.488a1.966 1.966 0 0 0-2.691 2.867l.52.488-.718.766a4.984 4.984 0 0 0 .218 7.037 4.984 4.984 0 0 0 7.037-.229l.719-.765 1.528 1.435-1.864 1.987a1.967 1.967 0 0 0 .086 2.777c.79.741 2.035.7 2.777-.09l1.865-1.987.52.488a1.967 1.967 0 0 0 2.69-2.867l-.52-.489.719-.765a4.984 4.984 0 0 0-.219-7.037 4.983 4.983 0 0 0-7.037.228zm-4.127 4.398a1.049 1.049 0 0 1-1.529-1.434l.718-.766 1.53 1.435-.72.765zm8.52-.276l-.719.765-1.529-1.434.719-.766a1.049 1.049 0 0 1 1.529 1.435z" filter="url(#c)"/><path d="M24.613 100.023l-.692-1.363 2.714-1.379 1.797 3.539a2.86 2.86 0 0 0 3.84 1.262 2.86 2.86 0 0 0 1.245-3.844l-1.798-3.539.924-.47a2.86 2.86 0 0 0 1.245-3.844 2.86 2.86 0 0 0-3.838-1.261l-.924.469-.693-1.363c-1.812-3.567-6.175-5.002-9.727-3.198-3.552 1.804-4.967 6.174-3.155 9.741l.692 1.364-2.714 1.378-1.798-3.539a2.86 2.86 0 0 0-3.839-1.261 2.86 2.86 0 0 0-1.245 3.844l1.798 3.539-.924.469a2.86 2.86 0 0 0-1.246 3.844 2.86 2.86 0 0 0 3.839 1.262l.924-.469.692 1.363c1.812 3.567 6.176 5.001 9.728 3.197 3.551-1.804 4.967-6.173 3.155-9.741zm-3.978-7.832a1.528 1.528 0 0 1 .664-2.053 1.525 1.525 0 0 1 2.05.674l.693 1.363-2.715 1.38-.692-1.364zm-3.82 11.794l-.693-1.364 2.715-1.379.692 1.364a1.527 1.527 0 0 1-.665 2.052 1.525 1.525 0 0 1-2.05-.673zm135.312 263.082l-1.13-.671 1.334-2.248 2.934 1.742a2.458 2.458 0 0 0 3.367-.849 2.458 2.458 0 0 0-.867-3.362l-2.934-1.742.454-.765a2.458 2.458 0 0 0-.867-3.362 2.457 2.457 0 0 0-3.366.849l-.455.765-1.13-.671c-2.958-1.756-6.784-.791-8.531 2.15-1.746 2.941-.76 6.763 2.197 8.519l1.131.671-1.335 2.248-2.934-1.742a2.459 2.459 0 0 0-3.367.848 2.458 2.458 0 0 0 .867 3.362l2.934 1.742-.454.765a2.458 2.458 0 0 0 .867 3.362 2.457 2.457 0 0 0 3.366-.848l.455-.765 1.13.671c2.958 1.756 6.785.791 8.531-2.15 1.746-2.942.76-6.763-2.197-8.519zm-6.494-3.856a1.312 1.312 0 0 1-.463-1.795 1.31 1.31 0 0 1 1.798-.453l1.13.671-1.335 2.249-1.13-.672zm2.66 10.314l-1.131-.671 1.335-2.248 1.13.671c.623.37.831 1.175.463 1.795a1.31 1.31 0 0 1-1.797.453zM201.83 74.852c-1.162 4.594-5.585 7.459-10.102 6.755l-.472 1.866a.85.85 0 0 1-1.028.619l-3.506-.887a.849.849 0 0 1-.61-1.032l.462-1.829-1.869-.472-.463 1.828a.848.848 0 0 1-1.027.619l-3.507-.887a.847.847 0 0 1-.609-1.033l.472-1.866c-4.304-1.526-6.841-6.146-5.678-10.744 1.225-4.847 6.129-7.801 10.931-6.587a.847.847 0 0 1 .609 1.033l-.895 3.538a.848.848 0 0 1-1.027.62c-1.966-.498-3.973.712-4.474 2.696a3.71 3.71 0 0 0 1.861 4.196l.885-3.502a.848.848 0 0 1 1.027-.619l3.507.887a.849.849 0 0 1 .61 1.033l-.91 3.597 1.87.473.909-3.598a.85.85 0 0 1 1.028-.619l3.506.887a.849.849 0 0 1 .61 1.033l-.885 3.502a3.71 3.71 0 0 0 3.631-2.808c.504-1.99-.686-4-2.654-4.498a.848.848 0 0 1-.61-1.033l.894-3.54a.85.85 0 0 1 1.028-.618c4.801 1.214 7.711 6.144 6.486 10.99z"/><path d="M223.835 20.307c-.755 2.987-3.631 4.85-6.568 4.392l-.307 1.214a.551.551 0 0 1-.668.402l-2.28-.576a.552.552 0 0 1-.397-.672l.301-1.189-1.216-.307-.3 1.189a.551.551 0 0 1-.668.402l-2.28-.576a.552.552 0 0 1-.397-.672l.307-1.213c-2.798-.993-4.448-3.997-3.692-6.986.797-3.152 3.985-5.073 7.108-4.283a.551.551 0 0 1 .396.671l-.582 2.301a.551.551 0 0 1-.668.403c-1.278-.323-2.583.463-2.909 1.753a2.413 2.413 0 0 0 1.21 2.728l.576-2.277a.551.551 0 0 1 .668-.402l2.28.576a.551.551 0 0 1 .396.672l-.591 2.339 1.215.307.592-2.339a.551.551 0 0 1 .668-.402l2.28.576a.551.551 0 0 1 .396.672l-.575 2.277a2.412 2.412 0 0 0 2.361-1.825 2.4 2.4 0 0 0-1.726-2.926.552.552 0 0 1-.397-.671l.582-2.301a.551.551 0 0 1 .668-.403c3.122.79 5.014 3.995 4.217 7.146z" filter="url(#d)"/><path d="M107.805 147.512c-1.929-4.328-.226-9.316 3.759-11.557l-.784-1.758a.849.849 0 0 1 .424-1.122l3.304-1.473a.849.849 0 0 1 1.118.435l.768 1.722 1.761-.785-.768-1.722a.849.849 0 0 1 .425-1.122l3.303-1.473a.848.848 0 0 1 1.118.435l.784 1.758c4.325-1.464 9.176.597 11.107 4.929 2.036 4.566.011 9.921-4.513 11.937a.849.849 0 0 1-1.118-.434l-1.486-3.334a.848.848 0 0 1 .424-1.122c1.852-.825 2.681-3.017 1.848-4.886a3.711 3.711 0 0 0-4.058-2.146l1.47 3.299a.848.848 0 0 1-.424 1.122l-3.303 1.473a.849.849 0 0 1-1.118-.435l-1.511-3.389-1.762.785 1.511 3.389a.848.848 0 0 1-.424 1.122l-3.304 1.473a.848.848 0 0 1-1.118-.435l-1.47-3.299a3.71 3.71 0 0 0-1.117 4.453c.836 1.875 3.014 2.719 4.868 1.892a.85.85 0 0 1 1.119.434l1.486 3.334a.848.848 0 0 1-.424 1.122c-4.524 2.017-9.86-.057-11.895-4.622z"/><path d="M77.543 211.681c-1.423-3.192-.167-6.869 2.771-8.522l-.577-1.296a.626.626 0 0 1 .313-.828l2.436-1.085a.625.625 0 0 1 .824.32l.566 1.27 1.299-.579-.566-1.27a.625.625 0 0 1 .313-.827l2.435-1.086a.625.625 0 0 1 .825.32l.578 1.297c3.189-1.079 6.766.44 8.19 3.634 1.5 3.367.007 7.315-3.328 8.802a.625.625 0 0 1-.825-.32l-1.095-2.458a.626.626 0 0 1 .313-.828c1.365-.608 1.976-2.224 1.362-3.602a2.736 2.736 0 0 0-2.992-1.583l1.084 2.433a.625.625 0 0 1-.313.827l-2.436 1.086a.625.625 0 0 1-.824-.32l-1.114-2.499-1.299.579 1.114 2.499a.625.625 0 0 1-.313.827l-2.436 1.086a.625.625 0 0 1-.824-.321l-1.084-2.432a2.736 2.736 0 0 0-.824 3.283c.616 1.382 2.223 2.005 3.59 1.395a.627.627 0 0 1 .825.32l1.096 2.459a.625.625 0 0 1-.313.827c-3.336 1.487-7.27-.042-8.771-3.408z" filter="url(#e)"/><path d="M88.326 445.621c-1.217 4.817-5.856 7.821-10.592 7.083l-.495 1.957a.89.89 0 0 1-1.077.649l-3.677-.93a.889.889 0 0 1-.64-1.083l.485-1.917-1.96-.495-.485 1.917a.89.89 0 0 1-1.077.649l-3.677-.93a.89.89 0 0 1-.64-1.083l.496-1.957c-4.513-1.6-7.173-6.445-5.954-11.266 1.285-5.081 6.427-8.179 11.462-6.906a.89.89 0 0 1 .639 1.083l-.938 3.71a.889.889 0 0 1-1.078.649c-2.06-.521-4.165.747-4.691 2.827a3.89 3.89 0 0 0 1.951 4.4l.928-3.672a.89.89 0 0 1 1.078-.649l3.677.93a.89.89 0 0 1 .639 1.083l-.954 3.772 1.96.496.954-3.772a.89.89 0 0 1 1.078-.649l3.676.929a.89.89 0 0 1 .64 1.083l-.929 3.672a3.89 3.89 0 0 0 3.808-2.943c.528-2.087-.72-4.195-2.783-4.717a.89.89 0 0 1-.64-1.084l.938-3.71a.89.89 0 0 1 1.077-.649c5.035 1.273 8.086 6.442 6.801 11.523zM68.014 95.112a4.452 4.452 0 0 0-3.797-5.012 4.417 4.417 0 0 0-3.292.862 4.416 4.416 0 0 0-1.72 2.935 4.417 4.417 0 0 0 .861 3.292 4.418 4.418 0 0 0 2.936 1.72 4.452 4.452 0 0 0 5.012-3.797zm-4.487-.007a.606.606 0 1 1 .167-1.201.606.606 0 0 1-.167 1.2zm11.008 15.229a4.414 4.414 0 0 0-.862-3.291 4.415 4.415 0 0 0-2.935-1.721 4.452 4.452 0 0 0-5.013 3.797 4.454 4.454 0 0 0 3.798 5.013 4.417 4.417 0 0 0 3.291-.863 4.416 4.416 0 0 0 1.721-2.935zm-4.487-.008a.606.606 0 1 1 .166-1.2.606.606 0 0 1-.166 1.2zm6.813-15.779a1.908 1.908 0 0 0-1.269-.743 1.908 1.908 0 0 0-1.422.371l-16.921 12.82a1.923 1.923 0 0 0 .898 3.433 1.907 1.907 0 0 0 1.422-.372L76.49 97.237a1.923 1.923 0 0 0 .371-2.69zm82.36 45.434a4.12 4.12 0 0 0-5.462 2.012 4.09 4.09 0 0 0-.124 3.147 4.089 4.089 0 0 0 2.136 2.315 4.09 4.09 0 0 0 3.147.124 4.092 4.092 0 0 0 2.315-2.136 4.12 4.12 0 0 0-2.012-5.462zm-1.216 3.972a.562.562 0 0 1-.744.274.562.562 0 0 1-.274-.744.56.56 0 0 1 1.018.47zm16.454-5.645a4.088 4.088 0 0 0-3.148-.123 4.093 4.093 0 0 0-2.315 2.135 4.122 4.122 0 0 0 2.012 5.463 4.124 4.124 0 0 0 5.463-2.012c.46-.997.504-2.115.123-3.148a4.093 4.093 0 0 0-2.135-2.315zm-1.217 3.972a.56.56 0 1 1-1.017-.468.56.56 0 0 1 1.017.468zm-12.137-10.286a1.765 1.765 0 0 0-1 .923 1.763 1.763 0 0 0-.054 1.36l6.792 18.439a1.78 1.78 0 0 0 3.282.13c.199-.431.218-.914.054-1.359l-6.792-18.44a1.78 1.78 0 0 0-2.282-1.053zM109.31 248.205a5.94 5.94 0 0 0-5.067-6.688 5.89 5.89 0 0 0-4.392 1.15 5.893 5.893 0 0 0-2.296 3.916 5.896 5.896 0 0 0 1.15 4.393 5.891 5.891 0 0 0 3.917 2.296 5.94 5.94 0 0 0 6.688-5.067zm-5.988-.01a.81.81 0 0 1-.69-.911.81.81 0 0 1 .911-.69.81.81 0 0 1 .69.91.81.81 0 0 1-.911.691zm14.689 20.321a5.889 5.889 0 0 0-1.15-4.392 5.89 5.89 0 0 0-3.917-2.296 5.94 5.94 0 0 0-6.688 5.067 5.944 5.944 0 0 0 5.067 6.688 5.893 5.893 0 0 0 4.392-1.15 5.89 5.89 0 0 0 2.296-3.917zm-5.987-.011a.809.809 0 1 1 .22-1.602.809.809 0 0 1-.22 1.602zm9.091-21.055a2.54 2.54 0 0 0-1.693-.991 2.539 2.539 0 0 0-1.897.496L94.946 264.06a2.565 2.565 0 0 0 1.198 4.581 2.55 2.55 0 0 0 1.898-.496l22.578-17.105a2.566 2.566 0 0 0 .495-3.59zM92.81 362.186a3.73 3.73 0 0 0-5.175-1 3.7 3.7 0 0 0-1.57 2.381c-.189.978.014 1.97.57 2.794a3.704 3.704 0 0 0 2.381 1.57 3.703 3.703 0 0 0 2.794-.571 3.73 3.73 0 0 0 1-5.174zm-2.803 2.507a.508.508 0 1 1-.568-.841.508.508 0 0 1 .568.841zm15.393 3.334a3.702 3.702 0 0 0-2.381-1.57 3.7 3.7 0 0 0-2.794.57 3.732 3.732 0 0 0-1 5.175 3.733 3.733 0 0 0 5.175 1 3.702 3.702 0 0 0 1.57-2.381 3.705 3.705 0 0 0-.57-2.794zm-2.803 2.508a.509.509 0 0 1-.569-.841.508.508 0 0 1 .569.841zm-4.587-13.656a1.601 1.601 0 0 0-1.207.247 1.6 1.6 0 0 0-.679 1.028l-3.374 17.469a1.61 1.61 0 0 0 3.16.61l3.375-17.468a1.612 1.612 0 0 0-1.275-1.886z"/><path d="M18.243 477.54a2.9 2.9 0 0 0-4.023-.777 2.877 2.877 0 0 0-1.221 1.851c-.147.76.01 1.532.443 2.172a2.876 2.876 0 0 0 1.851 1.221 2.874 2.874 0 0 0 2.173-.444 2.9 2.9 0 0 0 .777-4.023zm-2.18 1.95a.395.395 0 1 1-.44-.656.395.395 0 0 1 .44.656zm11.969 2.592a2.876 2.876 0 0 0-1.85-1.221 2.878 2.878 0 0 0-2.173.444 2.9 2.9 0 0 0-.777 4.023 2.902 2.902 0 0 0 4.023.777 2.877 2.877 0 0 0 1.221-1.851 2.878 2.878 0 0 0-.444-2.172zm-2.179 1.95a.395.395 0 1 1-.442-.656.395.395 0 0 1 .442.656zm-3.566-10.618a1.238 1.238 0 0 0-.939.192 1.242 1.242 0 0 0-.528.799l-2.623 13.583a1.253 1.253 0 0 0 2.457.475l2.624-13.583a1.253 1.253 0 0 0-.991-1.466z" filter="url(#f)"/><path d="M162.543 447.254a4.984 4.984 0 0 0 1.798-6.807 4.944 4.944 0 0 0-3.032-2.307 4.944 4.944 0 0 0-3.775.508 4.944 4.944 0 0 0-2.307 3.032 4.945 4.945 0 0 0 .509 3.776 4.984 4.984 0 0 0 6.807 1.798zm-3.09-3.962a.679.679 0 1 1 1.173-.682.679.679 0 0 1-1.173.682zm-5.829 20.217a4.948 4.948 0 0 0 2.307-3.032 4.946 4.946 0 0 0-.509-3.776 4.986 4.986 0 0 0-6.808-1.798 4.988 4.988 0 0 0-2.209 5.907c.105.307.242.609.411.9a4.946 4.946 0 0 0 3.032 2.308 4.95 4.95 0 0 0 3.776-.509zm-3.091-3.962a.679.679 0 0 1 1.172-.682.679.679 0 0 1-1.172.682zm18.615-4.884a2.14 2.14 0 0 0-.221-1.631 2.139 2.139 0 0 0-1.309-.997l-22.98-6.071a2.153 2.153 0 0 0-2.408 3.161c.29.496.755.851 1.31.997l22.98 6.071a2.154 2.154 0 0 0 2.628-1.53zM145.383 6.472a6.546 6.546 0 0 0-7.598-5.271 6.492 6.492 0 0 0-4.207 2.709 6.49 6.49 0 0 0-1.064 4.889 6.494 6.494 0 0 0 2.708 4.207 6.5 6.5 0 0 0 4.89 1.064 6.547 6.547 0 0 0 5.271-7.598zm-6.276 2.04a.892.892 0 0 1-1.035-.718.891.891 0 1 1 1.035.718zm22.346 16.257a6.499 6.499 0 0 0-2.709-4.207 6.497 6.497 0 0 0-4.89-1.065c-3.547.642-5.911 4.05-5.271 7.599a6.55 6.55 0 0 0 6.302 5.374 6.53 6.53 0 0 0 1.296-.103 6.497 6.497 0 0 0 4.208-2.71 6.498 6.498 0 0 0 1.064-4.888zm-6.276 2.039a.892.892 0 0 1-.318-1.752.891.891 0 0 1 .318 1.752zm2.313-25.169a2.804 2.804 0 0 0-2.112-.46 2.808 2.808 0 0 0-1.819 1.17L135.765 28a2.828 2.828 0 0 0 2.259 4.434c.187.003.376-.011.565-.046a2.808 2.808 0 0 0 1.818-1.17L158.201 5.57a2.828 2.828 0 0 0-.711-3.93z"/></g><defs><filter id="a" x="229.315" y="77.685" width="31.521" height="34.061" filterUnits="userSpaceOnUse" color-interpolation-filters="sRGB"><feFlood flood-opacity="0" result="BackgroundImageFix"/><feBlend in="SourceGraphic" in2="BackgroundImageFix" result="shape"/><feGaussianBlur stdDeviation="2" result="effect1_foregroundBlur"/></filter><filter id="b" x="27.872" y="13.644" width="23.035" height="25.778" filterUnits="userSpaceOnUse" color-interpolation-filters="sRGB"><feFlood flood-opacity="0" result="BackgroundImageFix"/><feBlend in="SourceGraphic" in2="BackgroundImageFix" result="shape"/><feGaussianBlur stdDeviation="1" result="effect1_foregroundBlur"/></filter><filter id="c" x="16.879" y="338.531" width="34.498" height="34.258" filterUnits="userSpaceOnUse" color-interpolation-filters="sRGB"><feFlood flood-opacity="0" result="BackgroundImageFix"/><feBlend in="SourceGraphic" in2="BackgroundImageFix" result="shape"/><feGaussianBlur stdDeviation="2" result="effect1_foregroundBlur"/></filter><filter id="d" x="199.789" y="6" width="29.491" height="25.747" filterUnits="userSpaceOnUse" color-interpolation-filters="sRGB"><feFlood flood-opacity="0" result="BackgroundImageFix"/><feBlend in="SourceGraphic" in2="BackgroundImageFix" result="shape"/><feGaussianBlur stdDeviation="2" result="effect1_foregroundBlur"/></filter><filter id="e" x="70" y="191.081" width="33.671" height="30.704" filterUnits="userSpaceOnUse" color-interpolation-filters="sRGB"><feFlood flood-opacity="0" result="BackgroundImageFix"/><feBlend in="SourceGraphic" in2="BackgroundImageFix" result="shape"/><feGaussianBlur stdDeviation="2" result="effect1_foregroundBlur"/></filter><filter id="f" x="8.051" y="469.005" width="25.373" height="24.858" filterUnits="userSpaceOnUse" color-interpolation-filters="sRGB"><feFlood flood-opacity="0" result="BackgroundImageFix"/><feBlend in="SourceGraphic" in2="BackgroundImageFix" result="shape"/><feGaussianBlur stdDeviation="2" result="effect1_foregroundBlur"/></filter></defs></svg>