<svg width="1440" height="539" viewBox="0 0 1440 539" fill="none" xmlns="http://www.w3.org/2000/svg"><g opacity=".03" clip-rule="evenodd" stroke="#F8F8F8" stroke-width="5"><path d="M528.961 230.145c-.082-21.531-32.92-45.744-46.948-58.227-27.735-24.689-56.582-47.489-85.162-70.653-28.579-23.163-57.235-46.264-84.487-71.695-17.695-16.508-38.487-35.1-50.487-58.672-25.566-50.234 55.039-42.774 75.918-43.873 53.115-2.807 114.039-1.526 163.827-27.685 29.721-15.616 41.572-41.806 35.189-79.977-2.058-12.414-8.148-26.699-2.989-38.793 5.509-12.916 18.184-20.369 28.703-25.368 38.368-18.209 82.482-20.319 123.077-22.605 43.774-2.511 87.96-1.777 131.426-1.971 18.43-.082 37.679-8.163 55.23-14.731 23.008-8.609 45.744-18.279 68.562-27.629 50.199-20.52 101.93-42.133 155.04-47.344 33.26-3.266 69.61 1.149 95.45 29.549 12.97 14.26 19.76 35.459 27.26 54.29 9.08 22.749 17.8 45.718 27.46 68.11 31.14 72.116 75.59 142.587 147.74 146.128 10.92.534 21.64-1.205 32.5-1.532 6.92-.2 13.08 1.84 15.65 10.675 6.47 22.159-13.86 57.14-22.19 74.722-18.25 38.485-38.82 75.243-58.1 112.956-12.75 24.94-34.82 59.024-35.05 89.327-.21 27 29.22 46.516 45.23 59.815 15.01 12.452 42.21 29.876 43.86 55.206.79 12.283-5.84 22.461-12.77 30.36-12.15 13.814-26.14 23.56-37.06 39.32-17.92 25.858-32.89 61.436-30.45 96.279 1.68 24.143 12.97 39.954 27.32 55.068 6.04 6.354 10.94 10.85 11.25 21.167.52 16.382-4.74 33.719-9.07 48.908-15.49 54.359-37.5 106.922-61.98 156-12.23 24.526-25.44 48.977-41.66 69.899-10.63 13.739-24.95 30.09-41.15 30.071-18.76 0-38.61-8.263-56.85-14.442-34.06-11.547-67.7-24.897-101.21-38.592-77.506-31.684-154.278-65.935-230.321-102.752-53.563-25.977-108.263-51.991-158.622-86.527-9.821-6.782-19.09-14.689-27.684-23.616-9.182-9.374-20.575-13.569-32.128-16.696-71.706-19.409-150.263-4.508-222.267 4.835-18.276 2.367-36.552 4.747-54.88 6.405-15.755 1.425-34.618 5.513-49.931-.628-30.174-12.087-3.796-56.638 7.356-74.791 39.263-63.916 89.92-117.992 136.873-173.198 22.324-26.291 44.818-52.513 65.929-80.292 10.992-14.442 32.668-37.926 32.596-56.801z"/><path d="M542.492 226.516c-12.035-22.784-33.149-39.623-50.676-55.471-25.222-22.815-51.237-44.362-76.861-66.53-24.229-20.963-48.509-42.165-70.946-65.97-13.682-14.518-30.849-31.879-37.329-53.35-14.058-46.54 61.568-39.478 80.237-40.696 46.414-3.013 99.036-3.703 141.975-28.206 26.813-15.302 37.829-40.677 32.11-75.907-1.977-12.188-5.539-22.595-1.03-34.721 5.215-14.034 17.208-22.783 28.203-28.959 34.441-19.35 75.152-23.461 112.486-26.882 38.569-3.533 78.755-6.025 116.084-3.439 14.927 1.029 32.109-4.814 46.882-9.295 22.731-6.904 45.23-14.869 67.848-22.275 45.966-15.064 93.125-29.575 140.945-31.225 34.52-1.193 70.52 5.272 99.24 30.258 29.11 25.338 42.03 64.615 58.17 101.954 27.88 64.552 65.53 143.038 130.03 156.677 9.78 2.071 19.18.948 28.94 1.456 5.03.258 10.75 1.073 13.3 7.117 6.61 15.691-11.51 44.38-17.61 56.4-16.86 33.215-35.8 64.804-53.46 97.378-14.03 25.865-31.81 54.605-37.24 85.265-6.58 37.206 36.44 63.68 51.57 89.878 26.22 45.428-23.47 71.312-47.96 92.972-28.13 24.867-51.35 70.232-26.14 108.706 9.65 14.712 21.52 23.48 25.83 42.68 6.74 30.026 1.64 64.339-3.83 94.02-8.23 44.619-21.26 88.754-38.98 129.08-12.7 28.871-33.75 74.143-64.59 70.747-20.76-2.265-41.87-10.544-62.08-17.862-30.27-10.952-60.15-23.436-89.88-36.403-68.617-29.851-136.481-62.764-203.011-98.966-45.394-24.71-172.02-125.691-181.548-129.294-28.408-10.732-60.708-8.843-89.997-7.18-38.961 2.21-77.726 7.934-116.46 13.237-18.438 2.511-36.968 5.58-55.504 6.816-13.193.879-30.519 1.632-42.075-7.726-22.556-18.258 2.574-60.033 12.967-77.708 31.836-54.184 72.109-101.106 109.871-149.083 18.53-23.555 37.344-47.073 54.166-72.517 6.784-10.274 23.791-30.905 16.353-44.976z"/><path d="M559.141 214.831c-32.866-45.592-78.229-79.5-117.379-117.577-19.65-19.117-39.423-38.755-56.371-61.526-8.816-11.84-19.825-26.814-21.523-43.32-4.54-44.153 63.622-38.183 84.024-39.859 39.443-3.252 84.003-5.72 119.787-28.252 21.863-13.774 32.63-36.381 28.544-66.096-1.812-13.184-4.632-24.384 0-37.33 4.693-13.115 14.472-22.369 24.374-29.306 28.456-19.952 63.818-26.331 95.856-31.083a635.32 635.32 0 0 1 113.293-6.467c33.144 1.061 66.129-10.873 98.491-18.74 42.871-10.415 86.523-19.512 130.393-18.137 34.64 1.092 69.56 9.674 99.18 32.483 30.1 23.229 48.2 57.997 64.51 95.515 24.66 56.717 55.4 132.72 109.51 154.26 7.86 3.14 15.2 3.485 23.31 4.031 3.95.264 9.04.345 10.99 5.362 4.71 12.079-12.68 35.496-17.54 43.658-15.49 26.054-32.28 50.934-48.16 76.643-14.82 24.002-30.97 49.014-40.17 77.14-14.66 44.794 32.19 70.987 30.88 113.672-.82 26.5-21.62 45.504-38.09 58.65-20.28 16.166-49.47 26.795-59.62 56.296-7.56 21.974 4.3 34.762 13.44 51.437 15.48 28.252 16.53 66.548 14.92 99.251-2.17 44.192-10.66 89.037-25.1 129.656-6.55 18.414-14.57 37.569-26.38 51.87-11.06 13.404-21.52 16.838-36.31 14.095-45.24-8.413-90.93-31.862-134.323-52.806-54.518-26.318-108.285-55.373-160.446-88.063-35.568-22.294-71.939-45.881-103.159-76.681-8.137-8.03-16.469-16.757-22.419-27.348-4.498-7.961-6.407-14.534-13.988-19.079-22.47-13.467-53.726-9.945-77.802-8.545-38.497 2.229-76.808 8.162-115.068 13.504-22.326 3.14-64.385 13.015-82.213-10.672-15.388-20.455 3.181-55.33 12.666-73.348 23.994-45.567 54.858-85.558 83.494-126.737 13.124-18.872 26.763-37.888 37.601-58.87 2.769-5.349 7.206-12.437 7.967-18.935.855-7.446-3.134-13.127-7.169-18.746z"/><path d="M561.967 225.444c-30.37-40.311-66.958-73.429-99.561-111.152-14.619-16.913-29.382-34.657-40.521-55.29-5.991-11.096-12.354-25.063-10.701-38.854 4.741-39.582 60.801-36.007 83.449-38.326 33.654-3.405 72.316-6.836 102.073-28.18 19.494-13.979 26.803-34.625 23.164-61.252-3.907-28.562 4.828-49.296 24.707-65.23 24.924-19.961 56.385-28.097 85.324-33.877 34.865-6.931 70.172-10.004 105.49-9.18 34.349.804 67.627-6.22 101.749-10.788 45.241-6.05 91.93-9.035 136.66 3.368 38.95 10.8 74.13 34.6 100.5 71.406 27.54 38.414 41.18 86.812 63.54 129.31 13.95 26.508 33.4 61.573 59.47 71.877 8.69 3.437 24.54-1.2 17.59 15.708-3.97 9.669-11.39 18.151-17.26 26.055-9.48 12.773-19.28 25.195-28.92 37.792-20.55 26.854-42.55 54.279-57.95 86.077-19.41 40.035 9.44 70.847 5.92 111.441-1.89 21.846-14.34 39.281-27.5 52.978-8.52 8.872-17.84 16.556-27.36 23.724-9.94 7.49-21.7 13.195-30.37 22.877-12.35 13.778-6.99 30.089-4.67 47.901a469.474 469.474 0 0 1 2.66 94.672c-2.82 38.697-9.43 78.5-23.37 113.665-5.42 13.691-12.28 28.205-22.48 37.384-10.2 9.179-20.74 8.551-32.43 5.787-34.66-8.168-69.242-27.174-102.119-45.188-41.148-22.549-81.488-47.75-120.011-76.419-26.592-19.792-53.271-41.173-75.518-68.007-6.47-7.81-12.627-16.173-17.604-25.509-3.418-6.402-5.25-14.665-10.202-19.477-15.494-15.023-46.6-10.537-64.77-9.664-36.263 1.741-71.956 10.016-108.173 12.026-19.766 1.1-50.722 3.864-65.238-16.675-13.651-19.308-1.287-49.717 6.872-68.321 16.034-36.579 37.576-69.169 56.884-103.173 7.937-13.992 16.636-28.631 21.779-44.609 4.57-14.237-3.321-24.541-11.103-34.877z"/><path d="M569.436 226.104c-24.173-35.473-53.315-66.962-77.663-103.012C477.521 101.98 452.978 66.488 464 36.724 476.091 4.018 518.24 3.127 542.604.492c28.998-3.137 63.051-7.422 87.867-27.844 7.849-6.456 14.535-15.001 17.369-26.256 3.035-12.047-.283-22.587-.715-34.645-.905-25.297 11.47-45.606 27.846-59.553 23.144-19.719 52.085-29.042 79.422-35.542 30.97-7.331 62.455-10.945 94.003-10.791 30.15.125 59.981-.69 90.161-1.631 39.47-1.255 79.493.771 117.783 13.564 37.71 12.611 72 36.245 98.94 71.009 26.28 33.923 44 75.388 59.53 117.624 8.81 23.973 23.7 59.797 44.71 71.906 9.35 5.39 18.52 5.02 8.58 19.035-12.51 17.649-29.38 31.809-43.87 46.904-20.91 21.784-42.34 43.993-59.89 69.892-11.21 16.539-16.2 32.587-15.43 54 .6 16.313 3.3 32.456 1.94 48.831-3.21 38.434-28.01 64.791-49.95 89.335-14.1 15.785-26.99 27.825-34.25 50.279-8.59 26.539-12.19 55.412-17.93 82.967-6.31 30.26-13.59 61.736-27.36 88.388-12.25 23.728-27.147 34.369-49.449 27.976-34.783-9.963-69.068-34.507-99.948-57.213-31.431-23.1-62.321-49.075-88.367-80.827-14.061-17.147-23.659-37.28-36.146-55.701-15.708-23.125-51.243-14.367-72.361-12.409-35.056 3.249-145.364 27.567-135.185-51.196 4.248-32.876 20.979-63.217 33.215-92.227 5.071-12.04 12.411-26.489 13.557-40.285 1.25-15.027-9.972-29.3-17.24-39.978z"/><path d="M582.199 229.116c-18.472-32.146-40.58-62.515-56.431-97.235-10.282-22.485-20.38-52.528-7.115-76.318 14.971-26.848 47.984-33.106 72.24-36.528 24.992-3.521 54.827-6.484 75.254-26.841 6.498-6.484 11.856-15.229 12.853-25.699.961-10.044-1.753-20.087-.853-30.313 2.015-22.962 13.423-41.881 28.133-55.604 43.511-40.594 108.271-49.621 160.769-50.682 26.277-.527 53.32 2.241 79.767 4.225 34.318 2.573 68.684 8.097 101.414 21.411 69.59 28.298 116.23 91.058 148.81 169.153 10.25 24.582 18.1 51.178 34.16 70.933 8.29 10.2 6.48 17.526-1.99 26.829-13.24 14.538-29.39 25.649-44.08 37.782-20.9 17.257-42.25 34.77-60.73 55.441-12.74 14.249-21.79 27.978-24.53 49.345-1.96 15.235-1.5 30.759-2.68 46.088-2.24 29.12-9.92 58.02-23.51 82.175-10.79 19.146-23.65 36.546-36.93 53.137-17.27 21.6-31.88 43.545-44.994 69.181-17.388 33.935-41.819 96.532-82.775 79.966-45.171-18.279-87.51-64.724-116.492-109.726-9.732-15.109-17.722-33.64-30.848-44.782-19.65-16.653-39.588-16.069-62.96-16-34.992.094-111.135 9.365-111.957-54.612-.324-25.348 8.663-49.314 12.966-73.695 4.854-27.306-4.874-45.724-17.491-67.631z"/><path d="M595.958 231.982c-18.272-41.896-59.245-110.741-28.082-157.33 16.462-24.62 45.578-33.873 70.002-39.386 19.656-4.46 43.36-6.135 58.211-25.042 10.916-13.9 6.07-34.13 10.252-51.531 5.191-21.572 17.105-39.224 31.745-52.491 40.911-37.079 97.796-48.458 147.01-50.879 51.112-2.509 107.43 9.227 155.524 31.803 59.97 28.159 104.9 81.478 136.32 148.999 5.8 12.464 11.07 25.254 16.63 37.87 3.74 8.461 9.29 16.647 12.24 25.548 4.91 14.842-.88 26.974-10.15 36.646-13.33 13.926-29.71 23.837-44.91 34.288-20.79 14.302-42.04 28.347-61.37 45.127-13 11.291-26.6 23.454-31.25 43.044-3.17 13.361-3.83 27.513-3.72 41.351.25 29.67-1.03 53.664-12.38 80.838-18.67 44.612-47.385 84.727-77.72 118.105-23.807 26.195-61.477 66.887-96.164 49.374-31.122-15.683-49.328-53.219-69.832-83.567-9.97-14.754-21.168-28.228-34.327-38.723-16.59-13.229-32.208-18.781-51.864-20.945-33.082-3.644-82.964-4.591-93.191-53.018-3.776-17.871-1.62-36.382-3.601-54.486-2.587-23.937-10.154-44.462-19.373-65.595z"/><path d="M614.958 233.533c-13.011-45.842-30.105-103.617 1.321-144.36 15.222-19.738 36.633-30.771 57.356-39.017 14.842-5.909 38.407-7.648 47.506-25.816 6.683-13.37 7.609-31.814 13.654-46.138 8.308-19.693 20.892-35.914 35.657-48.612 38.463-33.088 88.56-45.874 134.247-49.535 99.271-7.944 200.271 55.325 253.391 159.42 15.84 31.028 36.29 64.054 10.69 95.754-27.94 34.583-70.04 50.785-103.4 75.358-12.74 9.382-28.98 20.661-36.09 37.648-4.28 10.211-4.57 23.021-4.76 34.262-.52 28.63-2.47 54.377-11.9 81.092-14.569 41.283-37.801 79.37-64.127 110.568-22.958 27.205-55.7 59.175-89.043 39.563-25.566-15.071-41.78-47.061-61.644-70.641-22.105-26.263-49.444-43.959-79.466-52.606-29.205-8.39-61.237-14.048-76.629-49.693-5.28-12.227-10.796-28.058-12.775-41.591-3.195-22.313-7.873-44.271-13.988-65.656z"/><path d="M636.143 233.856c-6.019-46.291-6.688-94.56 21.279-131.044 13.052-17.021 29.552-29.114 46.236-40.07 12.276-8.061 24.953-14.861 34.121-28.077 8.494-12.237 14.95-26.445 23.151-39.002C771.748-20.978 784.692-35.383 799.264-47c36.528-29.063 80.964-42.656 123.475-47.37 20.58-2.293 42.903-3.486 63.343 2.762 19.738 6.027 39.258 15.558 57.408 26.67 38.59 23.602 72.03 58.165 96.27 101.863 16.63 29.974 25.61 59.118 4.09 89.525-24.27 34.275-62.32 53.185-93.68 75.43-21.51 15.257-45.62 30.212-49.64 62.634-3.201 25.799-5.799 50.285-14.077 74.671-12.32 35.969-30.435 68.552-53.27 95.816-20.882 24.838-47.301 45.914-77.172 32.648-23.666-10.529-42.028-34.117-62.705-50.981-23.043-18.836-48.361-29.221-75.021-37.571-23.959-7.534-46.519-19.112-62.005-43.692-3.169-5.023-6.498-10.491-8.942-16.111-3.118-7.17-2.876-14.277-3.488-22.313-1.595-21.209-4.985-42.173-7.707-63.125z"/><path d="M659.502 230.073c.514-43.97 9.179-85.525 32.911-119.792 10.146-14.659 22.261-26.733 33.426-40.165 8.989-10.83 17.484-20.89 27.82-29.815 24.519-21.13 44.446-48.472 70.503-67.288 34.783-25.154 74.626-39.058 114.161-44.617 19.305-2.717 39.247-3.666 58.778-.598 16.779 2.635 32.839 11.886 47.739 21.35 29.21 18.539 57.57 44.888 76.54 78.224 41.81 73.495-40.63 126.929-82.94 158.221-19.46 14.395-49.192 31.066-57.162 59.579-5.698 20.369-9.169 41.083-16.508 60.823-19.71 53.013-59.723 115.365-113.045 107.064-22.817-3.547-43.613-17.954-64.913-27.626-21.932-9.961-44.569-15.514-67.365-21.608-21.305-5.691-38.286-13.791-52.047-35.505-6.577-10.37-5.996-22.784-6.582-35.506-.956-20.897-1.548-41.913-1.316-62.741z"/><path d="M680.772 224.441c8.566-66.369 40.381-138.825 87.162-177.368 55.029-45.34 114.644-83.52 180.391-94.495 30.482-5.09 63.875-7.593 92.635 9.05 21.89 12.657 47.32 31.577 59.36 58.185 29.48 65.082-36.08 116.891-73.43 147.001-20.11 16.209-45.705 32.004-60.861 55.675-8.793 13.724-13.282 31.879-20.381 46.953-21.514 45.678-56.928 82.521-101.043 89.11-20.396 3.044-40.943-.721-61.185-3.715-20.721-3.062-41.7-4.725-62.292-8.999-16.438-3.413-35.811-9.193-41.865-30.661-7.634-27.053-1.987-63.633 1.509-90.736z"/><path d="M701.629 213.779c12.494-62.397 38.95-123.263 83.425-160.513 23.585-19.752 50.963-33.388 77.249-46.86 29.796-15.268 60.927-27.12 92.723-32.998 39.589-7.323 103.704-13.924 124.394 41.126 20.52 54.64-31.35 103.001-62.03 130.561-19.668 17.654-40.717 33.858-59.509 53.159-10.189 10.463-18.039 22.553-26.662 34.826-23.833 34.003-57.809 60.921-92.439 75.291-33.564 13.931-75.085 20.098-110.514 15.495-15.288-1.979-26.214-8.655-30.837-27.635-6.407-26.385-.964-56.676 4.2-82.452z"/><path d="M722.354 196.973c12.412-54.938 39.182-105.118 78.23-138.091C844.356 21.918 900.718 1.379 952.522-9.066c27.536-5.548 87.208-20.59 101.248 22.46 14.03 43.049-26.54 85.472-49.9 108.827-28.34 28.301-58.898 55.626-89.42 81.019-26.518 22.078-54.815 44.651-83.539 61.7-16.2 9.672-33.075 17.57-50.426 23.598-12.848 4.428-29.186 11.033-42.656 7.737-33.976-8.325-21.41-73.033-15.475-99.302z"/><path d="M747.938 180.522C775.169 76.626 861.448 25.528 944.521 7.718c19.304-4.135 73.419-19.04 84.209 12.697 10.46 30.772-22.8 67.265-38.367 84.555-48.241 53.576-107.843 93.3-164.321 132.653-17.629 12.284-49.424 38.94-71.291 26.644-23.743-13.375-12.455-62.202-6.813-83.745z"/><path d="M775.831 160.525c23.683-76.512 92.565-120.394 155.894-134.86 15.512-3.54 54.907-14.561 66.655 6.79 10.87 19.751-15.073 48.37-24.78 59.742-21.61 25.324-47.22 46.186-72.521 66.238-23.394 18.552-47.04 37.568-71.656 53.259-12.965 8.259-37.281 25.882-52.014 13.129-15.862-13.719-6.836-47.309-1.578-64.298z"/><path d="M806.57 138.171c18.05-49.965 66.393-82.411 109.038-93.193 11.475-2.895 36.275-10.405 45.955 2.939 8.912 12.289-5.451 30.304-11.825 38.625-28.251 36.878-69.622 69.82-107.527 90.052-9.53 5.087-26.663 15.071-36.466 4.804-10.057-10.543-3.322-31.755.825-43.227z"/><path d="M839.178 117.182c10.171-24.81 36.754-43.53 58.775-49.488 15.497-4.19 34.125-.57 20.62 21.026-13.418 21.432-38.313 41.007-59.413 49.685-16.099 6.618-28.716.089-19.982-21.223zM14.374 289.025c-.652-49.018-21.995-99.96-11.455-149.906 8.655-41.02 52.229-44.444 78.369-63.029 20.772-14.765 32.56-40.92 43.794-66.015 10.093-22.53 19.159-45.736 29.792-67.896 6.883-14.326 18.702-42.456 33.629-42.965 14.29-.489 27.393 21.433 35.694 34.39 10.823 16.892 20.418 34.9 30.927 52.06 17.711 28.946 38.961 50.372 63.293 70.65a2143.876 2143.876 0 0 0 84.44 66.855c21.06 15.875 42.263 31.631 62.506 49.074 12.698 10.945 40.723 31.48 40.851 51.658.062 9.627-7.412 20.29-12.451 27.986-8.526 13.027-18.245 24.938-27.994 36.592-18.157 21.708-37.086 42.431-55.808 63.405-24.301 27.222-47.514 53.998-68.877 84.901-22.087 31.988-43.188 65.03-64.72 97.62-14.583 22.078-29.15 46.872-50.184 60.42-26.346 16.935-47.971-.922-74.614-1.129-22.919-.182-21.229-65.011-24.142-83.037-2.922-18.246-9.364-35.231-11.86-53.521-3.113-22.831-3.154-46.188-3.919-69.264-.93-28.225-1.3-55.095-26.012-65.858-14.064-6.115-29.278-7.401-43.835-11.064-9.43-2.377-27.219-6.441-27.424-21.927z"/><path d="M25.641 280.305c-2.402-41.088-16.595-93.679-3.174-136.093 11.467-36.245 47.328-40.944 71.476-59.983 19.934-15.704 28.808-41.403 38.772-66.649 7.995-20.252 15.747-40.699 24.822-60.304 6.688-14.448 16.899-38.84 30.804-41.83 12.501-2.688 25.907 18.845 32.924 29.8 10.237 15.994 18.993 33.363 28.037 50.367 15.891 29.87 32.162 56.73 55.42 78.672 23.36 22.036 48.917 38.513 74.747 55.662 20.207 13.417 40.311 27.225 59.51 42.715 14.301 11.533 34.863 26.295 41.406 46.861 5.181 16.27-21.091 43.269-28.839 52.798-15.947 19.592-32.846 37.985-49.776 56.265-20.639 22.275-41.937 41.754-60.163 67.164-32.6 45.429-59.85 102.001-101.797 135.765-25.3 20.366-53.454 25.573-81.594 22.527-11.143-1.206-13.818-20.41-15.222-31.61-2.336-18.606-2.629-37.533-4.424-56.215-1.682-17.488-5.417-34.103-8.427-51.252-3.045-17.375-3.899-35.177-6.142-52.672-1.389-10.861-2.763-23.499-8.838-32.231-6.286-9.039-16.657-12.827-25.722-15.704-17.022-5.352-62.102-5.057-63.8-34.053z"/><path d="M40.143 263.105c-4.04-37.716-9.697-84.692 6.763-119.441 13.454-28.413 42.148-34.542 62.643-53.055 17.047-15.395 23.486-39.88 31.947-62.634 6.943-18.664 13.923-37.409 22.338-55.169 6.382-13.47 14.607-31.731 27.278-36.43 10.835-4.015 23.074 13.971 29.08 22.923 10.227 15.257 18.565 32.353 26.847 49.222 13.546 27.603 26.012 57.088 45.292 79.541 18.735 21.788 40.99 34.649 63.662 49.109 17.366 11.079 34.624 22.584 50.986 35.796 12.563 10.138 28.133 22.152 34.68 39.021 5.661 14.549-8.874 31.769-16.136 42.033-11.992 16.938-25.302 32.477-38.427 48.08-14.164 16.831-29.852 32.358-43.558 49.604-28.823 36.292-51.85 76.474-87.374 104.278-23.007 18.011-53.965 34.372-81.161 31.43-19.559-2.121-18.272-54.956-20.151-71.838-3.088-27.603-9.053-56.605-18.529-82.032-8.137-21.788-27.474-28.506-45.261-33.393-11.143-3.068-22.822-4.724-33.6-9.467-12.476-5.496-15.625-11.769-17.319-27.578z"/><path d="M53.67 245.426c-2.406-31.887-1.865-69.594 13.718-97.178 13.656-24.16 37.97-30.522 55.263-49.554 13.496-14.85 18.797-39.06 26.055-58.697 8.87-24.01 21.301-68.355 43.678-77.39 20.816-8.4 42.585 45.257 50.122 61.258 11.93 25.324 21.908 53.097 36.378 76.483 12.461 20.134 29.156 31.265 46.876 43.225 22.594 15.277 56.896 33.391 68.976 63.164 9.004 22.185-20.276 55.167-30.274 70.538-10.457 16.057-18.334 35.09-29.125 50.58-17.031 24.444-44.626 44.125-67.41 59.144-22.15 14.609-50.915 30.779-76.043 29.817-16.515-.629-19.657-31.762-23.181-46.969-5.048-21.619-11.76-40.991-26.179-55.695-14.676-14.969-31.973-22.022-50.157-28.194-9.335-3.146-19.982-5.6-28.333-11.955-9.225-6.914-9.437-16.321-10.364-28.577z"/><path d="M70.152 227.046c.134-27.548 5.294-56.924 20.595-78.174 12.744-17.699 32.692-23.616 44.891-41.71 9.664-14.325 14.583-34.435 21.052-51.07 7.913-20.386 19.101-55.998 38.776-63.073 19.204-6.887 36.189 32.338 43.552 47.859 10.782 22.758 19.511 46.881 30.391 69.577 8.524 17.806 18.947 29.283 32.826 40.759 16.292 13.48 39.022 28.412 47.726 50.713 6.274 16.147-8.914 41.949-14.429 56.174-3.697 9.554-7.08 19.258-8.939 29.614-1.448 8.064-1.592 15.527-5.787 22.451-10.561 17.418-33.718 19.691-49.43 25.432-20.867 7.62-43.007 16.279-64.845 17.932-13.421 1.033-20.271-14.062-27.932-24.681-9.052-12.553-21.868-21.581-33.061-31.054-14.772-12.522-30.849-20.311-47.48-28.287-7.501-3.6-16.312-7.131-22.124-14.288-6.07-7.419-5.828-18.231-5.782-28.174z"/><path d="M87.463 210.692c2.652-23.136 10.917-45.25 24.876-61.605 10.701-12.558 24.913-19.627 33.502-34.715 8.002-14.064 13.579-30.056 20.189-45.093 6.995-15.897 17.388-42.468 33.522-46.794 17.388-4.659 30.782 22.144 38.199 37 9.37 18.773 16.488 38.97 24.866 58.391 6.312 14.474 14.363 27.712 23.885 39.272 9.986 12.187 23.53 23.859 28.582 40.617 4.467 14.842-3.891 32.799-5.366 47.849-1.578 16.079 1.188 32.969-7.56 46.775-18.041 28.474-63.318 23.194-89.202 23.803-25.539.627-46.073-16.796-66.74-33.371-13.651-10.944-27.868-20.211-41.864-30.408-14.268-10.403-19.223-21.359-16.89-41.721z"/><path d="M103.546 197.45c7.843-33.519 32.339-51.334 49.85-76.664 14.328-20.737 25.072-63.681 49.203-69.362 27.396-6.447 43.797 50.454 53.321 72.41 10.569 24.35 29.392 44.157 37.22 69.933 4.114 13.53.581 26.154-1.61 39.677-2.402 14.849-4.207 30.031-12.497 41.983-16.319 23.52-48.189 23.357-71.142 24.004-23.761.673-44.78-15.446-63.711-31.532-20.078-17.036-48.667-36.076-40.634-70.449z"/><path d="M116.682 188.361c8.838-23.881 27.409-43.296 42.478-61.623 12.578-15.279 26.109-46.038 45.286-48.23 22.54-2.586 36.2 30.258 45.069 50.397 8.728 19.79 21.306 40.685 26.139 62.404 5.041 22.625-8.381 53.096-21.182 69.106-14.277 17.853-37.634 24.45-57.677 23.737-20.985-.724-40.24-15.479-56.133-30.783-16.992-16.36-34.258-37.286-23.98-65.008z"/><path d="M128.871 183.865c8.442-19.863 23.075-36.665 36.567-51.653 10.412-11.57 25.776-31.245 40.798-31.727 16.526-.532 30.531 15.983 37.101 32.91 6.476 16.696 13.3 37.629 14.27 55.945 2.105 39.888-40.757 84.569-72.942 80.933-30.515-3.448-72.625-46.834-55.794-86.408z"/><path d="M140.144 181.675c11.645-25.88 39.933-62.774 66.122-63.65 30.06-1.001 37.607 40.055 33.688 69.808-3.98 30.367-38.638 74.321-66.272 68.381-26.972-5.795-47.34-43.847-33.538-74.539z"/><path d="M152.046 177.49c9.86-21.668 30.9-48.733 52.845-49.552 26.149-.969 25.655 33.693 19.726 55.268-6.166 22.4-33.321 60.658-56.217 54.617-22.263-5.897-25.803-39.565-16.354-60.333z"/><path d="M162.412 174.996c6.509-15.461 22.798-35.002 38.283-35.627 18.927-.752 15.248 26.741 10.357 40.011-5.812 15.789-25.296 43.225-41.647 38.779-16.098-4.377-12.362-30.423-6.993-43.163z"/></g></svg>