<svg width="242" height="494" viewBox="0 0 242 494" fill="none" xmlns="http://www.w3.org/2000/svg"><g opacity=".3" fill="#6B6B6B"><path d="M121.7 203.789c-3.333 4.9-9.985 6.163-14.87 2.84-4.877-3.317-6.141-9.989-2.819-14.873l6.065-8.916c.313-.46.939-.58 1.398-.267l11.634 7.914 1.253-1.842c.313-.46.939-.58 1.398-.267l3.561 2.422c.459.313.578.939.265 1.398l-1.253 1.843 1.899 1.292 1.253-1.843c.313-.46.939-.579 1.398-.267l3.561 2.423c.459.312.578.938.265 1.398l-1.253 1.842 2.73 1.858c.459.312.578.938.265 1.397l-2.426 3.567c-.313.46-.939.579-1.398.267l-2.73-1.857-3.679 5.408c-.313.46-.939.58-1.398.267l-3.561-2.422a1.005 1.005 0 0 1-.265-1.398l3.679-5.409-1.899-1.292-3.073 4.517zm-9.392-12.997l-3.073 4.517a4.388 4.388 0 0 0 1.154 6.089 4.386 4.386 0 0 0 6.087-1.163l3.073-4.517-7.241-4.926zm39.063-130.634c-4.322 1.587-9.112-.669-10.714-5.032-1.6-4.357.604-9.188 4.913-10.77l7.866-2.888a.786.786 0 0 1 1.007.473l3.816 10.393 1.625-.597a.786.786 0 0 1 1.007.473l1.168 3.181a.786.786 0 0 1-.461 1.013l-1.626.596.623 1.697 1.625-.597a.786.786 0 0 1 1.007.473l1.168 3.181a.786.786 0 0 1-.461 1.012l-1.626.597.895 2.439a.786.786 0 0 1-.461 1.012l-3.147 1.155a.787.787 0 0 1-1.007-.472l-.895-2.44-4.772 1.752a.786.786 0 0 1-1.007-.472l-1.168-3.182a.786.786 0 0 1 .461-1.012l4.773-1.752-.623-1.696-3.986 1.463zm-.102-12.598l-3.986 1.463c-1.763.647-2.666 2.625-2.011 4.408.655 1.784 2.622 2.708 4.386 2.06l3.986-1.463-2.375-6.468z"/><path d="M13.42 95.83c-3.265-1.593-4.597-5.552-2.989-8.847 1.606-3.29 5.56-4.673 8.814-3.085l5.94 2.9a.62.62 0 0 1 .28.832l-3.83 7.847 1.227.6a.62.62 0 0 1 .28.83L21.97 99.31a.62.62 0 0 1-.829.29l-1.227-.599-.626 1.281 1.228.599a.62.62 0 0 1 .28.832l-1.172 2.402a.62.62 0 0 1-.828.29l-1.228-.599-.899 1.841a.62.62 0 0 1-.828.29l-2.376-1.16a.62.62 0 0 1-.281-.831l.899-1.842-3.604-1.759a.62.62 0 0 1-.28-.831l1.173-2.403a.62.62 0 0 1 .828-.29l3.603 1.76.626-1.282-3.01-1.469zm7.114-6.939l-3.01-1.469c-1.332-.65-2.95-.084-3.608 1.263-.657 1.347-.108 2.971 1.224 3.621l3.01 1.47 2.384-4.885z" filter="url(#a)"/><path d="M219.597 27.566c-2.902-1.097-4.348-4.357-3.24-7.286 1.105-2.925 4.358-4.414 7.25-3.32l5.28 1.996a.53.53 0 0 1 .305.685l-2.638 6.976 1.091.412a.53.53 0 0 1 .305.685l-.808 2.136a.53.53 0 0 1-.681.312l-1.091-.413-.431 1.139 1.091.412a.53.53 0 0 1 .305.685l-.808 2.136a.53.53 0 0 1-.681.312l-1.091-.413-.619 1.637a.53.53 0 0 1-.681.312l-2.113-.798a.53.53 0 0 1-.304-.685l.619-1.637-3.203-1.211a.53.53 0 0 1-.305-.685l.808-2.136a.53.53 0 0 1 .681-.312l3.203 1.211.431-1.138-2.675-1.012zm5.501-6.462l-2.675-1.012c-1.184-.448-2.516.162-2.968 1.36-.453 1.196.142 2.534 1.326 2.982l2.675 1.011 1.642-4.341z" filter="url(#b)"/><path d="M194.6 276.453c-4.338-3.646-4.896-10.096-1.262-14.421 3.629-4.318 10.099-4.875 14.423-1.242l7.895 6.634c.407.342.46.949.118 1.355l-8.655 10.301 1.631 1.371c.407.342.46.949.119 1.355l-2.65 3.154a.963.963 0 0 1-1.356.117l-1.631-1.371-1.413 1.681 1.631 1.371c.407.342.46.949.119 1.355l-2.65 3.154a.962.962 0 0 1-1.355.117l-1.632-1.371-2.031 2.417a.962.962 0 0 1-1.356.117l-3.157-2.654a.961.961 0 0 1-.119-1.355l2.031-2.417-4.789-4.025a.961.961 0 0 1-.118-1.355l2.649-3.153a.962.962 0 0 1 1.356-.117l4.789 4.024 1.413-1.681-4-3.361zm13.274-7.676l-4-3.361a4.194 4.194 0 0 0-5.904.508 4.195 4.195 0 0 0 .517 5.903l4 3.361 5.387-6.411zm-77.735 24.492c4.761-3.072 11.09-1.704 14.152 3.043 3.058 4.74 1.684 11.087-3.063 14.148l-8.665 5.59a.962.962 0 0 1-1.33-.286l-7.294-11.307-1.79 1.155a.962.962 0 0 1-1.33-.286l-2.233-3.461a.962.962 0 0 1 .288-1.33l1.79-1.155-1.19-1.845-1.791 1.155a.962.962 0 0 1-1.33-.286l-2.233-3.462a.964.964 0 0 1 .288-1.33l1.791-1.155-1.712-2.653a.963.963 0 0 1 .288-1.33l3.466-2.235a.96.96 0 0 1 1.33.286l1.712 2.653 5.257-3.391a.962.962 0 0 1 1.33.286l2.233 3.461a.964.964 0 0 1-.288 1.33l-5.257 3.391 1.19 1.846 4.391-2.832zm3.424 14.946l4.39-2.832a4.194 4.194 0 0 0 1.254-5.791 4.194 4.194 0 0 0-5.793-1.246l-4.391 2.832 4.54 7.037zm92.881-118.078c-5.41 1.685-11.142-1.328-12.821-6.721-1.677-5.386 1.346-11.133 6.739-12.812l9.845-3.066a.962.962 0 0 1 1.205.632l4 12.846 2.035-.633a.962.962 0 0 1 1.205.632l1.224 3.932a.963.963 0 0 1-.633 1.205l-2.034.633.653 2.097 2.034-.634a.962.962 0 0 1 1.205.632l1.225 3.933a.963.963 0 0 1-.634 1.204l-2.034.633.938 3.015a.961.961 0 0 1-.633 1.204l-3.938 1.227a.962.962 0 0 1-1.205-.632l-.939-3.015-5.972 1.86a.962.962 0 0 1-1.205-.632l-1.225-3.933a.962.962 0 0 1 .633-1.204l5.973-1.859-.653-2.097-4.988 1.553zm.702-15.318l-4.988 1.553a4.195 4.195 0 0 0-2.758 5.245 4.194 4.194 0 0 0 5.248 2.751l4.988-1.553-2.49-7.996z"/><path d="M226.076 351.449l.718.766 1.529-1.435-1.865-1.987a1.967 1.967 0 0 1 .086-2.777 1.966 1.966 0 0 1 2.777.09l1.865 1.987.521-.488a1.966 1.966 0 0 1 2.69 2.867l-.52.489.718.765a4.984 4.984 0 0 1-.218 7.037 4.984 4.984 0 0 1-7.037-.228l-.719-.766-1.528 1.435 1.864 1.987a1.966 1.966 0 0 1-.086 2.777 1.966 1.966 0 0 1-2.777-.09l-1.865-1.987-.52.488a1.966 1.966 0 0 1-2.691-2.867l.52-.488-.718-.766a4.983 4.983 0 0 1 .219-7.037 4.985 4.985 0 0 1 7.037.228zm4.127 4.399a1.05 1.05 0 0 0 1.529-1.435l-.718-.766-1.529 1.435.718.766zm-8.52-.277l.719.766 1.529-1.435-.719-.766a1.048 1.048 0 1 0-1.529 1.435z" filter="url(#c)"/><path d="M236.223 99.356l.692-1.363-2.714-1.38-1.798 3.54a2.861 2.861 0 0 1-3.838 1.262 2.86 2.86 0 0 1-1.245-3.845l1.797-3.539-.924-.469a2.86 2.86 0 0 1-1.245-3.844 2.86 2.86 0 0 1 3.838-1.262l.924.47.693-1.364c1.812-3.567 6.175-5.001 9.727-3.197 3.552 1.804 4.967 6.174 3.155 9.74l-.692 1.364 2.714 1.379 1.798-3.54a2.86 2.86 0 0 1 3.839-1.261 2.86 2.86 0 0 1 1.245 3.844l-1.798 3.539.924.47a2.861 2.861 0 0 1 1.246 3.844 2.861 2.861 0 0 1-3.839 1.261l-.924-.469-.692 1.363c-1.812 3.567-6.176 5.002-9.728 3.198-3.551-1.804-4.967-6.174-3.155-9.741zm3.978-7.833a1.527 1.527 0 0 0-.665-2.052 1.524 1.524 0 0 0-2.049.673l-.693 1.364 2.715 1.379.692-1.364zm3.821 11.794l.692-1.363-2.715-1.379-.692 1.363a1.528 1.528 0 0 0 .665 2.053 1.526 1.526 0 0 0 2.05-.674zM108.709 366.399l1.13-.671-1.334-2.248-2.934 1.742a2.459 2.459 0 0 1-3.367-.848 2.458 2.458 0 0 1 .867-3.362l2.934-1.742-.454-.766a2.457 2.457 0 0 1 .867-3.361 2.457 2.457 0 0 1 3.366.848l.455.765 1.13-.671c2.957-1.756 6.784-.791 8.531 2.15 1.746 2.942.76 6.763-2.197 8.519l-1.131.671 1.335 2.248 2.934-1.742a2.458 2.458 0 0 1 3.367.849 2.457 2.457 0 0 1-.867 3.361l-2.934 1.742.454.766a2.458 2.458 0 0 1-.867 3.362 2.458 2.458 0 0 1-3.367-.849l-.454-.765-1.13.671c-2.958 1.756-6.785.791-8.531-2.15-1.746-2.941-.761-6.763 2.197-8.519zm6.494-3.855c.623-.37.831-1.175.463-1.795a1.31 1.31 0 0 0-1.798-.453l-1.13.671 1.335 2.248 1.13-.671zm-2.66 10.314l1.131-.671-1.335-2.249-1.13.671a1.313 1.313 0 0 0-.463 1.796 1.31 1.31 0 0 0 1.797.453zM59.006 74.184c1.162 4.594 5.585 7.46 10.102 6.755l.472 1.866a.848.848 0 0 0 1.028.62l3.506-.887a.848.848 0 0 0 .61-1.033l-.462-1.828 1.87-.473.462 1.828a.848.848 0 0 0 1.027.619l3.507-.887a.848.848 0 0 0 .61-1.032l-.473-1.867c4.304-1.526 6.84-6.146 5.678-10.744-1.225-4.846-6.129-7.8-10.93-6.587a.848.848 0 0 0-.61 1.033l.894 3.539a.848.848 0 0 0 1.028.619c1.965-.497 3.973.712 4.474 2.696a3.71 3.71 0 0 1-1.86 4.196l-.886-3.502a.848.848 0 0 0-1.028-.619l-3.506.887a.848.848 0 0 0-.61 1.033l.91 3.597-1.87.473-.91-3.597a.848.848 0 0 0-1.027-.62l-3.506.887a.848.848 0 0 0-.61 1.033l.885 3.502a3.71 3.71 0 0 1-3.631-2.807c-.504-1.99.686-4.001 2.654-4.499a.849.849 0 0 0 .61-1.033l-.894-3.539a.848.848 0 0 0-1.028-.619c-4.802 1.214-7.711 6.144-6.486 10.99z"/><path d="M37 19.64c.756 2.987 3.632 4.85 6.57 4.392l.306 1.213a.552.552 0 0 0 .668.403l2.28-.577a.551.551 0 0 0 .397-.672l-.301-1.188 1.216-.308.3 1.19a.551.551 0 0 0 .668.401l2.28-.576a.551.551 0 0 0 .397-.672l-.307-1.213c2.798-.992 4.448-3.996 3.692-6.986-.797-3.151-3.985-5.072-7.108-4.283a.551.551 0 0 0-.396.672l.582 2.3a.552.552 0 0 0 .668.403c1.278-.323 2.583.463 2.91 1.753a2.413 2.413 0 0 1-1.21 2.729l-.577-2.277a.552.552 0 0 0-.668-.403l-2.28.577a.551.551 0 0 0-.396.671l.591 2.34-1.215.307-.592-2.34a.552.552 0 0 0-.668-.402l-2.28.577a.551.551 0 0 0-.396.671l.575 2.277a2.413 2.413 0 0 1-2.361-1.825 2.4 2.4 0 0 1 1.726-2.925.552.552 0 0 0 .397-.672l-.582-2.3a.552.552 0 0 0-.668-.403c-3.122.79-5.014 3.995-4.217 7.146z" filter="url(#d)"/><path d="M153.031 146.844c1.929-4.328.226-9.316-3.759-11.557l.784-1.758a.85.85 0 0 0-.424-1.122l-3.304-1.472a.848.848 0 0 0-1.118.434l-.768 1.722-1.761-.785.768-1.722a.849.849 0 0 0-.425-1.122l-3.303-1.473a.849.849 0 0 0-1.118.435l-.784 1.758c-4.325-1.463-9.177.598-11.107 4.929-2.036 4.566-.011 9.921 4.513 11.937a.848.848 0 0 0 1.118-.434l1.486-3.334a.848.848 0 0 0-.424-1.122c-1.852-.825-2.681-3.017-1.848-4.886a3.712 3.712 0 0 1 4.058-2.146l-1.471 3.299a.849.849 0 0 0 .425 1.122l3.303 1.473a.848.848 0 0 0 1.118-.435l1.511-3.389 1.762.786-1.511 3.389a.848.848 0 0 0 .424 1.122l3.304 1.472a.849.849 0 0 0 1.118-.434l1.47-3.299a3.71 3.71 0 0 1 1.117 4.452c-.836 1.875-3.014 2.719-4.868 1.893a.849.849 0 0 0-1.119.434l-1.486 3.333a.847.847 0 0 0 .424 1.122c4.524 2.017 9.86-.057 11.895-4.622z"/><path d="M183.293 211.013c1.422-3.191.166-6.869-2.772-8.522l.578-1.296a.625.625 0 0 0-.313-.827l-2.436-1.086a.625.625 0 0 0-.824.32l-.566 1.27-1.299-.579.566-1.27a.625.625 0 0 0-.313-.827l-2.436-1.086a.625.625 0 0 0-.824.321l-.578 1.296c-3.189-1.079-6.766.441-8.19 3.635-1.501 3.366-.008 7.315 3.328 8.802a.625.625 0 0 0 .824-.321l1.096-2.458a.625.625 0 0 0-.313-.827c-1.365-.609-1.976-2.225-1.362-3.603a2.735 2.735 0 0 1 2.992-1.582l-1.084 2.432a.627.627 0 0 0 .313.828l2.436 1.085a.625.625 0 0 0 .824-.32l1.114-2.499 1.299.579-1.114 2.499a.625.625 0 0 0 .313.827l2.436 1.086a.625.625 0 0 0 .824-.32l1.084-2.433a2.736 2.736 0 0 1 .824 3.283c-.617 1.383-2.223 2.005-3.59 1.396a.626.626 0 0 0-.825.32l-1.096 2.458a.625.625 0 0 0 .313.827c3.336 1.487 7.27-.042 8.771-3.408z" filter="url(#e)"/><path d="M172.509 444.954c1.218 4.817 5.857 7.821 10.593 7.083l.495 1.956a.888.888 0 0 0 1.077.649l3.677-.929a.89.89 0 0 0 .639-1.083l-.484-1.917 1.96-.496.485 1.917a.89.89 0 0 0 1.077.649l3.677-.93a.889.889 0 0 0 .639-1.083l-.495-1.957c4.513-1.6 7.173-6.444 5.954-11.265-1.285-5.082-6.427-8.18-11.462-6.907a.89.89 0 0 0-.639 1.083l.938 3.711a.89.89 0 0 0 1.077.649c2.062-.521 4.166.747 4.692 2.827a3.891 3.891 0 0 1-1.951 4.4l-.929-3.672a.888.888 0 0 0-1.077-.649l-3.677.929a.89.89 0 0 0-.639 1.083l.954 3.773-1.961.495-.953-3.772a.89.89 0 0 0-1.078-.649l-3.676.93a.89.89 0 0 0-.64 1.083l.929 3.672a3.89 3.89 0 0 1-3.808-2.944c-.528-2.087.719-4.195 2.783-4.717a.89.89 0 0 0 .64-1.083l-.938-3.711a.89.89 0 0 0-1.077-.649c-5.035 1.273-8.086 6.443-6.802 11.524zm20.313-350.509a4.45 4.45 0 0 1 3.797-5.013 4.417 4.417 0 0 1 3.292.862 4.415 4.415 0 0 1 1.721 2.936 4.416 4.416 0 0 1-.862 3.291 4.42 4.42 0 0 1-2.936 1.721 4.452 4.452 0 0 1-5.012-3.797zm4.487-.008a.607.607 0 0 0 .518-.682.606.606 0 1 0-.518.682zm-11.008 15.23a4.416 4.416 0 0 1 .862-3.292 4.415 4.415 0 0 1 2.935-1.721 4.453 4.453 0 0 1 5.013 3.798 4.454 4.454 0 0 1-3.798 5.012 4.414 4.414 0 0 1-3.291-.862 4.417 4.417 0 0 1-1.721-2.935zm4.487-.008a.608.608 0 0 0 .518-.683.607.607 0 1 0-.518.683zm-6.813-15.779c.31-.41.76-.674 1.269-.744a1.907 1.907 0 0 1 1.422.372l16.921 12.819a1.923 1.923 0 0 1-.898 3.433 1.911 1.911 0 0 1-1.422-.371l-16.921-12.82a1.923 1.923 0 0 1-.371-2.69zm-82.36 45.433a4.121 4.121 0 0 1 5.462 2.012c.46.997.504 2.115.124 3.148a4.095 4.095 0 0 1-2.136 2.315 4.086 4.086 0 0 1-3.147.123 4.085 4.085 0 0 1-2.315-2.135 4.122 4.122 0 0 1 2.012-5.463zm1.216 3.972a.56.56 0 1 0 1.018-.47.56.56 0 0 0-1.018.47zm-16.454-5.644a4.091 4.091 0 0 1 3.148-.124 4.087 4.087 0 0 1 2.314 2.136 4.12 4.12 0 0 1-2.012 5.462 4.124 4.124 0 0 1-5.462-2.012 4.087 4.087 0 0 1-.123-3.147 4.087 4.087 0 0 1 2.135-2.315zm1.217 3.972a.561.561 0 1 0 .274-.744.562.562 0 0 0-.274.744zm12.137-10.287c.446.164.801.492 1 .923.199.432.218.914.054 1.36l-6.792 18.44a1.78 1.78 0 0 1-3.282.13 1.768 1.768 0 0 1-.054-1.36l6.792-18.439a1.78 1.78 0 0 1 2.282-1.054zm51.795 116.211a5.94 5.94 0 0 1 5.067-6.688 5.893 5.893 0 0 1 4.392 1.15 5.894 5.894 0 0 1 2.296 3.917 5.893 5.893 0 0 1-1.15 4.392 5.898 5.898 0 0 1-3.917 2.296 5.94 5.94 0 0 1-6.688-5.067zm5.987-.01a.81.81 0 0 0 .691-.911.809.809 0 1 0-.691.911zm-14.689 20.321a5.894 5.894 0 0 1 1.151-4.392 5.892 5.892 0 0 1 3.916-2.296 5.941 5.941 0 0 1 6.689 5.067 5.943 5.943 0 0 1-5.067 6.688 5.896 5.896 0 0 1-4.393-1.15 5.898 5.898 0 0 1-2.296-3.917zm5.988-.01a.809.809 0 1 0-.91-.69.809.809 0 0 0 .91.69zm-9.091-21.056a2.544 2.544 0 0 1 1.692-.991 2.54 2.54 0 0 1 1.898.496l22.579 17.105a2.566 2.566 0 0 1-.698 4.461 2.55 2.55 0 0 1-.5.12 2.547 2.547 0 0 1-1.898-.496l-22.578-17.105a2.566 2.566 0 0 1-.495-3.59zm28.305 114.736a3.732 3.732 0 0 1 5.175-1 3.705 3.705 0 0 1 1.57 2.381 3.7 3.7 0 0 1-.571 2.794 3.7 3.7 0 0 1-2.38 1.57 3.705 3.705 0 0 1-2.794-.57 3.732 3.732 0 0 1-1-5.175zm2.803 2.508a.508.508 0 1 0 .568-.842.508.508 0 0 0-.568.842zm-15.393 3.333a3.705 3.705 0 0 1 2.381-1.57 3.7 3.7 0 0 1 2.794.571 3.731 3.731 0 0 1 1 5.174 3.732 3.732 0 0 1-5.175 1 3.702 3.702 0 0 1-1.57-2.381 3.706 3.706 0 0 1 .57-2.794zm2.803 2.508a.508.508 0 1 0 .569-.842.508.508 0 0 0-.569.842zm4.587-13.656c.422-.081.851.007 1.207.247.356.241.597.606.679 1.029l3.374 17.468a1.612 1.612 0 0 1-2.482 1.639 1.602 1.602 0 0 1-.679-1.028l-3.374-17.469a1.612 1.612 0 0 1 1.275-1.886z"/><path d="M242.593 476.872a2.9 2.9 0 0 1 4.023-.777 2.875 2.875 0 0 1 1.221 1.851 2.879 2.879 0 0 1-.443 2.173 2.876 2.876 0 0 1-1.851 1.22 2.883 2.883 0 0 1-2.173-.443 2.902 2.902 0 0 1-.777-4.024zm2.179 1.95a.394.394 0 1 0 .442-.653.394.394 0 0 0-.442.653zm-11.969 2.592a2.881 2.881 0 0 1 1.852-1.221 2.877 2.877 0 0 1 2.172.444 2.902 2.902 0 0 1 .777 4.024 2.903 2.903 0 0 1-4.023.777 2.878 2.878 0 0 1-1.221-1.851 2.882 2.882 0 0 1 .443-2.173zm2.18 1.95a.395.395 0 0 0 .442-.654.395.395 0 0 0-.442.654zm3.566-10.618a1.248 1.248 0 0 1 1.467.992l2.623 13.583a1.253 1.253 0 0 1-1.93 1.274 1.244 1.244 0 0 1-.527-.8l-2.624-13.583a1.253 1.253 0 0 1 .991-1.466z" filter="url(#f)"/><path d="M98.293 446.586a4.984 4.984 0 0 1-1.798-6.807 4.944 4.944 0 0 1 3.032-2.307 4.945 4.945 0 0 1 3.775.509 4.945 4.945 0 0 1 2.307 3.031 4.945 4.945 0 0 1-.509 3.776 4.984 4.984 0 0 1-6.807 1.798zm3.09-3.961a.68.68 0 0 0-.244-.927.679.679 0 0 0-.683 1.171.678.678 0 0 0 .927-.244zm5.829 20.216a4.948 4.948 0 0 1-2.307-3.032 4.943 4.943 0 0 1 .509-3.775 4.986 4.986 0 0 1 6.807-1.799 4.987 4.987 0 0 1 1.799 6.808 4.944 4.944 0 0 1-3.032 2.307 4.946 4.946 0 0 1-3.776-.509zm3.091-3.962a.679.679 0 0 0-1.172-.682.679.679 0 0 0 1.172.682zm-18.615-4.883a2.135 2.135 0 0 1 .22-1.631 2.136 2.136 0 0 1 1.31-.998l22.98-6.071a2.153 2.153 0 0 1 2.408 3.161c-.29.497-.755.851-1.31.998l-22.98 6.07a2.153 2.153 0 0 1-2.628-1.529zM115.453 5.804a6.546 6.546 0 0 1 7.598-5.271 6.492 6.492 0 0 1 4.207 2.709 6.49 6.49 0 0 1 1.064 4.889 6.494 6.494 0 0 1-2.708 4.207 6.5 6.5 0 0 1-4.89 1.064 6.548 6.548 0 0 1-5.271-7.598zm6.276 2.04a.892.892 0 0 0 1.035-.718.891.891 0 1 0-1.035.718zM99.383 24.101a6.496 6.496 0 0 1 2.709-4.207 6.495 6.495 0 0 1 4.889-1.064 6.547 6.547 0 0 1 5.271 7.598c-.562 3.112-3.254 5.314-6.301 5.375a6.554 6.554 0 0 1-1.297-.104 6.497 6.497 0 0 1-4.207-2.709 6.497 6.497 0 0 1-1.064-4.889zm6.276 2.04a.892.892 0 0 0 1.035-.718.89.89 0 1 0-1.035.717zM103.346.971c.62-.43 1.37-.593 2.112-.459.743.134 1.388.55 1.819 1.17l17.794 25.649a2.828 2.828 0 0 1-2.259 4.434 2.861 2.861 0 0 1-.565-.045 2.808 2.808 0 0 1-1.818-1.17L102.635 4.9a2.828 2.828 0 0 1 .711-3.929z"/></g><defs><filter id="a" x="0" y="77.017" width="31.521" height="34.061" filterUnits="userSpaceOnUse" color-interpolation-filters="sRGB"><feFlood flood-opacity="0" result="BackgroundImageFix"/><feBlend in="SourceGraphic" in2="BackgroundImageFix" result="shape"/><feGaussianBlur stdDeviation="2" result="effect1_foregroundBlur"/></filter><filter id="b" x="209.929" y="12.976" width="23.035" height="25.778" filterUnits="userSpaceOnUse" color-interpolation-filters="sRGB"><feFlood flood-opacity="0" result="BackgroundImageFix"/><feBlend in="SourceGraphic" in2="BackgroundImageFix" result="shape"/><feGaussianBlur stdDeviation="1" result="effect1_foregroundBlur"/></filter><filter id="c" x="209.459" y="337.863" width="34.498" height="34.258" filterUnits="userSpaceOnUse" color-interpolation-filters="sRGB"><feFlood flood-opacity="0" result="BackgroundImageFix"/><feBlend in="SourceGraphic" in2="BackgroundImageFix" result="shape"/><feGaussianBlur stdDeviation="2" result="effect1_foregroundBlur"/></filter><filter id="d" x="31.556" y="5.332" width="29.491" height="25.747" filterUnits="userSpaceOnUse" color-interpolation-filters="sRGB"><feFlood flood-opacity="0" result="BackgroundImageFix"/><feBlend in="SourceGraphic" in2="BackgroundImageFix" result="shape"/><feGaussianBlur stdDeviation="2" result="effect1_foregroundBlur"/></filter><filter id="e" x="157.165" y="190.414" width="33.671" height="30.704" filterUnits="userSpaceOnUse" color-interpolation-filters="sRGB"><feFlood flood-opacity="0" result="BackgroundImageFix"/><feBlend in="SourceGraphic" in2="BackgroundImageFix" result="shape"/><feGaussianBlur stdDeviation="2" result="effect1_foregroundBlur"/></filter><filter id="f" x="227.412" y="468.337" width="25.373" height="24.858" filterUnits="userSpaceOnUse" color-interpolation-filters="sRGB"><feFlood flood-opacity="0" result="BackgroundImageFix"/><feBlend in="SourceGraphic" in2="BackgroundImageFix" result="shape"/><feGaussianBlur stdDeviation="2" result="effect1_foregroundBlur"/></filter></defs></svg>