<svg width="96" height="96" viewBox="0 0 96 96" fill="none" xmlns="http://www.w3.org/2000/svg">
<circle cx="48" cy="48" r="47" fill="#6B6B6B" stroke="#F99422" stroke-width="2"/>
<path d="M47.5 23.8333C50.6384 23.8333 53.6482 25.08 55.8674 27.2992C58.0866 29.5183 59.3333 32.5282 59.3333 35.6666C59.3333 38.805 58.0866 41.8148 55.8674 44.034C53.6482 46.2532 50.6384 47.4999 47.5 47.4999C44.3616 47.4999 41.3517 46.2532 39.1325 44.034C36.9134 41.8148 35.6666 38.805 35.6666 35.6666C35.6666 32.5282 36.9134 29.5183 39.1325 27.2992C41.3517 25.08 44.3616 23.8333 47.5 23.8333ZM47.5 53.4166C60.5758 53.4166 71.1666 58.712 71.1666 65.2499V71.1666H23.8333V65.2499C23.8333 58.712 34.4241 53.4166 47.5 53.4166Z" fill="#F8F8F8"/>
</svg>
