<svg width="1223" height="900" viewBox="0 0 1223 900" fill="none" xmlns="http://www.w3.org/2000/svg"><g opacity=".03" clip-rule="evenodd" stroke="#1B1B1B" stroke-width="5"><path d="M880.05 1244.33c-20.427 9.82-32.96 55.22-40.346 75.58-14.612 40.26-27.075 80.83-39.969 121.28-12.893 40.46-25.703 80.96-41.173 121.05-10.041 26.03-21.075 56.25-39.642 79.49-39.569 49.54-58.179-38.39-65.878-59.79-19.599-54.45-37.804-118.93-78.526-159.33-24.309-24.11-52.967-24.7-87.193-.74-11.137 7.77-22.765 20.62-35.898 20.67-14.026.07-25.147-9.86-33.249-18.63-29.529-32.01-45.596-77.33-60.709-118.88-16.341-44.79-29.729-91.47-43.77-136.97-5.953-19.3-19.766-35.84-31.6-51.28-15.513-20.24-31.947-39.71-48.103-59.42-35.496-43.38-72.517-87.863-94.399-141.218-13.705-33.412-21.1-73.54-2.357-113.486 9.41-20.057 27.383-36.766 42.881-53.149 18.717-19.812 37.757-39.345 55.947-59.61 58.581-65.273 111.354-143.772 91.717-221.06-2.973-11.691-8.042-22.149-11.816-33.397-2.396-7.167-2.421-14.548 5.152-21.242 18.989-16.803 58.699-11.304 78.057-10.514 42.375 1.735 83.853 6.694 125.823 9.857 27.757 2.097 67.171 9.837 96.032-3.624 25.714-11.995 34.874-51.684 42.401-74.501 7.043-21.375 14.926-57.783 38.464-70.964 11.413-6.391 23.198-4.034 32.911-.338 16.994 6.492 30.712 16.762 49.167 21.095 30.275 7.1 68.844 6.712 101.167-11.597 22.398-12.689 33.819-31.677 43.6-53.572 4.113-9.203 6.823-16.372 16.522-21.372 15.398-7.949 33.543-10.274 49.353-12.6 56.574-8.331 113.524-9.019 167.954-5.535 27.19 1.74 54.63 4.544 79.68 12.095 16.44 4.929 36.54 12.562 41.68 29.567 5.99 19.678 4.46 44.237 4.41 66.16-.12 40.947-2.07 82.277-4.4 123.624-5.39 95.625-13.45 191.645-24.18 288.062-7.61 67.934-14.88 137.077-31.63 205.519-3.32 13.369-7.87 26.669-13.61 39.72-5.98 13.871-6.33 27.719-5.62 41.252 4.42 83.998 43.62 159.658 75.45 230.968 8.07 18.1 16.16 36.19 23.58 54.67 6.37 15.88 16.27 33.82 15.32 52.66-1.87 37.11-52.6 29.59-73.4 26.1-73.23-12.28-140.75-40.96-208.16-65.25-32.09-11.52-64.171-23.26-97.29-32.84-17.223-5-46.442-17.12-64.35-8.51z"/><path d="M872.078 1231.62c-17.803 22.92-27.067 52.68-36.533 78.23-13.629 36.76-25.802 73.79-38.69 110.68-12.187 34.89-24.585 69.94-40.044 104.24-9.428 20.91-20.445 46.76-38.772 63.26-39.721 35.79-57.118-46.71-64.225-65.74-17.655-47.32-35.082-102.19-72.04-136.14-23.079-21.21-50.691-21.29-82.328.64-10.946 7.58-19.694 16.02-32.648 16.78-14.991.88-27.123-7.75-36.493-16.48-29.356-27.38-46.236-68.21-61.384-105.82-15.649-38.85-30.824-79.87-40.265-120.18-3.78-16.12-14.806-31.5-23.771-44.97-13.802-20.72-28.538-40.71-42.781-61.08-28.957-41.4-57.77-84.296-74.579-133.699-12.136-35.667-17.469-76.339-2.892-117.759 14.787-41.983 47.975-73.285 78.293-107.096 52.424-58.423 114.966-133.397 107.363-207.203-1.15-11.194-5.213-20.543-7.844-31.019-1.357-5.385-2.404-11.751 2.524-17.156 12.795-14.031 45.819-7.995 59.179-7.032 36.917 2.656 72.958 8.245 109.525 12.038 29.036 3.016 61.999 8.668 92.848.495 37.436-9.918 48.869-67.001 68.929-94.711 34.787-48.043 75.207-7.637 103.587 8.26 32.583 18.258 83.071 22.099 111.575-21.743 10.898-16.768 15.443-33.18 32.304-46.379 26.371-20.642 60.584-30.812 90.514-38.499 45-11.536 91.08-17.823 135.02-17.475 31.47.259 81.18 1.874 87.78 35.751 4.47 22.795 3.33 48.671 2.82 73.179-.75 36.693-3.08 73.679-5.92 110.717-6.48 85.46-16.11 171.512-29.29 257.652-9 58.779-64.55 237.232-64.94 248.853-1.14 34.646 10.95 67.666 21.87 97.626 14.51 39.86 32.31 77.93 49.69 116.15 8.26 18.21 17.08 36.25 24.16 55.13 5.04 13.44 11.28 31.27 6.07 47.62-10.15 31.91-57.83 24.44-77.93 21.54-61.61-8.89-119.01-29.91-176.61-47.82-28.283-8.79-56.615-17.89-86.143-24.02-11.921-2.47-36.935-10.98-47.929 3.18z"/><path d="M855.809 1218.37c-32.825 55.08-50.571 117.98-74.257 176.25-11.893 29.25-24.242 58.87-40.467 86.94-8.435 14.59-19.147 32.91-34.282 42.15-40.488 24.73-56.542-49.45-64.636-70.09-15.66-39.9-32.205-85.51-65.01-112.85-20.05-16.7-44.953-17.77-71.871-.05-11.944 7.86-21.683 15.88-35.454 16.88-13.952 1-25.857-5.07-35.602-12.32-28.018-20.82-45.347-55.02-60.071-86.47-17.236-36.91-31.358-75.64-42.25-115.88-9.556-35.24-31.404-64.44-49.189-94.82-23.556-40.25-46.107-81.91-58.784-128.538-10.005-36.829-12.983-77.329-.761-118.703 12.469-42.065 39.722-76.762 70.155-110.834 46.006-51.506 108.393-118.101 111.606-184.581.473-9.672-1.536-17.519-3.604-26.278-1.006-4.253-2.551-9.628 1.59-13.947 9.972-10.394 37.756-2.744 47.054-1.345 29.682 4.467 58.664 10.829 88.141 15.856 27.519 4.693 56.42 10.316 86.067 7.255 47.213-4.886 57.159-65.854 98.117-83.776 25.429-11.123 50.106 2.095 67.841 13.423 21.816 13.956 41.216 39.769 72.469 37.075 23.279-2.006 31.644-20.229 44.569-37.348 21.897-29.008 57.933-47.429 89.506-60.525 42.664-17.702 87.954-29.077 131.144-32.292 19.57-1.46 40.32-1.711 57.66 4.204 16.26 5.539 22.86 14.965 24.96 31.706 6.43 51.256-1.27 109.77-7.34 164.743-7.62 69.073-18.07 138.594-32.5 208.076-9.83 47.38-20.64 96.186-39.95 142.852-5.03 12.163-10.66 24.847-18.82 35.875-6.13 8.316-11.76 13.29-13.67 23.296-5.62 29.653 7.68 60.838 16.69 85.456 14.38 39.36 32.23 76.86 49.5 114.56 10.09 22 32.88 61.64 16.06 91.05-14.52 25.38-53.56 21.68-73.7 19.88-50.92-4.57-98.74-18.85-146.974-30.27-22.106-5.23-44.513-10.93-67.895-12.81-5.963-.49-14.108-1.93-20.522.2-7.344 2.47-11.469 9.23-15.52 16z"/><path d="M865.097 1210.62c-28.608 50.07-48.401 103.42-73.838 154.67-11.405 22.98-23.552 46.49-39.599 67.5-8.629 11.3-19.867 24.28-33.492 28.79-39.107 12.92-53.58-47.49-63.001-70.19-13.961-33.76-29.542-72.75-59.298-94.31-19.491-14.13-41.43-12.46-65.561 3.4-25.883 17.01-48.36 17.22-69.83 3.58-26.903-17.11-44.658-46.43-59.372-74.17-17.696-33.43-31.868-69.07-42.342-106.48-10.185-36.39-27.463-68.11-42.678-101.84-20.166-44.707-37.883-92.327-40.36-144.847-2.155-45.728 9.237-93.382 35.79-137.68 27.707-46.256 69.328-82.439 102.564-125.111 20.731-26.615 47.836-62.87 49.314-94.867.493-10.672-8.961-25.192 9.311-25.554 10.449-.21 20.873 3.745 30.25 6.326 15.155 4.168 30.075 8.825 45.112 13.24 32.055 9.409 65.117 20.087 100.228 21.862 44.21 2.251 64.281-41.934 103.958-56.601 21.351-7.896 41.878-2.726 59.084 4.89 11.141 4.923 21.411 11.225 31.253 17.966 10.282 7.038 19.449 16.794 31.408 21.507 17.024 6.726 30.807-6.274 46.986-16.757 28.432-18.429 58.348-33.745 89.066-45.602 37.66-14.538 77.57-25.597 115.41-26.884 14.73-.506 30.7.134 42.67 6.678 11.97 6.543 14.74 17.889 15.84 31.393 3.28 40.041-3.74 84.907-10.37 127.531-8.31 53.351-19.38 107.053-34.33 160.418-10.33 36.837-22.13 74.485-40.53 109.95-5.35 10.317-11.33 20.554-18.61 29.996-5 6.48-12.26 12.137-15.25 19.507-9.33 23.041 4.84 53.636 11.46 72.297 13.22 37.242 32.45 70.932 45.9 108.012 7.35 20.23 19.84 51.45 4.96 75.96-13.99 23.05-46.81 23.83-67.08 23.68-39.85-.27-77.674-8.13-116.125-13.01-15.819-1.99-32.496-4.5-49.311-2.67-14.979 1.65-22.251 14.58-29.587 27.42z"/><path d="M863.756 1201.78c-25.991 41.39-46.614 86.2-73.097 128.04-15.512 24.5-41.403 66.29-73.19 68.19-34.923 2.11-49.205-41.7-59.475-66.06-12.224-29-27.15-62.78-54.46-79.58-8.635-5.31-18.883-8.46-30.479-6.34-12.41 2.26-21.365 10.51-32.682 16.41-23.741 12.39-46.978 8.6-65.447-2.27-26.11-15.36-44.192-41.51-59.081-67.24-16.837-29.17-30.307-60.56-40.217-93.72-9.492-31.69-19.776-62.61-30.291-93.84-13.774-40.833-24.608-83.733-24.661-129.678-.044-45.264 11.476-91.92 35.913-135.894 23.848-42.903 57.585-80.251 92.757-115.638 19.964-20.083 49.249-51.896 54.052-79.416 2.141-12.239-1.134-21.691 15.348-17.606 20.754 5.144 39.581 16.431 58.541 24.808 27.357 12.079 55.287 24.516 85.483 31.212 19.283 4.277 36.12 2.258 56.215-8.235 15.306-8.003 29.778-18.14 45.769-24.11 37.531-14.02 70.476.081 100.782 11.986 19.492 7.659 35.036 15.729 58.682 13.193 27.948-2.992 56.524-12.267 84.532-18.707 30.75-7.07 62.97-13.665 92.68-11.281 26.44 2.121 41.3 12.938 42.34 39.222 1.62 40.991-10.76 88.053-22.49 130.712-11.92 43.415-26.75 87.563-48.61 129.242-11.8 22.504-27.87 41.676-41.39 63.104-16.96 26.935 2.69 60.247 11.28 81.514 14.26 35.302 72.53 140.012-5.54 164.952-32.58 10.41-66.736 6.58-98.194 6.87-13.054.12-29.119-1.04-42.59 3.99-14.672 5.49-24.653 23.71-32.48 36.17z"/><path d="M862.788 1186.02c-24.643 33.91-46.44 70.82-74.363 103.14-18.078 20.95-43.393 45.12-70.216 41.97-30.27-3.56-46.735-35.35-57.716-59.25-11.31-24.61-23.633-54.56-49.477-66.78-8.23-3.88-18.242-5.55-28.504-1.86-9.846 3.53-18.519 10.92-28.518 14.6-22.451 8.27-44.056 4.86-61.776-4.36-52.423-27.28-81.636-91.11-99.376-145.69-8.876-27.32-14.866-56.93-21.411-85.562-8.494-37.154-14.202-75.696-11.988-116.039 4.697-85.772 49.437-163.061 113.226-232.532 20.078-21.865 42.838-42.118 56.479-67.899 7.048-13.298 14.582-14.712 26.117-10.038 18.027 7.311 33.726 19.223 49.933 29.147 23.051 14.116 46.488 28.584 72.011 38.622 17.594 6.918 33.514 10.195 54.683 3.413 15.094-4.833 29.692-12.332 44.626-18.028 28.371-10.815 58.266-15.831 85.538-12.502 21.624 2.667 42.247 8.279 62.238 14.71 26.019 8.346 51.517 13.742 80.046 15.905 37.77 2.893 105.01.213 102.33 50.654-2.97 55.636-33.58 121.036-67.09 171.776-11.24 17.038-26.3 33.795-32.7 52.597-9.549 28.137-2.64 48.783 4.87 73.262 11.25 36.654 44.32 112.314-16.18 142.104-23.971 11.8-49.597 13.21-74.124 19.72-27.481 7.26-41.873 25.78-58.658 48.92z"/><path d="M861.163 1169.52c-33.96 38.1-86.274 112.18-140.441 100.56-28.624-6.13-46.687-32.47-59.706-55.59-10.498-18.59-19.641-42.69-42.326-49.71-16.677-5.16-34.342 9.06-52.197 12.54-22.138 4.31-42.695-.2-59.958-9.55-48.244-26.14-77.174-80.63-95.155-131.14-18.669-52.453-25.471-116.804-19.36-177.437 7.628-75.604 43.94-146.81 98.041-210.273 9.988-11.712 20.454-23.016 30.658-34.553 6.844-7.746 12.85-17.261 20.362-24.374 12.529-11.854 25.891-11.276 38.029-5.929 17.472 7.685 32.102 20.378 46.869 31.592 20.204 15.329 40.312 31.261 62.406 43.95 14.862 8.52 30.745 17.282 50.828 13.303 13.699-2.711 27.346-8.418 40.449-14.791 28.095-13.67 51.284-23.178 80.703-23.563 48.311-.587 95.551 11.386 136.91 28.104 32.455 13.12 83.105 34.223 77.525 78.506-4.97 39.719-34.82 75.773-57.1 110.988-10.83 17.121-20.056 34.953-25.828 53.493-7.275 23.373-7.57 42.257-3.362 63.843 7.081 36.331 22.08 89.061-20.647 121.671-15.766 12.04-34.03 18.14-50.589 28.4-21.904 13.54-38.982 30.75-56.111 49.96z"/><path d="M856.393 1148.25c-39.359 34.34-88.742 78.34-137.413 63.82-23.578-7.03-40.867-24.48-55.291-42.47-10.334-12.88-19.489-36.78-39.627-38.11-14.815-.96-32.613 6.4-48.131 6.53-21.334.2-40.734-5.66-57.486-15.4-43.648-25.35-71.735-72.06-89.758-118.28-39.152-100.414-11.278-234.819 70.588-337.494 24.4-30.61 49.23-66.948 87.463-54.45 41.718 13.659 70.499 50.447 104.439 74.293 12.962 9.115 28.836 21.035 47.22 20.811 11.052-.131 23.303-5.61 34.032-10.483 27.332-12.394 52.386-21.982 80.741-24.165 43.816-3.384 87.357 3.753 125.346 17.243 33.124 11.767 73.894 31.63 65.904 75.423-6.16 33.593-31.36 65.031-47.409 96.494-17.882 35.023-25.97 71.66-24.615 107.021 1.339 34.387 6.17 70.507-22.753 102.737-9.921 11.05-23.188 23.98-35.4 32.17a552.86 552.86 0 0 0-57.85 44.31z"/><path d="M850.176 1125.35c-42.025 27.23-87.632 49.74-131.174 36.91-20.316-5.99-37.051-17.82-52.766-30.35-11.563-9.23-22.056-19.44-37.522-23.08-14.322-3.37-29.866-3.72-44.398-6.64-19.243-3.82-37.041-10.88-52.71-20.9-39.225-25.15-66.283-65.59-84.301-108.011-8.731-20.534-16.975-43.392-17.556-67.639-.567-23.414 2.262-48.179 7.029-72.225 10.112-51.107 32.268-101.774 66.027-146.929 23.157-30.966 47.96-53.556 83.682-44.734 40.266 9.948 70.339 41.285 101.445 64.105 21.335 15.651 43.212 34.162 75.269 23.723 25.509-8.303 49.581-16.645 75.366-18.987 38.069-3.341 74.77.922 107.924 12.536 30.23 10.664 58.649 28.83 55.579 66.132-2.459 29.563-19.001 59.467-28.423 88.759-10.539 32.663-12.332 63.891-11.766 95.608.481 28.512-3.323 57.392-21.723 84.732-3.758 5.59-7.889 11.55-12.445 16.65-5.813 6.51-12.637 9.47-20.07 13.74-19.625 11.25-38.445 24.28-57.467 36.6z"/><path d="M839.775 1102.14c-41.953 19.35-84.211 29.06-124.347 19.66-17.168-4.02-32.508-11.27-48.835-16.91-13.159-4.53-25.431-8.9-37.208-15.71-27.902-16.17-60.245-24.71-86.438-43.55-35-25.12-60.923-60.645-78.815-99.622-8.739-19.031-16.002-39.531-19.315-61.418-2.846-18.797.822-39.843 5.064-59.766 8.304-39.043 24.301-80.73 49.935-115.718 56.514-77.137 133.592-14.795 176.827 15.453 19.887 13.91 45.214 37.572 74.855 33.037 21.176-3.237 41.97-8.966 63.072-10.196 56.67-3.3 128.692 10.482 137.809 70.2 3.906 25.551-3.154 53.896-5.553 80.626-2.472 27.526-.53 53.796.95 80.478 1.386 24.936-.897 46.426-17.145 70.686-7.758 11.6-19.742 16.6-31.646 22.98-19.555 10.46-39.341 20.59-59.21 29.77z"/><path d="M828.517 1082.34c-65.939 21.08-145.105 20.47-196.759-11.25-60.762-37.32-116.171-82.704-147.634-146.873-14.587-29.75-27.642-63.731-20.986-101.526 5.058-28.76 14.95-64.079 36.439-88.813 52.558-60.505 122.845-15.051 163.454 10.578 21.862 13.798 45.083 33.556 72.468 38.763 15.879 3.025 34.602-.485 51.225.146 50.374 1.916 96.776 22.455 117.149 65.862 9.416 20.071 12.397 43.387 16.015 66.032 3.706 23.181 8.826 45.998 11.337 69.593 2.002 18.838 2.689 41.828-15.82 57.928-23.322 20.3-59.961 30.94-86.888 39.56z"/><path d="M812.116 1065.19c-63.472 15.17-129.95 14.94-179.682-14.97-26.372-15.86-48.126-38.5-69.375-60.054-24.084-24.436-45.338-51.828-61.112-82.63-19.644-38.35-46.445-102.848-.589-149.604 45.516-46.407 108.206-13.746 144.287 6.039 23.119 12.692 45.298 27.496 69.705 38.519 13.233 5.978 27.268 8.754 41.724 12.261 40.034 9.657 76.56 33.205 101.334 63.138 24.014 29.009 43.174 69.919 50.119 109.303 3.004 16.988.135 31.518-16.477 44.998-23.1 18.72-53.714 26.74-79.934 33z"/><path d="M789.78 1050.86c-56.334 11.87-112.724 6.46-156.642-19.68-49.232-29.3-86.836-79.304-113.362-129.094-14.095-26.468-47.518-82.454-10.976-116.764 36.543-34.309 89.956-10.852 119.685 3.131 36.041 16.992 71.86 36.757 105.825 57.362 29.526 17.895 60.091 37.437 85.529 59.935a260.172 260.172 0 0 1 38.621 42.371c8.33 11.515 19.851 25.715 21.018 41.39 2.932 39.539-62.762 55.679-89.698 61.349z"/><path d="M766.138 1031.15c-107.733 18.49-184.031-49.143-227.576-128.502-10.115-18.443-41.63-68.639-14.832-94.398 25.985-24.97 71.402-6.528 92.861 2.013 66.493 26.466 123.417 71.176 178.989 112.765 17.346 12.982 52.922 34.352 48.196 62.95-5.153 31.062-55.301 41.332-77.638 45.172z"/><path d="M738.526 1010.56c-80.536 9.8-144.422-42.816-178.482-102.939-8.339-14.727-31.454-51.21-14.854-73.275 15.355-20.416 50.947-6.086 64.897-1.027 31.063 11.259 59.151 28.758 86.367 46.298 25.177 16.212 50.877 32.48 73.715 51.278 12.024 9.903 36.61 27.509 29.164 48.814-8.007 22.931-42.924 28.681-60.807 30.851z"/><path d="M707.842 987.992c-53.441 3.678-99.866-32.514-123.803-72.541-6.434-10.774-21.537-33.489-11.907-49.747 8.869-14.969 30.652-8.021 40.63-5.084 44.223 13.012 88.89 41.633 120.323 72.375 7.903 7.73 22.912 21.244 16.256 36.234-6.838 15.383-29.228 17.921-41.499 18.763z"/><path d="M677.805 962.917c-26.946.553-53.334-18.965-66.078-39.472-8.966-14.435-11.478-35.719 13.468-31.296 24.76 4.404 51.425 21.753 66.47 40.055 11.476 13.964 9.285 30.234-13.86 30.713zM1484.85 346.47c43.59 30.359 83.72 69.021 123.37 104.617 57.95 52.02 115.22 105.534 164.86 165.531 26.62 32.169 63.24 72.838 64.54 120.291.48 17.35-7.97 37.387-12.04 55.075-5.61 24.39-10.56 48.792-15.55 73.173-10 48.899-19.74 97.815-31.34 146.713-5.58 23.55-14.23 47.93-17.95 71.45-2.18 13.74 4.48 25.8 8.45 37.5 9.19 27.1 19.12 53.83 28.82 80.68 11.86 32.84 23.84 65.7 33.46 99.65 4.33 15.31 18.64 51.05 6.7 66.28-6.43 8.2-23.73 4.28-31.73 2.46-14.71-3.33-28.65-8.58-42.44-13.74-31.89-11.93-63.05-25.89-97.02-33.83-17.47-4.07-39.09-10-56.29 6.23-17.37 16.39-30.54 36.75-47.72 53.51-19.77 19.3-41.99 33.96-64.51 49.33-16.64 11.36-30.05 25.79-44.22 40.11-15.67 15.82-31.41 31.97-48.73 46.01-11.44 9.28-32.22 25.35-43.69 17.34-16.32-11.38-16.78-47.02-19.28-67.63-3.46-28.49-5.61-57.37-8.61-85.99-2.16-20.78-4-41.8-9.48-61.37-8.83-31.56-20.76-61.76-32.46-91.86-21.67-55.73-44.67-110.36-62.31-168.22-15.45-50.7 13.86-198.712 16.94-231.569 6.17-65.585 10.71-132.06 25.32-198.29 3.97-17.92 8.36-44.693 23.06-60.108 9.05-9.504 15.73-10.278 19.18-24.2 4.72-18.993 2.61-39.457 1.78-57.608-1.35-29.232-3.76-58.186-5.76-87.241-4.09-58.752-6.48-117.894-9.42-176.933-.9-17.848-5.9-37.577-3.54-56.116 1.51-11.943 7.48-13.611 16.62-9.261 16.05 7.627 28.39 23.134 40.03 35.621 17.04 18.296 33.12 37.482 49.07 56.74 15.95 19.257 31.67 38.765 47.65 58.025 10.53 12.732 20.64 28.153 34.24 37.63z"/><path d="M1490.9 386.681c44.46 32.917 84.38 73.928 123.15 113.331 49.63 50.42 97.83 103.195 137.3 162.406 23.16 34.77 49.67 76.188 49.53 123.011-.05 16.705-6.82 32.383-11.93 49.103-5.82 19.065-10.63 38.273-15.3 57.413-9.6 39.397-18.45 78.81-26.57 118.235-4.33 20.91-11.34 44.97-8.91 65.11 1.92 16.01 10.78 31.04 16.4 45.37 10.11 25.82 20.28 51.6 30.15 77.55 11.39 29.94 22.66 60.04 31.77 91.13 5.09 17.33 17.02 45.55 8.39 63.61-7.54 15.76-58.35-4.47-67.84-7.77-29.62-10.3-58.47-22.22-89.25-30.29-18.15-4.78-40.24-10.61-61.08-6.37-17.76 3.62-34.06 20.64-47.84 32.65-17.25 15.04-35.56 29.26-52.12 45.08-14.75 14.09-26.57 30.98-39.06 46.82-13.74 17.42-27.71 35.09-43.71 50.78-9.85 9.63-26.38 25.68-39.65 22.12-15.31-4.12-16.64-38.58-18.73-52.01-4.19-27.28-6.58-55.18-9.53-82.84-4.91-45.95-10.21-89.45-24.97-131.6-19.22-54.89-41.37-108.33-61.25-162.89-7.35-20.15-15.88-40.11-21.03-61.32-2.95-12.16-1.68-23.084 5.27-34.269 9.48-15.269 9.71-40.185 12.2-58.62 3.88-28.74 6.9-57.411 10.07-86.079 6.97-62.938 12.81-126.486 27.31-189.916 4.58-20.066 9.55-42.911 21.47-61.801 6.65-10.538 15.44-12.849 23.39-21.13 10.46-10.928 10.66-30.648 11.48-42.764 1.58-23.387.4-46.393-1.05-69.088-3.28-51.35-10.3-101.054-19.39-150.509-2.14-11.585-11.14-56.931 16.1-43.799 30.1 14.508 52.17 45.611 73.84 69.223 19.5 21.282 38.22 42.962 61.39 60.123z"/><path d="M1506.44 455.046c40.01 31.814 74.75 71.601 108.22 110.428 40.61 47.117 79.18 96.868 109.18 152.259 18.84 34.8 37.2 74.306 36.84 117.921-.25 29.783-16.17 60.284-24.39 90.238-8.21 29.954-15.22 60.389-19.64 90.408-2.75 18.63-5.2 38.43.91 54.82 14.85 39.83 32.94 78.08 48.17 117.78 10.1 26.26 19.88 52.73 27.73 80.15 4.74 16.53 12.71 38.55 7.56 57.61-5.69 21.08-122.14-21.53-134.78-24.78-31.68-8.15-73.02-16.62-108.1 4.5-33.54 20.2-54.48 48.72-76.05 79.97-12.28 17.76-43.38 70.77-67.26 67.92-13.65-1.63-16.78-26.84-19.38-38.29-5.11-22.57-8.42-45.85-12.17-68.94-5.48-33.65-8.96-69.25-16.77-101.95-5.45-22.77-14-44.22-20.8-66.39-9.75-31.79-19.19-63.73-28.57-95.69-7.88-26.84-16.36-53.65-21.64-81.62-3.3-17.376-3.2-31.8 4.29-48.937 6.5-14.909 7.4-33.174 9.53-49.251 3.51-26.551 6.18-53.036 9.03-79.522 5.98-55.454 11.37-111.236 22.94-167.09 5.27-25.494 10.94-66.837 37.14-84.661 9.45-6.428 13.37-9.721 16.36-21.185 4.24-16.271 3.32-32.911 2.21-48.382-2.59-36.067-13.91-69.069-16.57-105.041-1.04-14.667.15-35.027 19.55-26.923 22.69 9.437 40.03 30.611 57.17 46.679 8.55 8.023 16.86 16.526 26.42 23.459 7.37 5.315 15.81 8.852 22.87 14.51z"/><path d="M1524.93 543.537c34.03 30.807 63.26 67.928 90.71 104.979 30.46 41.164 58.6 84.774 79.49 132.572 14.44 32.999 26.88 69.554 25.5 108.884-.88 24.873-12.02 46.735-19.45 71.306-11.25 37.098-17.71 74.532-3.74 106.062 15.65 35.36 30.28 71.34 43.89 107.95 8.2 22.08 16.12 44.41 22.15 67.55 3.82 14.63 8.52 33.58 5.12 49.5-4.57 21.31-97.3-6.61-110.41-9.35-32.51-6.8-64.75-7.8-100.24-.5-28.95 5.97-45.85 29.85-61.6 53.68-9.78 14.81-32.43 58.42-51.39 57.12-10.45-.69-14.94-17.16-18.06-25.67-5.94-16.22-10.14-33.35-14.81-50.17-6.89-24.85-19.05-49.01-23.11-74.96-9-57.51-18.97-114.4-30.42-171.13-6.32-31.26-12.95-62.59-16.57-94.834-1.3-11.575-2.59-23.555-1.26-35.738.86-7.835 4.6-13.663 6.89-21.019 10.88-35.061 10.18-73.758 13.28-108.907 4.13-46.727 7.94-93.543 15.3-140.61 3.87-24.757 6.81-58.162 22.97-81.599 4.88-7.081 10.34-7.641 15.46-13.065 5.9-6.249 5.15-16.369 5.24-23.181.23-15.466-10.37-74.723 22.86-60.859 15.84 6.625 28.38 18.687 42.11 28.11 4.97 3.41 9.93 6.686 15.84 8.69 9.92 3.342 16.47 8.163 24.25 15.189z"/></g></svg>