<svg width="20" height="17" viewBox="0 0 20 17" fill="none" xmlns="http://www.w3.org/2000/svg"><path d="M19.76 1.907a8.069 8.069 0 0 1-2.327.641 4.085 4.085 0 0 0 1.782-2.25 8.152 8.152 0 0 1-2.576.988A4.034 4.034 0 0 0 13.681 0a4.062 4.062 0 0 0-4.054 4.07c0 .318.035.63.105.927A11.493 11.493 0 0 1 1.377.744c-.35.6-.548 1.3-.548 2.046 0 1.412.716 2.659 1.802 3.388a4.041 4.041 0 0 1-1.836-.511v.05A4.07 4.07 0 0 0 4.047 9.71a4.09 4.09 0 0 1-1.069.143c-.261 0-.515-.026-.763-.076a4.058 4.058 0 0 0 3.786 2.828 8.111 8.111 0 0 1-5.034 1.74c-.327 0-.65-.02-.967-.056a11.424 11.424 0 0 0 6.214 1.831c7.457 0 11.533-6.203 11.533-11.582l-.014-.527a8.113 8.113 0 0 0 2.028-2.103z" fill="#F8F8F8"/></svg>