<svg width="39" height="30" viewBox="0 0 39 30" fill="none" xmlns="http://www.w3.org/2000/svg"><path opacity=".8" d="M31.83 13.346s.514 2.491.63 3.013h-2.262c.223-.596 1.083-2.913 1.083-2.913-.013.02.224-.609.36-.997l.189.897zM39 3.214v23.572C39 28.56 37.544 30 35.75 30H3.25C1.456 30 0 28.56 0 26.786V3.214C0 1.44 1.456 0 3.25 0h32.5C37.544 0 39 1.44 39 3.214zM10.325 20.036l4.28-10.393h-2.878l-2.66 7.098-.292-1.44-.948-4.78c-.156-.664-.636-.851-1.232-.878h-4.38l-.048.207a10.81 10.81 0 0 1 2.857 1.146l2.424 9.04h2.877zm6.392.013l1.706-10.406h-2.721l-1.7 10.406h2.715zm9.473-3.402c.013-1.185-.718-2.089-2.282-2.832-.955-.476-1.537-.797-1.537-1.286.013-.442.494-.897 1.564-.897a4.71 4.71 0 0 1 2.024.395l.244.114.373-2.25a6.827 6.827 0 0 0-2.438-.442c-2.688 0-4.577 1.42-4.59 3.442-.02 1.493 1.354 2.323 2.383 2.825 1.05.51 1.408.844 1.408 1.293-.013.696-.853 1.018-1.632 1.018-1.083 0-1.665-.168-2.552-.556l-.36-.167-.378 2.337c.636.288 1.814.542 3.033.555 2.857.007 4.72-1.392 4.74-3.549zm9.56 3.402L33.556 9.643h-2.105c-.65 0-1.145.187-1.422.864l-4.043 9.542h2.858s.467-1.286.569-1.56h3.493c.081.368.325 1.56.325 1.56h2.519z" fill="#1B1B1B"/></svg>