<svg width="37" height="27" viewBox="0 0 37 27" fill="none" xmlns="http://www.w3.org/2000/svg"><path d="M30.277 12.22s.479 2.161.586 2.615H28.76l1.007-2.528c-.012.018.208-.529.334-.866l.176.779zm6.668-8.79v20.45c0 1.54-1.354 2.79-3.023 2.79H3.703c-1.67 0-3.023-1.25-3.023-2.79V3.43C.68 1.89 2.033.64 3.701.64h30.221c1.669 0 3.023 1.25 3.023 2.79zM10.28 18.024l3.979-9.018h-2.676l-2.473 6.16-.271-1.25-.882-4.148c-.144-.575-.591-.738-1.145-.761H2.738l-.044.18c.995.232 1.882.57 2.657.994l2.254 7.844h2.676zm5.943.011l1.587-9.03h-2.53l-1.58 9.03h2.524zm8.808-2.952c.013-1.028-.667-1.812-2.121-2.457-.888-.413-1.43-.692-1.43-1.116.013-.383.46-.778 1.455-.778a4.65 4.65 0 0 1 1.882.342l.227.1.346-1.953a6.751 6.751 0 0 0-2.266-.384c-2.5 0-4.256 1.232-4.269 2.987-.019 1.296 1.26 2.016 2.216 2.452.976.441 1.31.732 1.31 1.121-.013.605-.794.883-1.518.883-1.007 0-1.548-.145-2.373-.482l-.334-.145-.352 2.028c.591.25 1.687.47 2.82.482 2.657.006 4.389-1.209 4.407-3.08zm8.89 2.952l-2.04-9.03h-1.958c-.604 0-1.064.164-1.322.75l-3.758 8.28H27.5s.435-1.116.53-1.354h3.248c.076.32.302 1.354.302 1.354h2.343z" fill="#F99422"/></svg>