<svg width="32" height="31" viewBox="0 0 32 31" fill="none" xmlns="http://www.w3.org/2000/svg"><g clip-path="url(#a)"><path opacity=".8" d="M15.856.318c2.4 0 4.683.557 6.732 1.553.322.146.645.322.965.498l-1.405 1.26-2.106-2.198-3.63 3.223-2.137-2.315-6.674 6.007 4.273 4.718-1.668 1.464 4.216 4.718-1.669 1.464 6.03 6.71 3.57-3.282 3.104 3.517c-.615.469-1.288.939-2.02 1.348a15.286 15.286 0 0 1-7.552 1.991C7.425 30.994.547 24.11.547 15.643.517 7.233 7.397.318 15.856.318zm-2.811 14.386l3.66-3.281 3.278 3.662-3.66 3.282-3.278-3.663zm2.606 6.33l3.63-3.311 3.307 3.662-3.659 3.282-3.278-3.633zm-5.21-12.57L14.1 5.182l3.279 3.662-3.66 3.282-3.277-3.662zm6.702-1.759l2.723-2.461 2.46 2.725-2.723 2.49-2.46-2.754zm4.86 11.28l2.722-2.46 2.459 2.753-2.723 2.463-2.458-2.755zm2.4 5.54l2.723-2.462 2.457 2.724-2.722 2.49-2.458-2.753zm1.112-12.66l1.815-1.64 1.639 1.817-1.815 1.64-1.639-1.816zm-2.341-5.42l1.814-1.67 1.64 1.846-1.816 1.64-1.638-1.816zm4.654 10.842l1.814-1.64 1.669 1.816-1.844 1.64-1.64-1.816zm-8.167-4.073l2.723-2.461 2.458 2.724-2.722 2.462-2.459-2.725z" fill="#1B1B1B"/></g><defs><clipPath id="a"><path fill="#fff" d="M0 0h32v31H0z"/></clipPath></defs></svg>