<svg width="20" height="14" viewBox="0 0 20 14" fill="none" xmlns="http://www.w3.org/2000/svg"><path fill-rule="evenodd" clip-rule="evenodd" d="M14.448 0c2.516 0 3.833.348 4.546 1.202.717.857.77 2.17.77 4.076v3.444c0 2.184-.341 3.445-1.143 4.217-.782.754-1.991 1.061-4.173 1.061H5.316C.822 14 0 12.223 0 8.722V5.278c0-1.807 0-3.112.693-3.999C1.403.371 2.743 0 5.316 0h9.132zM8.542 9.657l4.147-2.181a.642.642 0 0 0-.002-1.139L8.541 4.17a.634.634 0 0 0-.625.021.643.643 0 0 0-.307.548v4.349a.643.643 0 0 0 .638.642.634.634 0 0 0 .295-.073z" fill="#F8F8F8"/></svg>